<?xml version="1.0" encoding="utf-8"?>
<!-- Generator: Adobe Illustrator 22.0.1, SVG Export Plug-In . SVG Version: 6.00 Build 0)  -->
<svg version="1.1" id="Livello_1" xmlns="http://www.w3.org/2000/svg" xmlns:xlink="http://www.w3.org/1999/xlink" x="0px" y="0px"
	 viewBox="0 0 1920 1080" style="enable-background:new 0 0 1920 1080;" xml:space="preserve">
<style type="text/css">
	.st0{fill:#FFFFFF;}
</style>
<g>
	<g>
		<path class="st0" d="M172.9,859c0-242.4,0-484.8,0-727.2c562.6,0,1125.2,0,1687.8,0c0,242.4,0,484.8,0,727.2
			C1298.1,859,735.5,859,172.9,859z M940.5,697.9c-1-0.3-1.9-0.7-2.9-1c-1.8,4.1-3.6,8.2-5.5,12.3c-2.6,5.7-11,9.9-15.2,6.9
			c-5-3.5-10-7.3-13.8-12c-14.8-18.4-22.1-40.2-26.8-62.9c-4.1-19.7-7.2-39.7-12-59.2c-4.3-17.4-19.7-25.4-35.7-14.3
			c-23.7,16.2-50.6,24.3-79,25.4c-22.7,0.9-42.5-9.1-58.6-24.8c-10-9.8-18.9-20.8-27.5-31.8c-8.3-10.7-15.5-22.3-23.5-34.1
			c2.8-0.9,4-1.2,5-1.7c12.1-5.8,25.8-9.5,35.8-17.8c21.6-17.8,28.9-43.3,29.8-70.4c1.3-43.6-11.8-82.7-39.4-116.6
			c-11.7-14.4-25.9-25.7-44.2-30.4c-30.6-7.9-57.5,1-80.9,20.6c-33.5,28.2-55.4,64.6-72.3,104.4c-0.6,1.3-2,2.3-3.6,4.2
			c-13.6-60.2-26.9-119.2-40.2-178.2c-0.9,0-1.9,0.1-2.8,0.1c-0.3,3.5-1.3,7.1-0.7,10.5c8.3,53.9,16.8,107.8,25.1,161.7
			c4.7,30.8,8.3,61.2,0.7,92.6c-5.4,22.6-6.5,46.4-7.5,69.7c-1.1,27.5-0.5,55.2,0.2,82.7c0.8,35.9,1.6,71.8,3.9,107.6
			c0.9,14.6,4.9,29.2,8.7,43.5c2.8,10.4,12.1,16.9,20,16.1c7.9-0.8,15.6-9.9,17.2-20.2c0.1-0.6,0.2-1.2,0.2-1.8
			c1.3-45.6,4.6-91.4,3.3-136.9c-1.2-43.8-6.8-87.5-10.9-131.2c-2.4-25.1,4-48.8,9-72.9c10.1-48.1,33.3-88.5,69.1-122
			c21-19.6,56.7-23.4,78,1.5c24.4,28.6,36.8,61.5,33.4,98.9c-3.1,33.3-21.1,55-61.1,43.9c-2.3-0.6-4.9-0.6-6.8-1.8
			c-7.8-4.6-15.2-3.5-21.1,2.6c-6.7,6.9-6.9,17.1-1.1,25.3c5.3,7.5,11.3,14.5,16.4,22c17.2,25.5,32.9,52.1,51.5,76.5
			c21.6,28.3,51.3,45.8,87.1,47.9c28.5,1.6,56.3-5,81.6-19.4c3.6-2,6.8-4.6,11.8-8.1c0.9,6.4,1.3,10.5,2.1,14.4
			c4.7,22.2,8.1,44.9,14.7,66.5c7.7,25.1,21.3,47.4,43.4,62.9c14.6,10.2,31.5,8.9,41.2-6.8C945.9,727.8,940.6,712.9,940.5,697.9z
			 M1265.3,609.7c-3,0.2-5.3,0.6-7.6,0.4c-9.2-0.8-17.3,0.2-23.8,8.4c-4.9,6-11.2,11.2-17.8,15.4c-19.7,12.5-40.8,13.2-56.3-7.3
			c-15.6-20.7-12.1-58.6,7.1-79c7-7.4,12.5-6.7,21.1-0.7c2.1,1.5,5,1.9,8.4,3.2c-3.6-11.8-15.5-18.5-24.2-14
			c-5.7,2.9-11.6,6.7-15.4,11.6c-17.1,21.9-24.6,47-17.2,74.1c8.9,32.5,33.9,47.2,67.3,37.3c13.4-3.9,23.5-13.1,32-23.7
			c5.7-7.1,11.1-10.7,20-5.9c6.6,3.5,15.5,4.7,19.9,9.8c16.4,19.2,35.9,33.6,59.6,41.9c8.9,3.1,18.1,5.4,27.1,8.2
			c30.5,9.3,61.4,12.3,93.1,8.4c28.2-3.5,55.4-8,80.8-22.6c26.3-15.1,45.2-35.8,58.3-62.2c6.5-13.1,10.1-27.5,3.9-42.1
			c-3.4-7.9-11.9-8.9-16.7-1.8c-5.1,7.5-9.6,15.6-13.6,23.7c-15.1,30.4-38.5,52-70.2,63.3c-31.5,11.3-64.4,12.9-97.4,8.2
			c-16.6-2.4-33-6.5-49.5-10c-16.4-3.5-29.9-12.6-43.9-22.6c2.6-2.2,4.2-4.1,6.2-5.1c13.7-6.5,20.5-18,23.1-32.3
			c1.8-9.8,0.1-19.1-7.1-26.4c-19.1-19.5-42.9-9.8-56.5,4.9C1267,583,1265.3,595.6,1265.3,609.7z M1060.1,642.7
			c0,15.5-0.6,30.3,0.2,45c0.5,9.3,2.4,18.7,5.2,27.5c2.3,7.2,11.5,9.7,18.6,6.5c8.7-3.8,12.3-11.7,11.3-22.7
			c-0.9-10.3-1-20.7-2-31.1c-1.8-19.2-3.5-38.4-6.2-57.4c-1.2-8.4-7.1-13.8-15.6-16.3c-3.1-0.9-7-3-8.1-5.6
			c-7.3-16.9-21.7-20-37.7-14.7c-18.5,6.1-30.5,20-39.9,36.4c-6.5,11.4-8.7,23.7-6.7,36.9c3.9,25.3,25.6,30.3,44.4,18.8
			C1035.8,658.7,1047.4,650.9,1060.1,642.7z M915.2,377.8c1.6-0.5,3.3-1,4.9-1.4c-4-15.5-7.8-31.1-12.2-46.5
			c-0.7-2.6-4.3-4.3-6.5-6.5c-0.9,2.9-3.1,6.2-2.4,8.5C904.1,347.4,909.8,362.6,915.2,377.8z"/>
		<path d="M940.5,697.9c0.1,14.9,5.3,29.8-3.8,44.6c-9.7,15.7-26.7,17-41.2,6.8c-22.1-15.6-35.7-37.8-43.4-62.9
			c-6.6-21.6-10-44.3-14.7-66.5c-0.8-4-1.2-8-2.1-14.4c-5,3.4-8.3,6-11.8,8.1c-25.3,14.5-53.1,21.1-81.6,19.4
			c-35.8-2-65.5-19.6-87.1-47.9c-18.6-24.4-34.3-51-51.5-76.5c-5.1-7.6-11.1-14.6-16.4-22c-5.8-8.2-5.7-18.4,1.1-25.3
			c5.9-6.1,13.3-7.2,21.1-2.6c1.9,1.1,4.6,1.1,6.8,1.8c40.1,11.1,58.1-10.6,61.1-43.9c3.4-37.4-9-70.2-33.4-98.9
			c-21.3-25-57.1-21.1-78-1.5c-35.8,33.5-59.1,73.9-69.1,122c-5,24-11.4,47.8-9,72.9c4.2,43.7,9.7,87.4,10.9,131.2
			c1.2,45.6-2,91.3-3.3,136.9c0,0.6-0.1,1.2-0.2,1.8c-1.5,10.3-9.3,19.4-17.2,20.2c-7.8,0.8-17.2-5.7-20-16.1
			c-3.8-14.3-7.8-28.9-8.7-43.5c-2.2-35.8-3.1-71.7-3.9-107.6c-0.6-27.6-1.3-55.2-0.2-82.7c1-23.3,2.1-47.2,7.5-69.7
			c7.6-31.4,4-61.8-0.7-92.6c-8.3-53.9-16.8-107.8-25.1-161.7c-0.5-3.4,0.5-7,0.7-10.5c0.9,0,1.9-0.1,2.8-0.1
			c13.3,59,26.7,118,40.2,178.2c1.6-1.9,3-2.8,3.6-4.2c16.9-39.8,38.8-76.3,72.3-104.4c23.4-19.7,50.3-28.5,80.9-20.6
			c18.2,4.7,32.5,16.1,44.2,30.4c27.6,33.9,40.7,73,39.4,116.6c-0.8,27.1-8.2,52.6-29.8,70.4c-10,8.3-23.8,12-35.8,17.8
			c-1,0.5-2.2,0.7-5,1.7c8.1,11.8,15.2,23.4,23.5,34.1c8.5,11.1,17.5,22.1,27.5,31.8c16.1,15.7,35.8,25.7,58.6,24.8
			c28.4-1.1,55.3-9.2,79-25.4c16.1-11,31.5-3.1,35.7,14.3c4.8,19.5,7.9,39.5,12,59.2c4.7,22.8,12,44.5,26.8,62.9
			c3.8,4.7,8.8,8.5,13.8,12c4.3,3,12.6-1.1,15.2-6.9c1.8-4.1,3.7-8.2,5.5-12.3C938.6,697.3,939.6,697.6,940.5,697.9z"/>
		<path d="M1265.3,609.7c0-14.1,1.6-26.7,10.9-36.8c13.6-14.8,37.4-24.5,56.5-4.9c7.2,7.3,8.9,16.6,7.1,26.4
			c-2.6,14.3-9.4,25.8-23.1,32.3c-2,1-3.6,2.9-6.2,5.1c13.9,10,27.4,19.1,43.9,22.6c16.5,3.5,32.8,7.6,49.5,10
			c33,4.7,65.9,3.1,97.4-8.2c31.7-11.4,55.1-32.9,70.2-63.3c4.1-8.2,8.5-16.2,13.6-23.7c4.8-7.1,13.3-6.1,16.7,1.8
			c6.2,14.6,2.6,28.9-3.9,42.1c-13.1,26.4-32,47.1-58.3,62.2c-25.5,14.6-52.7,19.1-80.8,22.6c-31.8,3.9-62.7,0.9-93.1-8.4
			c-9-2.8-18.2-5-27.1-8.2c-23.8-8.3-43.2-22.7-59.6-41.9c-4.4-5.2-13.3-6.3-19.9-9.8c-8.9-4.8-14.3-1.2-20,5.9
			c-8.5,10.6-18.6,19.8-32,23.7c-33.5,9.9-58.4-4.8-67.3-37.3c-7.4-27.1,0-52.2,17.2-74.1c3.9-4.9,9.8-8.7,15.4-11.6
			c8.7-4.5,20.6,2.2,24.2,14c-3.4-1.3-6.3-1.7-8.4-3.2c-8.7-6-14.2-6.6-21.1,0.7c-19.2,20.3-22.7,58.3-7.1,79
			c15.5,20.6,36.6,19.8,56.3,7.3c6.6-4.2,13-9.4,17.8-15.4c6.6-8.1,14.6-9.2,23.8-8.4C1260,610.3,1262.3,609.9,1265.3,609.7z
			 M1292.5,608.4c12-4.2,17.6-8.4,20.9-15.3c2.6-5.3,1.3-7.9-4.9-8.9C1295.8,582.2,1284.6,597.7,1292.5,608.4z"/>
		<path d="M1060.1,642.7c-12.8,8.2-24.4,16-36.3,23.3c-18.9,11.6-40.5,6.5-44.4-18.8c-2-13.2,0.1-25.4,6.7-36.9
			c9.4-16.4,21.4-30.3,39.9-36.4c16-5.3,30.4-2.2,37.7,14.7c1.1,2.6,5,4.7,8.1,5.6c8.5,2.5,14.4,7.9,15.6,16.3
			c2.7,19.1,4.4,38.2,6.2,57.4c1,10.3,1.1,20.7,2,31.1c1,11.1-2.7,18.9-11.3,22.7c-7.1,3.1-16.3,0.7-18.6-6.5
			c-2.9-8.8-4.7-18.2-5.2-27.5C1059.5,673,1060.1,658.2,1060.1,642.7z M1003.3,638c1.6,1,3.1,2,4.7,3c14.6-11.7,29.2-23.3,43.8-35
			c8.8-7,8.6-14.2-1.3-18.5c-4.1-1.8-10.2-1.3-14.5,0.4c-13.3,5.2-22.2,15.6-27.5,28.5C1005.5,623.1,1004.9,630.8,1003.3,638z"/>
		<path d="M915.2,377.8c-5.5-15.3-11.1-30.5-16.2-45.9c-0.8-2.3,1.5-5.6,2.4-8.5c2.2,2.1,5.8,3.9,6.5,6.5c4.4,15.4,8.2,31,12.2,46.5
			C918.5,376.9,916.9,377.4,915.2,377.8z"/>
		<path class="st0" d="M1292.5,608.4c-7.9-10.8,3.3-26.3,16-24.2c6.2,1,7.5,3.6,4.9,8.9C1310.1,600.1,1304.5,604.2,1292.5,608.4z"/>
		<path class="st0" d="M1003.3,638c1.6-7.2,2.3-14.9,5.1-21.6c5.3-12.9,14.2-23.3,27.5-28.5c4.3-1.7,10.5-2.2,14.5-0.4
			c10,4.3,10.1,11.5,1.3,18.5c-14.6,11.7-29.2,23.3-43.8,35C1006.4,640,1004.8,639,1003.3,638z"/>
	</g>
</g>
</svg>
