<?xml version="1.0" encoding="utf-8"?>
<!-- Generator: Adobe Illustrator 22.0.1, SVG Export Plug-In . SVG Version: 6.00 Build 0)  -->
<svg version="1.1" id="Livello_1" xmlns="http://www.w3.org/2000/svg" xmlns:xlink="http://www.w3.org/1999/xlink" x="0px" y="0px"
	 viewBox="0 0 1920 1080" style="enable-background:new 0 0 1920 1080;" xml:space="preserve">
<style type="text/css">
	.st0{fill:#FFFFFF;}
</style>
<g>
	<g>
		<path d="M2,1079.1c-17.2,0-34.4,0-51.7,0c-0.5-3.9-0.5-7.9-1.5-11.6c-1-3.7-1.6-7.4-1.6-11.2c0-349.3,0-698.6,0-1047.8
			c0-1,0-2,0-3c0.1-1,0.2-1.9,0.3-3c6.9,0,13.5,0,20.2,0c1.3,3.1,2.5,5.9,3.7,8.9c4.5-1.6,8.9-2.5,12.1-6c2-2.2,4.8-3.1,7.9-3.1
			c2.8,0,5.6,0,8.4,0c698.8,0,1397.6,0,2096.4,0c1.5,0,3,0.1,4.5,0.1c0,358.9,0,717.9,0,1076.8c-695.1,0-1390.2,0-2085.2,0
			c-2.1-2.6-4.2-5.4-6.4-7.9c-2.2-2.5-4.2-5.4-7.3-7.4C2,1069.1,2,1074.1,2,1079.1z M1858.9,1025.9c0.1,0.1,0.2,0.2,0.3,0.3
			c0.3-0.1,0.7-0.2,0.9-0.4c23-18.9,46-37.7,68.9-56.6c0.1-0.1,0.1-0.2,0.1-0.3c0-0.1-0.1-0.2-0.2-0.6c-2.5-0.2-5.1-0.3-7.7-0.7
			c-2.4-0.3-4,0.5-5.7,2.2c-18,17.8-36,35.6-54,53.3C1860.7,1024,1859.8,1025,1858.9,1025.9z M1596.5,877.4
			c-0.6-0.3-0.9-0.5-1.1-0.4c-5.5,1.1-10.9,2.1-16.4,3.3c-0.9,0.2-1.7,1.3-2.3,2.3c-1.7,2.9-3.2,6-5,9c-1.1,1.9-1.8,3.9-1.2,6.5
			c3.8,0.4,7.7,1,11.5,1.3c0.9,0.1,2-0.9,2.7-1.7c1.8-1.9,3.4-4.1,5.3-6C1594.2,887.6,1594.7,882.2,1596.5,877.4z M408.8,138.5
			c-1.7,0.4-2.8,0.6-3.8,1c-4.7,1.5-9.4,3-14,4.5c-3.4,1.1-6.6,1.6-9.6-1c-0.5-0.4-1.4-0.2-2.5-0.3c1.1,3.3,2.1,6.1,3.2,9.4
			c8.9-2,17.9-4.1,27.1-6.2C409,143.3,408.9,141.2,408.8,138.5z M2024.3,316.5c-3.7,1.3-6.5,2.8-9.3,3.9c-1.9,0.7-3.1,2-3.6,4
			c-1.4,5-2.9,10-4.3,14.9c-0.2,0.8-0.2,1.6-0.2,2.4c5.3,0.9,5.3,0.9,7.4-3.5c2.8-5.8,5.5-11.6,8.3-17.5
			C2023,319.6,2023.4,318.5,2024.3,316.5z M-34.9,649.7c0.4,0,0.8-0.1,1.2-0.1c-0.2-1.4-0.4-2.9-0.6-4.3c-1.1-7,0.6-12.9,6.9-16.7
			c1.5-0.9,2.1-2,2-3.7c-0.2-4.4-0.3-8.9-0.5-13.3c0-0.5-0.3-1.1-0.8-2.6c-1.6,2.8-2.8,4.8-3.9,6.8c-2,3.6-4.8,7.1-5.6,11
			c-0.9,3.9,0.2,8.3,0.5,12.5C-35.5,642.8-35.2,646.2-34.9,649.7z M1586.8,692.5c0-0.2-0.1-0.5-0.1-0.7c-1.6,0-3.2,0.1-4.8,0
			c-7.6-0.6-15.1,1.1-22.6,1.8c-2,0.2-3.5,1.1-4.1,3.5c2.4,1.5,4.7,3,7.2,4.3c0.8,0.4,2,0.4,2.8,0.1
			C1572.4,698.5,1579.6,695.5,1586.8,692.5z M656,266.5c3,0.4,4.4-0.9,5.7-2.6c4.1-5.6,8.4-11.1,12.5-16.7c0.7-0.9,1.3-1.8,1.8-2.7
			c-1.1-1.9-2.3-2.4-3.8-1.1c-4.4,3.9-8.8,7.9-13.2,11.9c-0.4,0.3-0.7,0.8-0.8,1.3C657.5,259.9,656.8,263.1,656,266.5z M898.7,704.8
			c-4.1-2.7-8.6-4-13.2-4.5c-2.2-0.2-6.2,2.3-6.4,3.9c-0.2,1.9-0.2,3.9-0.3,5.9c3.6,0,6.9-0.3,10.1,0.1
			C893.4,710.6,896.1,708.1,898.7,704.8z M1202.3,278.1c-5.3-0.7-10.3-1.3-15.2-1.9c-0.7-0.1-1.6,0.2-2,0.6c-1.7,2-3.2,4.1-5.3,6.8
			c5.2,0.5,9.5,1.1,13.9,1.3C1200.2,285.2,1200.3,285,1202.3,278.1z M1254.2,962.1c7-0.1,27.7-5.2,30.3-7.5
			c-5.1-0.2-10-0.3-14.9-0.8c-4.5-0.5-8.4,0.7-12.2,3C1255.3,958,1254.1,959.4,1254.2,962.1z M1382.8,90c-3.9,0.2-7.8,0.4-11.6,0.8
			c-1.2,0.1-2.4,0.8-3.4,1.5c-2.4,1.6-4.8,3.3-7.2,4.9c-2.2,1.5-3.3,3.6-4.1,6.2C1360.9,102.6,1380,93.3,1382.8,90z M1886.2,742
			c2.6,1.2,5.1,1.3,7.7,0.2c2.3-1,4.7-1.7,7.1-2.5c3.1-0.9,5.2-3.1,7.1-5.8c-4.5,0.7-8.8,0.8-13.1-0.7c-0.4-0.1-1.1-0.1-1.4,0.2
			C1890.6,735.7,1886.9,737.6,1886.2,742z M1550.4,48.4c-1.8,0.1-3.1,0.2-4.5,0.4c-3.5,0.4-7,0.9-10.5,1.4c-6,0.8-12,1.6-18,2.4
			c-1.1,0.2-2.5,0-3.2,2.1c1.7,0.1,3,0.2,4.3,0.1c8.4-0.3,16.9-0.6,25.3-0.9C1548.4,53.8,1548.4,53.8,1550.4,48.4z M444.2,1033.9
			c-3,0.8-5.6,2-8.3,2.2c-2.7,0.2-5.5-0.5-8.9-1c5.4,5,10.3,9.6,15.2,14.2c0.3-0.1,0.5-0.2,0.8-0.4
			C443.5,1043.9,443.8,1039,444.2,1033.9z M1429.5,156.3c-4.4,1.3-8.4,2.5-12.3,3.7c-0.9,0.3-1.8,0.7-2.8,1.1c0,2.5,0,4.8,0,7.1
			C1424.5,168.2,1428.8,165,1429.5,156.3z M1609.2,822.5c-3.8,2.4-9.1,0.5-10.6,5.9c0.3,0.3,0.4,0.6,0.7,0.7
			c6,2.2,12.1,4.3,18.1,6.5c0.4,0.1,1-0.3,2.3-0.6C1613.8,832.5,1610.5,828.8,1609.2,822.5z M1633.9,1017.4c-1.1,0.3-2.1,0.4-3,0.7
			c-3.5,1-7,2.1-10.6,3c-7.7,2-15.3,1.8-22.5-2.1c-0.2-0.1-0.5,0-1,0c-1.1,1.2-2.3,2.6-4.1,4.7c2.2,0,3.4,0,4.6,0
			c9.9-0.3,19.7-0.8,29.6-0.9C1630.7,1022.6,1632.8,1021.2,1633.9,1017.4z M1739.4,201.1c-6-0.5-6-0.5-8,3.9
			c-1.5,3.3-3.1,6.7-4.6,10c-0.4,0.9-0.6,1.8-0.9,2.7c3.5,0.8,3.7,0.8,4.6-0.7C1733.4,211.9,1736.3,206.7,1739.4,201.1z
			 M1226.4,796.9c1.6,0.2,2.7,0.5,3.9,0.5c1.9,0,3.8-0.2,5.6-0.4c4.7-0.5,5.5-1.3,6-6.5c-2.5-0.2-4.7-2.9-7.4-1
			C1231.7,791.4,1227.8,792.4,1226.4,796.9z M1681.3,756.3c-8.3-0.7-17.4,0.4-19.3,2.1c4,1.8,8.1,3.7,12.5,5.7
			C1676.6,761.7,1678.7,759.3,1681.3,756.3z M1062.6,191.8c-8.2,0.5-10.9,2.5-12.5,8.9c4.2-0.4,8.3-0.7,12.5-1
			C1062.6,196.8,1062.6,194.5,1062.6,191.8z M1356.6,215.1c2,0.2,3.2,0.3,4.4,0.5c2.3,0.4,3.8-0.5,4.8-2.6c1.1-2.3,2.4-4.4,3.6-6.7
			c0.6-1.1,1.1-2.3,1.8-3.7c-3.1-0.5-5,0.3-6.5,2.4c-1.5,2-3.2,3.9-4.8,5.9C1359,212.1,1358,213.4,1356.6,215.1z M1198.8,923
			c-0.1-0.3-0.2-0.7-0.3-1c-6.3,1.9-12.9,0-19.5,2c1.1,2.7,2,4.8,3,7.4C1187.8,928.5,1193.3,925.8,1198.8,923z M1753.7,814.1
			c-2.6-0.9-3.8,0.3-5.1,1.6c-5.3,5.4-10.7,10.7-16,16.1c-1.8,1.9-3.4,4-5.1,6.1c-0.4,0.5-0.5,1.1-1.1,2.4
			C1735.9,831.3,1744.7,822.8,1753.7,814.1z M1452.1,1067.2c0.1-0.3,0.1-0.6,0.2-1c-2.6-0.8-5.2-1.8-7.9-2.2
			c-2.7-0.4-5.5-0.2-8.3-0.1c-2.8,0.1-5.5,0.4-8.3,0.8c-2.6,0.4-5.4-0.1-7.6,1.8C1430.9,1067.3,1441.5,1067,1452.1,1067.2z
			 M1817.9,27.6c0-0.3,0-0.5,0-0.8c-11.6,0.2-23.3,0.4-34.9,0.6c-0.6,0-1.3,0-1.9,0.1c-1.3,0.3-1.8,1.2-1.1,2.9
			C1792.5,29.5,1805.2,28.6,1817.9,27.6z M1493.9,309.7c-1.9,0.4-3.5,0.2-4.1,0.9c-2.8,3-5.4,6.1-7.9,10.1c3.3,0.2,5.8,0.4,8.7,0.6
			C1491.7,317.6,1492.7,314.2,1493.9,309.7z M1641.8,647.3c0.5,0.2,0.7,0.4,0.9,0.4c1.1,0.1,2.3,0.1,3.4,0.1
			c6.1,0.1,6.2,0.1,7.8-5.9c0.1-0.2-0.1-0.5-0.2-0.7C1646.8,639.7,1645.8,640.6,1641.8,647.3z M1068.1,983.6
			c4.2,0.4,4.3,0.4,5.7-2.3c2.7-5,1.8-10.7,3-15.9c-0.4-0.1-0.7-0.2-1.1-0.3C1073.2,971.1,1070.7,977.2,1068.1,983.6z M85.1,947.6
			c3.4-4.6,6.5-8.7,9.5-12.8c0.9-1.3,0.7-2.8-0.4-4.7c-3,3.4-5.7,6.5-8.5,9.5C83.6,941.9,83.9,944.3,85.1,947.6z M1013.5,974.6
			c-8.5,2-9.7,3.3-10.5,10.8c2.1,0.2,4.4,1.2,5.8-1.1C1010.5,981.4,1011.8,978.2,1013.5,974.6z M673.7,165.1c4.7-0.4,9-0.7,13.2-1.1
			c0.7-0.1,1.6-0.8,1.8-1.5c0.7-1.9,1.1-4,1.7-6.4c-5.8,2.8-10.9,5.3-16.1,7.8C674.2,164,674.1,164.3,673.7,165.1z M1023.5,233.2
			c0.1,0.3,0.3,0.5,0.4,0.8c4.4,0.2,27.5-3.4,29.9-4.6c-0.2-0.1-0.4-0.4-0.5-0.4c-8.8,0.8-17.6,1.5-26.4,2.4
			C1025.7,231.5,1024.6,232.6,1023.5,233.2z M1367.7,872.2c0-0.3-0.1-0.5-0.1-0.8c-2.8,0-5.6,0.1-8.5,0c-4-0.2-6.8,2.1-9.9,4.9
			C1356.6,878.3,1361.8,873.9,1367.7,872.2z M53.6,291c5.3-2.5,7.7-6,6.5-12.2c-3.4,3.2-6.5,6-9.8,9.1
			C51.5,289.2,52.5,290.1,53.6,291z M879.8,973.1c-2.9,3.3-6.6,13-6.6,16c1.4-0.4,2.7-0.8,4-1.1c1.3-0.3,1.9-1.1,2-2.4
			C879.3,981.4,879.6,977.3,879.8,973.1z M2007.7,428.2c-0.7,2-1.2,3.7-1.8,5.6c3.6,0,6.6,0.1,9.5,0c2.4-0.1,2.5-0.3,2.4-3.6
			C2014.6,429.5,2011.3,428.9,2007.7,428.2z M620.9,40.5c-7.8,1.2-14.8,2.3-21.7,4.2c6.9,0,13.8,0,20.8,0
			C620.3,43.4,620.5,42.3,620.9,40.5z M155.2,930.5c1.1-0.1,1.4,0,1.5-0.2c1.8-1.3,3.7-2.6,5.5-4c3.5-2.6,5-6.6,4.1-11.7
			C162.6,920,159.1,925,155.2,930.5z M654.8,1049.6c-1-1.8-2.2-1.7-3.4-1.5c-2.5,0.2-5,0.5-7.5,0.8c-3.5,0.4-4.3,1.2-5.5,5.5
			C643.9,1052.7,649.4,1051.5,654.8,1049.6z M1314.9,726.2c-5.9,2.9-11.5,7.5-12.8,9.8c1.2,0.3,2.4,0.6,3.6,0.9
			c1.2,0.3,2.2,0.1,2.9-1C1310.7,732.7,1312.8,729.5,1314.9,726.2z M860.2,435.5c-8.9,0.6-11.7,1.9-14.2,7.6
			C852.5,444.1,855.5,439,860.2,435.5z M828.8,74.4c4.4-2.5,12.9-11.4,14.4-14.4c-2.4,0.9-4.9,0.5-6.4,2.6
			C834,66.5,831.4,70.5,828.8,74.4z M703.3,722.7c0.2,0.3,0.3,0.6,0.5,0.9c3.8-0.6,7.5-1.2,11.5-1.8c0.1-1.7,0.2-3,0.4-5
			c-4.1,1.4-7.6,2.6-11.1,3.9C704,720.9,703.8,722,703.3,722.7z M-4.2,869.5c3.6-2.2,6.5-4.1,10.1-6.2c-1.7-1.4-2.8-2.4-4.2-3.6
			C-0.7,862.8-5.2,863.9-4.2,869.5z M412.3,857.9c5.6-1.4,12.6-4.7,14.4-6.7c-4.6,0.6-8.9,1.2-13.5,1.7
			C412.9,854.6,412.7,856,412.3,857.9z M1169.2,842.8c-0.3-0.2-0.7-0.5-1-0.7c-3.9,2.5-6.6,6.2-9.7,9.7c2,0,3.8-0.2,5.7-0.5
			c0.4-0.1,1-0.4,1.2-0.8C1166.6,847.9,1167.9,845.3,1169.2,842.8z M150.6,1016.5c-0.2-0.2-0.5-0.3-0.7-0.5
			c-3.3,2.3-6.8,4.2-10.6,7.4c3.4,0.5,5.8,0.8,8.4,1.1C148.8,1021.6,149.7,1019.1,150.6,1016.5z M217.7,707.9
			c0.3,0.2,0.5,0.4,0.8,0.6c1.8-1.5,3.6-3,5.4-4.5c3.4-3,3.3-3.5-0.7-5.9c-0.2-0.1-0.5,0-1.1,0C220.5,701.2,218.6,704.3,217.7,707.9
			z M1003.1,1058.5c3.6,0.7,3.7,0.7,4.7-1.8c1.1-2.5,2.1-5.1,3.1-7.7c0.2-0.6,0.1-1.3,0.2-2c-0.3-0.1-0.5-0.2-0.8-0.3
			C1006.9,1049.9,1005.5,1054.5,1003.1,1058.5z M2038.8,205c3.4,1.9,5.8-0.6,8.4-1.7c2.8-1.2,5.5-2.6,8.1-4c2.5-1.3,5.1-2.5,7.6-4
			c-0.1-0.2-0.3-0.5-0.4-0.7C2054.7,198.1,2046.7,201.5,2038.8,205z M177.7,378.6c-0.1-0.3-0.2-0.5-0.4-0.8
			c-4.8,1.9-9.6,3.6-14.3,5.6c-2.1,0.9-1.3,2.2,0,3.7C168,384.2,172.9,381.4,177.7,378.6z M1935.4,857.8c0.3,0.2,0.5,0.5,0.8,0.7
			c6.1-5.6,12.3-11.2,18.4-16.8c-1-0.5-1.7-0.5-2.1-0.2C1946.8,847,1941.1,852.4,1935.4,857.8z M5.4,75.5c4.5-2,13.1-7.8,14.8-10
			c-4.5,2.3-8.9,4.4-13.3,6.6C5.6,72.8,4.4,73.5,5.4,75.5z M1627.7,131.3c0.1,0.3,0.3,0.5,0.4,0.8c4.3-1.9,8.7-3.6,13-6
			c-1.7-1.4-3.1-2-4.8-0.9C1633.4,127.3,1630.6,129.3,1627.7,131.3z M327.2,881.5c-0.2-0.3-0.4-0.5-0.6-0.8c-3,1.6-6,3.2-9.5,5.2
			c1.8,1.3,2.9,2.1,4.3,3.2C323.5,886.4,325.4,883.9,327.2,881.5z M1494.8,84.3c5.1,3.7,7.1,4,13.8-0.7
			C1503.7,83.9,1499.7,84,1494.8,84.3z M1913.1,282c-0.2-0.3-0.4-0.6-0.6-0.9c-2.1,1-4.2,2.1-6.3,3.1c-2.3,1.1-2.9,2.8-2.5,5.9
			C1907.1,287.1,1910.1,284.5,1913.1,282z M69.2,559.6c-2.8,3-0.6,4.8,0.2,6.7c0.9,2,2.1,4,3.2,5.9c0.2-0.1,0.5-0.2,0.7-0.4
			C72.1,568,70.8,564.1,69.2,559.6z M1446.5,807.8c0.1,0.4,0.2,0.8,0.3,1.2c5.6-0.4,9.9-4.1,14.4-7.1
			C1456.4,803.8,1451.4,805.8,1446.5,807.8z M1458.9,349.7c0.1,0.3,0.2,0.6,0.4,0.9c3.5-0.2,7.1,0.1,10.5-1.4
			c-3.1-0.6-6.2-0.8-9.3-0.8C1459.9,348.3,1459.4,349.2,1458.9,349.7z M1798.6,770.2c0,0.3,0.1,0.6,0.1,0.9c1.7,0.4,3.4,0.8,5.5,1.3
			c0.4-2,0.8-3.5,1.3-5.9C1802.7,768.1,1800.6,769.2,1798.6,770.2z M382.9,232.1c-3-0.8-5.2-1.4-7.7-2c0.1,2.9,1.9,3.6,3.4,4.7
			c0.9-0.4,1.7-0.8,2.5-1.2C381.5,233.3,381.8,232.9,382.9,232.1z M327.2,794c6.5,0.7,7.6,0.2,7.9-3.3
			C332.3,791.9,329.8,793,327.2,794z M338.7,161.1c2-2.3,3.5-4,5.3-6.1C338.5,155.6,338.1,156,338.7,161.1z M1223.9,470.7
			c-1.5,0-2.6-0.2-3.5,0.1c-0.6,0.2-1.4,1-1.5,1.6c-0.2,1.2,0.6,1.7,1.8,1.8C1222.8,474.4,1223.2,472.8,1223.9,470.7z M1621,261.3
			c1.6-2.1,2.9-3.9,4.3-5.8C1621.5,254.8,1620.9,255.5,1621,261.3z M809.8,809.5c0.2-0.3,0.3-0.6,0.5-0.9c-0.6-0.5-1.3-1.5-1.7-1.4
			c-1.9,0.5-4.2,0.4-5.4,3.3C805.7,810.1,807.7,809.8,809.8,809.5z M1542.8,537.8c1.7-3.2,3.6-6.3,3.9-10.1
			C1544.4,530.7,1543.5,534.3,1542.8,537.8z M111,846.9c-2.2-1.5-5.8-0.7-8.4,1.9C105.8,849,108.4,848.1,111,846.9z M71.4,760.9
			c-2.5,3.2-2.5,3.2-2.6,5.9c1.3-0.7,2.5-1.3,3.9-2C72.3,763.5,71.9,762.4,71.4,760.9z M2010.1,773.7c3.1-0.9,3.3-1.3,2.4-5.1
			C2009.5,769.5,2009.2,770.1,2010.1,773.7z M1303.8,839.7c-1,1.9-1.9,3.7-3,5.9C1303.8,845.1,1303.9,844.9,1303.8,839.7z
			 M165,882.7c0.2,0.2,0.5,0.4,0.7,0.6c1.4-0.9,2.8-1.9,4.5-3c-0.8-0.7-1.4-1.2-2.1-1.8C166.9,880,165.9,881.3,165,882.7z
			 M1139.2,873.7c1.9-2,3.9-4.1,4.9-7.6C1141,868.2,1140.1,870.9,1139.2,873.7z M369.9,788.1c2.7-0.5,3.6-2.2,3.5-5.5
			C372.2,784.6,371.1,786.4,369.9,788.1z M813.2,1071.9c-2.8-1.2-5.6-0.1-8.4,0.1C807.6,1072.4,810.5,1073.2,813.2,1071.9z
			 M1313.6,640.4c0.3,0.1,0.5,0.2,0.8,0.3c0.6-1.6,1.2-3.1,2-5.1C1313.3,636.5,1313.3,636.5,1313.6,640.4z M693.6,35.8
			c0.1,0.4,0.2,0.7,0.3,1.1c2.1-0.5,4.1-0.9,6.2-1.4C697.8,34.9,695.5,34,693.6,35.8z M514.3,274c-2.9,0.5-4.9,0.8-6.9,1.1
			C509.5,275.8,511.8,276.9,514.3,274z M311.2,135.1c-0.1-0.3-0.3-0.7-0.4-1c-2,0.9-4.1,1.8-6.1,2.6c0.1,0.2,0.2,0.5,0.3,0.7
			C307.1,136.6,309.2,135.9,311.2,135.1z M954.9,142.3c-2.8-0.6-2.8-0.6-3.5,2.4C952.8,143.8,953.9,143,954.9,142.3z M23.7,428.1
			c-0.4,0-0.8,0-1.3,0.1c0.3,1.5,0.6,3,1,4.5c0.2,0,0.5-0.1,0.7-0.1C23.9,431.1,23.8,429.6,23.7,428.1z M980.8,604.5
			c0.3,0.2,0.5,0.3,0.8,0.5c1.7-0.7,2-2,1.3-4.7C982,602.3,981.4,603.4,980.8,604.5z M163.7,543.4c0-0.3-0.1-0.5-0.1-0.8
			c-0.7-0.1-1.6-0.6-2.1-0.3c-0.9,0.5-1.9,1.2-0.9,2.8C161.7,544.5,162.7,543.9,163.7,543.4z M993.4,139c-1.3,0.1-2.5,0.2-3.8,0.3
			c0,0.3,0,0.6,0,0.9C990.9,140.8,992.1,140.2,993.4,139z M1055.3,896.9c-0.1-0.3-0.1-0.7-0.2-1c-1.3,0.3-2.6,0.6-3.9,1
			C1052.6,897.4,1054.1,898.2,1055.3,896.9z M52.8,626c0.2-0.1,0.4-0.1,0.6-0.2c-0.1-0.8-0.1-1.6-0.4-2.3c-0.1-0.2-0.8-0.1-1.7-0.3
			C52,624.5,52.4,625.3,52.8,626z M1497.7,496.9c-0.1-0.3-0.2-0.7-0.4-1c-1.1,0.3-2.2,0.7-3.4,1c0.1,0.2,0.1,0.5,0.2,0.7
			C1495.3,497.4,1496.5,497.2,1497.7,496.9z M1930.8,862.4c0.2,0.2,0.4,0.4,0.5,0.6c1-1,1.9-1.9,2.9-2.9c-0.2-0.2-0.3-0.3-0.5-0.5
			C1932.7,860.6,1931.7,861.5,1930.8,862.4z M2059.2,1072.3c-0.2,0.3-0.4,0.6-0.6,0.9c0.6,0.5,1.3,1,1.9,1.6
			c0.3-0.4,0.7-0.9,1.2-1.5C2060.7,1072.9,2060,1072.6,2059.2,1072.3z M1038,521.4c-0.1-0.3-0.1-0.6-0.2-0.9
			c-0.8,0.2-1.7,0.4-2.5,0.7c0.1,0.2,0.1,0.5,0.2,0.7C1036.2,521.7,1037.1,521.6,1038,521.4z M1737.5,440.9c0.2,0.2,0.4,0.4,0.5,0.5
			c0.3-0.4,0.7-0.7,0.9-1.1c0.2-0.5,0.2-1,0.3-1.5c-0.2,0-0.3-0.1-0.5-0.1C1738.4,439.4,1738,440.1,1737.5,440.9z M395.4,347.9
			c-0.1-0.2-0.3-0.5-0.4-0.7c-1,0.6-1.9,1.1-2.9,1.7c0.1,0.2,0.2,0.4,0.4,0.6C393.4,348.9,394.4,348.4,395.4,347.9z M920.8,797.5
			c0.3,0.1,0.6,0.1,0.9,0.2c0.2-0.8,0.4-1.7,0.6-2.5c-0.2-0.1-0.4-0.1-0.5-0.2C921.4,795.8,921.1,796.6,920.8,797.5z M115.8,1051.3
			c0.2,0.3,0.3,0.6,0.5,0.8c0.3-0.1,0.7-0.1,1-0.2c0.3-0.2,0.6-0.6,0.9-0.9c-0.1-0.2-0.3-0.4-0.4-0.6
			C117.1,1050.7,116.5,1051,115.8,1051.3z M1816.2,58.3c0.1,0.2,0.1,0.3,0.2,0.5c0.5-0.2,1-0.4,1.5-0.5c0-0.1-0.1-0.2-0.1-0.3
			C1817.2,58.1,1816.7,58.2,1816.2,58.3z M588.2,949.8c0.3,0.1,0.6,0.2,0.9,0.3c0.1-0.7,0.3-1.4,0.4-2.1c-0.2,0-0.3-0.1-0.5-0.1
			C588.7,948.5,588.4,949.1,588.2,949.8z M1011,570.1c0,0.1,0.1,0.3,0.1,0.4c0.5-0.1,1-0.3,1.6-0.4c-0.1-0.2-0.1-0.4-0.2-0.5
			C1012,569.8,1011.5,569.9,1011,570.1z"/>
		<path class="st0" d="M2100.9,2.3c-1.5,0-3-0.1-4.5-0.1c-698.8,0-1397.6,0-2096.4,0c-2.8,0-5.6,0.1-8.4,0c-3.1-0.1-5.9,0.9-7.9,3.1
			c-3.2,3.5-7.5,4.4-12.1,6c-1.2-3-2.5-5.8-3.7-8.9c-6.7,0-13.3,0-20.2,0c-0.1,1.1-0.3,2-0.3,3c-0.1,1,0,2,0,3
			c0,349.3,0,698.6,0,1047.8c0,3.8,0.6,7.5,1.6,11.2c1,3.7,1,7.7,1.5,11.6c-1.3,0-2.5,0-3.8,0c0-359.2,0-718.4,0-1077.6
			c717,0,1434,0,2151,0C2098.6,1.6,2100.1,0.7,2100.9,2.3z"/>
		<path class="st0" d="M2,1079.1c0-5,0-10,0-15.3c3.1,2,5.1,4.9,7.3,7.4c2.2,2.5,4.3,5.3,6.4,7.9C11.1,1079.1,6.6,1079.1,2,1079.1z"
			/>
		<path class="st0" d="M1858.9,1025.9c0.9-0.9,1.8-1.9,2.7-2.8c18-17.8,36.1-35.5,54-53.3c1.7-1.7,3.3-2.5,5.7-2.2
			c2.6,0.4,5.2,0.5,7.7,0.7c0.1,0.4,0.2,0.5,0.2,0.6c0,0.1,0,0.3-0.1,0.3c-23,18.9-45.9,37.8-68.9,56.6c-0.3,0.2-0.6,0.3-0.9,0.4
			C1859.1,1026.2,1859,1026,1858.9,1025.9z"/>
		<path class="st0" d="M1596.5,877.4c-1.9,4.8-2.3,10.2-6.3,14.2c-1.9,1.9-3.4,4.1-5.3,6c-0.7,0.8-1.8,1.7-2.7,1.7
			c-3.9-0.2-7.7-0.8-11.5-1.3c-0.6-2.6,0.1-4.6,1.2-6.5c1.7-2.9,3.2-6,5-9c0.5-0.9,1.4-2,2.3-2.3c5.4-1.2,10.9-2.2,16.4-3.3
			C1595.7,876.9,1595.9,877.1,1596.5,877.4z"/>
		<path class="st0" d="M408.8,138.5c0.1,2.7,0.2,4.8,0.4,7.4c-9.2,2.1-18.2,4.2-27.1,6.2c-1.1-3.3-2.1-6.1-3.2-9.4
			c1,0.1,2-0.1,2.5,0.3c3,2.6,6.3,2.1,9.6,1c4.7-1.5,9.4-3,14-4.5C406,139.1,407.1,138.9,408.8,138.5z"/>
		<path class="st0" d="M2024.3,316.5c-0.8,2-1.2,3.1-1.8,4.2c-2.8,5.8-5.5,11.6-8.3,17.5c-2.1,4.5-2.1,4.5-7.4,3.5
			c0.1-0.8,0-1.6,0.2-2.4c1.4-5,3-9.9,4.3-14.9c0.6-2,1.7-3.3,3.6-4C2017.8,319.3,2020.5,317.8,2024.3,316.5z"/>
		<path class="st0" d="M-34.9,649.7c-0.3-3.5-0.7-6.9-0.9-10.4c-0.3-4.2-1.3-8.5-0.5-12.5c0.9-3.9,3.6-7.4,5.6-11
			c1.1-2,2.3-4,3.9-6.8c0.5,1.5,0.8,2,0.8,2.6c0.2,4.4,0.3,8.9,0.5,13.3c0.1,1.7-0.5,2.8-2,3.7c-6.4,3.8-8,9.8-6.9,16.7
			c0.2,1.4,0.4,2.9,0.6,4.3C-34.1,649.6-34.5,649.7-34.9,649.7z"/>
		<path class="st0" d="M1586.8,692.5c-7.2,3-14.4,6-21.7,8.9c-0.8,0.3-2.1,0.3-2.8-0.1c-2.4-1.3-4.7-2.8-7.2-4.3
			c0.6-2.4,2-3.4,4.1-3.5c7.5-0.6,15-2.4,22.6-1.8c1.6,0.1,3.2,0,4.8,0C1586.7,692,1586.8,692.2,1586.8,692.5z"/>
		<path class="st0" d="M656,266.5c0.8-3.5,1.5-6.7,2.2-9.8c0.1-0.5,0.4-1,0.8-1.3c4.4-4,8.8-8,13.2-11.9c1.5-1.3,2.7-0.8,3.8,1.1
			c-0.6,0.8-1.2,1.8-1.8,2.7c-4.2,5.6-8.4,11.1-12.5,16.7C660.4,265.7,659.1,267,656,266.5z"/>
		<path class="st0" d="M898.7,704.8c-2.6,3.4-5.3,5.8-9.9,5.4c-3.2-0.3-6.5-0.1-10.1-0.1c0.1-2,0.1-3.9,0.3-5.9
			c0.2-1.6,4.2-4.1,6.4-3.9C890.1,700.8,894.6,702,898.7,704.8z"/>
		<path class="st0" d="M1202.3,278.1c-2.1,7-2.1,7.1-8.6,6.8c-4.4-0.2-8.7-0.8-13.9-1.3c2.1-2.7,3.6-4.8,5.3-6.8
			c0.4-0.5,1.4-0.7,2-0.6C1192.1,276.7,1197,277.4,1202.3,278.1z"/>
		<path class="st0" d="M1254.2,962.1c-0.1-2.7,1.1-4.1,3.2-5.4c3.8-2.3,7.7-3.4,12.2-3c4.9,0.5,9.8,0.5,14.9,0.8
			C1281.9,957,1261.2,962.1,1254.2,962.1z"/>
		<path class="st0" d="M1382.8,90c-2.8,3.4-21.9,12.6-26.3,13.4c0.8-2.5,1.9-4.7,4.1-6.2c2.4-1.6,4.7-3.4,7.2-4.9
			c1-0.7,2.2-1.3,3.4-1.5C1375,90.4,1378.9,90.2,1382.8,90z"/>
		<path class="st0" d="M1886.2,742c0.7-4.4,4.4-6.3,7.4-8.6c0.3-0.3,1-0.3,1.4-0.2c4.3,1.5,8.6,1.4,13.1,0.7c-1.9,2.7-4,4.9-7.1,5.8
			c-2.4,0.7-4.8,1.5-7.1,2.5C1891.3,743.3,1888.8,743.2,1886.2,742z"/>
		<path class="st0" d="M1550.4,48.4c-2,5.3-2,5.3-6.5,5.5c-8.4,0.3-16.9,0.6-25.3,0.9c-1.3,0-2.6-0.1-4.3-0.1
			c0.7-2.1,2.1-1.9,3.2-2.1c6-0.8,12-1.6,18-2.4c3.5-0.5,7-0.9,10.5-1.4C1547.3,48.7,1548.6,48.6,1550.4,48.4z"/>
		<path class="st0" d="M444.2,1033.9c-0.4,5.1-0.8,10.1-1.2,15c-0.3,0.1-0.5,0.2-0.8,0.4c-4.9-4.6-9.8-9.2-15.2-14.2
			c3.4,0.4,6.2,1.2,8.9,1C438.7,1035.8,441.3,1034.7,444.2,1033.9z"/>
		<path class="st0" d="M1429.5,156.3c-0.7,8.7-5,11.9-15.1,11.9c0-2.3,0-4.6,0-7.1c0.9-0.4,1.8-0.8,2.8-1.1
			C1421.1,158.8,1425.1,157.6,1429.5,156.3z"/>
		<path class="st0" d="M1609.2,822.5c1.3,6.3,4.6,10,10.5,12.4c-1.4,0.4-1.9,0.8-2.3,0.6c-6.1-2.1-12.1-4.3-18.1-6.5
			c-0.2-0.1-0.3-0.3-0.7-0.7C1600.1,823,1605.3,824.8,1609.2,822.5z"/>
		<path class="st0" d="M1633.9,1017.4c-1.1,3.9-3.2,5.3-7,5.3c-9.9,0.1-19.7,0.6-29.6,0.9c-1.2,0-2.4,0-4.6,0c1.8-2.1,3-3.4,4.1-4.7
			c0.6,0,0.9-0.1,1,0c7.2,3.9,14.7,4.1,22.5,2.1c3.5-0.9,7.1-2,10.6-3C1631.8,1017.8,1632.8,1017.6,1633.9,1017.4z"/>
		<path class="st0" d="M1739.4,201.1c-3.1,5.6-6,10.8-8.9,15.9c-0.9,1.6-1.1,1.5-4.6,0.7c0.3-0.9,0.5-1.9,0.9-2.7
			c1.5-3.3,3.1-6.7,4.6-10C1733.4,200.6,1733.4,200.6,1739.4,201.1z"/>
		<path class="st0" d="M1226.4,796.9c1.4-4.5,5.3-5.4,8.2-7.4c2.7-1.8,4.9,0.8,7.4,1c-0.5,5.1-1.3,6-6,6.5c-1.9,0.2-3.8,0.4-5.6,0.4
			C1229.1,797.4,1227.9,797.1,1226.4,796.9z"/>
		<path class="st0" d="M1681.3,756.3c-2.6,3-4.7,5.4-6.8,7.8c-4.4-2-8.5-3.9-12.5-5.7C1663.8,756.7,1672.9,755.6,1681.3,756.3z"/>
		<path class="st0" d="M1062.6,191.8c0,2.6,0,5,0,7.8c-4.2,0.4-8.3,0.7-12.5,1C1051.7,194.3,1054.4,192.4,1062.6,191.8z"/>
		<path class="st0" d="M1356.6,215.1c1.4-1.8,2.4-3,3.4-4.2c1.6-2,3.3-3.9,4.8-5.9c1.5-2.1,3.4-2.8,6.5-2.4
			c-0.7,1.4-1.2,2.6-1.8,3.7c-1.2,2.2-2.5,4.4-3.6,6.7c-1,2.2-2.5,3-4.8,2.6C1359.8,215.4,1358.6,215.4,1356.6,215.1z"/>
		<path class="st0" d="M1198.8,923c-5.5,2.7-11,5.5-16.7,8.4c-1.1-2.6-1.9-4.8-3-7.4c6.5-1.9,13.2-0.1,19.5-2
			C1198.6,922.4,1198.7,922.7,1198.8,923z"/>
		<path class="st0" d="M1753.7,814.1c-9,8.7-17.8,17.2-27.2,26.3c0.6-1.3,0.7-2,1.1-2.4c1.6-2.1,3.2-4.2,5.1-6.1
			c5.3-5.4,10.7-10.8,16-16.1C1749.9,814.4,1751.1,813.2,1753.7,814.1z"/>
		<path class="st0" d="M1452.1,1067.2c-10.6-0.2-21.2,0-31.8-0.7c2.3-1.9,5.1-1.5,7.6-1.8c2.7-0.4,5.5-0.6,8.3-0.8
			c2.7-0.1,5.6-0.3,8.3,0.1c2.7,0.4,5.2,1.4,7.9,2.2C1452.3,1066.6,1452.2,1066.9,1452.1,1067.2z"/>
		<path class="st0" d="M1817.9,27.6c-12.7,1-25.4,1.9-38,2.9c-0.7-1.8-0.2-2.6,1.1-2.9c0.6-0.2,1.3-0.1,1.9-0.1
			c11.6-0.2,23.3-0.4,34.9-0.6C1817.9,27.1,1817.9,27.3,1817.9,27.6z"/>
		<path class="st0" d="M1493.9,309.7c-1.3,4.4-2.3,7.9-3.4,11.6c-2.9-0.2-5.4-0.3-8.7-0.6c2.5-4,5.1-7.2,7.9-10.1
			C1490.5,310,1492,310.1,1493.9,309.7z"/>
		<path class="st0" d="M1641.8,647.3c3.9-6.6,5-7.5,11.9-6c0.1,0.2,0.2,0.5,0.2,0.7c-1.7,6-1.7,6-7.8,5.9c-1.1,0-2.3-0.1-3.4-0.1
			C1642.5,647.7,1642.3,647.5,1641.8,647.3z"/>
		<path class="st0" d="M1068.1,983.6c2.7-6.4,5.2-12.5,7.7-18.6c0.4,0.1,0.7,0.2,1.1,0.3c-1.2,5.3-0.4,10.9-3,15.9
			C1072.3,984.1,1072.2,984.1,1068.1,983.6z"/>
		<path class="st0" d="M85.1,947.6c-1.2-3.3-1.5-5.7,0.6-8c2.8-3,5.5-6.1,8.5-9.5c1.1,1.9,1.4,3.4,0.4,4.7
			C91.6,938.9,88.5,943,85.1,947.6z"/>
		<path class="st0" d="M1013.5,974.6c-1.7,3.7-3,6.8-4.7,9.7c-1.4,2.3-3.7,1.3-5.8,1.1C1003.8,977.8,1005,976.6,1013.5,974.6z"/>
		<path class="st0" d="M673.7,165.1c0.5-0.8,0.5-1.1,0.7-1.2c5.1-2.5,10.3-5,16.1-7.8c-0.6,2.4-1,4.5-1.7,6.4
			c-0.2,0.7-1.2,1.4-1.8,1.5C682.6,164.5,678.4,164.8,673.7,165.1z"/>
		<path class="st0" d="M1023.5,233.2c1.1-0.6,2.2-1.7,3.3-1.8c8.8-0.9,17.6-1.6,26.4-2.4c0.2,0,0.3,0.3,0.5,0.4
			c-2.4,1.2-25.4,4.7-29.9,4.6C1023.8,233.8,1023.7,233.5,1023.5,233.2z"/>
		<path class="st0" d="M1367.7,872.2c-5.9,1.7-11.1,6.1-18.5,4.1c3.2-2.8,5.9-5.1,9.9-4.9c2.8,0.1,5.6,0,8.5,0
			C1367.6,871.7,1367.6,871.9,1367.7,872.2z"/>
		<path class="st0" d="M53.6,291c-1-1-2-1.9-3.4-3.1c3.3-3.1,6.4-5.9,9.8-9.1C61.2,285,58.8,288.6,53.6,291z"/>
		<path class="st0" d="M879.8,973.1c-0.2,4.1-0.5,8.3-0.6,12.4c-0.1,1.3-0.7,2.1-2,2.4c-1.3,0.3-2.6,0.7-4,1.1
			C873.2,986.1,876.9,976.4,879.8,973.1z"/>
		<path class="st0" d="M2007.7,428.2c3.6,0.7,6.9,1.3,10.1,2c0.1,3.3,0,3.5-2.4,3.6c-3,0.1-6,0-9.5,0
			C2006.5,431.9,2007,430.2,2007.7,428.2z"/>
		<path class="st0" d="M620.9,40.5c-0.4,1.8-0.6,2.8-0.8,4.2c-7.1,0-13.9,0-20.8,0C606.1,42.9,613.1,41.7,620.9,40.5z"/>
		<path class="st0" d="M155.2,930.5c3.9-5.5,7.4-10.5,11.2-15.8c0.8,5.1-0.7,9.1-4.1,11.7c-1.8,1.4-3.7,2.7-5.5,4
			C156.5,930.5,156.2,930.4,155.2,930.5z"/>
		<path class="st0" d="M654.8,1049.6c-5.4,1.9-10.9,3.1-16.5,4.8c1.2-4.3,2-5.1,5.5-5.5c2.5-0.3,5-0.6,7.5-0.8
			C652.6,1047.9,653.8,1047.8,654.8,1049.6z"/>
		<path class="st0" d="M1314.9,726.2c-2.1,3.3-4.2,6.5-6.2,9.8c-0.7,1.2-1.7,1.3-2.9,1c-1.2-0.3-2.4-0.6-3.6-0.9
			C1303.4,733.8,1309,729.1,1314.9,726.2z"/>
		<path class="st0" d="M860.2,435.5c-4.7,3.5-7.7,8.6-14.2,7.6C848.5,437.4,851.4,436.1,860.2,435.5z"/>
		<path class="st0" d="M828.8,74.4c2.6-3.9,5.2-7.9,8-11.8c1.5-2.1,4-1.7,6.4-2.6C841.6,63,833.2,71.9,828.8,74.4z"/>
		<path class="st0" d="M703.3,722.7c0.4-0.7,0.7-1.8,1.3-2.1c3.5-1.4,7-2.5,11.1-3.9c-0.2,2-0.3,3.3-0.4,5c-4,0.6-7.7,1.2-11.5,1.8
			C703.7,723.3,703.5,723,703.3,722.7z"/>
		<path class="st0" d="M-4.2,869.5c-1-5.6,3.5-6.7,5.9-9.8c1.4,1.2,2.5,2.1,4.2,3.6C2.3,865.4-0.6,867.3-4.2,869.5z"/>
		<path class="st0" d="M412.3,857.9c0.4-1.9,0.6-3.3,0.9-4.9c4.6-0.6,8.9-1.1,13.5-1.7C424.9,853.2,417.9,856.4,412.3,857.9z"/>
		<path class="st0" d="M1169.2,842.8c-1.3,2.5-2.5,5.1-3.9,7.6c-0.2,0.4-0.8,0.7-1.2,0.8c-1.8,0.3-3.7,0.5-5.7,0.5
			c3.1-3.4,5.8-7.2,9.7-9.7C1168.5,842.3,1168.8,842.5,1169.2,842.8z"/>
		<path class="st0" d="M150.6,1016.5c-0.9,2.5-1.8,5.1-2.9,8c-2.6-0.3-5-0.7-8.4-1.1c3.8-3.2,7.3-5.1,10.6-7.4
			C150.1,1016.2,150.4,1016.4,150.6,1016.5z"/>
		<path class="st0" d="M217.7,707.9c0.9-3.6,2.8-6.7,4.3-9.9c0.6,0,0.9-0.1,1.1,0c4,2.4,4.1,2.9,0.7,5.9c-1.8,1.5-3.6,3-5.4,4.5
			C218.2,708.3,217.9,708.1,217.7,707.9z"/>
		<path class="st0" d="M1003.1,1058.5c2.4-4,3.8-8.5,7.2-11.8c0.3,0.1,0.5,0.2,0.8,0.3c0,0.7,0.1,1.4-0.2,2c-1,2.6-2,5.2-3.1,7.7
			C1006.7,1059.2,1006.7,1059.2,1003.1,1058.5z"/>
		<path class="st0" d="M2038.8,205c7.9-3.5,15.8-7,23.8-10.4c0.1,0.2,0.3,0.5,0.4,0.7c-2.5,1.5-5,2.7-7.6,4c-2.7,1.4-5.4,2.9-8.1,4
			C2044.6,204.4,2042.2,206.9,2038.8,205z"/>
		<path class="st0" d="M177.7,378.6c-4.9,2.8-9.7,5.6-14.7,8.5c-1.3-1.5-2-2.8,0-3.7c4.7-2,9.5-3.8,14.3-5.6
			C177.5,378.1,177.6,378.3,177.7,378.6z"/>
		<path class="st0" d="M1935.4,857.8c5.7-5.4,11.4-10.9,17.1-16.3c0.4-0.3,1.1-0.3,2.1,0.2c-6.1,5.6-12.3,11.2-18.4,16.8
			C1935.9,858.3,1935.6,858.1,1935.4,857.8z"/>
		<path class="st0" d="M5.4,75.5c-0.9-2,0.2-2.7,1.6-3.4c4.4-2.2,8.7-4.3,13.3-6.6C18.5,67.7,9.8,73.5,5.4,75.5z"/>
		<path class="st0" d="M1627.7,131.3c2.9-2,5.7-4.1,8.6-6.1c1.6-1.2,3-0.5,4.8,0.9c-4.3,2.4-8.7,4.1-13,6
			C1627.9,131.9,1627.8,131.6,1627.7,131.3z"/>
		<path class="st0" d="M327.2,881.5c-1.9,2.4-3.7,4.9-5.8,7.6c-1.4-1-2.5-1.9-4.3-3.2c3.6-1.9,6.5-3.6,9.5-5.2
			C326.8,881,327,881.3,327.2,881.5z"/>
		<path class="st0" d="M1494.8,84.3c4.9-0.2,8.9-0.4,13.8-0.7C1501.9,88.3,1499.9,88,1494.8,84.3z"/>
		<path class="st0" d="M1913.1,282c-3,2.6-6,5.1-9.3,8.1c-0.4-3.1,0.2-4.8,2.5-5.9c2.1-1,4.2-2.1,6.3-3.1
			C1912.7,281.4,1912.9,281.7,1913.1,282z"/>
		<path class="st0" d="M69.2,559.6c1.5,4.5,2.9,8.4,4.2,12.3c-0.2,0.1-0.5,0.2-0.7,0.4c-1.1-2-2.3-3.9-3.2-5.9
			C68.6,564.4,66.4,562.6,69.2,559.6z"/>
		<path class="st0" d="M1446.5,807.8c4.9-2,9.9-3.9,14.8-5.9c-4.5,3-8.8,6.6-14.4,7.1C1446.7,808.6,1446.6,808.2,1446.5,807.8z"/>
		<path class="st0" d="M1458.9,349.7c0.5-0.5,1-1.4,1.5-1.4c3.1,0,6.2,0.2,9.3,0.8c-3.4,1.5-7,1.2-10.5,1.4
			C1459.1,350.2,1459,350,1458.9,349.7z"/>
		<path class="st0" d="M1798.6,770.2c2-1.1,4.1-2.2,6.9-3.7c-0.5,2.4-0.9,3.9-1.3,5.9c-2.1-0.5-3.8-0.9-5.5-1.3
			C1798.7,770.8,1798.6,770.5,1798.6,770.2z"/>
		<path class="st0" d="M382.9,232.1c-1.1,0.9-1.4,1.3-1.8,1.5c-0.8,0.4-1.6,0.8-2.5,1.2c-1.5-1.1-3.3-1.9-3.4-4.7
			C377.7,230.7,380,231.3,382.9,232.1z"/>
		<path class="st0" d="M327.2,794c2.6-1.1,5.1-2.1,7.9-3.3C334.8,794.3,333.7,794.8,327.2,794z"/>
		<path class="st0" d="M338.7,161.1c-0.6-5.1-0.2-5.5,5.3-6.1C342.2,157.1,340.7,158.8,338.7,161.1z"/>
		<path class="st0" d="M1223.9,470.7c-0.7,2.1-1.1,3.6-3.3,3.5c-1.2-0.1-2-0.6-1.8-1.8c0.1-0.6,0.9-1.5,1.5-1.6
			C1221.3,470.5,1222.4,470.7,1223.9,470.7z"/>
		<path class="st0" d="M1621,261.3c-0.1-5.7,0.5-6.5,4.3-5.8C1623.9,257.4,1622.6,259.1,1621,261.3z"/>
		<path class="st0" d="M809.8,809.5c-2,0.3-4.1,0.6-6.6,1c1.2-3,3.5-2.9,5.4-3.3c0.4-0.1,1.1,0.9,1.7,1.4
			C810.1,808.9,809.9,809.2,809.8,809.5z"/>
		<path class="st0" d="M1542.8,537.8c0.7-3.6,1.6-7.1,3.9-10.1C1546.4,531.5,1544.5,534.6,1542.8,537.8z"/>
		<path class="st0" d="M111,846.9c-2.6,1.3-5.3,2.1-8.4,1.9C105.2,846.2,108.8,845.3,111,846.9z"/>
		<path class="st0" d="M71.4,760.9c0.5,1.6,0.9,2.6,1.3,3.8c-1.4,0.7-2.6,1.3-3.9,2C68.9,764,68.9,764,71.4,760.9z"/>
		<path class="st0" d="M2010.1,773.7c-0.9-3.6-0.6-4.2,2.4-5.1C2013.4,772.4,2013.2,772.8,2010.1,773.7z"/>
		<path class="st0" d="M1303.8,839.7c0.1,5.2,0,5.4-3,5.9C1301.9,843.4,1302.8,841.6,1303.8,839.7z"/>
		<path class="st0" d="M165,882.7c1-1.4,1.9-2.7,3-4.3c0.8,0.7,1.3,1.1,2.1,1.8c-1.7,1.1-3.1,2.1-4.5,3
			C165.4,883.1,165.2,882.9,165,882.7z"/>
		<path class="st0" d="M1139.2,873.7c0.9-2.8,1.8-5.5,4.9-7.6C1143.1,869.5,1141.1,871.6,1139.2,873.7z"/>
		<path class="st0" d="M369.9,788.1c1.1-1.7,2.2-3.5,3.5-5.5C373.6,785.9,372.6,787.6,369.9,788.1z"/>
		<path class="st0" d="M813.2,1071.9c-2.8,1.3-5.6,0.5-8.4,0.1C807.6,1071.8,810.4,1070.7,813.2,1071.9z"/>
		<path class="st0" d="M1313.6,640.4c-0.2-3.8-0.2-3.8,2.8-4.9c-0.8,2-1.4,3.5-2,5.1C1314.1,640.5,1313.8,640.4,1313.6,640.4z"/>
		<path class="st0" d="M693.6,35.8c1.9-1.8,4.2-0.9,6.5-0.3c-2.1,0.5-4.1,0.9-6.2,1.4C693.8,36.5,693.7,36.2,693.6,35.8z"/>
		<path class="st0" d="M514.3,274c-2.5,2.9-4.7,1.8-6.9,1.1C509.4,274.9,511.4,274.5,514.3,274z"/>
		<path class="st0" d="M311.2,135.1c-2.1,0.8-4.1,1.5-6.2,2.3c-0.1-0.2-0.2-0.5-0.3-0.7c2-0.9,4.1-1.8,6.1-2.6
			C311,134.4,311.1,134.8,311.2,135.1z"/>
		<path class="st0" d="M954.9,142.3c-1.1,0.7-2.1,1.5-3.5,2.4C952.1,141.7,952.1,141.7,954.9,142.3z"/>
		<path class="st0" d="M23.7,428.1c0.1,1.5,0.3,3,0.4,4.5c-0.2,0-0.5,0.1-0.7,0.1c-0.3-1.5-0.6-3-1-4.5
			C22.9,428.2,23.3,428.1,23.7,428.1z"/>
		<path class="st0" d="M980.8,604.5c0.6-1.1,1.1-2.3,2.1-4.2c0.7,2.6,0.4,3.9-1.3,4.7C981.4,604.9,981.1,604.7,980.8,604.5z"/>
		<path class="st0" d="M163.7,543.4c-1,0.6-2,1.1-3.1,1.7c-1-1.6,0-2.4,0.9-2.8c0.5-0.3,1.4,0.2,2.1,0.3
			C163.6,542.8,163.7,543.1,163.7,543.4z"/>
		<path class="st0" d="M993.4,139c-1.3,1.2-2.5,1.8-3.7,1.2c0-0.3,0-0.6,0-0.9C990.9,139.2,992.2,139.1,993.4,139z"/>
		<path class="st0" d="M1055.3,896.9c-1.2,1.3-2.6,0.6-4.1-0.1c1.3-0.3,2.6-0.6,3.9-1C1055.1,896.2,1055.2,896.5,1055.3,896.9z"/>
		<path class="st0" d="M52.8,626c-0.4-0.8-0.8-1.5-1.5-2.8c0.9,0.1,1.7,0.1,1.7,0.3c0.2,0.7,0.3,1.5,0.4,2.3
			C53.2,625.9,53,626,52.8,626z"/>
		<path class="st0" d="M1497.7,496.9c-1.2,0.3-2.3,0.5-3.5,0.8c-0.1-0.2-0.1-0.5-0.2-0.7c1.1-0.3,2.2-0.7,3.4-1
			C1497.5,496.2,1497.6,496.6,1497.7,496.9z"/>
		<path class="st0" d="M1930.8,862.4c1-0.9,1.9-1.8,2.9-2.7c0.2,0.2,0.3,0.3,0.5,0.5c-1,1-1.9,1.9-2.9,2.9
			C1931.1,862.8,1930.9,862.6,1930.8,862.4z"/>
		<path class="st0" d="M2059.2,1072.3c0.7,0.3,1.5,0.5,2.5,0.9c-0.5,0.6-0.9,1.1-1.2,1.5c-0.6-0.5-1.3-1-1.9-1.6
			C2058.8,1072.9,2059,1072.6,2059.2,1072.3z"/>
		<path class="st0" d="M1038,521.4c-0.9,0.1-1.7,0.3-2.6,0.4c-0.1-0.2-0.1-0.5-0.2-0.7c0.8-0.2,1.7-0.4,2.5-0.7
			C1037.8,520.8,1037.9,521.1,1038,521.4z"/>
		<path class="st0" d="M1737.5,440.9c0.4-0.7,0.9-1.5,1.3-2.2c0.2,0,0.3,0.1,0.5,0.1c-0.1,0.5-0.1,1-0.3,1.5
			c-0.2,0.4-0.6,0.7-0.9,1.1C1737.9,441.2,1737.7,441,1737.5,440.9z"/>
		<path class="st0" d="M395.4,347.9c-1,0.5-2,1.1-2.9,1.6c-0.1-0.2-0.2-0.4-0.4-0.6c1-0.6,1.9-1.1,2.9-1.7
			C395.1,347.4,395.2,347.7,395.4,347.9z"/>
		<path class="st0" d="M920.8,797.5c0.3-0.8,0.6-1.7,0.9-2.5c0.2,0.1,0.4,0.1,0.5,0.2c-0.2,0.8-0.4,1.7-0.6,2.5
			C921.4,797.6,921.1,797.5,920.8,797.5z"/>
		<path class="st0" d="M115.8,1051.3c0.7-0.3,1.3-0.6,2-0.9c0.1,0.2,0.3,0.4,0.4,0.6c-0.3,0.3-0.5,0.7-0.9,0.9
			c-0.3,0.2-0.7,0.2-1,0.2C116.2,1051.8,116,1051.6,115.8,1051.3z"/>
		<path class="st0" d="M1816.2,58.3c0.5-0.1,1-0.2,1.6-0.4c0,0.1,0.1,0.2,0.1,0.3c-0.5,0.2-1,0.4-1.5,0.5
			C1816.3,58.7,1816.2,58.5,1816.2,58.3z"/>
		<path class="st0" d="M588.2,949.8c0.3-0.6,0.5-1.3,0.8-1.9c0.2,0,0.3,0.1,0.5,0.1c-0.1,0.7-0.3,1.4-0.4,2.1
			C588.7,950,588.4,949.9,588.2,949.8z"/>
		<path class="st0" d="M1011,570.1c0.5-0.2,1-0.3,1.5-0.5c0.1,0.2,0.1,0.4,0.2,0.5c-0.5,0.1-1,0.3-1.6,0.4
			C1011,570.4,1011,570.3,1011,570.1z"/>
	</g>
</g>
</svg>
