<?xml version="1.0" encoding="utf-8"?>
<!-- Generator: Adobe Illustrator 22.0.1, SVG Export Plug-In . SVG Version: 6.00 Build 0)  -->
<svg version="1.1" id="Livello_1" xmlns="http://www.w3.org/2000/svg" xmlns:xlink="http://www.w3.org/1999/xlink" x="0px" y="0px"
	 viewBox="0 0 1920 1080" style="enable-background:new 0 0 1920 1080;" xml:space="preserve">
<style type="text/css">
	.st0{fill:#FFFFFF;}
</style>
<g>
	<g>
		<path d="M-128.2,1085.8c-17.1,0-34.2,0-51.3,0c-0.5-3.6-0.8-7.3-1.5-10.9c-0.3-1.6-0.2-3.7-2.4-4.4c0-356.6,0-713.2,0-1069.8
			c7.1,0,14.3,0,21.4,0c1,3.1,2.1,6.1,3.3,9.7c3.7-1.6,7-2.8,10.1-4.5c2.6-1.4,4.9-3.4,7.3-5.2c709.1,0,1418.2,0,2127.3,0
			c0,361.7,0,723.4,0,1085.1c-699.9,0-1399.8,0-2099.7,0c-5.6-7.9-11.8-14.6-14.5-15.6C-128.2,1075.5-128.2,1080.7-128.2,1085.8z
			 M147.2,432c-0.9-2.2-1.5-4.2-2.5-5.9c-0.7-1.3-1.7-2.5-2.9-3.4c-1.3-0.9-2.6-0.2-2.7,1.3c-0.1,1.2-0.1,2.6,0.2,3.8
			c2.7,11.7,3.2,23.7,4,35.7c1.6,24.8,2.8,49.6,4.4,74.4c1.2,19,2.8,37.9,4.3,56.8c0.7,8.8,1.3,17.5,2.1,26.3
			c0.2,1.8,0.5,3.6,1.1,5.2c1,2.7,3.7,4.4,6.2,4.2c2.7-0.2,5.1-2.5,5.6-5.5c0.1-0.9,0.2-1.8,0.1-2.7c-1.1-9.6-2.3-19.2-3.2-28.9
			c-2.2-22.7-4.3-45.4-6.4-68.1c-0.1-1.2,0-2.4,0-4.3c0.8,0.8,1.3,1.2,1.6,1.6c2,2.8,4,5.6,5.8,8.6c7.5,12.9,15,25.8,22.5,38.7
			c5,8.6,9.8,17.3,14.7,25.9c0.4,0.7,0.8,1.3,1.3,1.9c1.4,1.5,3.2,1.9,4.8,1.1c1.6-0.8,2.5-2.5,2.1-4.5c-0.3-1.4-0.7-2.7-1.4-3.9
			c-1.7-3-3.7-5.8-5.5-8.7c-6.9-11-13.7-22.1-20.6-33.1c-8-12.7-15.4-25.8-25.4-37.2c-0.4-0.5-0.6-1.2-0.9-1.8
			c0.3-0.2,0.4-0.3,0.5-0.4c0.9-0.4,1.9-0.7,2.9-1.1c14.5-5.4,27.4-13.4,38-24.9c5.5-5.9,10.7-12,13.5-19.7
			c2.1-5.8,2.4-11.6-0.9-16.9c-9-14.3-21.9-21.7-38.9-21.3C163.1,425.3,155.2,427.6,147.2,432z M323.1,541.3
			c2.7,11.3,5.1,22.1,7.9,32.8c2.4,9.1,5.1,18.1,7.6,27.2c0.3,1,0.7,2,1.4,2.7c0.7,0.6,1.9,1.3,2.6,1c0.9-0.3,1.9-1.4,2.1-2.3
			c0.2-1.3-0.1-2.8-0.5-4.1c-4.7-17.1-9.4-34.1-14.1-51.2c-1.1-3.8-0.2-5.2,3.6-6.4c1.3-0.4,2.7-0.9,3.8-1.7c3.4-2.8,3-7.8-0.9-9.6
			c-1.9-0.8-4.2-0.9-6.3-1c-1.6-0.1-3.2,0.2-4.8,0.4c-0.4-1.2-0.7-2.1-0.9-2.9c-4-14.4-7.9-28.7-11.9-43.1
			c-2.8-10.1-5.5-20.1-8.5-30.1c-0.8-2.8-2.2-5.5-3.8-7.8c-2.9-4.2-7.2-3.9-9.6,0.6c-3.2,6-5.6,12.3-7.2,18.9
			c-5,21.2-6.6,42.8-6.8,64.5c0,1.6-0.1,3.2-0.1,4.8c-1.1,0.1-1.7,0.2-2.4,0.3c-6.3,0.7-12.7,1.4-19,2.2c-0.8,0.1-1.6,0.7-2.4,1.1
			c3.9,2.5,7.9,1.5,11.7,1.8c4,0.3,8.1,0.4,12.2,0.5c0.2,1.3,0.4,2.3,0.4,3.3c0.1,13,1.8,25.9,4.1,38.7c0.8,4.6,2.1,9.2,3.3,13.7
			c0.7,2.3,1.9,4.4,5.2,5.2c0.2-1.6,0.6-3,0.6-4.4c-0.1-2.5-0.5-5.1-0.8-7.6c-1.9-14.9-3.7-29.8-4-44.9c0-1.1,0-2.2,0-3.8
			C298.1,540.4,310.4,540.8,323.1,541.3z M458.4,514c0.2,4.3,0.4,8.4,0.5,12.6c0.5,16.9,0.9,33.9,1.3,50.9c0,0.9,0.1,1.8,0.2,2.7
			c0.6,4.6,2.5,6.3,7.2,6c3.3-0.3,6.6-1,9.8-1.7c11.7-2.7,23.3-5.7,35.4-5.4c1.1,0,2.3-0.2,3.4-0.6c2.2-0.9,3.4-3.4,2.9-5.7
			c-0.5-2.2-2.7-4.2-4.8-4.1c-4.1,0.3-8.2,0.3-12.1,1.2c-9.2,2.1-18.3,4.7-27.4,7c-2.4,0.6-4.8,1.1-7.6,1.7c-1-21.1-1.9-41.7-2.8-62
			c9,1.2,17.7,2.6,26.4,3.6c4,0.4,8.2,0.2,12.2-0.4c4.6-0.7,7.4-6.1,4-10.3c-0.5-0.6-0.9-1.2-1.5-2c-3.9,0-7.8-0.1-11.8,0
			c-8.5,0.2-17.1,0.4-25.6,0.6c-1.5,0-2.9-0.3-4.7-0.5c-0.6-22.8-1.2-45.2-1.8-67.7c0.6,0.2,1.3,0.4,2,0.7c14.7,6.1,29.6,11.7,45,16
			c1.8,0.5,3.7,1,5.6,1.1c3.2,0.1,5.8-1.6,6.6-4.2c0.6-1.9,1-3.9,1.5-5.8c-1.1-0.2-2.2-0.1-3.2-0.5c-3.2-1.2-6.2-3-9.5-3.8
			c-13.2-3.3-26.5-6.3-39.8-9.3c-6.8-1.6-13.7-3.1-20-6.2c-0.8-0.4-1.8-0.5-2.9-0.8c-0.4,2.7,1.2,4,2.5,5.2c1.9,1.6,4.1,3,6.4,4.2
			c1.6,0.9,2.6,1.8,2.6,3.8c0,3.6,0.4,7.1,0.4,10.7c-0.2,18.1-0.4,36.2-0.6,54.3c0,0.6-0.1,1.2-0.2,1.9c-2,0.2-3.7,0.1-5.4,0.5
			c-1.8,0.4-2.2,1.8-1,3.1c0.8,0.8,1.8,1.4,2.8,1.9C455.4,513.1,456.8,513.4,458.4,514z M1471.7,756.8c-0.2,0.2-0.5,0.3-0.7,0.5
			c-0.9-1.1-1.9-2.2-2.8-3.4c-8.4-12-16.8-24-25.3-36c-2-2.8-4.3-5.4-6.7-7.8c-1-1-2.5-1.8-3.9-2.3c-4.4-1.5-8,0.8-8.6,5.4
			c-0.2,1.6-0.3,3.3-0.1,5c0.8,8.1,1.6,16.2,2.4,24.3c1.1,10.7,2.6,21.2,5.9,31.5c1.1,3.4,2.2,4.9,3.8,4.5c1.5-0.3,2.4-2.5,2.3-5.6
			c-0.1-2.2-0.3-4.3-0.5-6.5c-0.7-12.9-1.6-25.7-3.6-38.4c-0.5-3-0.7-5.9-1.1-9.8c1.4,1.3,2.2,1.9,2.8,2.6c2.6,3.3,5,6.7,7.6,10.1
			c9,11.7,18,23.5,27,35.2c0.7,0.9,1.3,1.9,1.8,2.9c2,3.8,5.7,4.3,8.2,0.9c1.3-1.8,2.2-4.1,2.6-6.2c0.7-4.5,1-9.1,1.1-13.7
			c0.4-14,0.7-28,0.9-42c0-3.8-0.4-7.6-0.9-11.4c-0.6-4.3-3-6.8-6-6.8c-2.9,0-5.3,2.1-6,6.3c-0.8,4.2-1.2,8.6-1.2,12.9
			c0,8.7,0.3,17.3,0.5,26C1471.3,742,1471.5,749.4,1471.7,756.8z M1687.2,697.7c-6.4-0.9-12.6-1.6-18.8-2.5c-3.5-0.5-7-1.3-10.5-1.8
			c-0.7-0.1-1.4,0.7-2.2,1.1c0.5,0.6,0.9,1.5,1.5,1.9c0.9,0.5,1.9,0.6,2.9,0.8c8,1.6,16,3.1,24,4.7c1.1,0.2,2.1,0.6,3.4,1
			c-0.2,8.5,0.9,16.8,0.7,25.3c-1.2,0.1-1.9,0.2-2.7,0.2c-8.4-0.3-16.8-0.7-25.2-1c-1.1,0-2.3-0.3-3.4-0.1c-0.6,0.1-1.4,0.8-1.5,1.3
			c-0.1,0.5,0.6,1.2,1.1,1.7c0.3,0.3,0.9,0.3,1.4,0.4c8.3,1.6,16.6,3.3,24.9,4.9c2,0.4,3.9,0.9,5.9,1.3c0.7,5.3,1.1,10.4,1.9,15.4
			c1.1,6.7,2.3,13.3,3.7,19.9c0.9,4.2,3.2,7.8,6.4,10.7c1.5,1.4,3.2,2.1,5.3,1.2c1.9-0.8,2.8-2.4,2.7-5c-0.2-2.4-0.3-4.9-0.8-7.2
			c-2.2-10.1-4.5-20.1-6.7-30.2c-0.2-0.8-0.3-1.7-0.4-2.3c5.9,0,11.6,0.5,17.2-0.1c5.6-0.6,11.2-1.9,16.1-5.2
			c-2.2-3.8-5.2-5.4-9.1-5.5c-6.6-0.2-13.2-0.3-19.9-0.4c-2.3,0-4.5,0-6.8,0c-1.6-8.2-3.1-15.9-4.6-23.9c1.2,0.1,1.9,0,2.7,0.1
			c6.5,1.1,13,2.4,19.6,3.3c7.8,1,15.7,1.7,23.5,2.4c1.2,0.1,2.6-0.1,3.7-0.6c2-0.8,2.1-3,0.3-4.2c-0.8-0.5-1.9-0.8-2.8-1.1
			c-2.5-0.6-4.9-1.4-7.5-1.6c-10.5-1.2-21-2.2-31.5-3.3c-2.9-0.3-5.8-0.5-9-0.8c-0.3-2.2-0.5-4.2-0.7-6.2c-0.6-4.2-1.1-8.3-1.8-12.5
			c-0.2-1.3-0.5-3.2-2.4-3c-2,0.3-1.3,2.1-1.3,3.4c0,1.7,0.3,3.3,0.4,5C1687.2,689,1687.2,693,1687.2,697.7z M1321.8,309.3
			c-0.2,0.1-0.4,0.2-0.5,0.2c-0.7-1-1.5-2-2.1-3.1c-8.1-12.2-15.3-25-21.8-38.1c-1.1-2.2-2.3-4.3-3.7-6.2c-2.3-3-6.3-2.8-8.4,0.3
			c-0.8,1.2-1.4,2.8-1.5,4.3c-0.5,9.3-1.3,18.6-1.1,27.9c0.3,13.4,1.2,26.7,1.9,40.1c0,0.9,0.1,1.8,0.4,2.6c1.1,3.1,3.7,3.6,5.8,1.1
			c1-1.2,1.6-2.9,2.1-4.4c1.5-5.2,1.8-10.5,1.8-15.9c0-12,0-24,0-36c0-1.1-0.5-2.4,0.6-3.4c0.4,0.3,0.6,0.4,0.7,0.6
			c8,12.4,16,24.8,24,37.3c1.8,2.8,3.9,5.2,5,8.5c0.9,3,4.7,3.2,6.3,0.4c0.9-1.6,1.5-3.6,1.4-5.4c-0.1-4.3-0.3-8.7-1.2-12.9
			c-3.5-16.3-7.3-32.6-11.2-48.8c-1-4.2-2.9-8.2-4.6-12.6c-1.4,2.3-2.6,3.9-3.5,5.7c-0.6,1.1-1,2.4-1,3.6c0,4.7,0,9.4,0.5,14.1
			c0.8,8.7,3.6,16.9,6,25.2C1319.1,299.3,1320.4,304.3,1321.8,309.3z M1251.4,338c-1.3-0.9-2-1.2-2.6-1.7c-1.1-1.1-2.2-2.1-3.1-3.3
			c-10.5-13.4-14.9-28.8-14.6-45.6c0.1-4.1,0.6-8.1,0.7-12.2c0-2.7-1.4-4.8-2.9-4.9c-1.4-0.1-3.4,1.7-3.9,4.2
			c-1,5.3-2.2,10.5-2.3,15.8c-0.4,12.5,1.8,24.6,7.3,36c3.8,8,8.3,15.5,15.8,20.8c6.8,4.8,14,3.2,17.5-4.3c2-4.2,3.6-8.8,4.4-13.4
			c1.6-9,2.8-18.1,3.6-27.2c0.7-7.7,0.9-15.5-0.6-23.2c-0.5-2.5-1.2-4.9-2.1-7.3c-0.6-1.7-2.1-2.6-3.9-2.5c-1.8,0.1-3.1,1.1-3.8,2.7
			c-0.4,0.9-0.7,1.9-0.9,2.9c-0.9,6.2-1.7,12.3-2.4,18.5c-1.4,11.5-2.6,23-4,34.5C1253.1,331,1252.2,334.2,1251.4,338z
			 M1402.1,745.2c0-0.2,0-0.4,0-0.6c-0.7-0.2-1.4-0.5-2.1-0.6c-8-2-8.1-2-11.5-9.3c-4.4-9.5-8.7-19-13.1-28.5c-0.9-2-2-3.9-3.2-5.6
			c-4.8-6.5-12.2-5.9-15.4,1.4c-2,4.6-3.6,9.6-4.2,14.6c-0.9,6.9-0.6,14-0.9,21c0,1.2-0.1,2.4-0.1,3.8c-2.4-0.1-4.3-0.3-6.2-0.3
			c-5-0.1-9.9-0.1-14.9-0.1c-0.9,0-1.8,0.1-2.6,0.4c-0.5,0.2-1.1,0.8-1.2,1.3c0,0.5,0.5,1.2,1,1.4c0.6,0.3,1.5,0.4,2.2,0.5
			c4.8,0.6,9.6,1,14.4,1.6c2.6,0.3,5.2,0.8,7.8,1.3c0.1,1.1,0.3,1.9,0.3,2.6c0.2,8.4,0.5,16.8,0.7,25.2c0,1.7,0,3.3,0.4,4.9
			c0.2,0.8,1.2,1.4,1.8,2c0.5-0.7,1.4-1.4,1.6-2.3c0.4-2.4,0.5-4.8,0.8-7.2c0.6-6.2,1.2-12.4,1.8-18.6c0.2-1.9,0.4-3.7,0.6-5.8
			c8.1,0,16,0,24,0c0.4,0.8,0.8,1.6,1.3,2.4c3.5,6.2,7,12.4,10.6,18.6c1,1.6,2.2,3.1,3.7,4.4c1.5,1.3,3.5,1.5,5.4,0.4
			c1.7-1,2.3-2.8,1.9-5c-0.2-0.9-0.5-1.7-0.9-2.5c-1.2-2.2-2.5-4.5-3.7-6.7c-2.4-4.2-4.7-8.4-7.2-12.8
			C1397.6,746.5,1399.9,745.8,1402.1,745.2z M1801.4,743.9c2.6,3.9,5,8,7.7,11.8c2.9,4,6.1,7.8,9.3,11.6c0.9,1,2.1,1.9,3.3,2.5
			c1.7,0.8,3.5,0.6,4.9-0.9c1.3-1.5,1.5-3.2,0.4-4.9c-0.6-1-1.4-1.8-2.1-2.7c-4.3-5.1-8.5-10.1-12.8-15.2c-0.6-0.7-1-1.6-1.7-2.9
			c2.5,0,4.5,0.1,6.5,0c2.1-0.1,4.1-0.6,6.6-2.7c-5.8-1.4-10.6-2.8-15.6-3.8c-2.2-0.4-3.6-1.3-4.7-3.2
			c-8.2-13.1-15.5-26.6-22.5-40.4c-1.2-2.4-2.7-4.7-4.6-6.5c-2.7-2.7-5.8-1.8-7.3,1.7c-0.4,0.9-0.7,1.9-1,2.9
			c-3.3,12.3-6.1,24.7-7,37.5c-0.1,1.5-0.4,2.9-0.6,4.5c-1.2,0-2-0.2-2.7,0.1c-0.7,0.3-1.5,0.8-1.8,1.5c-0.2,0.3,0.6,1.3,1.2,1.7
			c0.9,0.6,2,1,3.3,1.6c-1.1,12.1,1.2,24.2-0.6,36.3c-0.3,2.2,0.7,4.1,2,4.6c1.3,0.5,3.4-0.5,4.6-2.1c0.4-0.6,0.9-1.3,1-2
			c0.6-2.5,1.4-4.9,1.5-7.4c0.4-7.5,0.5-15,0.7-22.5c0-1.3,0.1-2.7,0.2-4.4C1780.5,742.8,1790.8,744.2,1801.4,743.9z M1556.6,755.4
			c-2.2,1.1-2.8-0.2-3.5-1.3c-2.6-4.5-5.5-8.9-7.8-13.6c-3.8-7.9-7.1-16.1-10.9-24c-2.6-5.5-5.5-10.9-8.8-16.1
			c-1.8-2.9-4.7-4.9-8.5-3.8c-3.6,1.1-4.5,4.3-4.8,7.5c-1.2,11-1.4,22.1-0.4,33.2c0.6,6.3,0.7,12.7,0.8,19.1
			c0.1,3.6-0.3,7.1-0.4,10.7c0,0.9,0,1.8,0.3,2.6c0.5,1.5,2,1.9,3,0.7c1-1.1,1.7-2.5,2.2-3.9c2.9-7.4,4.2-15.2,4.3-23.2
			c0.1-8.3,0.2-16.6,0.3-24.8c0-2.3,0.3-4.6,0.5-7c2,1.7,3.3,3.4,4.3,5.2c2.2,3.8,4.2,7.6,6.3,11.4c5.1,9,10.2,17.9,15.2,26.9
			c0.4,0.8,0.4,1.8,0.4,2c2.3,2.5,4.2,4.7,6.1,6.9c1.5,1.8,3,2,4.3,0c0.8-1.2,1.6-2.7,1.7-4.2c0.5-5.1,1.1-10.2,0.9-15.2
			c-0.4-11.3-1.2-22.6-2.1-33.9c-0.6-7.3-1.8-14.6-2.7-21.9c-0.3-2.5-2.1-3.4-4-1.7c-1.3,1.1-2.3,2.8-2.8,4.4
			c-0.6,2-0.7,4.3-0.8,6.4c-0.7,12.7,1.2,25.2,3.4,37.6C1554.5,742,1555.5,748.7,1556.6,755.4z M1390.4,302.1c1.6,0,2.8,0,4.1,0
			c6.6,0,13.3,0.1,19.9-0.1c5.9-0.2,11.7-0.8,17.1-3.5c1.8-0.9,3.2-2,3-4.8c-1.6,0-3.1-0.1-4.5,0c-12.3,1.1-24.6,2.3-36.9,3.4
			c-0.8,0.1-1.7-0.1-2.8-0.2c-0.4-10.1-0.9-19.9,0.2-30c3,0.2,5.6,0.4,8.1,0.6c11.1,1.1,22.1-0.5,33.2-1.4c1.7-0.1,3.4-1,5.7-1.8
			c-5.5-3-10.7-3.4-15.9-3.5c-8.7-0.2-17.3-0.1-26-0.1c-1.5,0-2.9,0-4.6,0c0-3.3,0-6.1,0-8.9c0-1-0.1-2.1-0.4-3
			c-0.2-0.4-1-0.9-1.4-0.9c-0.4,0-1.2,0.7-1.2,1.1c-0.2,1.4-0.1,2.8-0.2,4.2c-0.2,2.6-0.3,5.2-0.5,7.9c-1.8,0.1-3.1,0.2-4.3,0.3
			c-2.8,0.2-5.6,0.3-8.4,0.6c-0.7,0.1-1.3,1-1.9,1.5c0.6,0.6,1,1.6,1.7,1.8c2,0.5,4,0.7,6,1c2,0.2,4,0.4,6,0.6
			c-0.6,10.4-1.2,20.4-1.9,30.6c-0.7,0.2-1.4,0.4-2.2,0.5c-1.8,0.3-3.6,0.3-5.3,0.7c-0.8,0.2-1.3,1.2-2,1.8c0.8,0.5,1.5,1.2,2.4,1.5
			c0.8,0.2,1.8-0.1,2.7-0.1c1.5,0,3,0,4.6,0c0.1,1.4,0.1,2.5,0.3,3.6c0.8,5.9,1.3,11.9,2.4,17.8c1,5.4,3.4,10.5,7.2,14.6
			c6.3,6.9,14.7,8.3,23.5,7.5c5.4-0.5,10.1-2.8,13.8-6.7c1.8-2,3.2-4.2,2.3-6.9c-2.3,0.5-4.3,1.2-6.3,1.4
			c-6.6,0.9-13.1,1.8-19.8,0.5c-4-0.7-7-2.7-9.4-5.9C1392.7,320.3,1391.7,311.4,1390.4,302.1z M1706.3,294.6
			c-11-0.6-21.8,2.2-33,2.4c-1-8.4-0.9-16.6,0.2-24.7c0.9-0.1,1.4-0.1,1.9-0.1c11.5,0.5,22.5-1.4,33-6.4c1.7-0.8,3.7-1.5,4.3-3.7
			c-1.5-0.3-2.8-0.3-3.9-0.8c-2.9-1.4-5.9-1.4-9-1.2c-6.9,0.5-13.7,1.2-20.4,3.1c-1.4,0.4-2.9,0.6-4.8,0.9c0.2-1.8,0.4-3.1,0.6-4.5
			c0.1-0.9,0.5-1.8,0.4-2.6c-0.1-0.6-0.6-1.6-1.1-1.7c-0.5-0.1-1.5,0.5-1.7,1c-0.5,1.4-0.8,2.9-1.1,4.4c-0.3,1.5-0.6,2.9-0.8,4.4
			c-3.3,1-6.4,1.9-9.4,2.9c-1.3,0.4-2.6,1-3.8,1.7c-0.5,0.3-1,1.3-0.8,1.9c0.1,0.5,1.1,1,1.7,1c1.9,0,3.8-0.2,5.7-0.3
			c1.8-0.1,3.7,0,5.6,0c-0.5,8.8-0.9,17-1.4,25.5c-2.3,0.2-4.4,0.4-6.5,0.7c-2.5,0.3-5.1,0.5-7.6,1c-0.6,0.1-1.3,1-1.4,1.5
			c0,0.5,0.7,1.3,1.3,1.5c1.1,0.3,2.2,0.3,3.4,0.4c3.7,0.1,7.3,0.2,11,0.3c0.3,2.8,0.4,5.2,0.8,7.6c1.1,8.2,2.5,16.4,7.1,23.6
			c2.4,3.8,5.7,6.4,10,7.8c5.8,1.9,11.8,1.9,17.8,1.1c4.7-0.6,9.3-1.6,13.4-4.2c3.9-2.5,5.6-5.7,4.5-10.1c-2.4,0.3-4.8,0.5-7.2,0.8
			c-6.6,0.8-13.1,1.7-19.7,2.4c-6.7,0.7-11.9-2-15.2-8c-3.3-6-5.3-12.4-5.9-19.2c0-0.5,0.1-1,0.1-1.7c2.5-0.2,4.9-0.3,7.3-0.5
			c4.5-0.5,9.2-0.7,13.6-1.7C1699,299.7,1703.3,298.8,1706.3,294.6z M1543.4,309.9c-1.3,0-2.3-0.1-3.3,0c-2.9,0.2-5.8,0.5-8.7,0.8
			c-1.2,0.1-2.6,0.2-2.5,1.7c0.1,1.8,1.7,1.5,2.9,1.5c2,0,4.1-0.3,6.1-0.3c1.8,0,3.7,0.2,5.5,0.3c0.8,8.2,1.5,15.9,2.2,23.6
			c0.1,1.4,0.2,2.8,0.5,4.2c0.8,3,3.1,3.8,5.5,1.9c1-0.7,1.9-1.8,2.3-3c0.7-2,1.3-4.2,1.4-6.3c0.2-5.5,0.2-11,0.2-16.4
			c0-1.5,0.2-2.9,0.3-4.3c6.6-0.8,12.8-1.6,18.9-2.3c2.5,5.3,4.8,10.6,7.6,15.8c2,3.7,4.4,7.1,6.8,10.6c0.7,1.1,2,1.7,3.3,1.1
			c1.6-0.7,1.9-2.1,1.4-3.6c-0.8-2.1-1.7-4.2-2.8-6.3c-3.2-6.1-6.5-12.1-9.6-18.3c-6-12-9.9-24.8-14.3-37.5
			c-1.3-3.8-3.4-7.4-5.5-10.9c-0.9-1.4-2.4-2.6-3.9-3.5c-2.8-1.5-4.9-0.8-6.3,2c-0.9,1.8-1.5,3.8-2,5.8
			C1545.8,280.6,1543.4,294.8,1543.4,309.9z M1162,721.9c-0.1,1.4-0.1,2-0.2,2.6c-1.4,11.4-2.5,22.8-1.3,34.3
			c0.7,7,1.9,13.9,5.2,20.2c1.3,2.5,3,4.7,4.6,6.9c0.8,1,1.9,1.8,3.3,1c1.6-1,1.1-2.3,0.5-3.7c-1-2.7-2.2-5.4-2.8-8.3
			c-3.4-15.3-4.5-30.7-3.9-46.3c0-1.2,0.3-2.4,0.5-4.3c5.3,2.8,10,5.2,14.6,7.9c8.7,5.1,16.9,11,23.6,18.6c3.2,3.5,5.8,7.4,7.2,12
			c1,3.2,0.1,5.8-2.3,7.9c-1.2,1.1-2.7,2.1-4.2,2.6c-4,1.3-8,2.6-12.2,3.2c-4.8,0.7-9.6,0.6-14.5,0.8c-2.7,0.1-4.5,1.6-4.9,3.9
			c-0.4,2.1,0.7,4.3,3,5.2c2.1,0.8,4.5,1.4,6.7,1.3c9.1-0.4,17.9-2.4,25.9-7.1c2.1-1.3,4.2-3,5.7-4.9c4.6-5.7,4.3-12,1.2-18.3
			c-3.3-6.8-8.3-12.2-14.1-16.9c-10-8.3-21.1-14.6-33-19.7c-0.9-0.4-1.8-0.9-2.7-1.3c0.1-1.7,0.4-3.3,0.3-4.8c0-0.8-0.7-2.1-1.1-2.1
			c-0.8,0-1.9,0.5-2.5,1.1c-1,1.1-1.6,2.6-2.3,3.8c-0.5-0.1-0.9-0.2-1.3-0.2c-7.2-1.8-14.3-3.6-21.5-5.4c-1-0.2-2-0.4-3-0.3
			c-0.8,0.1-1.9,0.6-2.1,1.2c-0.4,1.2,0.6,1.7,1.7,2c3.2,0.7,6.5,1.4,9.7,2.3C1151.3,718.6,1156.5,720.3,1162,721.9z M1377.6,585.4
			c0,1.2,0,2.1,0,3c0.3,5.2,0.2,10.5,1.1,15.6c1.7,10.5,7.2,18.4,17.7,21.9c5.1,1.7,10.5,2.3,15.8,2.2c5.3-0.1,10.2-1.8,14.6-5.1
			c1.9-1.4,2.6-3,1.4-5.5c-1.3,0.2-2.7,0.2-4.1,0.5c-7.4,1.5-15,1.5-22.5,1c-8.8-0.7-15.4-4.8-18-13.6c-1.4-4.7-1.8-9.7-2.5-14.6
			c-0.2-1.6,0.3-3.2,0.4-5c1.6,0.1,2.9,0.2,4.1,0.3c8.4,0.7,16.8,1.7,25.2,0.8c2.9-0.3,5.8-0.7,8.6-1.5c3.7-1.2,4.6-3.4,3.6-7.7
			c-13.8-0.8-27.4,3-41.3,2.7c0.3-9.2,0.5-18.2,0.8-27.3c1.7,0,2.9,0,4.2,0c6.1,0.1,12.2,0.1,18.3,0.3c5.2,0.1,10.1-1,15-2.3
			c2.1-0.6,4.2-1.4,5.9-3.2c-2.9-2-5.2-4-8.6-4.5c-5.2-0.8-10.4-1.2-15.6-0.6c-4.9,0.6-9.8,1.4-14.7,2.3c-2.5,0.4-4.9,1.3-7.4-0.8
			c-0.7,2.8-2.8,3-4.8,3.4c-2,0.4-4,0.8-5.9,1.4c-1.4,0.4-3.5,0.6-3.1,2.6c0.4,2.1,2.4,1.3,3.9,1.1c3-0.3,6-0.7,9.2,0.2
			c0.1,9.2,0,18.2-1.3,27.2c-1,0.2-1.7,0.3-2.4,0.4c-1.6,0.3-3.3,0.4-4.9,0.9c-0.7,0.2-1.2,1.1-1.8,1.6c0.6,0.5,1.2,1.3,1.9,1.5
			c0.8,0.3,1.8,0.2,2.6,0.3C1374.7,585.2,1376,585.3,1377.6,585.4z M1535.7,434.4c-0.6-1-1.1-2-1.7-3c-5.4-9.4-10.8-18.8-16.4-28
			c-1.4-2.3-3.2-4.3-5.1-6.1c-5.5-5.4-10.1-4.1-12.3,3.3c-4.3,14.7-6.2,29.6-6.2,44.9c0,7.1-0.6,14.2-0.9,21.4c0,0.9-0.3,1.8,0,2.6
			c0.2,0.9,0.9,1.7,1.3,2.5c0.9-0.5,2.1-0.9,2.7-1.7c0.8-1,1.2-2.2,1.5-3.5c2.1-7,2.7-14.2,3-21.5c0.1-1.5,0.1-2.9,0.2-4.5
			c10.5,0.2,20.6,0.5,31,0.7c0.4,0.8,1.1,2,1.8,3.2c3,5.8,6.6,11.2,10.9,16.1c0.8,0.9,1.5,1.7,2.4,2.5c1.7,1.3,3.1,1.4,4.1,0.2
			c1.2-1.3,0.7-2.6-0.2-3.8c-1.4-2-2.9-3.9-4.4-5.8c-3.5-4.4-6.5-9.1-8.9-14.1c2.5-1.2,5.7-1,6.9-4.5
			C1542.1,434.9,1539.1,434.7,1535.7,434.4z M1662.9,614.7c-5.1-4.9-8.3-10.7-11.1-16.7c-2.9-6-6.4-11.8-8.7-18.5
			c5.3-0.4,10.5,0.3,15.1-3.4c-3.4-1.3-6.3-2.5-9.3-3.5c-3.1-1-6.3-1.8-9.4-2.7c-1.1-3.1-2.3-6.2-3.2-9.4c-2.6-8.5-5-17.1-7.6-25.7
			c-0.6-1.9-1.4-3.9-2.5-5.5c-3-4.3-7.7-4.9-11.4-1.2c-1.8,1.8-3.2,4.3-4.4,6.6c-3.9,8.2-5.7,17.1-7.7,25.9
			c-0.4,1.8-0.9,3.6-1.3,5.2c-2.1,0-3.8-0.1-5.4,0.1c-0.8,0.1-1.5,0.8-2.2,1.2c0.5,0.8,0.9,1.9,1.6,2.3c1.5,0.8,3.3,1.3,5.2,2.1
			c-0.7,4.2-1.3,8.3-2.1,12.4c-1.6,9-3.3,18-4.9,27.1c-0.2,1.4-1,3.5,0.8,4c2.4,0.7,2.3-1.9,2.6-3.3c2.3-10.6,4.5-21.2,6.7-31.8
			c0.5-2.3,0.9-4.7,1.4-7.1c1,0.1,1.6,0.2,2.2,0.3c8.6,1.7,17.2,3.7,25.9,4.9c3.6,0.5,5.1,2.1,6.4,5.2c3.5,8.8,7.6,17.3,12.9,25.1
			c1.5,2.2,3.4,4.1,5.3,5.9C1659,615.6,1660.5,616.4,1662.9,614.7z M417.5,435.3c-1.2-2.9-3.6-4.2-6-4.4c-3.1-0.3-6.4-0.3-9.4,0.4
			c-14.7,3.7-24.2,13.5-30.8,26.6c-6.1,12.1-8.7,25.4-9.6,38.7c-1.2,17.4,0,34.6,4.4,51.6c3.1,12.1,8.2,23.3,15.8,33.3
			c13.9,18.5,33.1,29.8,54,38.9c1.2,0.5,2.4,0.8,3.7,0.9c2.2,0.2,4.1-1,4.9-2.9c0.8-1.8,0.3-3.5-1.4-5.1c-0.6-0.6-1.4-1.1-2.1-1.6
			c-3.4,1-4.7,1.1-8.9-0.3c-13.2-4.4-24.9-11.5-35.3-20.8c-11.4-10.2-19.6-22.5-24.3-37c-7.7-23.8-9.5-48.2-4.7-72.8
			c2.4-12.2,6.3-23.8,14.7-33.5c4.1-4.7,8.9-8.5,14.5-11.1c5.8-2.6,12-4.7,18.3-0.8C415.7,435.5,416.6,435.3,417.5,435.3z
			 M1573.7,602.2c-0.3,0.1-0.6,0.2-0.9,0.3c-2.7-4-5.5-7.9-8.1-12c-6.9-10.9-12.2-22.7-17.6-34.3c-1.3-2.8-3.2-5.5-5.2-8
			c-0.9-1.1-2.4-1.9-3.7-2.5c-1.6-0.7-3.1-0.1-3.6,1.7c-0.6,2.5-1.4,5-1.3,7.5c0.2,9.6,0.5,19.1,1,28.6c0.6,10.3,3.3,20.4,2.5,30.8
			c0,0.3-0.1,0.6,0,0.8c0.5,0.7,1.1,1.4,1.7,2.2c0.5-0.8,1.5-1.5,1.5-2.3c0.1-5.7,0.2-11.5-0.1-17.2c-0.8-12.2-1.8-24.4-2.7-36.6
			c-0.2-2.2-0.1-4.3,0-6.5c0.1-1.7,0.1-3.5,1.6-5.6c2,3.1,3.9,5.6,5.3,8.4c4.8,9.4,9.2,19,14.1,28.4c4.2,8,9.4,15.4,15.3,22.4
			c0.9,1,1.2,2.7,3.1,2.4c1.8-0.4,2.3-2,2.5-3.5c0.3-2.6,0.6-5.3,0.5-8c-0.4-15.9-0.9-31.9-1.4-47.8c-0.2-5.5-0.7-10.9-1.2-16.4
			c-0.2-2.6-1.4-3.8-3.1-3.7c-2,0.1-2.9,1.5-3.2,3.2c-0.5,3-1.4,6-1.3,9c0.1,15,0.3,30.1,2.6,45
			C1572.5,593.2,1573.1,597.7,1573.7,602.2z M1740.5,404.3c0-0.7-0.1-1.2-0.1-1.7c0-3.6,0.1-7.1,0-10.7c0-0.8-0.8-2.1-1.4-2.2
			c-1.6-0.3-1.6,1.2-1.7,2.3c-0.1,0.6,0,1.3,0,1.9c-0.1,3.1-0.1,6.1-0.3,9.2c-0.1,1.5-0.3,3.1-2.3,3.5c-0.5,0.1-1.4,1.3-1.3,1.6
			c0.3,0.7,1.1,1.1,1.7,1.6c0.4,0.3,0.8,0.4,0.9,0.4c0,11.3-0.2,22.3,0.1,33.2c0.3,9.5,1.8,18.8,5.9,27.4c2.6,5.4,6.8,8.9,12.3,10.8
			c6.7,2.3,13.6,2,20.3,0.1c3.4-1,6.8-2.1,10.2-3.2c2.3-0.7,3.8-2.2,4.6-4.4c-2.9-0.1-5.5-0.3-8.1-0.3c-6.4,0-12.7,0.2-19.1,0.1
			c-9.6-0.1-15.6-4.9-18.7-13.9c-4-11.9-4.7-24.2-4.4-36.6c0.1-4.4,0.4-8.8,0.6-13.7c2,0.2,3.6,0.2,5.2,0.4c6.8,0.9,13.7,1.4,20.6,1
			c5.6-0.3,10.7-2,15.7-4.4c2.1-1,3.7-2.6,4.1-5.1c-2.3-1.8-4.8-2.6-7.5-2.4c-5,0.3-10,0.4-14.8,1.2
			C1755.6,401.2,1748.3,402.8,1740.5,404.3z M1317.9,625.7c4.8-1,9.3-1.8,13.8-2.9c5.5-1.3,10.6-3.6,15.1-7.1
			c5.1-4,6.6-9.1,5.3-15.3c-1-5-3.3-9.3-6.6-13.2c-8.8-10.5-19.7-18.4-31.8-24.7c-2.7-1.4-4.1-3.1-3.9-6.1c0.1-1.4-0.1-2.8-0.2-4.2
			c0-0.6,0.1-1.4-0.2-1.9c-0.3-0.6-0.9-1.4-1.5-1.4c-0.5,0-1.4,0.7-1.5,1.3c-0.3,1.2-0.3,2.5-0.4,3.8c-0.1,1.4,0,2.7,0,4.4
			c-3.5-1.2-6.6-2.5-9.7-3.2c-6.2-1.4-12.5-2.4-18.7-3.5c-1-0.2-2.1-0.1-3,0.2c-0.6,0.2-1.3,1-1.3,1.5c0,0.4,0.9,1,1.4,1.4
			c0.3,0.2,0.7,0,1.1,0.1c9.8,0.2,19,3.1,28,6.8c1.6,0.7,2.4,1.7,2.4,3.4c0.1,5.2,0.2,10.4,0.3,15.7c0.2,11.5,1.1,22.9,3.2,34.2
			c0.4,2.1,1.5,4.1-0.2,6.2c-0.3,0.4,0,2.1,0.4,2.3c2.9,1.4,3.3,4.3,4.5,6.7c0.7,1.5,1.7,2.9,3.6,2.6c0.3-0.3,0.6-0.5,0.6-0.7
			C1318.4,629.9,1318.2,627.8,1317.9,625.7z M1169.9,421.4c2.4,1.1,4,1.8,5.6,2.6c15,7.1,27.6,17.3,38.6,29.6
			c2.6,2.9,4.7,6.4,6.5,9.8c2.6,4.8,1.4,8.5-3.7,10.5c-3.5,1.4-7.3,2.3-11,2.8c-5.5,0.8-11.2,1-16.7,1.5c-1.8,0.2-3.2,1-3.5,2.9
			c-0.2,1.9,0.8,3.3,2.5,3.8c1.5,0.5,3.2,1,4.8,1c9.8,0,18.9-2.9,27.1-8.1c6.1-3.9,7.5-9.9,4-16.3c-1.9-3.6-4.1-7.1-6.8-10.1
			c-12.1-13.7-26.6-24.5-43.4-31.9c-2.5-1.1-4.9-2-5.7-4c-2.5-0.4-4.4-0.4-6.3-0.9c-5.6-1.5-11.2-3.3-16.9-4.8
			c-1.2-0.3-2.8-0.8-3.2,0.9c-0.5,1.8,1.2,1.9,2.4,2.3c0.4,0.1,0.7,0.2,1.1,0.3c4.5,1.3,9.1,2.4,13.6,3.9c8.4,2.9,7.2,1.3,7.6,10.3
			c0.5,11.8,0.7,23.7,2.3,35.5c1.1,8.3,3.6,16.1,7.5,23.5c1.1,2.2,2.6,4,6,4.3c-3.3-11.5-6.4-22.6-8-34
			C1172.7,445.1,1171.4,433.6,1169.9,421.4z M1678.7,434c0.7,7.8,1.1,15.2,2.1,22.5c0.6,4.1,1.8,8.2,3.2,12.2c0.7,1.9,2.2,3.7,3.8,5
			c1.3,1.1,2.8,0.1,2.7-1.7c0-0.6-0.3-1.2-0.5-1.8c-1.7-7.3-3.7-14.6-5.1-21.9c-0.8-4.3-0.8-8.8-1.2-13.8c8.2,0.9,15.7,1.7,23.3,2.5
			c0.1,3.1,0.3,5.6,0.4,8.2c0.2,7.5,0.7,15.1,2.9,22.3c0.9,2.9,2.6,5.5,4.2,8c0.4,0.7,2.2,1.3,2.8,0.9c0.7-0.3,1.2-1.9,1.1-2.8
			c-0.1-1.8-0.6-3.5-1.1-5.2c-3-9.3-4.7-18.8-5.4-28.5c-0.1-0.8,0-1.7,0-2.4c2-0.8,4.5,0.3,5.4-3c-2-0.5-3.9-0.9-5.9-1.3
			c-0.2-3.6-0.5-7-0.5-10.4c-0.1-9.6-0.2-19.1-0.3-28.7c0-1.8-0.2-3.6-0.6-5.3c-0.1-0.6-1.1-1.1-1.7-1.6c-0.5,0.7-1.3,1.3-1.3,2
			c-0.1,1.8,0.4,3.5,0.3,5.3c-0.1,12.1-0.2,24.2-0.4,36.3c0,0.7-0.2,1.4-0.3,2.5c-7.7-0.7-15.1-1.4-22.5-2.1c-0.1-1-0.3-1.6-0.3-2.2
			c-0.7-13-0.6-26,1-38.9c0.1-0.9,0.3-1.8,0.1-2.6c-0.1-0.6-0.8-1.2-1.4-1.4c-0.3-0.1-1.2,0.5-1.4,1c-0.4,1.2-0.6,2.5-0.7,3.7
			c-1.5,11.8-1.4,23.6-1.6,35.5c0,1.4,0,2.7,0,3.7c-0.6,0.4-0.7,0.5-0.8,0.6c-1.3,0.6-3.7-0.5-3.8,1.6
			C1675,434.4,1677.7,433.4,1678.7,434z M1463.4,467.7c-0.5,0.2-1,0.4-1.5,0.6c-0.5-0.9-1-1.7-1.5-2.6c-2.5-4.3-5.4-8.4-7.5-12.8
			c-3.6-7.6-4.9-16.1-7-24.2c-1.6-6.3-3.6-12.5-5.6-18.7c-0.5-1.4-1.4-2.7-2.2-4c-0.2-0.3-1.2-0.5-1.7-0.3c-0.4,0.2-0.7,1-0.8,1.5
			c-0.1,0.4,0.3,1,0.5,1.4c3.4,6.6,5,13.9,6.7,21.1c2,8.3,3.7,16.7,7,24.6c2.3,5.7,5.5,10.9,9.5,15.6c3.1,3.6,6.7,3.4,9.7-0.2
			c0.6-0.8,1.3-1.6,1.6-2.6c1.6-4.3,3.5-8.5,4.4-13c2-9.7,1.9-19.5,1.6-29.3c-0.2-6.5-1-13-1.6-19.4c-0.2-2.3-0.8-4.5-3.4-5.2
			c-2,0.9-2.7,2.4-3,4.3c-0.7,4.4-1.7,8.8-1.9,13.2c-0.3,10.4,0.1,20.9-0.2,31.4c-0.1,4.7-0.9,9.4-1.5,14
			C1464.7,464.8,1463.9,466.2,1463.4,467.7z M1408.2,470.5c-2.3-0.2-3.8-0.2-5.3-0.4c-2.3-0.2-4.5-0.5-6.8-0.6
			c-3.4-0.2-6.9-0.1-10.3-0.5c-5.8-0.8-11.6-1.8-16.6-5.1c-5.4-3.5-7.5-8.7-7.3-14.7c0.2-6.1,1.6-12.1,4.6-17.6
			c3.8-6.9,9-12.4,16.8-14.7c5.5-1.6,11-1.5,15.5,2.5c2.5,2.2,4.6,5.1,6.4,8c4.6,7.5,6.6,15.9,7.8,24.6c0.3,2.5,0.8,5,1.5,7.5
			c0.2,0.7,1.3,1.2,2,1.8c0.4-0.8,1.1-1.7,1-2.5c-0.7-5.9-1.3-11.9-2.5-17.8c-1.8-8.7-5-16.8-11.2-23.5c-3.2-3.4-7-5.4-11.6-6.1
			c-8.3-1.1-15.3,1.6-21.5,6.9c-6.5,5.6-10.6,12.7-12.6,20.9c-1.2,4.9-2.4,9.9-1.5,15.1c1.9,10.1,8.3,16.1,17.7,19.1
			c10.1,3.2,20.2,1.8,30.1-0.9C1405.6,472.3,1406.5,471.5,1408.2,470.5z M1610.2,270c0,4.2,0.1,7.8,0,11.3
			c-0.5,12-0.9,23.9,0.1,35.9c0.5,6.6,1,13.2,3.2,19.5c1.2,3.6,2.9,6.8,6,9.1c1.2,0.9,2.6,1.2,3.9,0.5c1.4-0.8,1.8-2.1,1.7-3.6
			c-0.1-0.9-0.3-1.8-0.5-2.6c-0.9-2.8-1.7-5.6-2.8-8.3c-7.3-19.6-9.1-39.9-8.3-60.5c0-0.4,0.2-0.7,0.4-1.2c1.1-0.1,2.2-0.3,3.4-0.3
			c7.8,0.1,15.4-1.4,23-3.4c2.2-0.6,4.6-1,6.4-3.7c-4.1-0.5-7.6-1.5-11-1.4c-15.2,0.6-30.1,3-45.1,5.6c-1,0.2-2,0.4-2.9,0.8
			c-0.4,0.2-0.9,1-0.8,1.5c0.1,0.5,0.7,1,1.2,1.2c0.4,0.2,1,0.1,1.5,0.1c4.5-0.1,8.9-0.3,13.4-0.4C1605.2,270,1607.5,270,1610.2,270
			z M1617.8,478.2c-2.9-3.3-3.5-3.5-7.2-3.8c-4.7-0.4-9.4-0.8-14-1.5c-6.3-0.9-11.9-3.6-15.1-9.3c-2.1-3.7-3.8-7.9-4.6-12
			c-1.8-9.1-2.5-18.4-2.5-27.7c0-7.3-0.3-14.5-0.7-21.8c-0.2-3.4-0.8-6.9-2.8-9.8c-0.4-0.6-1.6-1.1-2.2-0.9
			c-1.2,0.4-1.1,1.5-0.6,2.5c2,3.6,2.5,7.5,2.5,11.5c0,10.8-0.2,21.7-0.1,32.5c0.1,8.1,0.4,16.3,2.4,24.3c1.7,7,5.1,12.7,10.9,17
			c6.7,5,14.3,7.3,22.6,6.1C1610.9,484.5,1615.1,482.6,1617.8,478.2z M232.6,456.7c-2.1,0.9-1.8,2.3-1.8,3.5
			c-0.3,8.9-0.7,17.8-0.9,26.7c-0.4,18.9-0.1,37.7,2,56.5c1.3,11.3,2,22.6,2.6,33.9c0.4,6.2,0,12.5,0,18.7c0,1.5,0.2,3.1,0.5,4.5
			c0.4,1.8,1.8,2.8,3.6,2.8c1.8,0,3.2-1.4,3.4-3.5c0.1-1,0.1-2,0.1-3.1c0-18.7-2-37.1-5-55.5c-2.6-15.6-3.7-31.4-4-47.2
			c-0.2-11.1-0.1-22.2-0.1-33.3C233.1,459.6,232.8,458.3,232.6,456.7z M1588.4,737.6c0.3,5.9,0.4,11.3,0.8,16.8
			c0.4,5.1,0.9,10.2,3,14.9c0.9,2,2.1,3.6,4.5,3.5c1.9,0,3.6-1.4,3.9-4.1c0.5-4,0.8-8.1,0.4-12.1c-1.1-9.2-2.9-18.4-4-27.6
			c-1-8.5-1.8-17-1.8-25.5c0-7.9,1.3-15.7,2-23.6c0.1-1.5,0.3-3.1,0.2-4.6c0-0.5-0.8-1.2-1.4-1.4c-0.3-0.1-1.1,0.5-1.4,1
			c-0.3,0.4-0.3,1-0.3,1.5c-1,6.9-2,13.8-3.1,20.8C1589,710.7,1589.5,724.4,1588.4,737.6z M1494.7,579.6c0.2,5.8,0.4,13.7,1,21.6
			c0.4,4.9,1.4,9.8,2.4,14.7c0.5,2.4,2.1,4.3,4.3,5.6c3.3,1.8,6,0.6,6.3-3.1c0.2-2.2,0-4.6-0.4-6.8c-2-10.2-4.3-20.4-6.2-30.7
			c-2.7-14.3-4.4-28.7-4.9-43.2c0-0.5,0.1-1.1-0.1-1.5c-0.3-0.6-0.9-1.4-1.4-1.4c-0.5,0-1.3,0.7-1.5,1.3c-0.3,0.9-0.3,2-0.2,3
			c0.3,6.1,0.7,12.2,0.8,18.3C1494.8,563.9,1494.7,570.7,1494.7,579.6z M1463,330.7c-0.5,1.3-0.8,2-0.9,2.8
			c-0.5,2.8,0.5,5.2,2.5,6.3c2.3,1.3,4.2,0.1,6-1.2c5-3.6,7.1-9.4,5.5-15.6c-1.8-7-5.3-13.2-9.1-19.2c-3.9-6-7.7-12-11.3-18.2
			c-1.2-2-1.8-4.5-2.3-6.8c-0.9-4.7,0.8-7.5,5.3-9.2c4.2-1.5,8.6-2.1,13.2-1.3c1,0.2,2,0.5,3,0.4c0.6,0,1.6-0.6,1.7-1.1
			c0.2-0.5-0.3-1.4-0.8-1.9c-0.5-0.5-1.3-0.8-2-1c-6.4-1.9-12.8-2.1-19,0.8c-4.5,2-8.1,6-7.4,12.9c0.6,5.8,3.2,10.7,6.3,15.4
			c3.4,5.1,7,10,10.4,15.2c3.2,4.8,5.9,9.8,7.4,15.5c1.3,5-0.8,8.4-6,9.7C1464.7,333.3,1464.1,332.3,1463,330.7z M1476.9,608.6
			c-1.5,0.4-2.5,1-3.4,0.8c-5.8-0.9-11.7-0.7-17.3-2.9c-8.3-3.3-14.7-11.9-15-20.8c-0.3-10,3.5-18.6,8.3-27
			c3.1-5.4,7.7-9.1,13.3-11.6c1.8-0.8,3.9-1.2,5.8-1.7c1.1-0.3,2.6-0.4,2.3-2c-0.3-1.7-1.8-1.5-3-1.2c-1.1,0.2-2.3,0.4-3.3,0.7
			c-7,2.3-12.7,6.4-17,12.4c-4.6,6.4-7.6,13.6-9.8,21c-3.2,11.1-1.5,21.5,5.9,30.6c5.3,6.6,12.2,9.4,20.6,8.3
			c2.3-0.3,4.5-0.8,6.7-1.3C1473.6,613.3,1475.6,611.8,1476.9,608.6z M1512.3,281.3c4.2-0.8,8-1.3,11.7-2.2
			c3.7-0.8,7.5-1.6,11.1-4.1c-3.4-0.7-6.1-1.7-8.9-1.7c-6.5,0-13,0.4-19.5,0.9c-3.8,0.3-7.6,0.8-11.4,1.3c-2.1,0.3-4.3,0.5-6.4,1
			c-1.3,0.3-3.2,0.3-3,2.2c0.1,1.9,2,1.6,3.3,1.6c6,0.3,12,0.5,17.9,0.8c0.6,0,1.2,0.3,1.8,0.4c0,0.9,0,1.7,0,2.5
			c-0.4,8.4-0.9,16.8-1.1,25.2c-0.2,7.2,1,14.2,3.5,21c0.5,1.5,1.6,3,2.8,3.9c1.7,1.3,3.3,0.1,3-2c-0.5-3.4-0.8-6.9-1.7-10.2
			c-2.1-7.8-3-15.8-3.1-23.8C1512.3,292.4,1512.3,286.8,1512.3,281.3z M1663,473.3c-0.6-0.2-1.1-0.4-1.7-0.6
			c-3.4-1.1-6.9-1.9-10.1-3.5c-11.3-5.5-19.1-14.1-22.4-26.5c-1.9-7.2-2-14.5-0.6-21.6c1.6-8.3,4.5-16.2,10.5-22.6
			c4.3-4.5,8.8-7.8,15.5-5.2c0.7,0.3,1.7-0.5,2.6-0.8c-0.5-0.8-0.9-1.9-1.6-2.2c-3.9-1.9-7.8-2.2-11.7,0
			c-6.3,3.6-10.7,8.9-13.9,15.3c-4.8,9.6-6.8,19.8-6.2,30.4c0.8,15.9,7.8,28.3,22.1,36C1650.9,475,1656.7,476.2,1663,473.3z
			 M1255.1,786.2c-0.2-0.7-0.3-1.8-0.6-2.7c-3.1-9.1-4.9-18.4-6.5-27.8c-2.8-15.8-4.3-31.8-4.9-47.8c-0.1-2-0.4-4.1-0.6-6.1
			c-0.1-1.1-0.7-2.2-1.8-1.9c-0.6,0.2-0.9,1.5-1.3,2.3c-0.1,0.2,0,0.5,0,0.8c0.4,10.6,0.7,21.1,1.4,31.7c0.9,13.6,2,27.2,3.3,40.7
			c0.4,4.3,1.7,8.5,2.9,12.6c0.7,2.5,3,3.6,5,3.1C1253.8,790.6,1255.1,788.7,1255.1,786.2z M1742.5,1031.4
			c2.1-0.9,69.4-56.2,70.5-57.8c-2.8-0.2-5.5-0.2-8.1-0.6c-2.4-0.3-4,0.4-5.7,2.1c-18,17.8-36.1,35.6-54.1,53.4
			C1744.3,1029.3,1743.7,1030.1,1742.5,1031.4z M1242.2,414.4c0.2-3.1,0.3-6.1,0.5-9.2c0.1-1.1,0.3-2.5-1.2-2.7
			c-1.8-0.2-1.8,1.4-2,2.6c0,0.1,0,0.3,0,0.4c0.1,8.3-0.1,16.6,0.3,24.8c0.6,11.7,3.5,23.2,6.1,34.5c1.3,5.4,3,10.8,4.8,16.1
			c0.6,1.9,1.8,3.6,3,5.3c0.4,0.5,1.7,0.9,2.3,0.7c0.6-0.2,1-1.3,1.2-2.1c0.1-0.6-0.2-1.2-0.4-1.8c-3.1-11.2-6.2-22.3-9.2-33.5
			C1244.4,438,1242.3,426.3,1242.2,414.4z M1761.2,444.8c0,0.1,0,0.1,0,0.2c5.4-0.4,10.9-0.5,16.3-1.2c3.1-0.4,6.2-1.4,9.1-2.4
			c1.8-0.6,2.8-2.2,2.5-4.3c-0.3-1.9-1.8-3.1-4.1-3.2c-1.3-0.1-2.6-0.1-3.8,0.1c-9.7,1.8-19.5,3.6-29.2,5.4
			c-1.3,0.3-2.7,0.9-3.9,1.5c-0.6,0.3-1.3,1.3-1.1,1.7c0.2,0.7,0.9,1.5,1.6,1.8c0.9,0.4,2,0.4,3,0.4
			C1754.8,444.8,1758,444.8,1761.2,444.8z M1427.4,488.1c0.4-2.9-1.2-4.9-2.7-6.9c-9-11.4-17-23.6-24.7-35.9
			c-0.3-0.5-0.6-1.2-1.1-1.5c-0.6-0.3-1.5-0.7-1.9-0.4c-0.4,0.3-0.7,1.3-0.6,1.9c0.2,0.8,0.7,1.6,1.1,2.4c1.3,2.2,2.6,4.4,3.8,6.6
			c5.6,9.6,11.1,19.2,16.7,28.7c0.8,1.4,1.9,2.7,3.1,3.9C1422.9,488.8,1425,489.3,1427.4,488.1z M254.8,151.8c9-2.1,18-4.1,27.3-6.2
			c-0.1-2.6-0.2-4.8-0.4-7.4c-1.7,0.4-2.9,0.6-4.1,1c-4.9,1.5-9.7,3.1-14.6,4.7c-3.1,1-6,1.2-8.7-1.1c-0.9-0.7-1.8-1-2.7,0.1
			C252.7,145.7,253.7,148.5,254.8,151.8z M1890.5,342.5c5.1,1.6,5.6,1.5,7.5-2.5c3.1-6.4,6.1-12.9,9.2-19.4c0.4-0.8,0.5-1.7,1-3.2
			c-2,0.8-3.3,1.3-4.5,1.9c-9,4.2-6.6,1.4-9.5,10.8C1892.9,334.2,1891.7,338.4,1890.5,342.5z M-156.3,612.5
			c-0.8,0.6-1.1,0.8-1.3,1.1c-2.7,4.6-5.5,9.2-8.1,13.8c-0.6,1.1-0.9,2.7-0.8,4c0.3,6.5,0.8,12.9,1.3,19.4c0,0.7,0.3,1.4,0.5,2.1
			c0.3,0,0.6-0.1,0.8-0.1c-0.2-1.6-0.3-3.3-0.5-4.9c-1-6.8,0.9-12.3,6.9-16.1c1.7-1,2.2-2.2,2.1-4c-0.2-4.3-0.2-8.6-0.4-13
			C-155.8,614.2-156.1,613.6-156.3,612.5z M1353,223.5c0.4,0.2,0.7,0.5,1.1,0.7c0.8-1,1.8-2,2.5-3.1c4.1-6.2,7.5-12.7,9.1-20
			c0.9-4.3,1-8.8,1.2-13.2c0.1-1.2-0.4-2.5-0.8-3.7c-0.2-0.4-1.1-1-1.4-0.9c-0.6,0.2-1.1,0.9-1.3,1.5c-0.2,0.4,0.1,1,0.1,1.5
			c0,2.8,0.2,5.6-0.2,8.3c-0.8,6.3-3.5,11.9-5.9,17.6C1355.8,215.9,1354.5,219.7,1353,223.5z M1081.2,278.7
			c-5.6-0.7-10.7-1.4-15.8-1.9c-0.7-0.1-1.8,0.4-2.3,1c-1.5,1.8-2.9,3.8-4.6,6.1c6.5,1.3,12.5,1.8,18.5,1.5c0.6,0,1.4-0.6,1.7-1.2
			C1079.5,282.6,1080.2,280.9,1081.2,278.7z M1163.4,960c-1-0.1-1.9-0.3-2.9-0.3c-3.9-0.2-7.9,0-11.8-0.6c-5.1-0.8-9.2,1-13.3,3.5
			c-2,1.2-2.5,2.9-2.3,5C1139.4,967.2,1157.9,962.9,1163.4,960z M1236,103.6c9.2-4.5,18-7.8,26-12.7c0.4-0.2,0.5-0.7,1.2-1.6
			c-5.7,0.8-11.2-0.8-15.8,2.4C1243.2,94.6,1237.7,96.6,1236,103.6z M1394.5,52.2c1.5,2.4,3,1.8,4.3,1.7c8.8-0.3,17.6-0.6,26.4-0.9
			c4.2-0.1,5-0.8,5.8-5.6C1419,48.9,1407.1,50.5,1394.5,52.2z M315.4,1055.2c0.3-0.2,0.6-0.3,0.9-0.5c0.2-2.5,0.5-5,0.7-7.6
			c0.1-2.4,0.7-4.9,0.2-7.2c-3,0.8-5.5,1.9-8.1,2.1c-2.6,0.2-5.3-0.5-8.8-0.9C305.7,1046.1,310.6,1050.7,315.4,1055.2z
			 M1294.5,167.9c9.3,0.8,15-3.6,14.9-11.6c-5.2,1.3-10.2,2.7-15.2,4.5c0,2.3,0,4.2,0,6C1294.2,167.2,1294.4,167.6,1294.5,167.9z
			 M1621.2,201.4c-5.2-0.8-5.6-0.6-7.5,3.6c-1.1,2.3-2.1,4.6-3.2,6.9c-0.9,1.9-1.7,3.9-2.6,5.8c3.7,1.2,3.8,1.3,5.3-1.3
			c2.5-4.4,5-8.9,7.4-13.3C1620.9,202.6,1621,202,1621.2,201.4z M1299.4,1072.1c3.3,1.4,27.8,1.8,33.6,0.9c-0.3-0.3-0.5-0.6-0.8-0.7
			c-5.7-2-11.5-3.2-17.6-2.1c-3.7,0.7-7.6,0.7-11.4,1.1C1302.2,1071.4,1301.2,1071.7,1299.4,1072.1z M1515.6,1022.9
			c-1.6,0.5-2.8,0.8-3.9,1.1c-4.2,1.1-8.3,2.5-12.5,3.3c-6.6,1.3-13.2,1-19.3-2.4c-0.4-0.2-0.9-0.2-1.6-0.4
			c-1.2,1.4-2.4,2.8-4.2,4.8c2.2,0,3.4,0,4.7,0c10-0.3,20.1-0.8,30.1-0.8C1512.6,1028.5,1514.3,1026.7,1515.6,1022.9z M1060.3,936.4
			c7-2.6,14.8-6.8,17-9.5c-6.9,2.4-13.5,0.2-19.9,2.3C1058.4,931.7,1059.3,933.9,1060.3,936.4z M1236.7,214.6
			c0.1,0.3,0.3,0.6,0.4,0.9c1.8,0.1,3.7,0.3,5.5,0.2c0.6,0,1.5-0.5,1.8-1.1c2.2-3.8,4.2-7.7,6.4-11.7c-3.6-0.5-4.2-0.6-5.4,0.8
			C1242.6,207.4,1239.7,211,1236.7,214.6z M940.1,191.8c-6.2,0.2-11.1,1.8-12.6,8.9c4.2-0.4,8.3-0.7,12.6-1
			C940.1,196.9,940.1,194.5,940.1,191.8z M1662.2,29.4c12.9-1,25.6-1.9,38.3-2.9c-1.4-0.6-2.8-0.6-4.2-0.6
			c-7.9,0.1-15.8,0.1-23.6,0.2c-2.7,0-5.3,0.1-8,0.2C1663.1,26.4,1661.8,26.8,1662.2,29.4z M59.4,315.9c0.2,0.1,0.4,0.3,0.6,0.4
			c0.5-0.5,1.1-0.9,1.4-1.5c1.4-3.2,2.8-6.5,4.1-9.8c0.3-0.7,0.5-1.5,0.3-2.2c-0.7-2.6-1.8-5.1-3.8-7.2c-2.9,3.5-2.7,3.5-1.8,7.3
			c0.6,2.4,0.5,5,0.4,7.5C60.5,312.3,59.8,314.1,59.4,315.9z M945.7,989.1c4.3,0.6,5.7-0.2,6.7-4.6c1.1-4.7,1.4-9.6,2.1-14.4
			c-0.3-0.1-0.6-0.1-0.9-0.2C951,976.2,948.4,982.6,945.7,989.1z M-44.2,953c3.5-4.8,6.7-9,9.7-13.4c0.8-1.2,0.6-2.6-0.7-4.3
			c-2.5,2.8-4.7,5.6-7.2,8.1C-45,945.9-45.8,948.6-44.2,953z M548.7,164.1c0.1,0.3,0.1,0.5,0.2,0.8c2.9-0.2,5.7-0.4,8.6-0.6
			c6.5-0.6,6.7-0.7,7.6-7.3c0-0.2-0.1-0.5-0.3-0.9C559.4,158.8,554,161.5,548.7,164.1z M890.4,980.6c-7.9,0.8-9.1,1.9-10.1,10.4
			c2.1-0.2,4.6,1.2,6-1.7C887.7,986.5,889,983.6,890.4,980.6z M900.8,234.9c10.4-1.5,20.5-3,31.1-4.5c-0.7-0.6-0.9-0.9-1-0.9
			c-9,0.8-18,1.5-27,2.3C902.3,231.9,901.3,232.8,900.8,234.9z M755.5,978.4c-2.4,3.8-6,13.4-6.1,16.4c1.4-0.4,2.7-0.8,4-1.2
			c1.4-0.4,2.1-1.3,2.1-2.8C755.5,986.8,755.5,982.8,755.5,978.4z M-69.6,279.7c-3.4,3.1-6.4,6-9.7,9c1.4,1.2,2.5,2.1,3.4,3
			C-69.6,288.1-68.5,287-69.6,279.7z M26.6,935.4c0.2,0.2,0.5,0.5,0.7,0.7c2.7-2,5.5-4,8.2-6.1c0.7-0.5,1.2-1.4,1.4-2.2
			c0.6-2.6,1-5.2,1.5-7.7c-0.2-0.1-0.5-0.2-0.7-0.3C34,925,30.3,930.2,26.6,935.4z M495.4,39.4c-8.7,1.5-16.7,2.9-24.6,4.2
			c0,0.1,0.1,0.1,0.1,0.2c7.8,0,15.7,0,23.6,0C494.8,42.4,495,41.3,495.4,39.4z M529.4,1055.8c0-0.4,0-0.8,0-1.3
			c-1.2-0.2-2.3-0.5-3.5-0.4c-2.5,0.2-5,0.7-7.6,0.8c-3.4,0.1-4.6,2.3-5.9,5.7C518.5,1058.8,524,1057.3,529.4,1055.8z M1902.3,431.9
			c-3.4-0.7-6.7-1.3-10.4-2c-0.7,1.9-1.3,3.6-2,5.6c3.6,0,6.6-0.1,9.6,0C1901.7,435.6,1902.4,434.5,1902.3,431.9z M719.8,59.6
			c-5.7,0.4-6,0.5-8.5,4.2c-1.2,1.8-2.4,3.6-3.6,5.4c-1.1,1.6-2.2,3.3-3.2,4.9c0.3,0.2,0.5,0.4,0.8,0.6
			C709.9,69.8,714.7,65,719.8,59.6z M721.8,444.9c5.7,0,11.6-3.5,13.5-7.9C729.7,437.7,724.5,438.8,721.8,444.9z M1104.9,801.4
			c1.7-0.1,2.9,0.1,3.8-0.3c3.4-1.6,6.7-3.4,8.8-7.6c-1.4-0.1-2.7-0.5-3.5-0.1C1110.8,795.4,1106.9,796.4,1104.9,801.4z M578,727.5
			c4.7-0.8,8.5-1.4,12.4-2c0.2-1.8,0.3-3.1,0.5-5.2c-4.3,1.6-7.9,2.8-11.5,4.3C578.9,724.8,578.8,725.9,578,727.5z M285.8,862.9
			c5.1-2.2,9.8-4.3,14.5-6.3c-0.1-0.2-0.2-0.5-0.2-0.7c-3.4,0.4-6.7,0.8-10.1,1.2C285.8,857.5,285.8,857.5,285.8,862.9z
			 M-134.2,873.7c4.2-1.7,7.6-3.9,9.5-6.3c-1-0.9-2.1-1.9-3.4-3.1C-130.5,867.4-134.9,868.5-134.2,873.7z M22.1,1021.5
			c-1.7,0.9-2.5,1.4-3.3,1.9c-2.6,1.7-5.2,3.5-7.8,5.2c0.1,0.3,0.1,0.5,0.2,0.8c2.5,0.3,5,0.7,7.7,1
			C20,1027.4,20.9,1024.8,22.1,1021.5z M1036.4,856.2c0.1,0.2,0.2,0.5,0.4,0.7c2.2-0.6,5.1-0.5,6.6-1.9c2-2,3.3-4.8,3.3-8.2
			C1042.6,849.3,1039.6,852.9,1036.4,856.2z M1922.8,205.3c1.8,1.7,3.3,0.8,4.8,0.1c6.1-3,12.3-6.1,18.4-9.2c0.7-0.4,1.3-0.9,2-1.3
			c-0.1-0.2-0.2-0.3-0.3-0.5C1939.4,198,1931.2,201.6,1922.8,205.3z M1814.8,867.8c8.1-7.4,15.9-14.5,24.1-22
			c-2.4-0.3-3.5,0.8-4.5,1.8c-2.4,2.3-4.8,4.5-7.1,6.9C1823.2,858.8,1819.2,863.2,1814.8,867.8z M888.9,1052.8
			c-1.2,0.2-2,0.1-2.3,0.4c-1.4,1.2-5.5,9.7-5.7,11.7c1.4,0.3,2.9,0.5,3.6-1.1C886,1060.4,887.3,1056.9,888.9,1052.8z M34.2,610.6
			c3.2,0.4,6.1,0.3,9.2-0.5c-0.2-1.4-0.3-2.5-0.5-4c-3,0.3-5.6,0.6-8.3,0.9C34.6,608.2,34.4,609.2,34.2,610.6z M-108.9,65.2
			c-0.1-0.2-0.2-0.4-0.4-0.6c-4.6,2.3-9.3,4.6-13.9,6.9c-1.4,0.7-2.3,1.5-1.1,3.6C-119,71.7-114,68.5-108.9,65.2z M189.5,890.8
			c1.7,1.3,2.8,2.2,4.2,3.3c2.2-2.8,4.1-5.3,6.1-7.8c-0.2-0.2-0.4-0.5-0.6-0.7C196.1,887.2,193.1,888.8,189.5,890.8z M1522.3,126.1
			c0-0.4-0.1-0.8-0.1-1.3c-1.3-0.1-2.8-0.8-3.7-0.3c-3.2,1.9-6.1,4.2-9.2,6.4c0.2,0.3,0.3,0.5,0.5,0.8
			C1513.9,129.8,1518.1,127.9,1522.3,126.1z M366.7,286.3c-2.2-2.9-2.8-6-5.7-8.3c-0.6,3.4-0.3,6.3,0.9,9.2
			C363.4,286.9,364.7,286.7,366.7,286.3z M1375.3,83.5c5.2,4.1,7.8,3.8,13.1,0C1384.2,83.5,1380,83.5,1375.3,83.5z M93.3,703.1
			c-3,4.6-3.6,6.4-3.4,9.4c2.4-2.1,4.5-4,6.5-5.8C95.3,705.3,94.4,704.3,93.3,703.1z M1796.8,282.4c-0.2-0.3-0.3-0.5-0.5-0.8
			c-2.3,1.1-4.7,2.2-6.9,3.4c-2.3,1.2-2.5,2-2,5.5C1790.7,287.7,1793.7,285,1796.8,282.4z M247.9,230.3c0.2,2.8,2,3.6,3.5,4.8
			c1.4-0.6,2.9-0.9,3.8-2.8C252.7,231.5,250.4,231,247.9,230.3z M343.4,376.4c1.8,3.5,1.9,3.5,5.4,2c-0.2-1.3-0.4-2.7-0.7-4.5
			C346.1,374.9,344.7,375.6,343.4,376.4z M198.7,798.6c0.1,0.3,0.2,0.5,0.2,0.8c2.1-0.3,4.2-0.6,6.4-0.9c1.8-0.3,2.8-1.1,2.3-3.6
			C204.5,796.2,201.6,797.4,198.7,798.6z M216.7,154.7c-5,0.4-6.8,1.5-5.4,5.8C213.1,158.7,214.6,157,216.7,154.7z M-17.6,851.1
			c-3.6-0.9-7,0.1-9,2.5C-23.4,853.3-20.6,852.9-17.6,851.1z M1211.9,815.8c-0.2-0.2-0.4-0.5-0.6-0.7c-3,2-6,4-8.9,6.1
			c0.2,0.3,0.4,0.6,0.6,0.9C1207,821.5,1208.9,817.8,1211.9,815.8z M550.5,600.8c0.2,0.2,0.4,0.4,0.6,0.5c5-3.1,6.4-4.7,5.9-7.2
			C554.7,596.4,552.6,598.6,550.5,600.8z M678.8,814.9c2.8-0.5,4.9-0.8,7.8-1.3c-1.1-1.1-1.7-2.2-2.1-2.1
			C682.5,811.9,680.3,811.9,678.8,814.9z M173.1,283.4c1.6,0.4,3.2,0.7,4.7,1.3c1.5,0.6,2.8,1.4,4.2,2.2c0.1-0.3,0.2-0.5,0.3-0.8
			C179.8,283.6,177,281.9,173.1,283.4z M688.8,1078.1c-3-1.1-5.9-0.7-8.7,0.3C683,1078.6,686,1079.3,688.8,1078.1z M-61.2,770.1
			c0.2,0.2,0.4,0.4,0.6,0.6c1.2-0.6,2.5-1.3,4-2.1c-0.6-1.3-1.1-2.3-1.9-4C-59.6,767-60.4,768.5-61.2,770.1z M1455.6,898.7
			c-0.2-0.2-0.4-0.4-0.6-0.6c-1.4,0.7-3.1,0.9-3.5,2.9c-0.1,0.5,0.1,1.4,0.5,1.6c0.4,0.2,1.4,0,1.6-0.3
			C1454.4,901.2,1455,900,1455.6,898.7z M44.2,636.4c0.3-0.1,0.6-0.2,1-0.3c-0.1-1.3-0.2-2.6-0.2-4.2c-1.4,0.1-2.4,0.2-4.2,0.4
			C42.2,634,43.2,635.2,44.2,636.4z M1022.8,871.1c-0.2-0.2-0.4-0.4-0.6-0.6c-2.3,2-4.2,4.2-4.2,7.7
			C1019.6,875.8,1021.2,873.5,1022.8,871.1z M575.3,34.5c0-0.3-0.1-0.7-0.1-1c-2.2,0.7-4.9-0.8-6.8,1.3c0.1,0.3,0.1,0.7,0.2,1
			C570.9,35.4,573.1,35,575.3,34.5z M1454.4,516.2c0-0.3,0-0.6,0-1c-3.6,0.2-7.2,0.4-10.8,0.6c0,0.1,0,0.2,0,0.3
			C1447.2,516.2,1450.8,516.2,1454.4,516.2z M41.6,885.1c-2.8-1.8-3.1-1.6-5.5,3.6C38.1,887.4,39.6,886.4,41.6,885.1z M1196,638.4
			c-1.4,0.4-2.2,0.3-2.4,0.7c-1,1.4-1.2,2.9,0,4.7C1194.2,642.3,1194.9,640.7,1196,638.4z M102.8,367.5c-1,2.5-0.7,3.9,0.6,5
			c0.3,0.2,1.2-0.4,2-0.7C104.5,370.4,103.8,369.3,102.8,367.5z M242.7,792.2c2.7-0.6,3.2-1.6,3.5-5.5
			C244.9,788.9,243.8,790.6,242.7,792.2z M1502.9,258.8c2.1-0.3,3.2-1.2,3.5-3.1C1503.4,255.5,1503.4,255.5,1502.9,258.8z
			 M-106,429.7c-0.4,0-0.9,0.1-1.3,0.1c0.4,1.8,0.8,3.7,1.3,5.5c0.2,0,0.4-0.1,0.6-0.1C-105.6,433.3-105.8,431.5-106,429.7z
			 M183.7,134.8c-2.6-0.6-4.5,0.5-6.2,2.2C179.6,136.2,181.6,135.5,183.7,134.8z M828.3,144.4c1.2-0.8,2.3-1.7,3.5-2.5
			C829.3,141,828.4,142.2,828.3,144.4z M1394.6,786.4c0.4,0.1,0.8,0.2,1.1,0.3c0.4-1.5,0.7-2.9,1.1-4.4c-0.3-0.1-0.5-0.1-0.8-0.2
			C1395.6,783.5,1395.1,785,1394.6,786.4z M928.4,901.8c3.3,1.1,3.3,1.1,4.4-1C931.3,901.1,930.1,901.4,928.4,901.8z M866.8,138.9
			c0,0.4,0,0.8,0.1,1.2c1.3-0.3,2.6-0.6,3.9-0.9c0-0.2-0.1-0.5-0.1-0.7C869.4,138.7,868.1,138.8,866.8,138.9z M1383.1,639.8
			c-0.2-0.2-0.5-0.5-0.7-0.7c-0.5,0.6-1.1,1.2-1.6,1.9c-0.5,0.7-1,1.4-1.5,2c0.1,0.1,0.2,0.2,0.4,0.3
			C1380.8,642.1,1382,641,1383.1,639.8z M1943.3,1079c0.4,0.7,0.8,1.4,1.3,2.3C1946.1,1079.5,1946.1,1079.5,1943.3,1079z
			 M857.6,607.7c2.2-0.5,2.2-0.5,2.2-2.8C859,606,858.4,606.7,857.6,607.7z M912.2,523.6c1.1,0.5,2.2,0.9,2.9-0.7
			C914.1,523.1,913.2,523.3,912.2,523.6z M1498.3,513.9C1498.3,513.9,1498.3,513.9,1498.3,513.9c-0.8-0.1-1.6-0.1-2.5-0.1
			c0,0,0,0.1,0,0.1C1496.6,513.9,1497.4,513.9,1498.3,513.9z M676.9,616.4c0-0.2-0.1-0.4-0.1-0.6c-0.8,0.2-1.7,0.3-2.5,0.5
			c0,0.1,0,0.3,0.1,0.4C675.1,616.5,676,616.5,676.9,616.4z M1558.2,339.8c-0.3-0.1-0.7-0.2-1-0.2c-0.1,0.6-0.2,1.3-0.3,1.9
			c0,0,0.6,0.2,0.6,0.1C1557.8,341,1558,340.4,1558.2,339.8z M463.8,953.2c-0.2,0-0.4-0.1-0.6-0.1c-0.2,0.7-0.3,1.4-0.5,2.1
			c0.2,0,0.4,0.1,0.7,0.1C463.5,954.7,463.6,953.9,463.8,953.2z M1006.5,380.7c0.2,0.1,0.4,0.2,0.6,0.3c0.3-0.6,0.5-1.2,0.8-1.9
			c-0.2-0.1-0.4-0.2-0.6-0.3C1007,379.5,1006.7,380.1,1006.5,380.7z M799.1,799.2c-0.2-0.1-0.4-0.2-0.6-0.2
			c-0.4,0.9-0.7,1.8-1.1,2.7c0.2,0.1,0.5,0.2,0.7,0.3C798.4,801,798.7,800.1,799.1,799.2z M-13.3,1057.7c0.2,0.2,0.4,0.4,0.6,0.6
			c0.7-0.4,1.4-0.8,2.1-1.1c-0.8-0.6-1.4-0.7-1.9-0.5C-12.9,1056.8-13,1057.3-13.3,1057.7z M754.2,171.2c0.2,0.2,0.4,0.4,0.6,0.5
			c0.4-0.6,0.8-1.2,1.2-1.8c-0.2-0.1-0.4-0.2-0.5-0.4C755.1,170.2,754.6,170.7,754.2,171.2z"/>
		<path class="st0" d="M-128.2,1085.8c0-5.2,0-10.3,0-15.6c2.8,1,9,7.7,14.5,15.6C-118.5,1085.8-123.3,1085.8-128.2,1085.8z"/>
		<path class="st0" d="M-141.2,0.8c-2.4,1.7-4.7,3.7-7.3,5.2c-3,1.7-6.3,2.9-10.1,4.5c-1.2-3.6-2.2-6.6-3.3-9.7
			C-155,0.8-148.1,0.8-141.2,0.8z"/>
		<path class="st0" d="M-183.3,1070.5c2.1,0.7,2.1,2.8,2.4,4.4c0.7,3.6,1,7.3,1.5,10.9c-1.3,0-2.6,0-3.8,0
			C-183.3,1080.7-183.3,1075.6-183.3,1070.5z"/>
		<path class="st0" d="M147.2,432c8-4.3,15.9-6.6,24.3-6.8c17-0.3,29.9,7.1,38.9,21.3c3.3,5.3,3.1,11.2,0.9,16.9
			c-2.9,7.7-8,13.8-13.5,19.7c-10.6,11.4-23.5,19.4-38,24.9c-1,0.4-1.9,0.7-2.9,1.1c-0.1,0-0.2,0.1-0.5,0.4c0.3,0.6,0.4,1.3,0.9,1.8
			c10,11.4,17.4,24.5,25.4,37.2c6.9,11,13.8,22.1,20.6,33.1c1.8,2.9,3.8,5.7,5.5,8.7c0.7,1.2,1.1,2.6,1.4,3.9c0.4,2-0.5,3.7-2.1,4.5
			c-1.6,0.8-3.5,0.4-4.8-1.1c-0.5-0.6-0.9-1.2-1.3-1.9c-4.9-8.6-9.8-17.3-14.7-25.9c-7.4-12.9-14.9-25.8-22.5-38.7
			c-1.7-3-3.8-5.7-5.8-8.6c-0.3-0.5-0.8-0.8-1.6-1.6c0,1.8-0.1,3.1,0,4.3c2.1,22.7,4.2,45.4,6.4,68.1c0.9,9.6,2.2,19.2,3.2,28.9
			c0.1,0.9,0.1,1.8-0.1,2.7c-0.5,3-2.8,5.3-5.6,5.5c-2.6,0.2-5.2-1.4-6.2-4.2c-0.6-1.7-0.9-3.5-1.1-5.2c-0.8-8.8-1.4-17.5-2.1-26.3
			c-1.4-18.9-3-37.9-4.3-56.8c-1.6-24.8-2.8-49.6-4.4-74.4c-0.8-11.9-1.3-23.9-4-35.7c-0.3-1.2-0.3-2.5-0.2-3.8
			c0.2-1.6,1.5-2.3,2.7-1.3c1.2,0.9,2.2,2.1,2.9,3.4C145.7,427.8,146.3,429.8,147.2,432z M155.6,503c1.3-0.4,2.3-0.7,3.2-1.1
			c14.7-6.2,27.1-15.5,37.2-27.9c3.2-4,6.2-8,8.2-12.8c1.8-4.6,1.6-8.8-1.3-13c-5.5-8-13-13.2-22.3-15.8c-7.5-2.1-15.2-1.3-22.7,0.4
			c-3.3,0.7-6.5,1.8-9.9,2.8C152.9,458,152.8,480.5,155.6,503z"/>
		<path class="st0" d="M323.1,541.3c-12.7-0.5-25-0.9-37.6-1.4c0,1.6,0,2.7,0,3.8c0.2,15.1,2.1,30,4,44.9c0.3,2.5,0.7,5.1,0.8,7.6
			c0.1,1.4-0.3,2.8-0.6,4.4c-3.3-0.7-4.5-2.8-5.2-5.2c-1.3-4.5-2.5-9.1-3.3-13.7c-2.3-12.8-4-25.7-4.1-38.7c0-1-0.2-2-0.4-3.3
			c-4.1-0.2-8.2-0.2-12.2-0.5c-3.8-0.3-7.8,0.7-11.7-1.8c0.8-0.4,1.6-1,2.4-1.1c6.3-0.8,12.6-1.5,19-2.2c0.6-0.1,1.3-0.2,2.4-0.3
			c0-1.6,0.1-3.2,0.1-4.8c0.2-21.7,1.8-43.3,6.8-64.5c1.6-6.6,4-12.9,7.2-18.9c2.4-4.5,6.6-4.8,9.6-0.6c1.6,2.4,3,5.1,3.8,7.8
			c3,10,5.7,20.1,8.5,30.1c4,14.4,8,28.7,11.9,43.1c0.2,0.8,0.5,1.7,0.9,2.9c1.6-0.1,3.2-0.5,4.8-0.4c2.1,0.1,4.4,0.2,6.3,1
			c3.9,1.8,4.4,6.8,0.9,9.6c-1,0.8-2.4,1.4-3.8,1.7c-3.8,1.1-4.7,2.5-3.6,6.4c4.7,17.1,9.4,34.1,14.1,51.2c0.4,1.3,0.7,2.8,0.5,4.1
			c-0.2,0.9-1.2,2-2.1,2.3c-0.7,0.2-2-0.4-2.6-1c-0.7-0.7-1.1-1.7-1.4-2.7c-2.6-9-5.3-18.1-7.6-27.2
			C328.2,563.4,325.8,552.6,323.1,541.3z M320.4,529.5c-0.3-1.5-0.4-2.4-0.6-3.2c-5.2-20.5-10.4-40.9-15.7-61.4
			c-1.1-4.2-2.5-8.3-4-12.3c-0.8-2.2-1.6-4.5-4-6.1c-0.6,1.3-1.1,2.5-1.6,3.6c-3,7.8-5.1,15.8-6.1,24c-2.3,18.2-3.6,36.5-3.2,54.9
			c0,1.2,0.1,2.5,0.2,4C297,531.8,308.5,530.7,320.4,529.5z"/>
		<path class="st0" d="M458.4,514c-1.6-0.6-3-0.9-4.2-1.5c-1-0.5-2-1.1-2.8-1.9c-1.2-1.3-0.8-2.7,1-3.1c1.7-0.4,3.5-0.3,5.4-0.5
			c0.1-0.7,0.2-1.3,0.2-1.9c0.2-18.1,0.5-36.2,0.6-54.3c0-3.6-0.4-7.1-0.4-10.7c0-2-1-2.9-2.6-3.8c-2.2-1.2-4.4-2.6-6.4-4.2
			c-1.4-1.1-3-2.4-2.5-5.2c1.1,0.3,2.1,0.4,2.9,0.8c6.4,3.1,13.2,4.7,20,6.2c13.3,3,26.6,6.1,39.8,9.3c3.3,0.8,6.3,2.6,9.5,3.8
			c1,0.4,2.1,0.3,3.2,0.5c-0.5,1.9-0.8,3.9-1.5,5.8c-0.8,2.6-3.5,4.3-6.6,4.2c-1.9-0.1-3.8-0.6-5.6-1.1c-15.4-4.3-30.3-9.9-45-16
			c-0.7-0.3-1.4-0.5-2-0.7c0.6,22.5,1.2,44.9,1.8,67.7c1.8,0.2,3.3,0.5,4.7,0.5c8.5-0.1,17.1-0.4,25.6-0.6c3.9-0.1,7.9,0,11.8,0
			c0.6,0.8,1,1.4,1.5,2c3.4,4.1,0.5,9.6-4,10.3c-4,0.6-8.1,0.8-12.2,0.4c-8.7-0.9-17.4-2.3-26.4-3.6c0.9,20.4,1.9,41,2.8,62
			c2.8-0.6,5.2-1.1,7.6-1.7c9.1-2.3,18.2-4.9,27.4-7c3.9-0.9,8.1-0.9,12.1-1.2c2.1-0.1,4.3,1.9,4.8,4.1c0.5,2.3-0.6,4.8-2.9,5.7
			c-1,0.4-2.2,0.6-3.4,0.6c-12.1-0.3-23.7,2.8-35.4,5.4c-3.2,0.7-6.5,1.4-9.8,1.7c-4.6,0.4-6.5-1.4-7.2-6c-0.1-0.9-0.2-1.8-0.2-2.7
			c-0.5-17-0.9-33.9-1.3-50.9C458.8,522.4,458.6,518.2,458.4,514z"/>
		<path class="st0" d="M1471.7,756.8c-0.2-7.4-0.4-14.8-0.6-22.2c-0.2-8.7-0.6-17.3-0.5-26c0-4.3,0.5-8.7,1.2-12.9
			c0.8-4.2,3.1-6.4,6-6.3c3,0,5.4,2.6,6,6.8c0.5,3.8,0.9,7.6,0.9,11.4c-0.2,14-0.5,28-0.9,42c-0.1,4.6-0.4,9.2-1.1,13.7
			c-0.3,2.2-1.3,4.5-2.6,6.2c-2.5,3.5-6.2,2.9-8.2-0.9c-0.5-1-1.1-2-1.8-2.9c-9-11.7-18-23.5-27-35.2c-2.6-3.3-5-6.7-7.6-10.1
			c-0.6-0.7-1.4-1.3-2.8-2.6c0.4,3.9,0.6,6.9,1.1,9.8c2,12.7,3,25.6,3.6,38.4c0.1,2.2,0.4,4.3,0.5,6.5c0.1,3.1-0.8,5.3-2.3,5.6
			c-1.6,0.4-2.7-1.1-3.8-4.5c-3.3-10.3-4.8-20.8-5.9-31.5c-0.8-8.1-1.7-16.2-2.4-24.3c-0.2-1.6-0.1-3.3,0.1-5
			c0.6-4.6,4.2-6.8,8.6-5.4c1.4,0.5,2.9,1.3,3.9,2.3c2.4,2.5,4.7,5,6.7,7.8c8.5,11.9,16.9,24,25.3,36c0.8,1.2,1.8,2.3,2.8,3.4
			C1471.2,757.1,1471.4,757,1471.7,756.8z"/>
		<path class="st0" d="M1687.2,697.7c0-4.7,0-8.6,0-12.6c0-1.7-0.3-3.3-0.4-5c0-1.3-0.8-3.2,1.3-3.4c1.8-0.2,2.1,1.7,2.4,3
			c0.7,4.1,1.2,8.3,1.8,12.5c0.3,2,0.5,4,0.7,6.2c3.2,0.3,6.1,0.5,9,0.8c10.5,1.1,21,2.1,31.5,3.3c2.5,0.3,5,1,7.5,1.6
			c1,0.2,2,0.5,2.8,1.1c1.8,1.2,1.6,3.4-0.3,4.2c-1.1,0.5-2.5,0.7-3.7,0.6c-7.9-0.7-15.7-1.4-23.5-2.4c-6.6-0.9-13.1-2.2-19.6-3.3
			c-0.7-0.1-1.5-0.1-2.7-0.1c1.5,8,3,15.7,4.6,23.9c2.3,0,4.6,0,6.8,0c6.6,0.1,13.2,0.2,19.9,0.4c3.8,0.1,6.8,1.7,9.1,5.5
			c-4.9,3.3-10.5,4.6-16.1,5.2c-5.6,0.6-11.4,0.1-17.2,0.1c0.1,0.6,0.2,1.5,0.4,2.3c2.2,10.1,4.5,20.1,6.7,30.2
			c0.5,2.4,0.7,4.8,0.8,7.2c0.2,2.6-0.8,4.2-2.7,5c-2,0.9-3.8,0.1-5.3-1.2c-3.2-2.9-5.5-6.5-6.4-10.7c-1.5-6.6-2.6-13.2-3.7-19.9
			c-0.8-5-1.3-10.1-1.9-15.4c-2-0.5-4-0.9-5.9-1.3c-8.3-1.7-16.6-3.3-24.9-4.9c-0.5-0.1-1.1-0.1-1.4-0.4c-0.5-0.4-1.2-1.2-1.1-1.7
			c0.1-0.5,0.9-1.2,1.5-1.3c1.1-0.2,2.3,0.1,3.4,0.1c8.4,0.3,16.8,0.7,25.2,1c0.7,0,1.5-0.1,2.7-0.2c0.3-8.5-0.8-16.8-0.7-25.3
			c-1.3-0.4-2.3-0.8-3.4-1c-8-1.6-16-3.1-24-4.7c-1-0.2-2.1-0.3-2.9-0.8c-0.6-0.3-1-1.2-1.5-1.9c0.7-0.4,1.5-1.2,2.2-1.1
			c3.5,0.5,7,1.2,10.5,1.8C1674.6,696,1680.8,696.8,1687.2,697.7z"/>
		<path class="st0" d="M1321.8,309.3c-1.4-5-2.7-10-4.1-15c-2.4-8.3-5.2-16.6-6-25.2c-0.5-4.7-0.4-9.4-0.5-14.1c0-1.2,0.4-2.5,1-3.6
			c0.9-1.8,2.1-3.4,3.5-5.7c1.6,4.5,3.5,8.4,4.6,12.6c3.9,16.2,7.7,32.5,11.2,48.8c0.9,4.2,1.1,8.6,1.2,12.9c0,1.8-0.5,3.8-1.4,5.4
			c-1.6,2.8-5.3,2.6-6.3-0.4c-1-3.3-3.2-5.7-5-8.5c-8-12.5-16-24.9-24-37.3c-0.1-0.2-0.4-0.3-0.7-0.6c-1.1,1-0.6,2.3-0.6,3.4
			c0,12,0,24,0,36c0,5.4-0.3,10.7-1.8,15.9c-0.4,1.6-1.1,3.2-2.1,4.4c-2.1,2.5-4.7,2-5.8-1.1c-0.3-0.8-0.4-1.7-0.4-2.6
			c-0.7-13.4-1.7-26.7-1.9-40.1c-0.2-9.3,0.6-18.6,1.1-27.9c0.1-1.5,0.7-3,1.5-4.3c2.1-3.1,6.1-3.3,8.4-0.3c1.5,1.9,2.7,4.1,3.7,6.2
			c6.5,13.2,13.7,25.9,21.8,38.1c0.7,1,1.4,2.1,2.1,3.1C1321.4,309.5,1321.6,309.4,1321.8,309.3z"/>
		<path class="st0" d="M1251.4,338c0.8-3.8,1.8-7,2.2-10.2c1.4-11.5,2.6-23,4-34.5c0.7-6.2,1.6-12.4,2.4-18.5c0.1-1,0.5-2,0.9-2.9
			c0.7-1.6,2-2.7,3.8-2.7c1.8-0.1,3.3,0.9,3.9,2.5c0.9,2.4,1.6,4.8,2.1,7.3c1.5,7.7,1.2,15.5,0.6,23.2c-0.8,9.1-2,18.2-3.6,27.2
			c-0.8,4.6-2.4,9.1-4.4,13.4c-3.5,7.5-10.7,9.1-17.5,4.3c-7.4-5.3-11.9-12.8-15.8-20.8c-5.5-11.4-7.7-23.5-7.3-36
			c0.2-5.3,1.4-10.6,2.3-15.8c0.5-2.5,2.4-4.3,3.9-4.2c1.5,0.1,2.9,2.2,2.9,4.9c-0.1,4.1-0.6,8.1-0.7,12.2
			c-0.4,16.9,4.1,32.2,14.6,45.6c0.9,1.2,2,2.3,3.1,3.3C1249.3,336.8,1250,337.1,1251.4,338z"/>
		<path class="st0" d="M1402.1,745.2c-2.2,0.6-4.5,1.3-7.1,2c2.5,4.4,4.9,8.6,7.2,12.8c1.3,2.2,2.5,4.4,3.7,6.7
			c0.4,0.8,0.7,1.6,0.9,2.5c0.5,2.2-0.2,4.1-1.9,5c-1.9,1.1-3.8,0.9-5.4-0.4c-1.4-1.2-2.7-2.7-3.7-4.4c-3.6-6.1-7.1-12.4-10.6-18.6
			c-0.4-0.8-0.8-1.6-1.3-2.4c-8,0-15.8,0-24,0c-0.2,2-0.4,3.9-0.6,5.8c-0.6,6.2-1.2,12.4-1.8,18.6c-0.2,2.4-0.3,4.8-0.8,7.2
			c-0.1,0.8-1,1.5-1.6,2.3c-0.6-0.7-1.7-1.3-1.8-2c-0.4-1.6-0.3-3.3-0.4-4.9c-0.3-8.4-0.5-16.8-0.7-25.2c0-0.8-0.2-1.5-0.3-2.6
			c-2.6-0.4-5.2-0.9-7.8-1.3c-4.8-0.6-9.6-1.1-14.4-1.6c-0.8-0.1-1.6-0.1-2.2-0.5c-0.5-0.3-1-1-1-1.4c0-0.5,0.7-1.1,1.2-1.3
			c0.8-0.3,1.7-0.4,2.6-0.4c5,0,9.9,0.1,14.9,0.1c1.9,0,3.8,0.2,6.2,0.3c0-1.4,0.1-2.6,0.1-3.8c0.2-7,0-14.1,0.9-21
			c0.6-5,2.2-10,4.2-14.6c3.1-7.4,10.6-7.9,15.4-1.4c1.3,1.7,2.3,3.7,3.2,5.6c4.4,9.5,8.7,19,13.1,28.5c3.4,7.4,3.4,7.4,11.5,9.3
			c0.7,0.2,1.4,0.4,2.1,0.6C1402.1,744.8,1402.1,745,1402.1,745.2z M1380.7,741.2c-5.1-11-9.5-21.9-15.6-32.7
			c-4.4,10.9-4.2,21.7-4.9,32.7C1367.1,741.2,1373.5,741.2,1380.7,741.2z"/>
		<path class="st0" d="M1801.4,743.9c-10.6,0.4-20.9-1-31.6-3.6c-0.1,1.7-0.2,3-0.2,4.4c-0.2,7.5-0.3,15-0.7,22.5
			c-0.1,2.5-0.9,5-1.5,7.4c-0.2,0.7-0.6,1.4-1,2c-1.2,1.6-3.3,2.6-4.6,2.1c-1.3-0.5-2.3-2.4-2-4.6c1.8-12.1-0.5-24.1,0.6-36.3
			c-1.3-0.6-2.4-0.9-3.3-1.6c-0.6-0.4-1.3-1.4-1.2-1.7c0.3-0.6,1.1-1.2,1.8-1.5c0.7-0.2,1.5-0.1,2.7-0.1c0.2-1.6,0.5-3,0.6-4.5
			c0.9-12.8,3.7-25.2,7-37.5c0.3-1,0.6-2,1-2.9c1.5-3.5,4.6-4.4,7.3-1.7c1.9,1.8,3.4,4.2,4.6,6.5c6.9,13.8,14.3,27.3,22.5,40.4
			c1.2,1.9,2.6,2.8,4.7,3.2c4.9,1,9.8,2.4,15.6,3.8c-2.5,2.1-4.5,2.5-6.6,2.7c-2,0.1-4,0-6.5,0c0.7,1.2,1.1,2.1,1.7,2.9
			c4.2,5.1,8.5,10.1,12.8,15.2c0.7,0.9,1.5,1.7,2.1,2.7c1,1.7,0.9,3.5-0.4,4.9c-1.3,1.5-3.1,1.8-4.9,0.9c-1.2-0.6-2.5-1.4-3.3-2.5
			c-3.2-3.8-6.3-7.6-9.3-11.6C1806.4,751.8,1804,747.8,1801.4,743.9z M1775,693.3c-0.3,0-0.5,0-0.8,0c-2.1,13.5-3.9,27-3.9,41.1
			c8.9,0.4,17.4,0.8,26.4,1.1C1789.2,721,1782.1,707.1,1775,693.3z"/>
		<path class="st0" d="M1556.6,755.4c-1.1-6.7-2.1-13.4-3.3-20c-2.2-12.4-4.1-24.9-3.4-37.6c0.1-2.2,0.2-4.4,0.8-6.4
			c0.5-1.6,1.6-3.2,2.8-4.4c1.9-1.7,3.7-0.8,4,1.7c1,7.3,2.1,14.6,2.7,21.9c0.9,11.3,1.7,22.6,2.1,33.9c0.2,5.1-0.4,10.2-0.9,15.2
			c-0.1,1.4-0.9,2.9-1.7,4.2c-1.3,2-2.8,1.8-4.3,0c-1.9-2.2-3.8-4.3-6.1-6.9c0-0.2,0-1.3-0.4-2c-5-9-10.2-17.9-15.2-26.9
			c-2.1-3.8-4.1-7.6-6.3-11.4c-1.1-1.8-2.4-3.6-4.3-5.2c-0.2,2.3-0.5,4.6-0.5,7c-0.2,8.3-0.3,16.6-0.3,24.8
			c-0.1,8-1.4,15.7-4.3,23.2c-0.5,1.4-1.3,2.8-2.2,3.9c-1,1.2-2.5,0.8-3-0.7c-0.3-0.8-0.3-1.7-0.3-2.6c0.1-3.6,0.4-7.1,0.4-10.7
			c-0.1-6.4-0.2-12.7-0.8-19.1c-1-11.1-0.9-22.1,0.4-33.2c0.4-3.3,1.2-6.5,4.8-7.5c3.8-1.1,6.7,0.9,8.5,3.8
			c3.2,5.2,6.1,10.6,8.8,16.1c3.8,7.9,7,16.1,10.9,24c2.3,4.7,5.1,9.1,7.8,13.6C1553.8,755.2,1554.4,756.5,1556.6,755.4z"/>
		<path class="st0" d="M1390.4,302.1c1.4,9.3,2.4,18.1,7.9,25.7c2.4,3.3,5.4,5.2,9.4,5.9c6.6,1.2,13.2,0.3,19.8-0.5
			c2.1-0.3,4.1-0.9,6.3-1.4c0.8,2.7-0.5,5-2.3,6.9c-3.7,4-8.5,6.3-13.8,6.7c-8.8,0.8-17.1-0.6-23.5-7.5c-3.8-4.1-6.2-9.1-7.2-14.6
			c-1.1-5.9-1.6-11.8-2.4-17.8c-0.1-1.1-0.2-2.2-0.3-3.6c-1.7,0-3.1,0-4.6,0c-0.9,0-1.8,0.3-2.7,0.1c-0.9-0.2-1.6-1-2.4-1.5
			c0.7-0.6,1.2-1.6,2-1.8c1.7-0.5,3.5-0.5,5.3-0.7c0.7-0.1,1.5-0.3,2.2-0.5c0.6-10.1,1.2-20.1,1.9-30.6c-2-0.2-4-0.3-6-0.6
			c-2-0.2-4.1-0.5-6-1c-0.7-0.2-1.1-1.2-1.7-1.8c0.6-0.5,1.2-1.4,1.9-1.5c2.8-0.3,5.6-0.5,8.4-0.6c1.3-0.1,2.5-0.2,4.3-0.3
			c0.2-2.7,0.4-5.3,0.5-7.9c0.1-1.4,0-2.8,0.2-4.2c0.1-0.4,0.8-1.1,1.2-1.1c0.5,0,1.3,0.5,1.4,0.9c0.3,0.9,0.4,2,0.4,3
			c0,2.8,0,5.6,0,8.9c1.7,0,3.2,0,4.6,0c8.7,0,17.3-0.1,26,0.1c5.2,0.1,10.4,0.5,15.9,3.5c-2.3,0.7-4,1.6-5.7,1.8
			c-11,0.9-22.1,2.5-33.2,1.4c-2.5-0.2-5.1-0.4-8.1-0.6c-1.1,10.1-0.6,19.9-0.2,30c1.1,0.1,2,0.3,2.8,0.2
			c12.3-1.1,24.6-2.3,36.9-3.4c1.5-0.1,2.9,0,4.5,0c0.3,2.8-1.2,3.9-3,4.8c-5.4,2.7-11.2,3.3-17.1,3.5c-6.6,0.2-13.3,0.1-19.9,0.1
			C1393.2,302.2,1392,302.1,1390.4,302.1z"/>
		<path class="st0" d="M1706.3,294.6c-2.9,4.2-7.3,5.1-11.4,6.1c-4.4,1-9.1,1.2-13.6,1.7c-2.4,0.3-4.8,0.4-7.3,0.5
			c-0.1,0.8-0.2,1.3-0.1,1.7c0.7,6.8,2.7,13.2,5.9,19.2c3.3,6,8.4,8.7,15.2,8c6.6-0.6,13.1-1.6,19.7-2.4c2.4-0.3,4.7-0.5,7.2-0.8
			c1.2,4.4-0.6,7.6-4.5,10.1c-4.1,2.7-8.7,3.6-13.4,4.2c-6,0.8-11.9,0.9-17.8-1.1c-4.3-1.4-7.6-4-10-7.8c-4.6-7.2-6-15.3-7.1-23.6
			c-0.3-2.4-0.5-4.8-0.8-7.6c-3.7-0.1-7.3-0.2-11-0.3c-1.1,0-2.3-0.1-3.4-0.4c-0.6-0.2-1.3-1-1.3-1.5c0-0.5,0.8-1.4,1.4-1.5
			c2.5-0.4,5-0.7,7.6-1c2.1-0.2,4.3-0.4,6.5-0.7c0.5-8.5,0.9-16.7,1.4-25.5c-1.9,0-3.7,0-5.6,0c-1.9,0.1-3.8,0.3-5.7,0.3
			c-0.6,0-1.6-0.6-1.7-1c-0.2-0.5,0.3-1.5,0.8-1.9c1.2-0.7,2.5-1.3,3.8-1.7c3-1,6.1-1.9,9.4-2.9c0.3-1.4,0.5-2.9,0.8-4.4
			c0.3-1.5,0.6-3,1.1-4.4c0.2-0.5,1.2-1.1,1.7-1c0.5,0.1,1,1.1,1.1,1.7c0.1,0.8-0.3,1.7-0.4,2.6c-0.2,1.3-0.3,2.7-0.6,4.5
			c1.9-0.4,3.4-0.5,4.8-0.9c6.7-1.9,13.5-2.6,20.4-3.1c3.1-0.2,6.1-0.2,9,1.2c1.1,0.5,2.4,0.5,3.9,0.8c-0.6,2.3-2.5,2.9-4.3,3.7
			c-10.5,4.9-21.5,6.9-33,6.4c-0.5,0-1,0-1.9,0.1c-1,8.2-1.1,16.3-0.2,24.7C1684.4,296.8,1695.2,294,1706.3,294.6z"/>
		<path class="st0" d="M1543.4,309.9c0.1-15.1,2.4-29.2,5.9-43.3c0.5-2,1.1-4,2-5.8c1.4-2.8,3.6-3.5,6.3-2c1.5,0.8,3.1,2,3.9,3.5
			c2.1,3.5,4.1,7.1,5.5,10.9c4.4,12.6,8.3,25.5,14.3,37.5c3.1,6.1,6.5,12.2,9.6,18.3c1.1,2,2,4.1,2.8,6.3c0.5,1.4,0.2,2.9-1.4,3.6
			c-1.4,0.6-2.6,0-3.3-1.1c-2.3-3.5-4.8-6.9-6.8-10.6c-2.7-5.2-5.1-10.5-7.6-15.8c-6.1,0.8-12.2,1.5-18.9,2.3
			c-0.1,1.4-0.2,2.9-0.3,4.3c-0.1,5.5,0,11-0.2,16.4c-0.1,2.1-0.7,4.3-1.4,6.3c-0.4,1.1-1.3,2.2-2.3,3c-2.5,1.9-4.7,1.1-5.5-1.9
			c-0.4-1.3-0.4-2.8-0.5-4.2c-0.7-7.7-1.5-15.5-2.2-23.6c-1.8-0.1-3.6-0.3-5.5-0.3c-2,0-4.1,0.2-6.1,0.3c-1.2,0-2.9,0.4-2.9-1.5
			c-0.1-1.5,1.3-1.6,2.5-1.7c2.9-0.3,5.8-0.5,8.7-0.8C1541,309.8,1542,309.9,1543.4,309.9z M1555.6,309.2c6.2-0.3,12-0.6,18-1
			c-0.3-1-0.6-1.7-0.8-2.4c-2.5-7.3-5-14.7-7.5-22c-1.3-3.9-2.5-7.7-3.9-11.6c-0.7-1.9-1.5-3.9-3.7-5.6
			C1556.6,281.1,1555.2,295,1555.6,309.2z"/>
		<path class="st0" d="M1162,721.9c-5.4-1.7-10.6-3.3-15.9-4.8c-3.2-0.9-6.4-1.5-9.7-2.3c-1.1-0.3-2.1-0.8-1.7-2
			c0.2-0.6,1.3-1,2.1-1.2c1-0.1,2,0,3,0.3c7.2,1.8,14.3,3.6,21.5,5.4c0.4,0.1,0.7,0.1,1.3,0.2c0.8-1.3,1.4-2.7,2.3-3.8
			c0.5-0.6,1.6-1.1,2.5-1.1c0.4,0,1,1.4,1.1,2.1c0.1,1.5-0.2,3-0.3,4.8c0.9,0.4,1.8,0.9,2.7,1.3c11.9,5.1,23.1,11.4,33,19.7
			c5.7,4.8,10.8,10.2,14.1,16.9c3.1,6.3,3.4,12.6-1.2,18.3c-1.5,1.9-3.6,3.7-5.7,4.9c-8,4.7-16.8,6.7-25.9,7.1
			c-2.2,0.1-4.6-0.6-6.7-1.3c-2.4-0.9-3.4-3.1-3-5.2c0.4-2.3,2.2-3.8,4.9-3.9c4.8-0.3,9.7-0.1,14.5-0.8c4.1-0.6,8.2-1.9,12.2-3.2
			c1.5-0.5,3-1.5,4.2-2.6c2.3-2.1,3.3-4.7,2.3-7.9c-1.5-4.6-4.1-8.5-7.2-12c-6.8-7.6-14.9-13.5-23.6-18.6c-4.6-2.7-9.4-5.1-14.6-7.9
			c-0.2,1.9-0.4,3.1-0.5,4.3c-0.5,15.6,0.5,31.1,3.9,46.3c0.6,2.8,1.8,5.6,2.8,8.3c0.5,1.4,1.1,2.7-0.5,3.7c-1.4,0.9-2.6,0-3.3-1
			c-1.7-2.2-3.4-4.5-4.6-6.9c-3.3-6.3-4.5-13.2-5.2-20.2c-1.2-11.5-0.1-22.9,1.3-34.3C1161.8,723.9,1161.9,723.3,1162,721.9z"/>
		<path class="st0" d="M1377.6,585.4c-1.6-0.1-2.9-0.2-4.3-0.2c-0.9-0.1-1.8,0-2.6-0.3c-0.7-0.3-1.3-1-1.9-1.5
			c0.6-0.6,1.1-1.4,1.8-1.6c1.6-0.5,3.2-0.6,4.9-0.9c0.7-0.1,1.5-0.3,2.4-0.4c1.3-9,1.5-18,1.3-27.2c-3.2-1-6.2-0.6-9.2-0.2
			c-1.5,0.1-3.4,1-3.9-1.1c-0.4-2.1,1.7-2.2,3.1-2.6c1.9-0.6,4-1,5.9-1.4c2-0.4,4.1-0.6,4.8-3.4c2.5,2.1,4.9,1.2,7.4,0.8
			c4.9-0.9,9.8-1.6,14.7-2.3c5.2-0.7,10.4-0.2,15.6,0.6c3.3,0.5,5.7,2.5,8.6,4.5c-1.6,1.8-3.7,2.6-5.9,3.2c-4.9,1.3-9.9,2.4-15,2.3
			c-6.1-0.2-12.2-0.2-18.3-0.3c-1.3,0-2.5,0-4.2,0c-0.3,9.1-0.5,18-0.8,27.3c13.9,0.3,27.5-3.5,41.3-2.7c1,4.3,0.1,6.6-3.6,7.7
			c-2.8,0.9-5.7,1.3-8.6,1.5c-8.4,0.8-16.8-0.1-25.2-0.8c-1.3-0.1-2.5-0.2-4.1-0.3c-0.2,1.8-0.6,3.4-0.4,5c0.7,4.9,1.1,9.9,2.5,14.6
			c2.6,8.7,9.2,12.9,18,13.6c7.5,0.6,15,0.6,22.5-1c1.3-0.3,2.7-0.4,4.1-0.5c1.2,2.5,0.4,4.1-1.4,5.5c-4.3,3.3-9.2,4.9-14.6,5.1
			c-5.3,0.1-10.7-0.5-15.8-2.2c-10.6-3.6-16-11.4-17.7-21.9c-0.8-5.1-0.8-10.4-1.1-15.6C1377.5,587.5,1377.6,586.6,1377.6,585.4z"/>
		<path class="st0" d="M1535.7,434.4c3.4,0.3,6.4,0.5,9.8,0.8c-1.2,3.5-4.4,3.2-6.9,4.5c2.5,5.1,5.5,9.7,8.9,14.1
			c1.5,1.9,3,3.8,4.4,5.8c0.9,1.2,1.4,2.5,0.2,3.8c-1,1.1-2.4,1.1-4.1-0.2c-0.9-0.7-1.6-1.6-2.4-2.5c-4.3-4.9-7.9-10.3-10.9-16.1
			c-0.6-1.2-1.3-2.4-1.8-3.2c-10.4-0.2-20.4-0.5-31-0.7c-0.1,1.5-0.1,3-0.2,4.5c-0.3,7.3-0.9,14.5-3,21.5c-0.4,1.2-0.8,2.5-1.5,3.5
			c-0.6,0.8-1.8,1.1-2.7,1.7c-0.5-0.8-1.1-1.6-1.3-2.5c-0.2-0.8,0-1.8,0-2.6c0.3-7.1,0.9-14.2,0.9-21.4c0-15.3,1.9-30.2,6.2-44.9
			c2.2-7.3,6.8-8.6,12.3-3.3c1.9,1.9,3.7,3.9,5.1,6.1c5.6,9.3,11,18.7,16.4,28C1534.6,432.4,1535.1,433.4,1535.7,434.4z
			 M1507.8,400.3c-3.1,9.3-6.2,31.3-5.1,35.7c8.7-0.4,17.5-0.8,26.3-1.2c-0.1-0.7-0.1-1.1-0.2-1.4c-5.6-9.7-11.2-19.4-16.9-29.1
			C1510.9,402.9,1509.3,401.8,1507.8,400.3z"/>
		<path class="st0" d="M1662.9,614.7c-2.4,1.7-3.9,0.9-5.1-0.3c-1.9-1.8-3.9-3.8-5.3-5.9c-5.3-7.8-9.4-16.4-12.9-25.1
			c-1.3-3.2-2.7-4.7-6.4-5.2c-8.7-1.3-17.3-3.2-25.9-4.9c-0.6-0.1-1.2-0.2-2.2-0.3c-0.5,2.5-0.9,4.8-1.4,7.1
			c-2.2,10.6-4.4,21.2-6.7,31.8c-0.3,1.4-0.2,4-2.6,3.3c-1.8-0.5-1.1-2.6-0.8-4c1.6-9,3.3-18,4.9-27.1c0.7-4.1,1.4-8.2,2.1-12.4
			c-1.9-0.7-3.6-1.2-5.2-2.1c-0.7-0.4-1.1-1.5-1.6-2.3c0.7-0.4,1.4-1.1,2.2-1.2c1.6-0.2,3.3-0.1,5.4-0.1c0.4-1.6,0.9-3.4,1.3-5.2
			c2-8.8,3.8-17.7,7.7-25.9c1.1-2.4,2.5-4.8,4.4-6.6c3.7-3.7,8.5-3.1,11.4,1.2c1.1,1.6,1.9,3.6,2.5,5.5c2.6,8.5,5,17.1,7.6,25.7
			c1,3.2,2.2,6.3,3.2,9.4c3.1,0.9,6.3,1.7,9.4,2.7c3,1,5.9,2.2,9.3,3.5c-4.7,3.7-9.8,3-15.1,3.4c2.3,6.7,5.8,12.4,8.7,18.5
			C1654.6,604,1657.8,609.8,1662.9,614.7z M1606.1,566.6c9.8,0.9,18.9,1.8,28.4,2.7c-1.2-4.6-2.4-8.8-3.6-13.1
			c-2-7.2-4-14.4-6.1-21.6c-0.6-2.2-1.6-4.6-4.2-4.9c-2.9-0.4-4.1,2-5.4,4.1c-0.1,0.1-0.1,0.2-0.2,0.3
			C1610.2,544.2,1608.3,555.2,1606.1,566.6z"/>
		<path class="st0" d="M417.5,435.3c-1,0-1.8,0.3-2.3,0c-6.3-3.9-12.4-1.9-18.3,0.8c-5.6,2.5-10.3,6.3-14.5,11.1
			c-8.4,9.7-12.3,21.3-14.7,33.5c-4.8,24.7-3,49,4.7,72.8c4.7,14.4,12.9,26.8,24.3,37c10.4,9.3,22.1,16.4,35.3,20.8
			c4.2,1.4,5.5,1.4,8.9,0.3c0.7,0.5,1.4,1,2.1,1.6c1.7,1.6,2.2,3.3,1.4,5.1c-0.8,1.9-2.7,3.1-4.9,2.9c-1.2-0.1-2.5-0.4-3.7-0.9
			c-20.8-9-40-20.4-54-38.9c-7.5-10-12.6-21.1-15.8-33.3c-4.4-17-5.5-34.2-4.4-51.6c0.9-13.4,3.5-26.6,9.6-38.7
			c6.5-13.1,16.1-22.9,30.8-26.6c3-0.8,6.3-0.7,9.4-0.4C414,431.1,416.3,432.4,417.5,435.3z"/>
		<path class="st0" d="M1573.7,602.2c-0.6-4.5-1.2-9-1.9-13.6c-2.3-14.9-2.4-30-2.6-45c0-3,0.8-6,1.3-9c0.3-1.8,1.3-3.1,3.2-3.2
			c1.7-0.1,2.8,1.1,3.1,3.7c0.5,5.5,1,10.9,1.2,16.4c0.6,15.9,1,31.9,1.4,47.8c0.1,2.7-0.2,5.3-0.5,8c-0.2,1.5-0.6,3.1-2.5,3.5
			c-1.8,0.4-2.2-1.3-3.1-2.4c-5.9-6.9-11.1-14.3-15.3-22.4c-4.9-9.4-9.3-19-14.1-28.4c-1.4-2.8-3.3-5.3-5.3-8.4
			c-1.5,2.1-1.5,3.9-1.6,5.6c-0.1,2.2-0.2,4.3,0,6.5c0.9,12.2,1.9,24.4,2.7,36.6c0.4,5.7,0.2,11.5,0.1,17.2c0,0.8-1,1.5-1.5,2.3
			c-0.6-0.7-1.1-1.4-1.7-2.2c-0.1-0.2-0.1-0.5,0-0.8c0.8-10.4-1.9-20.5-2.5-30.8c-0.6-9.5-0.9-19.1-1-28.6c0-2.5,0.7-5,1.3-7.5
			c0.5-1.8,2-2.4,3.6-1.7c1.4,0.6,2.8,1.4,3.7,2.5c1.9,2.5,3.8,5.1,5.2,8c5.5,11.7,10.8,23.4,17.6,34.3c2.6,4.1,5.4,8,8.1,12
			C1573.1,602.4,1573.4,602.3,1573.7,602.2z"/>
		<path class="st0" d="M1740.5,404.3c7.8-1.5,15.1-3.1,22.5-4.2c4.9-0.8,9.9-0.9,14.8-1.2c2.7-0.2,5.3,0.6,7.5,2.4
			c-0.4,2.6-2,4.1-4.1,5.1c-5,2.4-10.1,4.1-15.7,4.4c-6.9,0.4-13.8,0-20.6-1c-1.6-0.2-3.2-0.3-5.2-0.4c-0.2,4.8-0.5,9.2-0.6,13.7
			c-0.3,12.4,0.4,24.7,4.4,36.6c3,9.1,9.1,13.9,18.7,13.9c6.4,0,12.7-0.1,19.1-0.1c2.6,0,5.2,0.2,8.1,0.3c-0.8,2.2-2.3,3.7-4.6,4.4
			c-3.4,1.1-6.8,2.3-10.2,3.2c-6.8,1.9-13.6,2.2-20.3-0.1c-5.5-1.9-9.7-5.4-12.3-10.8c-4.1-8.7-5.6-18-5.9-27.4
			c-0.3-10.9-0.1-21.9-0.1-33.2c0,0-0.5-0.1-0.9-0.4c-0.6-0.5-1.4-0.9-1.7-1.6c-0.1-0.3,0.7-1.4,1.3-1.6c2-0.4,2.2-1.9,2.3-3.5
			c0.2-3,0.2-6.1,0.3-9.2c0-0.6,0-1.3,0-1.9c0.1-1.1,0.1-2.6,1.7-2.3c0.6,0.1,1.4,1.4,1.4,2.2c0.1,3.6,0,7.1,0,10.7
			C1740.4,403.1,1740.4,403.6,1740.5,404.3z"/>
		<path class="st0" d="M1317.9,625.7c0.2,2.2,0.4,4.3,0.6,6.4c0,0.2-0.3,0.4-0.6,0.7c-1.9,0.3-2.9-1.1-3.6-2.6
			c-1.2-2.4-1.6-5.4-4.5-6.7c-0.4-0.2-0.8-1.9-0.4-2.3c1.7-2.1,0.6-4.1,0.2-6.2c-2.1-11.3-3-22.7-3.2-34.2
			c-0.1-5.2-0.2-10.4-0.3-15.7c0-1.8-0.8-2.8-2.4-3.4c-9-3.6-18.2-6.5-28-6.8c-0.4,0-0.9,0.1-1.1-0.1c-0.6-0.4-1.4-0.9-1.4-1.4
			c0-0.6,0.8-1.3,1.3-1.5c0.9-0.3,2-0.4,3-0.2c6.3,1.1,12.5,2.1,18.7,3.5c3.2,0.7,6.2,2,9.7,3.2c0-1.7,0-3.1,0-4.4
			c0.1-1.3,0.1-2.6,0.4-3.8c0.1-0.6,1-1.3,1.5-1.3c0.5,0,1.2,0.8,1.5,1.4c0.3,0.5,0.2,1.2,0.2,1.9c0.1,1.4,0.3,2.8,0.2,4.2
			c-0.2,3,1.2,4.7,3.9,6.1c12,6.3,23,14.2,31.8,24.7c3.3,3.9,5.5,8.2,6.6,13.2c1.3,6.2-0.2,11.3-5.3,15.3c-4.5,3.5-9.6,5.8-15.1,7.1
			C1327.3,623.9,1322.8,624.7,1317.9,625.7z M1316.7,619.1c8-1,15.7-1.7,22.9-5c1-0.5,2-1.1,3-1.7c4.8-3.2,6-6.1,4.7-11.7
			c-1-4.5-3.3-8.3-6.2-11.7c-8-9.3-17.7-16.5-28.1-22.8c-0.6-0.4-1.3-0.4-2.3-0.7C1311.8,583.5,1312.8,601.2,1316.7,619.1z"/>
		<path class="st0" d="M1169.9,421.4c1.5,12.2,2.9,23.7,4.4,35.2c1.5,11.5,4.7,22.6,8,34c-3.4-0.3-4.8-2.1-6-4.3
			c-3.9-7.4-6.4-15.3-7.5-23.5c-1.6-11.8-1.7-23.6-2.3-35.5c-0.4-9,0.8-7.4-7.6-10.3c-4.4-1.5-9-2.6-13.6-3.9
			c-0.4-0.1-0.7-0.2-1.1-0.3c-1.2-0.4-2.9-0.5-2.4-2.3c0.5-1.7,2-1.2,3.2-0.9c5.6,1.6,11.2,3.3,16.9,4.8c1.8,0.5,3.8,0.6,6.3,0.9
			c0.8,2,3.2,2.9,5.7,4c16.9,7.3,31.3,18.1,43.4,31.9c2.7,3,4.9,6.6,6.8,10.1c3.4,6.4,2.1,12.5-4,16.3c-8.2,5.2-17.3,8.1-27.1,8.1
			c-1.6,0-3.3-0.4-4.8-1c-1.7-0.6-2.7-1.9-2.5-3.8c0.3-2,1.6-2.8,3.5-2.9c5.6-0.5,11.2-0.7,16.7-1.5c3.7-0.5,7.5-1.4,11-2.8
			c5.1-2,6.3-5.7,3.7-10.5c-1.9-3.5-3.9-6.9-6.5-9.8c-11-12.3-23.6-22.5-38.6-29.6C1173.9,423.2,1172.3,422.4,1169.9,421.4z"/>
		<path class="st0" d="M1678.7,434c-1.1-0.6-3.7,0.4-3.5-2.1c0.2-2.1,2.6-0.9,3.8-1.6c0.1-0.1,0.2-0.1,0.8-0.6c0-1,0-2.4,0-3.7
			c0.2-11.8,0.1-23.7,1.6-35.5c0.2-1.3,0.3-2.5,0.7-3.7c0.1-0.5,1.1-1.1,1.4-1c0.6,0.2,1.3,0.9,1.4,1.4c0.2,0.8,0,1.8-0.1,2.6
			c-1.6,12.9-1.7,25.9-1,38.9c0,0.6,0.2,1.2,0.3,2.2c7.4,0.7,14.9,1.4,22.5,2.1c0.2-1.1,0.3-1.8,0.3-2.5c0.1-12.1,0.3-24.2,0.4-36.3
			c0-1.8-0.4-3.6-0.3-5.3c0-0.7,0.8-1.3,1.3-2c0.6,0.5,1.6,0.9,1.7,1.6c0.4,1.7,0.5,3.5,0.6,5.3c0.1,9.6,0.1,19.1,0.3,28.7
			c0,3.4,0.3,6.9,0.5,10.4c2,0.5,3.9,0.9,5.9,1.3c-0.8,3.4-3.4,2.2-5.4,3c0,0.7-0.1,1.6,0,2.4c0.7,9.7,2.3,19.2,5.4,28.5
			c0.6,1.7,1,3.5,1.1,5.2c0.1,1-0.4,2.5-1.1,2.8c-0.7,0.3-2.4-0.2-2.8-0.9c-1.6-2.6-3.3-5.2-4.2-8c-2.2-7.2-2.7-14.8-2.9-22.3
			c-0.1-2.5-0.2-5.1-0.4-8.2c-7.6-0.8-15.1-1.6-23.3-2.5c0.4,5,0.3,9.5,1.2,13.8c1.4,7.4,3.4,14.6,5.1,21.9c0.1,0.6,0.4,1.2,0.5,1.8
			c0.1,1.8-1.4,2.8-2.7,1.7c-1.6-1.3-3.1-3.1-3.8-5c-1.4-3.9-2.6-8-3.2-12.2C1679.9,449.2,1679.4,441.8,1678.7,434z"/>
		<path class="st0" d="M1463.4,467.7c0.6-1.5,1.4-3,1.6-4.5c0.7-4.7,1.4-9.3,1.5-14c0.2-10.5-0.1-20.9,0.2-31.4
			c0.1-4.4,1.2-8.8,1.9-13.2c0.3-1.9,1.1-3.4,3-4.3c2.6,0.7,3.2,2.9,3.4,5.2c0.6,6.5,1.4,12.9,1.6,19.4c0.3,9.8,0.4,19.7-1.6,29.3
			c-0.9,4.4-2.8,8.7-4.4,13c-0.3,0.9-1,1.8-1.6,2.6c-3,3.7-6.6,3.8-9.7,0.2c-4-4.7-7.2-9.9-9.5-15.6c-3.3-7.9-5-16.3-7-24.6
			c-1.7-7.2-3.3-14.4-6.7-21.1c-0.2-0.4-0.5-1-0.5-1.4c0.1-0.6,0.4-1.3,0.8-1.5c0.4-0.2,1.4-0.1,1.7,0.3c0.9,1.2,1.8,2.5,2.2,4
			c2,6.2,3.9,12.4,5.6,18.7c2.1,8.1,3.4,16.5,7,24.2c2.1,4.5,5,8.6,7.5,12.8c0.5,0.9,1,1.7,1.5,2.6
			C1462.4,468.2,1462.9,468,1463.4,467.7z"/>
		<path class="st0" d="M1408.2,470.5c-1.7,1-2.6,1.8-3.7,2.1c-10,2.7-20,4.1-30.1,0.9c-9.4-3-15.9-8.9-17.7-19.1
			c-0.9-5.2,0.3-10.2,1.5-15.1c2-8.3,6.2-15.3,12.6-20.9c6.1-5.3,13.2-8,21.5-6.9c4.6,0.6,8.4,2.7,11.6,6.1
			c6.2,6.7,9.5,14.8,11.2,23.5c1.2,5.9,1.8,11.8,2.5,17.8c0.1,0.8-0.7,1.7-1,2.5c-0.7-0.6-1.8-1.1-2-1.8c-0.7-2.4-1.2-5-1.5-7.5
			c-1.2-8.6-3.2-17-7.8-24.6c-1.8-2.9-3.9-5.8-6.4-8c-4.5-4-10-4.2-15.5-2.5c-7.8,2.3-13,7.8-16.8,14.7c-3,5.5-4.4,11.5-4.6,17.6
			c-0.2,6,1.9,11.2,7.3,14.7c5.1,3.3,10.8,4.3,16.6,5.1c3.4,0.4,6.9,0.3,10.3,0.5c2.3,0.1,4.5,0.4,6.8,0.6
			C1404.4,470.3,1405.8,470.4,1408.2,470.5z"/>
		<path class="st0" d="M1610.2,270c-2.7,0-5,0-7.3,0c-4.5,0.1-8.9,0.3-13.4,0.4c-0.5,0-1.1,0.1-1.5-0.1c-0.5-0.3-1.1-0.8-1.2-1.2
			c-0.1-0.5,0.4-1.3,0.8-1.5c0.9-0.4,1.9-0.7,2.9-0.8c14.9-2.6,29.9-5,45.1-5.6c3.5-0.1,7,0.9,11,1.4c-1.8,2.8-4.2,3.2-6.4,3.7
			c-7.5,2-15.1,3.5-23,3.4c-1.1,0-2.3,0.2-3.4,0.3c-0.2,0.5-0.4,0.9-0.4,1.2c-0.8,20.7,1,41,8.3,60.5c1,2.7,1.9,5.5,2.8,8.3
			c0.3,0.8,0.5,1.7,0.5,2.6c0.2,1.5-0.3,2.8-1.7,3.6c-1.4,0.7-2.7,0.4-3.9-0.5c-3.1-2.3-4.8-5.5-6-9.1c-2.2-6.3-2.7-12.9-3.2-19.5
			c-1-12-0.6-23.9-0.1-35.9C1610.4,277.8,1610.2,274.2,1610.2,270z"/>
		<path class="st0" d="M1617.8,478.2c-2.7,4.4-6.9,6.3-11.4,7c-8.3,1.2-15.9-1.2-22.6-6.1c-5.8-4.3-9.2-10-10.9-17
			c-2-8-2.3-16.1-2.4-24.3c-0.1-10.8,0.1-21.7,0.1-32.5c0-4-0.5-7.9-2.5-11.5c-0.6-1-0.7-2.1,0.6-2.5c0.6-0.2,1.7,0.4,2.2,0.9
			c2.1,2.9,2.7,6.3,2.8,9.8c0.4,7.2,0.7,14.5,0.7,21.8c0,9.3,0.7,18.6,2.5,27.7c0.8,4.2,2.5,8.3,4.6,12c3.2,5.6,8.8,8.4,15.1,9.3
			c4.7,0.7,9.4,1.1,14,1.5C1614.3,474.7,1614.9,474.9,1617.8,478.2z"/>
		<path class="st0" d="M232.6,456.7c0.2,1.6,0.4,2.9,0.4,4.2c0.1,11.1-0.1,22.2,0.1,33.3c0.3,15.8,1.5,31.6,4,47.2
			c3,18.4,5,36.9,5,55.5c0,1,0.1,2.1-0.1,3.1c-0.3,2.1-1.7,3.5-3.4,3.5c-1.9,0-3.2-0.9-3.6-2.8c-0.3-1.5-0.5-3-0.5-4.5
			c0-6.2,0.3-12.5,0-18.7c-0.6-11.3-1.4-22.6-2.6-33.9c-2.1-18.8-2.4-37.6-2-56.5c0.2-8.9,0.6-17.8,0.9-26.7
			C230.8,459,230.5,457.6,232.6,456.7z"/>
		<path class="st0" d="M1588.4,737.6c1.1-13.2,0.6-26.8,2.7-40.3c1.1-6.9,2.1-13.8,3.1-20.8c0.1-0.5,0.1-1.1,0.3-1.5
			c0.3-0.5,1.1-1.1,1.4-1c0.6,0.2,1.4,0.9,1.4,1.4c0.1,1.5-0.1,3-0.2,4.6c-0.7,7.9-2,15.7-2,23.6c0,8.5,0.8,17,1.8,25.5
			c1.1,9.2,2.9,18.4,4,27.6c0.5,4,0.1,8.1-0.4,12.1c-0.3,2.6-2,4-3.9,4.1c-2.4,0.1-3.6-1.5-4.5-3.5c-2.1-4.7-2.6-9.8-3-14.9
			C1588.8,748.9,1588.7,743.4,1588.4,737.6z"/>
		<path class="st0" d="M1494.7,579.6c0-8.9,0.1-15.6,0-22.4c-0.1-6.1-0.5-12.2-0.8-18.3c0-1-0.1-2.1,0.2-3c0.2-0.6,1-1.3,1.5-1.3
			c0.5,0,1.1,0.8,1.4,1.4c0.2,0.4,0.1,1,0.1,1.5c0.5,14.5,2.3,28.9,4.9,43.2c1.9,10.3,4.2,20.5,6.2,30.7c0.4,2.2,0.6,4.6,0.4,6.8
			c-0.3,3.7-3,4.9-6.3,3.1c-2.3-1.2-3.8-3.2-4.3-5.6c-1-4.8-2-9.7-2.4-14.7C1495.1,593.2,1495,585.3,1494.7,579.6z"/>
		<path class="st0" d="M1463,330.7c1,1.6,1.7,2.6,2.3,3.5c5.2-1.3,7.3-4.7,6-9.7c-1.4-5.6-4.2-10.7-7.4-15.5
			c-3.4-5.1-7-10-10.4-15.2c-3.1-4.7-5.7-9.6-6.3-15.4c-0.7-6.9,2.9-10.9,7.4-12.9c6.2-2.8,12.6-2.7,19-0.8c0.7,0.2,1.5,0.5,2,1
			c0.5,0.5,1,1.4,0.8,1.9c-0.1,0.5-1.1,1-1.7,1.1c-1,0.1-2-0.3-3-0.4c-4.5-0.8-8.9-0.3-13.2,1.3c-4.5,1.7-6.2,4.5-5.3,9.2
			c0.4,2.3,1.1,4.8,2.3,6.8c3.6,6.2,7.4,12.2,11.3,18.2c3.9,6,7.4,12.2,9.1,19.2c1.6,6.2-0.5,12-5.5,15.6c-1.8,1.3-3.7,2.4-6,1.2
			c-2-1.1-3-3.5-2.5-6.3C1462.2,332.8,1462.6,332.1,1463,330.7z"/>
		<path class="st0" d="M1476.9,608.6c-1.4,3.1-3.3,4.6-5.9,5.2c-2.2,0.5-4.5,1-6.7,1.3c-8.4,1.1-15.3-1.7-20.6-8.3
			c-7.4-9.1-9.1-19.5-5.9-30.6c2.2-7.5,5.2-14.6,9.8-21c4.3-6,10.1-10,17-12.4c1.1-0.4,2.2-0.5,3.3-0.7c1.3-0.2,2.8-0.5,3,1.2
			c0.2,1.5-1.3,1.6-2.3,2c-1.9,0.6-4,0.9-5.8,1.7c-5.6,2.4-10.2,6.2-13.3,11.6c-4.8,8.4-8.6,17.1-8.3,27c0.3,8.9,6.7,17.6,15,20.8
			c5.6,2.2,11.5,2,17.3,2.9C1474.4,609.6,1475.4,609,1476.9,608.6z"/>
		<path class="st0" d="M1512.3,281.3c0,5.5-0.1,11.1,0,16.7c0.1,8.1,1,16,3.1,23.8c0.9,3.3,1.2,6.8,1.7,10.2c0.3,2.1-1.3,3.3-3,2
			c-1.2-0.9-2.2-2.4-2.8-3.9c-2.5-6.8-3.7-13.8-3.5-21c0.3-8.4,0.8-16.8,1.1-25.2c0-0.8,0-1.5,0-2.5c-0.6-0.2-1.2-0.4-1.8-0.4
			c-6-0.3-12-0.5-17.9-0.8c-1.4-0.1-3.2,0.2-3.3-1.6c-0.1-1.9,1.7-1.9,3-2.2c2.1-0.4,4.3-0.7,6.4-1c3.8-0.5,7.6-1,11.4-1.3
			c6.5-0.4,13-0.9,19.5-0.9c2.7,0,5.4,1,8.9,1.7c-3.7,2.5-7.4,3.3-11.1,4.1C1520.3,279.9,1516.5,280.5,1512.3,281.3z"/>
		<path class="st0" d="M1663,473.3c-6.3,2.8-12.1,1.6-17.6-1.3c-14.3-7.7-21.3-20.1-22.1-36c-0.5-10.6,1.4-20.8,6.2-30.4
			c3.2-6.4,7.6-11.7,13.9-15.3c3.9-2.2,7.8-1.9,11.7,0c0.7,0.3,1.1,1.5,1.6,2.2c-0.9,0.3-1.9,1-2.6,0.8c-6.7-2.6-11.2,0.7-15.5,5.2
			c-6,6.4-8.8,14.3-10.5,22.6c-1.4,7.1-1.3,14.4,0.6,21.6c3.2,12.4,11,21,22.4,26.5c3.2,1.5,6.7,2.3,10.1,3.5
			C1661.9,472.9,1662.4,473.1,1663,473.3z"/>
		<path class="st0" d="M1255.1,786.2c0,2.5-1.3,4.4-3.3,4.9c-2,0.5-4.3-0.6-5-3.1c-1.2-4.1-2.5-8.4-2.9-12.6
			c-1.3-13.6-2.4-27.1-3.3-40.7c-0.7-10.5-0.9-21.1-1.4-31.7c0-0.3-0.1-0.6,0-0.8c0.4-0.8,0.7-2.2,1.3-2.3c1.2-0.4,1.7,0.8,1.8,1.9
			c0.2,2,0.6,4,0.6,6.1c0.6,16,2.1,32,4.9,47.8c1.7,9.4,3.4,18.8,6.5,27.8C1254.9,784.4,1255,785.4,1255.1,786.2z"/>
		<path class="st0" d="M1742.5,1031.4c1.2-1.3,1.9-2.1,2.6-2.9c18-17.8,36.1-35.6,54.1-53.4c1.7-1.7,3.4-2.4,5.7-2.1
			c2.6,0.4,5.2,0.4,8.1,0.6C1811.9,975.2,1744.6,1030.5,1742.5,1031.4z"/>
		<path class="st0" d="M1242.2,414.4c0.1,11.9,2.1,23.6,5.2,35.1c3,11.2,6.1,22.3,9.2,33.5c0.2,0.6,0.5,1.3,0.4,1.8
			c-0.2,0.8-0.6,1.9-1.2,2.1c-0.6,0.2-1.9-0.1-2.3-0.7c-1.2-1.6-2.3-3.4-3-5.3c-1.8-5.3-3.5-10.6-4.8-16.1
			c-2.7-11.4-5.5-22.8-6.1-34.5c-0.4-8.3-0.2-16.5-0.3-24.8c0-0.1,0-0.3,0-0.4c0.3-1.2,0.2-2.8,2-2.6c1.6,0.2,1.3,1.6,1.2,2.7
			C1242.5,408.3,1242.4,411.4,1242.2,414.4z"/>
		<path class="st0" d="M1761.2,444.8c-3.2,0-6.4,0-9.5,0c-1,0-2.1,0-3-0.4c-0.7-0.3-1.4-1.1-1.6-1.8c-0.1-0.5,0.6-1.4,1.1-1.7
			c1.2-0.7,2.5-1.3,3.9-1.5c9.7-1.9,19.4-3.7,29.2-5.4c1.2-0.2,2.5-0.2,3.8-0.1c2.3,0.2,3.8,1.4,4.1,3.2c0.3,2-0.7,3.6-2.5,4.3
			c-3,1.1-6,2.1-9.1,2.4c-5.4,0.7-10.9,0.8-16.3,1.2C1761.2,444.9,1761.2,444.9,1761.2,444.8z"/>
		<path class="st0" d="M1427.4,488.1c-2.4,1.2-4.5,0.7-6.2-1.2c-1.1-1.2-2.2-2.5-3.1-3.9c-5.6-9.5-11.2-19.1-16.7-28.7
			c-1.3-2.2-2.6-4.4-3.8-6.6c-0.4-0.8-1-1.6-1.1-2.4c-0.1-0.6,0.1-1.6,0.6-1.9c0.4-0.3,1.4,0,1.9,0.4c0.5,0.3,0.7,1,1.1,1.5
			c7.7,12.3,15.7,24.4,24.7,35.9C1426.3,483.2,1427.8,485.3,1427.4,488.1z"/>
		<path class="st0" d="M254.8,151.8c-1.1-3.3-2.1-6.1-3.1-8.9c0.9-1,1.8-0.8,2.7-0.1c2.7,2.2,5.6,2,8.7,1.1
			c4.9-1.6,9.7-3.1,14.6-4.7c1.2-0.4,2.4-0.6,4.1-1c0.1,2.6,0.2,4.8,0.4,7.4C272.9,147.7,263.9,149.7,254.8,151.8z"/>
		<path class="st0" d="M1890.5,342.5c1.2-4.1,2.4-8.2,3.6-12.4c2.9-9.4,0.5-6.6,9.5-10.8c1.3-0.6,2.6-1.1,4.5-1.9
			c-0.4,1.5-0.6,2.4-1,3.2c-3,6.5-6.1,12.9-9.2,19.4C1896.2,343.9,1895.6,344.1,1890.5,342.5z"/>
		<path class="st0" d="M-156.3,612.5c0.3,1.1,0.5,1.7,0.5,2.3c0.1,4.3,0.2,8.6,0.4,13c0.1,1.8-0.4,3-2.1,4c-6,3.7-7.9,9.3-6.9,16.1
			c0.2,1.6,0.4,3.3,0.5,4.9c-0.3,0-0.6,0.1-0.8,0.1c-0.2-0.7-0.4-1.4-0.5-2.1c-0.5-6.5-0.9-12.9-1.3-19.4c-0.1-1.3,0.2-2.9,0.8-4
			c2.6-4.7,5.3-9.2,8.1-13.8C-157.5,613.3-157.1,613.1-156.3,612.5z"/>
		<path class="st0" d="M1353,223.5c1.4-3.8,2.7-7.6,4.3-11.2c2.5-5.7,5.2-11.4,5.9-17.6c0.3-2.7,0.1-5.5,0.2-8.3
			c0-0.5-0.3-1.1-0.1-1.5c0.3-0.6,0.8-1.3,1.3-1.5c0.3-0.1,1.3,0.4,1.4,0.9c0.4,1.2,0.9,2.5,0.8,3.7c-0.3,4.4-0.3,8.9-1.2,13.2
			c-1.6,7.3-4.9,13.8-9.1,20c-0.7,1.1-1.7,2.1-2.5,3.1C1353.8,224,1353.4,223.7,1353,223.5z"/>
		<path class="st0" d="M1081.2,278.7c-1,2.2-1.6,3.9-2.5,5.6c-0.3,0.6-1.1,1.2-1.7,1.2c-6.1,0.3-12-0.2-18.5-1.5
			c1.7-2.3,3.1-4.3,4.6-6.1c0.5-0.6,1.5-1.1,2.3-1C1070.4,277.3,1075.6,278,1081.2,278.7z"/>
		<path class="st0" d="M1163.4,960c-5.5,2.9-24,7.2-30.3,7.6c-0.2-2.2,0.3-3.8,2.3-5c4.1-2.5,8.2-4.2,13.3-3.5
			c3.9,0.6,7.9,0.4,11.8,0.6C1161.5,959.8,1162.5,959.9,1163.4,960z"/>
		<path class="st0" d="M1236,103.6c1.7-7,7.2-8.9,11.4-11.9c4.6-3.2,10.1-1.6,15.8-2.4c-0.6,0.9-0.8,1.4-1.2,1.6
			C1254,95.8,1245.2,99,1236,103.6z"/>
		<path class="st0" d="M1394.5,52.2c12.5-1.7,24.5-3.2,36.5-4.8c-0.8,4.8-1.6,5.5-5.8,5.6c-8.8,0.3-17.6,0.7-26.4,0.9
			C1397.6,53.9,1396.1,54.6,1394.5,52.2z"/>
		<path class="st0" d="M315.4,1055.2c-4.9-4.6-9.7-9.1-15.1-14.2c3.5,0.4,6.2,1.1,8.8,0.9c2.6-0.2,5.1-1.3,8.1-2.1
			c0.5,2.4-0.1,4.8-0.2,7.2c-0.1,2.5-0.4,5-0.7,7.6C316,1054.9,315.7,1055,315.4,1055.2z"/>
		<path class="st0" d="M1294.5,167.9c-0.1-0.3-0.3-0.7-0.3-1c0-1.9,0-3.8,0-6c5-1.8,10-3.2,15.2-4.5
			C1309.5,164.3,1303.8,168.7,1294.5,167.9z"/>
		<path class="st0" d="M1621.2,201.4c-0.2,0.6-0.3,1.2-0.6,1.7c-2.5,4.5-4.9,8.9-7.4,13.3c-1.5,2.6-1.5,2.5-5.3,1.3
			c0.9-2,1.7-3.9,2.6-5.8c1-2.3,2.1-4.6,3.2-6.9C1615.6,200.8,1616,200.6,1621.2,201.4z"/>
		<path class="st0" d="M1299.4,1072.1c1.7-0.4,2.7-0.7,3.8-0.8c3.8-0.4,7.7-0.5,11.4-1.1c6.1-1.1,11.9,0.1,17.6,2.1
			c0.3,0.1,0.5,0.4,0.8,0.7C1327.2,1073.9,1302.8,1073.4,1299.4,1072.1z"/>
		<path class="st0" d="M1515.6,1022.9c-1.3,3.8-2.9,5.5-6.8,5.6c-10,0-20.1,0.5-30.1,0.8c-1.2,0-2.5,0-4.7,0c1.8-2,2.9-3.4,4.2-4.8
			c0.7,0.2,1.2,0.2,1.6,0.4c6.1,3.4,12.7,3.7,19.3,2.4c4.2-0.8,8.4-2.2,12.5-3.3C1512.8,1023.7,1514,1023.4,1515.6,1022.9z"/>
		<path class="st0" d="M1060.3,936.4c-1-2.4-1.8-4.6-2.9-7.2c6.4-2.1,13,0.1,19.9-2.3C1075.1,929.5,1067.3,933.7,1060.3,936.4z"/>
		<path class="st0" d="M1236.7,214.6c2.9-3.6,5.8-7.3,8.9-10.8c1.1-1.3,1.8-1.3,5.4-0.8c-2.2,4-4.2,7.9-6.4,11.7
			c-0.3,0.5-1.2,1-1.8,1.1c-1.8,0.1-3.7-0.1-5.5-0.2C1237,215.3,1236.9,214.9,1236.7,214.6z"/>
		<path class="st0" d="M940.1,191.8c0,2.7,0,5.1,0,7.9c-4.2,0.4-8.3,0.7-12.6,1C929,193.6,933.9,192.1,940.1,191.8z"/>
		<path class="st0" d="M1662.2,29.4c-0.3-2.7,0.9-3,2.5-3.1c2.7-0.1,5.3-0.2,8-0.2c7.9-0.1,15.8-0.2,23.6-0.2c1.4,0,2.8,0,4.2,0.6
			C1687.8,27.5,1675.1,28.4,1662.2,29.4z"/>
		<path class="st0" d="M59.4,315.9c0.4-1.8,1.1-3.6,1.2-5.4c0.1-2.5,0.2-5.1-0.4-7.5c-0.9-3.8-1.1-3.7,1.8-7.3
			c2,2.1,3.1,4.5,3.8,7.2c0.2,0.6,0,1.5-0.3,2.2c-1.3,3.3-2.7,6.6-4.1,9.8c-0.3,0.6-0.9,1-1.4,1.5C59.8,316.2,59.6,316,59.4,315.9z"
			/>
		<path class="st0" d="M945.7,989.1c2.7-6.5,5.3-12.9,8-19.3c0.3,0.1,0.6,0.1,0.9,0.2c-0.7,4.8-1,9.7-2.1,14.4
			C951.4,988.9,950,989.6,945.7,989.1z"/>
		<path class="st0" d="M-44.2,953c-1.6-4.4-0.7-7.1,1.8-9.6c2.5-2.4,4.7-5.2,7.2-8.1c1.2,1.7,1.5,3.2,0.7,4.3
			C-37.5,944-40.7,948.2-44.2,953z"/>
		<path class="st0" d="M548.7,164.1c5.4-2.6,10.7-5.3,16.1-8c0.1,0.4,0.3,0.7,0.3,0.9c-0.9,6.5-1.1,6.7-7.6,7.3
			c-2.9,0.2-5.7,0.4-8.6,0.6C548.8,164.7,548.7,164.4,548.7,164.1z"/>
		<path class="st0" d="M890.4,980.6c-1.4,3-2.8,5.8-4.1,8.7c-1.4,2.9-3.9,1.5-6,1.7C881.3,982.6,882.6,981.4,890.4,980.6z"/>
		<path class="st0" d="M900.8,234.9c0.5-2,1.5-2.9,3-3.1c9-0.8,18-1.6,27-2.3c0.1,0,0.3,0.3,1,0.9
			C921.3,231.9,911.2,233.3,900.8,234.9z"/>
		<path class="st0" d="M755.5,978.4c0,4.3,0,8.4,0,12.4c0,1.5-0.7,2.4-2.1,2.8c-1.3,0.3-2.6,0.8-4,1.2
			C749.5,991.8,753.1,982.3,755.5,978.4z"/>
		<path class="st0" d="M-69.6,279.7c1.1,7.3,0,8.4-6.3,12c-1-0.8-2-1.7-3.4-3C-76,285.7-73,282.8-69.6,279.7z"/>
		<path class="st0" d="M26.6,935.4c3.7-5.2,7.4-10.5,11.1-15.7c0.2,0.1,0.5,0.2,0.7,0.3c-0.5,2.6-0.9,5.2-1.5,7.7
			c-0.2,0.8-0.8,1.6-1.4,2.2c-2.7,2.1-5.5,4.1-8.2,6.1C27.1,935.9,26.8,935.7,26.6,935.4z"/>
		<path class="st0" d="M495.4,39.4c-0.4,1.9-0.6,3-0.9,4.4c-8,0-15.8,0-23.6,0c0-0.1-0.1-0.1-0.1-0.2
			C478.7,42.3,486.7,40.9,495.4,39.4z"/>
		<path class="st0" d="M529.4,1055.8c-5.4,1.5-10.9,3-16.9,4.7c1.2-3.4,2.5-5.5,5.9-5.7c2.5-0.1,5-0.6,7.6-0.8
			c1.1-0.1,2.3,0.3,3.5,0.4C529.4,1054.9,529.4,1055.4,529.4,1055.8z"/>
		<path class="st0" d="M1902.3,431.9c0.2,2.6-0.6,3.7-2.8,3.6c-3-0.1-6,0-9.6,0c0.7-2,1.3-3.7,2-5.6
			C1895.5,430.6,1898.8,431.2,1902.3,431.9z"/>
		<path class="st0" d="M719.8,59.6c-5,5.4-9.8,10.2-14.5,15c-0.3-0.2-0.5-0.4-0.8-0.6c1.1-1.6,2.1-3.3,3.2-4.9
			c1.2-1.8,2.4-3.6,3.6-5.4C713.7,60.1,714.1,60,719.8,59.6z"/>
		<path class="st0" d="M721.8,444.9c2.7-6.1,8-7.1,13.5-7.9C733.4,441.3,727.4,444.8,721.8,444.9z"/>
		<path class="st0" d="M1104.9,801.4c2-4.9,6-6,9.1-7.9c0.7-0.5,2,0,3.5,0.1c-2,4.2-5.3,6.1-8.8,7.6
			C1107.8,801.5,1106.6,801.3,1104.9,801.4z"/>
		<path class="st0" d="M578,727.5c0.7-1.6,0.8-2.7,1.3-2.9c3.6-1.5,7.2-2.7,11.5-4.3c-0.2,2.1-0.3,3.4-0.5,5.2
			C586.6,726.1,582.8,726.7,578,727.5z"/>
		<path class="st0" d="M285.8,862.9c0-5.4,0-5.4,4.1-5.8c3.4-0.4,6.7-0.8,10.1-1.2c0.1,0.2,0.2,0.5,0.2,0.7
			C295.6,858.6,290.9,860.7,285.8,862.9z"/>
		<path class="st0" d="M-134.2,873.7c-0.8-5.2,3.7-6.3,6.1-9.4c1.3,1.2,2.4,2.1,3.4,3.1C-126.6,869.8-130,872-134.2,873.7z"/>
		<path class="st0" d="M22.1,1021.5c-1.2,3.4-2.1,5.9-3.2,8.9c-2.7-0.3-5.2-0.7-7.7-1c-0.1-0.3-0.1-0.5-0.2-0.8
			c2.6-1.7,5.2-3.5,7.8-5.2C19.6,1022.8,20.5,1022.4,22.1,1021.5z"/>
		<path class="st0" d="M1036.4,856.2c3.2-3.3,6.2-6.9,10.2-9.4c0.1,3.3-1.3,6.2-3.3,8.2c-1.4,1.4-4.3,1.3-6.6,1.9
			C1036.7,856.7,1036.5,856.4,1036.4,856.2z"/>
		<path class="st0" d="M1922.8,205.3c8.4-3.7,16.6-7.3,24.8-10.9c0.1,0.2,0.2,0.3,0.3,0.5c-0.7,0.4-1.3,0.9-2,1.3
			c-6.1,3.1-12.2,6.2-18.4,9.2C1926.1,206.1,1924.6,207,1922.8,205.3z"/>
		<path class="st0" d="M1814.8,867.8c4.4-4.6,8.4-9,12.5-13.3c2.3-2.4,4.7-4.6,7.1-6.9c1.1-1,2.1-2.2,4.5-1.8
			C1830.7,853.3,1822.9,860.4,1814.8,867.8z"/>
		<path class="st0" d="M888.9,1052.8c-1.6,4-2.9,7.6-4.4,11c-0.7,1.6-2.2,1.4-3.6,1.1c0.3-2,4.4-10.5,5.7-11.7
			C886.9,1052.9,887.6,1053,888.9,1052.8z"/>
		<path class="st0" d="M34.2,610.6c0.2-1.4,0.3-2.4,0.5-3.6c2.7-0.3,5.3-0.6,8.3-0.9c0.2,1.4,0.3,2.6,0.5,4
			C40.3,610.9,37.4,611,34.2,610.6z"/>
		<path class="st0" d="M-108.9,65.2c-5.1,3.3-10.1,6.6-15.3,9.9c-1.2-2.1-0.3-2.9,1.1-3.6c4.6-2.3,9.3-4.6,13.9-6.9
			C-109.1,64.8-109,65-108.9,65.2z"/>
		<path class="st0" d="M189.5,890.8c3.6-2,6.6-3.6,9.7-5.2c0.2,0.2,0.4,0.5,0.6,0.7c-1.9,2.5-3.9,5-6.1,7.8
			C192.3,892.9,191.2,892.1,189.5,890.8z"/>
		<path class="st0" d="M1522.3,126.1c-4.2,1.9-8.4,3.8-12.5,5.6c-0.2-0.3-0.3-0.5-0.5-0.8c3-2.2,6-4.5,9.2-6.4
			c0.9-0.5,2.5,0.1,3.7,0.3C1522.2,125.2,1522.2,125.6,1522.3,126.1z"/>
		<path class="st0" d="M366.7,286.3c-1.9,0.4-3.2,0.6-4.7,0.9c-1.2-2.9-1.5-5.7-0.9-9.2C363.9,280.3,364.5,283.5,366.7,286.3z"/>
		<path class="st0" d="M1375.3,83.5c4.7,0,8.9,0,13.1,0C1383.1,87.2,1380.6,87.6,1375.3,83.5z"/>
		<path class="st0" d="M93.3,703.1c1.1,1.2,2,2.3,3.1,3.6c-2.1,1.8-4.2,3.7-6.5,5.8C89.7,709.4,90.4,707.6,93.3,703.1z"/>
		<path class="st0" d="M1796.8,282.4c-3.1,2.7-6.2,5.3-9.4,8.1c-0.6-3.5-0.3-4.3,2-5.5c2.3-1.2,4.6-2.3,6.9-3.4
			C1796.5,281.8,1796.7,282.1,1796.8,282.4z"/>
		<path class="st0" d="M247.9,230.3c2.5,0.7,4.7,1.3,7.3,1.9c-1,1.9-2.4,2.2-3.8,2.8C249.9,233.9,248.1,233.1,247.9,230.3z"/>
		<path class="st0" d="M343.4,376.4c1.4-0.7,2.7-1.5,4.6-2.5c0.3,1.8,0.5,3.2,0.7,4.5C345.3,379.9,345.2,379.9,343.4,376.4z"/>
		<path class="st0" d="M198.7,798.6c2.9-1.2,5.8-2.5,8.9-3.8c0.5,2.5-0.5,3.3-2.3,3.6c-2.1,0.3-4.2,0.6-6.4,0.9
			C198.9,799.2,198.8,798.9,198.7,798.6z"/>
		<path class="st0" d="M216.7,154.7c-2.1,2.3-3.6,4-5.4,5.8C209.9,156.3,211.7,155.1,216.7,154.7z"/>
		<path class="st0" d="M-17.6,851.1c-3.1,1.8-5.8,2.2-9,2.5C-24.5,851.2-21.1,850.2-17.6,851.1z"/>
		<path class="st0" d="M1211.9,815.8c-3.1,1.9-4.9,5.6-8.9,6.3c-0.2-0.3-0.4-0.6-0.6-0.9c3-2,6-4,8.9-6.1
			C1211.6,815.4,1211.8,815.6,1211.9,815.8z"/>
		<path class="st0" d="M550.5,600.8c2.1-2.2,4.2-4.3,6.5-6.7c0.5,2.5-0.9,4.1-5.9,7.2C550.9,601.1,550.7,600.9,550.5,600.8z"/>
		<path class="st0" d="M678.8,814.9c1.5-3,3.7-3,5.7-3.4c0.4-0.1,1,1,2.1,2.1C683.7,814.1,681.5,814.4,678.8,814.9z"/>
		<path class="st0" d="M173.1,283.4c3.9-1.5,6.7,0.1,9.2,2.6c-0.1,0.3-0.2,0.5-0.3,0.8c-1.4-0.7-2.7-1.6-4.2-2.2
			C176.3,284.1,174.6,283.8,173.1,283.4z"/>
		<path class="st0" d="M688.8,1078.1c-2.8,1.1-5.8,0.5-8.7,0.3C682.9,1077.4,685.8,1077.1,688.8,1078.1z"/>
		<path class="st0" d="M-61.2,770.1c0.8-1.6,1.6-3.2,2.8-5.5c0.8,1.7,1.3,2.7,1.9,4c-1.5,0.8-2.8,1.4-4,2.1
			C-60.7,770.5-60.9,770.3-61.2,770.1z"/>
		<path class="st0" d="M1455.6,898.7c-0.7,1.2-1.2,2.5-2,3.6c-0.2,0.3-1.3,0.5-1.6,0.3c-0.4-0.2-0.6-1.1-0.5-1.6
			c0.4-2,2.1-2.2,3.5-2.9C1455.2,898.4,1455.4,898.6,1455.6,898.7z"/>
		<path class="st0" d="M44.2,636.4c-1-1.2-2-2.4-3.4-4.2c1.8-0.2,2.8-0.3,4.2-0.4c0.1,1.6,0.2,2.9,0.2,4.2
			C44.9,636.1,44.5,636.3,44.2,636.4z"/>
		<path class="st0" d="M1022.8,871.1c-1.6,2.4-3.2,4.7-4.8,7.1c0-3.5,1.9-5.7,4.2-7.7C1022.4,870.7,1022.6,870.9,1022.8,871.1z"/>
		<path class="st0" d="M575.3,34.5c-2.2,0.4-4.5,0.9-6.7,1.3c-0.1-0.3-0.1-0.7-0.2-1c1.9-2.1,4.6-0.6,6.8-1.3
			C575.3,33.8,575.3,34.2,575.3,34.5z"/>
		<path class="st0" d="M1454.4,516.2c-3.6,0-7.2,0-10.8,0c0-0.1,0-0.2,0-0.3c3.6-0.2,7.2-0.4,10.8-0.6
			C1454.3,515.6,1454.4,515.9,1454.4,516.2z"/>
		<path class="st0" d="M41.6,885.1c-1.9,1.3-3.5,2.3-5.5,3.6C38.5,883.5,38.8,883.3,41.6,885.1z"/>
		<path class="st0" d="M1196,638.4c-1,2.3-1.7,3.9-2.4,5.4c-1.2-1.8-1-3.4,0-4.7C1193.8,638.8,1194.6,638.8,1196,638.4z"/>
		<path class="st0" d="M102.8,367.5c1.1,1.8,1.8,2.9,2.6,4.3c-0.9,0.3-1.8,0.9-2,0.7C102.1,371.4,101.8,370,102.8,367.5z"/>
		<path class="st0" d="M242.7,792.2c1.1-1.7,2.1-3.4,3.5-5.5C246,790.6,245.4,791.6,242.7,792.2z"/>
		<path class="st0" d="M1502.9,258.8c0.5-3.3,0.5-3.3,3.5-3.1C1506.2,257.7,1505.1,258.5,1502.9,258.8z"/>
		<path class="st0" d="M-106,429.7c0.2,1.8,0.4,3.7,0.6,5.5c-0.2,0-0.4,0.1-0.6,0.1c-0.4-1.8-0.8-3.7-1.3-5.5
			C-106.9,429.8-106.5,429.7-106,429.7z"/>
		<path class="st0" d="M183.7,134.8c-2.1,0.7-4.1,1.5-6.2,2.2C179.2,135.3,181.1,134.1,183.7,134.8z"/>
		<path class="st0" d="M828.3,144.4c0.1-2.2,1-3.4,3.5-2.5C830.6,142.7,829.5,143.5,828.3,144.4z"/>
		<path class="st0" d="M1394.6,786.4c0.5-1.4,1-2.9,1.5-4.3c0.3,0.1,0.5,0.1,0.8,0.2c-0.4,1.5-0.7,2.9-1.1,4.4
			C1395.4,786.6,1395,786.5,1394.6,786.4z"/>
		<path class="st0" d="M928.4,901.8c1.7-0.4,2.9-0.7,4.4-1C931.7,902.8,931.7,902.8,928.4,901.8z"/>
		<path class="st0" d="M866.8,138.9c1.3-0.1,2.5-0.3,3.8-0.4c0,0.2,0.1,0.5,0.1,0.7c-1.3,0.3-2.6,0.6-3.9,0.9
			C866.9,139.7,866.9,139.3,866.8,138.9z"/>
		<path class="st0" d="M1383.1,639.8c-1.2,1.2-2.3,2.3-3.5,3.5c-0.1-0.1-0.2-0.2-0.4-0.3c0.5-0.7,1-1.4,1.5-2c0.5-0.6,1-1.3,1.6-1.9
			C1382.6,639.3,1382.9,639.6,1383.1,639.8z"/>
		<path class="st0" d="M1943.3,1079c2.8,0.5,2.8,0.5,1.3,2.3C1944.1,1080.4,1943.7,1079.7,1943.3,1079z"/>
		<path class="st0" d="M857.6,607.7c0.8-1,1.4-1.7,2.2-2.8C859.8,607.2,859.8,607.2,857.6,607.7z"/>
		<path class="st0" d="M912.2,523.6c1-0.2,1.9-0.5,2.9-0.7C914.4,524.5,913.3,524.1,912.2,523.6z"/>
		<path class="st0" d="M1498.3,513.9c-0.8,0-1.7,0-2.5,0c0,0,0-0.1,0-0.1C1496.6,513.8,1497.5,513.8,1498.3,513.9
			C1498.3,513.9,1498.3,513.9,1498.3,513.9z"/>
		<path class="st0" d="M676.9,616.4c-0.9,0.1-1.7,0.2-2.6,0.3c0-0.1,0-0.3-0.1-0.4c0.8-0.2,1.7-0.3,2.5-0.5
			C676.8,615.9,676.8,616.1,676.9,616.4z"/>
		<path class="st0" d="M1558.2,339.8c-0.2,0.6-0.4,1.2-0.7,1.8c0,0-0.6-0.1-0.6-0.1c0.1-0.7,0.2-1.3,0.3-1.9
			C1557.6,339.6,1557.9,339.7,1558.2,339.8z"/>
		<path class="st0" d="M463.8,953.2c-0.2,0.7-0.3,1.4-0.5,2.1c-0.2,0-0.4-0.1-0.7-0.1c0.2-0.7,0.3-1.4,0.5-2.1
			C463.4,953.1,463.6,953.2,463.8,953.2z"/>
		<path class="st0" d="M1006.5,380.7c0.3-0.6,0.5-1.2,0.8-1.9c0.2,0.1,0.4,0.2,0.6,0.3c-0.3,0.6-0.5,1.2-0.8,1.9
			C1006.9,380.9,1006.7,380.8,1006.5,380.7z"/>
		<path class="st0" d="M799.1,799.2c-0.3,0.9-0.7,1.9-1,2.8c-0.2-0.1-0.5-0.2-0.7-0.3c0.4-0.9,0.7-1.8,1.1-2.7
			C798.6,799,798.9,799.1,799.1,799.2z"/>
		<path class="st0" d="M-13.3,1057.7c0.3-0.4,0.4-0.9,0.8-1c0.5-0.2,1.1,0,1.9,0.5c-0.7,0.4-1.4,0.8-2.1,1.1
			C-12.9,1058.1-13.1,1057.9-13.3,1057.7z"/>
		<path class="st0" d="M754.2,171.2c0.4-0.5,0.9-1.1,1.3-1.6c0.2,0.1,0.4,0.2,0.5,0.4c-0.4,0.6-0.8,1.2-1.2,1.8
			C754.6,171.6,754.4,171.4,754.2,171.2z"/>
		<path d="M155.6,503c-2.9-22.5-2.7-44.9-7.6-67.4c3.4-1,6.6-2.1,9.9-2.8c7.5-1.7,15.1-2.5,22.7-0.4c9.2,2.6,16.8,7.7,22.3,15.8
			c2.9,4.2,3.1,8.4,1.3,13c-1.9,4.8-4.9,8.9-8.2,12.8c-10.1,12.4-22.5,21.7-37.2,27.9C157.9,502.3,157,502.5,155.6,503z"/>
		<path d="M320.4,529.5c-11.9,1.2-23.3,2.3-35.1,3.5c-0.1-1.6-0.2-2.8-0.2-4c-0.4-18.4,1-36.6,3.2-54.9c1-8.2,3.2-16.2,6.1-24
			c0.4-1.2,1-2.3,1.6-3.6c2.4,1.5,3.3,3.8,4,6.1c1.4,4.1,2.9,8.2,4,12.3c5.3,20.4,10.5,40.9,15.7,61.4
			C320,527.1,320.1,528,320.4,529.5z"/>
		<path d="M1380.7,741.2c-7.1,0-13.6,0-20.5,0c0.7-11,0.5-21.8,4.9-32.7C1371.1,719.4,1375.5,730.3,1380.7,741.2z"/>
		<path d="M1775,693.3c7.1,13.9,14.2,27.8,21.6,42.3c-9-0.4-17.4-0.8-26.4-1.1c0.1-14.1,1.8-27.6,3.9-41.1
			C1774.5,693.3,1774.7,693.3,1775,693.3z"/>
		<path d="M1555.6,309.2c-0.4-14.3,1-28.2,2.1-42.6c2.2,1.7,3,3.6,3.7,5.6c1.4,3.8,2.6,7.7,3.9,11.6c2.5,7.3,5,14.7,7.5,22
			c0.2,0.7,0.5,1.4,0.8,2.4C1567.6,308.6,1561.8,308.9,1555.6,309.2z"/>
		<path d="M1507.8,400.3c1.5,1.5,3.1,2.6,4,4.1c5.7,9.6,11.3,19.4,16.9,29.1c0.2,0.3,0.1,0.7,0.2,1.4c-8.9,0.4-17.6,0.8-26.3,1.2
			C1501.6,431.7,1504.7,409.6,1507.8,400.3z"/>
		<path d="M1606.1,566.6c2.2-11.4,4.1-22.4,8.9-32.6c0.1-0.1,0.1-0.2,0.2-0.3c1.3-2.1,2.6-4.5,5.4-4.1c2.6,0.3,3.6,2.7,4.2,4.9
			c2.1,7.2,4.1,14.4,6.1,21.6c1.2,4.3,2.3,8.5,3.6,13.1C1625,568.4,1615.9,567.5,1606.1,566.6z"/>
		<path d="M1316.7,619.1c-3.9-17.9-4.9-35.6-6-53.6c0.9,0.3,1.7,0.4,2.3,0.7c10.4,6.3,20.1,13.5,28.1,22.8c2.9,3.4,5.2,7.2,6.2,11.7
			c1.3,5.6,0.1,8.6-4.7,11.7c-1,0.6-2,1.2-3,1.7C1332.4,617.4,1324.7,618.1,1316.7,619.1z"/>
	</g>
</g>
</svg>
