<?xml version="1.0" encoding="utf-8"?>
<!-- Generator: Adobe Illustrator 22.0.1, SVG Export Plug-In . SVG Version: 6.00 Build 0)  -->
<svg version="1.1" id="Livello_1" xmlns="http://www.w3.org/2000/svg" xmlns:xlink="http://www.w3.org/1999/xlink" x="0px" y="0px"
	 viewBox="0 0 1920 1080" style="enable-background:new 0 0 1920 1080;" xml:space="preserve">
<style type="text/css">
	.st0{fill:#FFFFFF;}
</style>
<g>
	<g>
		<path class="st0" d="M1998.9,449.2c0,212.3,0,424.5,0,636.8c-726.7,0-1453.5,0-2180.3,0c0-363.4,0-726.9,0-1090.6
			c1.4,0,2.8,0,4.3,0c724.2,0,1448.4,0,2172.6,0c1.1,0,2.6-0.9,3.5,0.7c-1.5,0-3.1-0.1-4.6-0.1c-579.5,0-1159,0-1738.5,0
			c-3.8,0-7.3,0.5-10.6,2.5c-3.5,2-11.2,3.4-14.9,3.1c0.9-1.7,1.7-3.3,2.8-5.5c-2.2,0-3.7,0-5.2,0C193.9-4,160-4,126-4
			C70.4-4,14.8-4-40.9-4c-8.2,0-16.4-0.4-24.5,1.5c-0.7,0.2-2.1,0.1-2.1-0.1c-0.5-2.1-2.2-1.4-3.3-1.4c-35.4,0-70.8,0-106.1,0
			c-1.1,0-2.2,0.2-3.7,0.3c0,2.1,0,4,0,5.9c0,137.9,0,275.8,0,413.8c0,8.1,0,16.1,0,24.2c0,4.3,1.3,6,5.4,7.2c3.3,1,6.6,0.5,9.9-0.4
			c5.8-1.6,11.6-3.2,17.5-4.7c2.6-0.6,5.3-1.1,7.9-1.2c12-0.2,24.1-0.2,36.1-0.4c9.7-0.1,19.5-0.3,29.2-0.7
			c17.4-0.7,34.8-1.6,52.2-2.2c15.1-0.5,30.2-0.8,45.4-1c13.3-0.1,26.7-0.2,40,0.2c21.4,0.7,42.8,1.8,64.1,2.7
			c15.1,0.6,30.2,1,45.3,1.6c4.6,0.2,9.2,0.8,13.8,0.9c16.1,0.3,32.3,0.4,48.4,0.6c12.8,0.2,25.6,0.5,38.4,0.6
			c19,0.2,37.9,0.4,56.9,0.3c10.2,0,20.5-0.3,30.7-0.9c11.5-0.7,23-1.6,34.5-0.3c1.7,0.2,3.3,0.2,5,0.2c16.8-0.1,33.6-0.1,50.4-0.4
			c12.8-0.2,25.6-0.9,38.4,0c8.2,0.6,16.4,0.7,24.6,0.9c5.4,0.1,10.8-0.2,16.1,0.3c15.3,1.2,30.6,2.6,45.9,4.1
			c23.5,2.3,47,3.6,70.6,3.1c2.6-0.1,5.1,0,7.7,0.2c9.1,0.7,18.1,1.6,27.2,2c20.1,0.9,40.2,1.7,60.3,2.3c9,0.3,17.9,0,26.9-0.2
			c12.9-0.3,25.9-1.1,38.8-1.3c17.8-0.3,35.6,0.2,53.4-0.3c16.6-0.5,33,0.4,49.5,1.5c14.2,0.9,28.4,2.2,42.6,1.9
			c15.8-0.3,31.5-0.2,47.3-0.4c6.1-0.1,12.3-0.5,18.4-1c4.3-0.3,8.7-1.3,13-1.2c17.8,0.5,35.6,1.1,53.4,2c10.9,0.5,21.7,2,32.6,2.4
			c14.5,0.7,28.9,0.5,43.3-1.7c9.2-1.5,18.6-2.4,27.9-3c12.9-0.8,25.9-1.2,38.6-3.5c2.8-0.5,5.6-0.6,8.4-0.5
			c8.3,0.1,16.7,0.3,25,0.5c28.6,0.9,57.1,2.1,85.7,2.8c15.5,0.4,31,0.2,46.5,0c14.5-0.3,28.9-1,43.4-1.6c10.9-0.5,21.8-1,32.6,0.7
			c15.9,2.5,31.7,1.6,47.5-0.2c8.1-0.9,16.3-1.5,24.5-2c10.7-0.6,21.5-0.6,32.3-1.4c12.9-1,25.8-1.3,38.8-0.6
			c5.9,0.3,11.8,0,17.7-0.2c9.9-0.3,19.7-0.8,29.5,0.7c15.1,2.3,30.1,4.6,45.4,5.6c14.8,1,29.5,0.3,44-2.3c16.5-3,33.2-5.2,50-5.3
			c11-0.1,22-0.2,33.1-0.3c17.1-0.2,34.1,1.3,50.8,5.1c14.8,3.4,29.7,3.8,44.6,1c12.4-2.3,24.8-4.1,37.3-5
			C1976,446.4,1987.5,446.9,1998.9,449.2z M1597.9,655c-1.1,0.8-2.3,1.6-1.3,3.6c2.2-2.1,4.7-1.8,7.2-1.3c1.2,0.2,2.5,0.3,3.8,0.3
			c0.6,0,1.2-0.4,2.4-0.9c-1.3-0.4-1.9-0.7-2.5-0.7C1604.3,655.6,1601.1,655.3,1597.9,655c-0.8-0.6-1.5-1.2-2.4-1.9
			c3.2-1.9,5.5-1,7.4,1.2c0.9-0.7,1.6-1.6,2.4-1.9c1.5-0.5,1.8,0.8,2.2,1.9c0,0.1,0.2,0.2,0.3,0.2c2.8,0.5,5.6,1,8.4,1.5
			c0.1-0.3,0.2-0.6,0.3-0.9c-1.2-0.6-2.7-0.9-3.5-1.8c-2.2-2.6-5.1-2.6-8.1-2.7c-2.4-0.1-4.8-0.3-7.2-0.4c-1.2-5.5-4.3-9.9-5-15.3
			c1.8,0.5,3.1,1.2,4.4,1c9.2-0.9,18.2,0.6,27.1,2.1c12.2,2,24.3,4.8,36.7,5.9c8.2,0.8,16.4,2.8,24.6,4.2c1.1,0.2,2.3,0.2,3.4,0.1
			c1.5-0.1,3-0.6,4.5-0.6c4.1,0.2,8.2,0.7,12.3,0.9c7,0.2,14.1,0.4,21.1,0.4c6.7,0,13.5-0.1,20.2-0.2c1.1,0,2.3-0.1,3.4-0.3
			c1.7-0.3,3.4-0.9,5.2-1.2c2.9-0.5,5.8-0.9,8.7-1.3c0.6-0.1,1.4-0.3,1.9-0.1c2.3,1.2,4.5,0.2,6.7-0.4c5-1.5,10-3.1,15.1-4.8
			c1.3,2.9,1,5.7,0.3,8.6c-2.2,0.9-5.1,0.1-6.4,3c0.9,0.4,1.7,0.8,2.9,1.4c-1.8,1.6-3.2,2.9-5.2,4.6c4,0.1,5.9-1.8,7.2-4.1
			c1.2-2.1,2.8-2.4,4.8-1.8c2,0.6,3.9,1.3,5.9,1.8c0.7,0.2,1.5-0.1,2.2-0.1c0-0.2,0-0.5,0-0.7c-3-1.2-6-2.5-9.1-3.8
			c0.5-2,1.1-3.7,1.3-5.5c0.2-1.7-1.5-3.4-0.1-5.9c1.1,2.3,1.9,4.1,2.6,5.8c2,0,3.8,0,5.5,0c0-0.3,0.1-0.6,0.1-0.8
			c-1.3-0.4-2.5-0.8-3.8-1.2c-0.1,0-0.1-0.4-0.2-0.9c1.1,0.1,2.1,0.2,3.1,0.2c0.2-0.5,0.4-0.7,0.4-0.9c0-0.5,0.1-1,0-1.5
			c-0.9-4.8-1-9.4,1.9-13.7c0.3-0.5,0.5-1.5,0.3-1.8c-2.1-2-0.9-4.3-1-6.5c0-0.7,0-1.6-0.2-2.2c-1.3-2.9-2.6-5.8-4-8.7
			c-0.5-0.9-0.9-2.2-2.9-1.7c0.3,1.2,0.6,2.4,1,3.6c0.4,1.2,0.8,2.4,1.3,3.7c-0.9,1-1.6,1.8-2.7,3c-0.8-3.2-1.4-5.8-4.1-7.5
			c-0.9,1.9,0.6,2.8,1.2,4c0.9,1.7,0.4,2.6-1.5,2.8c-0.2-1.6-0.4-3-0.7-5c-1.6,1.3-2.7,2.3-3.9,3.3c-1.3-1.3-2.5-2.4-2.4-4.2
			c5.2-0.7,5.5-1.3,2.9-6.9c-2.3,0.9-1.1,3.1-1.5,4.5c-3.1,0.4-5.3-0.7-6.4-3.4c-1.1-2.7-2.2-5.5-2.9-8.3
			c-1.8-7.2-3.4-14.5-5.1-21.7c-0.3-1.1-0.7-2.8-1.4-2.9c-2.1-0.5-2-2-2.3-3.5c-0.8-4.8-1.6-9.6-2.2-14.4c-0.2-1.4,0.2-2.8,0.3-4
			c-0.6-0.8-1.2-1.7-1.5-2.1c-5.5,1.3-10.2-0.5-15.1-0.8c0-0.8,0.1-1.2,0-1.5c-0.1-0.4-0.3-0.7-0.6-1.5c-1.4,1.8-2.6,2.9-4.7,2.6
			c-4.8-0.7-9.8-0.7-14.5-1.8c-3.8-0.8-7.2,0.5-10.8,0.7c-0.1,0-0.1,0.4-0.2,0.9c2,0.3,3.9,0.6,6,0.9c-0.4,3.4-2.7,5.4-4.5,7.7
			c-1.8,2.4-3.8,4.5-5.6,6.9c-1.8,2.3-3.4,4.8-5,7.2c-1.6,2.3-3.1,4.6-4.6,7c0.3,0.2,0.5,0.5,0.8,0.7c1.2-0.9,2.5-1.9,3.8-2.9
			c1,0.2,2.1,0.5,3.3,0.8c-0.4,1.5-0.8,2.8-1.2,4.3c-0.9,0-1.7,0.1-2.4,0c-8.8-0.7-17.7-1.1-26.4-2.2c-8.8-1.1-17.8-0.3-26.6-2.5
			c-5.1-1.3-10.7-0.6-16.1-0.7c-0.7,0-1.5,0.5-2.2,0.7c0,0.3,0.1,0.5,0.1,0.8c2.1,0.2,4.2,0.3,6.3,0.5c9.5,1.1,19.1,2.3,28.6,3.4
			c6.1,0.7,12.2,1.4,18.4,1.9c3.2,0.2,6.4-0.4,9.5-0.2c6,0.3,11.9,1,17.9,1.3c14.2,0.8,28.3,2.7,42.4,4.5c3.9,0.5,3.3,0.1,4.7,4.4
			c0.2,0.7,0.2,1.5,0.2,2.3c0.2,6.6,0.4,13.3,0.7,19.9c0.1,4.2,0.3,8.4,0.5,12.7c0.1,1.7,0.4,3.4,3,3.2c0.4-1.4,0.9-2.9,1.4-4.6
			c0.7,1,1.3,1.7,1.8,2.5c0.5-1.7,0-3.3,0.2-4.8c0.3-1.7,1.3-3.2,1.9-4.9c0.1-0.2,0-0.5,0.1-0.8c0.3-1.7,0.6-3.5,0.8-5.2
			c0.1-1.8,0.2-3.7-2.2-5.3c-0.2,2.4-0.4,4.2-0.5,6.1c-0.1,2,0.1,4.1-0.1,6.1c-0.1,0.6-0.9,1.2-1.8,2.3c-1.2-6.5-3.1-11.9-1.8-17.7
			c5.2-1.9,5.4-1.9,7.6,2.9c2.2,4.9,4.2,9.9,6.4,14.8c1,2.2,2,4.3,3.1,6.5c-6.8,3.7-14,3-21.1,3.3c-0.5-3.1-0.9-5.9-1.5-8.6
			c-0.3-1.3-0.8-2.9-1.8-3.7c-2.2-1.6-3-3.8-3.3-6.2c-0.3-2.7,0.7-4.9,3.4-6.1c-1.4-1.2-2.4-2.2-3.5-3.1c2.2-3.4,0.2-5.8-1.4-8.4
			c-3.6,2.7-1.7,5.9-1.3,9.4c-1.8-1.9-4.1-2.4-3.8-5.1c0.1-1.2-0.3-2.3-1.7-2.6c-1.5-0.4-3.2-0.1-3.7,1.3c-1,2.6-3.3,3.6-4.8,4.7
			c-2.9-1-5.4-2-8.2-2.9c0.6-1.2,1.1-2,1.5-3c-2.5-0.1-3.2,0.4-3.1,2.2c0.1,1.1,0.4,2.2,0.6,3.3c0,0,0.1-0.1,0.1-0.1
			c-2.4,1.5-4.9,2.9-7.4,4.4c0.1-1.1,0.8-2.9,0.3-3.4c-2.4-2.2-0.9-4.8-1.1-6.8c-0.4-1.8-3.1-1-2.6-3.2c0.3-0.1,0.7-0.3,1-0.3
			c7.3,0.4,14.6,0.8,21.8,1.3c0.7,0,1.4,0.5,2.1,0.9c2.8,1.7,5.4,0.6,8.9-0.5c-2.9-1.5-5-2.6-7.2-3.7c-0.3-0.2-0.8-0.1-1.1,0
			c-7.8,0.7-15.6,0.2-23.4,0c-17.7-0.4-35.3-1.5-52.9-3.3c-1-0.1-2.1,0-3.1,0c0,0.4,0,0.7-0.1,1.1c4.1,0.7,8.3,1.5,12.5,2.3
			c-0.4,2-0.7,3.7-1.2,6c-1.5-1.2-2.6-2-3.6-2.9c-1-0.9-1.8-2-2.8-3c-2,2.7-2,3.3,1.9,10.1c1.9,3.5,5.6,1.9,8.6,3
			c0.1-1.9-0.3-3.7,2.3-3.7c0.2,0.9,0.8,1.9,0.7,2.7c-0.7,3.7-1.6,7.4-2.4,11.1c-2.1-0.2-4.5-0.3-6.6-0.5c-1.6-1.8-3.1-3.4-4.7-5.1
			c0.5-0.7,1.1-1.5,1.9-2.6c-1.6-0.1-2.8-0.2-3.4-0.2c-0.7-3.3-1.3-6.1-2.1-8.9c-0.2-0.7-1.1-1.8-1.7-1.8c-3.2,0.1-3.8-2.2-4-4.5
			c-0.3-2.6-1.5-4.2-4.2-5.4c-0.6,1.2-1.3,2.3-1.8,3.5c-0.4,0.8-0.4,1.8-1,2.3c-2.4,2.2-2.5,4.7-1.1,7.3c1.1,2.1,0.8,3.8-0.7,6.2
			c-1.1-5.5-2-10.3-2.9-15.2c1.5-0.2,3-0.5,5.2-0.8c-3.8-1.9-13-2.5-16.1-1c1.9,0.4,3.7,0.7,5.6,1.1c0,0.2,0,0.4,0.1,0.6
			c-2,0.4-4,0.9-6.2,1.4c-0.4-2.5-0.8-4.7-1.2-7c-0.5-2.4-1.9-4.1-4.3-5.4c0.4,1.4,0.8,2.8,1.2,4.5c-2.5,0.1-3.3,1.3-3.3,3.5
			c0,0.9-0.8,1.8-1.1,2.8c-0.6,2.5-3.2,4.9-0.3,7.4c-1.5,1.2-2.8,2.1-4.7,3.5c0.5-2.4,0.9-4.1,1.2-5.8c0.2-1.6,2.6-3.3,0-4.9
			c-2.6,1.1-1.1,3.8-2.5,5.7c-0.8-6.9,2.3-12.2,5.2-17.7c0.2-0.4,0.9-0.5,1.3-0.7c2.7-1.2,2.9-1.3,2.4-4.3c-0.3-1.8-0.1-3.3,0.7-5.1
			c0.7-1.5,1-3.5,0.6-5.2c-0.9-4.4-4.1-7.2-7.6-9.8c-1-0.8-2.3-1.1-3.3,0.6c1.3,1.3,2.6,2.6,3.7,3.9c1,1.3,1.9,2.7,2.8,4.1
			c-0.2,0.1-0.3,0.2-0.5,0.3c-1.6-1.7-3.1-3.3-4.9-5.2c-2.5,0.7-5,1.5-7.6,2.3c-0.7-2.3,0.7-3,2.2-3.4c1.8-0.5,2.9-1.3,2.7-3.5
			c-0.7,0-1.2-0.1-1.7,0c-6.1,1.2-7.9,6.2-10.1,10.7c1.3,1.6,2.4,3,3.6,4.5c0.4-0.6,0.8-1.2,1.3-1.9c1.6,0.2,3.2,0.4,4.7,0.6
			c1.4,3.4-1.7,3.1-3.1,4c1.8,2.3,3.2,2.9,5.2,2.3c2.2-0.7,1.4-2.4,1.5-3.9c0.1-2.8,0.3-2.9,3.7-2.8c-0.5,1.1-1,2.2-1.7,3.7
			c3.1-0.6,3.4-3.3,5.2-5.1c0.2,1.7,0.3,2.9,0.5,4.2c-2.1,1.4-3.3,3.4-2.9,5.8c0.5,2.7-0.8,5-2.3,6.4c-2.2,1.9-3,4-3.4,6.6
			c-0.6,3.8-1.2,7.6,0.1,11.4c0.2,0.6,0.1,1.3,0.1,1.9c-0.6,5.4-1.1,10.8-1.8,16.6c-2.9-0.4-6-0.9-8.9-1.3c0.4-1.5,1-2.5,1-3.6
			c-0.2-5.6-0.3-11.3-3.6-16.2c-0.3-0.5-0.7-1.3-0.6-1.7c1-2.8,0-4.5-2.6-5.9c-1.9-1-1.7-1.8,0.2-3.6c1.5,3.1,5.1,4.9,5.4,8.9
			c0.1,1.5,2.2,1.7,3.6,1.4c0.7-0.1,1.8-1.2,1.6-1.7c-0.3-1.2-0.8-3-1.8-3.4c-2.9-1.3-3.1-3.8-3.2-6.2c-0.1-2.1,1.4-4.1-0.4-6.5
			c1.7,0.4,2.7,0.6,3.7,0.9c-2-2.5-2-4.7,0.4-6.8c-0.9-0.9-1.5-1.6-2.4-2.6c-3,2.4-2,6.6-4.8,9.1c-2.4,2.2-3.9,5.4-5.7,8.1
			c-6.3-0.6-6.3-0.6-8.9,1.9c0.5,3.3,0.9,6.6,1.7,9.9c0.5,2.4,1.3,4.8,4,6c2.3,1,3.1-1.3,4.9-1.5c3,4-1.7,6.4-2.1,9.5
			c2.8,3.1,3.4-1.1,5.3-1.6c0.4,1.6,0.8,3,1.3,4.9c-6.3-1.1-11.9-2.1-17.8-3.1c0.2-4.3,2.5-7.7,1.9-11.6c-0.5-3.7-1.6-10.7-2.5-11
			c-0.6,0.7-1.2,1.4-1.7,2.1c-1.1-0.7-2-1.3-3.1-2.1c-1,3.3,0.3,7.1-3.1,9.5c-0.7-0.6-1.4-1.3-2.1-2c-2.2-2.2-2.1-2.9,0.3-4.9
			c1.3-1,2.6-2,3.9-3c-0.7-1.4-1.4-2.2-0.8-3.7c1.5-3.6,3.9-5.5,8-5.7c3.8-0.1,6.4-2.4,7-6.2c-2.6,0-5.1,0-7.7,0
			c-1.1,0-2.1,0.5-2,1.8c0.2,2.6-1.7,3-3.5,3.1c-2.1,0.2-4.3-0.1-6.4-0.2c-0.2-0.7-0.5-1.2-0.5-1.7c-0.1-0.8,0-1.5,0.1-2.3
			c0.1-1.1,0.3-2.3,0.2-3.4c-0.1-2.3-1.3-3.7-3.1-3.7c-1.6,0-2.8,1.1-3,3.4c-0.2,1.9,0,3.8,0,5.2c-2.1,1.5-3.8,2.6-5.8,4.1
			c2.1-5.5,1.2-8.7-2.7-10.5c-0.9,2.6,0,4.7,1.5,6.9c-1.9,2-3.8,3.9-5.6,5.9c-2,2.1-2.2,4.2-0.8,7c0.9-1.3,1.7-2.5,3.1-4.4
			c0.9,3.9,3.7,6.5,2.4,10.3c-0.2,0.6-0.3,1.3-0.2,1.9c0.8,4.1,0.2,8.1-0.7,12.1c-0.4,1.6-0.6,3.2-0.9,4.6c1.7,0.6,3,1.1,4.8,1.7
			c-1.7,0.9-2.5,1.4-1.7,2.9c0.7,1.3,0.9,2.8,1.3,4.3c0.2,0.9,0.1,1.9,0.6,2.6c2.3,3.9,4.1,8.2,8,10.9c0.8,0.6,2,1.3,2.1,2.1
			c0.6,3.1,2.8,5.1,4.7,7.3c2.8,3.2,3.2,7.3,5.4,11.1c-3.6,1-6.7,1.6-9.6,2.7c-2.9,1.1-6.6,0.1-9.7,3.2c3.8,0.4,6.6,0.5,9.5-0.4
			c0.8-0.2,2.1-0.4,2.4-0.1c1.2,1.4,2.6,0.9,3.9,0.6C1588.5,657.2,1593.2,656.1,1597.9,655z M1737.7,661.1c-0.1-0.3-0.1-0.6-0.2-0.9
			c-2.1-0.4-2.1-0.2-4.6,0.4c-3,0.7-6.3,1.8-9,1c-2.5-0.7-4.5-0.7-6.4,0.5c-3.2,1.9-5.7,1-8.5-0.7c-1.5-0.9-3.3-1.5-5-1.5
			c-7,0.1-14.1,0.2-21.1,1c-4.2,0.4-8,0.4-11.9-1.2c-2.2-0.9-3.8-1.9-4.4-4.3c-0.3-1.3-0.9-2.7-1.6-3.9c-0.3-0.5-1.1-0.6-2-1.2
			c1,2.8,1.8,5.2,2.8,8c-1.7,0.1-3,0-4.2,0.2c-1.9,0.4-3.7,0.8-5.5,1.4c-1,0.4-1.4,1.4-0.2,2.6c1.8-2.1,4.2-2.2,6.7-2.3
			c3.4-0.2,6.5,1.1,9.7,2.2c1.2,0.4,2.4,0.7,3.7,0.7c2.8,0,5.6-0.3,8.4-0.2c5.1,0.2,10.2,0.6,15.3,0.8c1.3,0.1,2.8,0.3,3.5-1.6
			c0.2-0.4,1.6-0.8,2.3-0.6c1.4,0.4,2.6,1.3,4,2c-1.9,2.4-5.2,1.6-7.2,4.7c1.9-0.2,3.2,0,4.2-0.5c7.2-3.1,14.7-4.1,22.4-4.7
			C1731.9,663,1734.8,661.8,1737.7,661.1z M1777.7,655.9c-0.1-0.5-0.2-0.9-0.3-1.4c-11.4,0.4-22.8-0.1-34.1,3.3
			c1.8,0.2,3.6,0.3,6,0.6c-2.7,2.4-6,0.7-8.5,3.6c4.1-0.3,7.3-0.5,10.4-0.8c1-2.9,1-3.2,3.8-3.5c4.8-0.5,9.6-0.5,14.4-0.8
			c0.6,1.9,1.1,3.2,1.6,4.8c-0.6,0-1,0.1-1.3,0c-3.1-1.1-6.2-1.5-9.4-0.5c-0.6,0.2-1.5-0.1-2.2-0.2c-1.9-0.4-2.1,0.8-2.1,3.1
			c6.3-2.9,12.4,1,18.9,0c-0.2-1.2-0.4-2.1-0.5-2.8c1.2-0.7,2.8,0.9,3.9-0.9c-1.9-1.6-4.8-0.9-6.4-3
			C1774,656.8,1775.9,656.3,1777.7,655.9z M1628.2,660c-3.2-1.7-4.8-4.1-4.5-7.6c2.3-1.4,4.5-3.3,7.5-1.9c0.4,0.2,1.2,0.1,1.4-0.2
			c2-2.2,4.5-1.3,6.8-1.2c1.9,0.1,3.8,0.2,5.8,0.2c0.6,0,1.2-0.3,2.6-0.8c-4.2-1.6-7.7-1.6-11.3-1.8c-3.6-0.2-6.7,2.7-10.3,1.4
			c-1.5,1.9-3.5,0.9-5.4,0.9c-2.5,0-5.1,0-7.6,0.1c-0.5,0-1,0.4-1.4,0.6c3.1,0.9,5.9,3.1,9.7,1.6c-0.4,1.3-0.8,2.7-1.4,4.5
			C1622.7,657,1623,662,1628.2,660z M1653.6,653.4c1.4,0,2.8,1.3,4.2-0.4c-0.9-1.4-1.8-2.6-2.7-4c0.8-0.5,1.4-0.9,2.4-1.5
			c-2.5-1.5-4.6-2.7-7.1-4.1c-0.2,1.7-0.3,2.9-0.3,4C1653.8,649.5,1654.1,650,1653.6,653.4z M1645.3,651.1c-3.6-1.9-9.5-1.1-11.3,1
			c-1.3,1.5-0.5,2.5,0.3,2.9c3-0.6,5.3-1,7.7-1.4c-0.3-0.7-0.6-1.2-1-1.9C1642.2,651.5,1643.3,651.3,1645.3,651.1z M1727,665.3
			c0,0.3,0.1,0.7,0.1,1c2.2,0,4.5,0,6.7,0c2.2,0,4.3,0,6.5-0.3c2.1-0.2,4.4,0.8,6.2-1.3C1740,664.1,1733.5,664.1,1727,665.3z
			 M1601.7,573.9c-0.2-0.4-0.4-0.8-0.5-1.1c-4.4,1.9-8.7,3.8-13.1,5.7c-0.7,0.3-1.3,0.7-1.9,1.2c-0.1,0.1-0.1,0.5-0.3,1.5
			C1591.7,579.1,1596.9,576.9,1601.7,573.9z M1625.8,570.3c-2.9-1.2-5.6-0.5-7.9,1.9C1621.2,573.9,1623.4,572.1,1625.8,570.3z
			 M1634.7,558.9c0,1.6,0,2.6,0,4.1C1636.5,561.6,1636.6,560.6,1634.7,558.9z M1609.3,660.6c0.1-0.3,0.2-0.6,0.3-0.9
			c-0.9-0.4-1.7-0.7-3.1-1.3C1607.1,660.6,1608.1,660.8,1609.3,660.6z M1761.1,605.8c-0.2-0.2-0.5-0.5-0.7-0.7
			c-0.5,0.4-1,0.8-1.5,1.2c0,0,0.4,0.5,0.6,0.7C1760.1,606.6,1760.6,606.2,1761.1,605.8z"/>
		<path d="M1998.9,449.2c-11.4-2.2-22.9-2.8-34.4-1.9c-12.5,0.9-25,2.7-37.3,5c-15,2.8-29.8,2.4-44.6-1c-16.7-3.9-33.6-5.3-50.8-5.1
			c-11,0.1-22,0.2-33.1,0.3c-16.8,0.1-33.5,2.3-50,5.3c-14.6,2.7-29.2,3.3-44,2.3c-15.2-1-30.3-3.3-45.4-5.6
			c-9.9-1.5-19.7-1-29.5-0.7c-5.9,0.2-11.8,0.5-17.7,0.2c-13-0.6-25.9-0.3-38.8,0.6c-10.7,0.8-21.5,0.8-32.3,1.4
			c-8.2,0.5-16.4,1-24.5,2c-15.8,1.8-31.6,2.8-47.5,0.2c-10.8-1.7-21.7-1.2-32.6-0.7c-14.5,0.6-28.9,1.4-43.4,1.6
			c-15.5,0.3-31,0.4-46.5,0c-28.6-0.7-57.1-1.9-85.7-2.8c-8.3-0.3-16.7-0.5-25-0.5c-2.8,0-5.7,0-8.4,0.5
			c-12.8,2.3-25.7,2.7-38.6,3.5c-9.3,0.6-18.7,1.5-27.9,3c-14.4,2.3-28.9,2.4-43.3,1.7c-10.9-0.5-21.7-1.9-32.6-2.4
			c-17.8-0.9-35.6-1.5-53.4-2c-4.3-0.1-8.7,0.9-13,1.2c-6.1,0.4-12.3,0.9-18.4,1c-15.8,0.2-31.5,0.1-47.3,0.4
			c-14.3,0.3-28.4-1-42.6-1.9c-16.5-1.1-33-2-49.5-1.5c-17.8,0.6-35.6,0.1-53.4,0.3c-12.9,0.2-25.9,1-38.8,1.3
			c-9,0.2-17.9,0.5-26.9,0.2c-20.1-0.6-40.2-1.3-60.3-2.3c-9.1-0.4-18.1-1.4-27.2-2c-2.6-0.2-5.1-0.2-7.7-0.2
			c-23.6,0.5-47.1-0.8-70.6-3.1c-15.3-1.5-30.6-2.9-45.9-4.1c-5.4-0.4-10.8-0.1-16.1-0.3c-8.2-0.2-16.4-0.3-24.6-0.9
			c-12.8-0.9-25.6-0.2-38.4,0c-16.8,0.3-33.6,0.3-50.4,0.4c-1.7,0-3.3,0-5-0.2c-11.5-1.3-23-0.4-34.5,0.3
			c-10.2,0.6-20.5,0.9-30.7,0.9c-19,0-37.9-0.1-56.9-0.3c-12.8-0.1-25.6-0.5-38.4-0.6c-16.1-0.2-32.3-0.3-48.4-0.6
			c-4.6-0.1-9.2-0.7-13.8-0.9c-15.1-0.6-30.2-1-45.3-1.6c-21.4-0.8-42.7-2-64.1-2.7c-13.3-0.4-26.7-0.4-40-0.2
			c-15.1,0.2-30.2,0.5-45.4,1c-17.4,0.6-34.8,1.5-52.2,2.2c-9.7,0.4-19.5,0.6-29.2,0.7c-12,0.2-24.1,0.1-36.1,0.4
			c-2.7,0-5.4,0.5-7.9,1.2c-5.8,1.4-11.6,3.1-17.5,4.7c-3.3,0.9-6.5,1.4-9.9,0.4c-4.1-1.2-5.4-2.9-5.4-7.2c0-8.1,0-16.1,0-24.2
			c0-137.9,0-275.8,0-413.8c0-1.9,0-3.8,0-5.9c1.5-0.1,2.6-0.3,3.7-0.3c35.4,0,70.8,0,106.1,0c1.2,0,2.9-0.8,3.3,1.4
			c0,0.2,1.4,0.3,2.1,0.1c8.1-2,16.3-1.5,24.5-1.5C14.8-4,70.4-4,126-4c33.9,0,67.9,0,101.8,0c1.5,0,3,0,5.2,0
			c-1.1,2.2-2,3.8-2.8,5.5c3.7,0.4,11.4-1,14.9-3.1c3.4-2,6.8-2.5,10.6-2.5c579.5,0,1159,0,1738.5,0c1.5,0,3.1,0.1,4.6,0.1
			C1998.9,147.2,1998.9,298.2,1998.9,449.2z M320,287c0.1,0.2,0.1,0.4,0.2,0.7c1.3-0.1,2.7-0.2,4-0.3c10.8-1.3,21.6-3.3,32.4-3.6
			c7.4-0.2,12.6-2.8,16.9-8.3c1.1-1.3,2.7-2.2,3.3-4c-0.5-0.3-0.8-0.6-1.2-0.6c-6-1.2-12-2.3-18-3.6c-1.8-0.4-3.2,0.2-4.7,1.1
			c-10.1,5.8-20.2,11.5-30.4,17.2C321.6,286,320.8,286.5,320,287z M1255.6,51.6c-1.6,0.7-2.5,1.1-3.4,1.5
			c-8.2,4.4-16.5,8.9-24.7,13.3c-3,1.7-6,3.4-9,5.1c-1.5,0.9-2.7,1.9-2.3,3.9c0.5,0.2,0.8,0.4,1.2,0.4c2.6,0,5.1,0.2,7.7,0
			c1.4-0.1,2.8-0.4,4-1c12.4-5.8,12.7-6.1,21.5-16.7c1.2-1.5,2.5-2.9,3.7-4.4C1254.6,53.3,1254.9,52.8,1255.6,51.6z M1490.3,67.7
			c0.2,0.4,0.4,0.8,0.6,1.1c6.1-0.4,12.2-0.7,18.3-1.2c1.2-0.1,2.7-1.1,3.5-2.1c2.1-3,2.7-6.7,3.6-10.7c-5.9,0.2-11.1,0.4-16.3,0.7
			c-0.8,0-1.8,0.6-2.2,1.2C1495.1,60.3,1492.7,64,1490.3,67.7z M104.9,244.8c-5.5-1.7-10.4-2.3-15.6,0.9c-6.4,3.9-13.1,2.5-18.8-2.5
			c-0.7-0.6-1.8-1.6-2.5-1.5c-3.3,0.7-6.5,1.8-10.1,3.8c6,3,11.3,5.6,16.5,8.3c2.1,1.1,4,1.1,6.2,0.2c7.2-2.8,14.4-5.3,21.6-8
			C103.2,245.7,104,245.2,104.9,244.8z M279.8,349.4c-4.5-4-7.5-8.5-8.5-13.8c-2.3-0.4-3.4,0.5-4.5,1.7c-3.7,4.4-7.6,8.7-11.3,13.1
			c-0.5,0.6-1.1,1.7-0.8,2.3c0.2,0.6,1.4,1,2.2,1C264.5,353.3,272.1,353,279.8,349.4z M975.7,116.8c-2-3.2-2.1-3.3-4.5-2.3
			c-9,3.6-18,7.3-27,11c-0.7,0.3-1.6,0.7-1.8,1.3c-1.1,2.9-2,5.8-3.2,9.5C951.8,129.5,963.7,123.2,975.7,116.8z M1697.1,318.6
			c-0.1-0.2-0.1-0.4-0.2-0.5c-2.9,0-5.8,0.3-8.6-0.1c-2.3-0.4-4.2-0.2-6.3,0.8c-11.4,5.6-22.2,12.1-32.8,19c-0.6,0.4-1.1,1-1.7,1.5
			c0.1,0.2,0.3,0.3,0.4,0.5C1664.3,332.7,1680.7,325.7,1697.1,318.6z M1149.2,359.5c0-0.3,0-0.6,0-0.9c-3.7,0-7.4-0.3-11.1,0.1
			c-7.5,0.8-15,2-22.5,2.9c-5.5,0.6-11,1-16.5,1.5c-4,0.4-7,1.9-8.8,4.6c4.2,0.4,8.2,0.6,12.3-0.1c13.5-2.4,27-4.7,40.5-7
			C1145.2,360.2,1147.2,359.8,1149.2,359.5z M1390.6,243.7c2,1,3.4,1.7,4.7,2.3c8.5,3.7,5.1,3.5,13.8,1c3-0.9,6-1.8,9-2.8
			c-1-3.9-1-4-4.2-4.2c-2.8-0.2-5.7-0.2-8.4-0.6C1400.1,238.4,1395.8,240.6,1390.6,243.7z M1349.8,353.4c6.2-0.4,23.7-4.7,26.4-6.7
			c-9-1.3-17.6-2.8-26.4-3.7C1349.8,346.7,1349.8,349.9,1349.8,353.4z M429.8,89.6c0.1,0.2,0.2,0.3,0.4,0.5c0.3-0.1,0.7,0,1-0.2
			c6.6-3.4,13.2-6.7,19.8-10.2c0.8-0.4,1.5-1,2.1-1.6c1.2-1.4,4.8-10.1,5.1-12.6C448.6,73.7,439.2,81.6,429.8,89.6z M1495.8,251.1
			c0-3.8-0.7-4.7-3.3-5.1c-8.9-1.4-16.8,2.5-25.1,4.6c-0.5,0.1-0.7,1.3-1.4,2.7C1476.5,252.6,1486.1,251.9,1495.8,251.1z
			 M687.8,351.8c2.1,0.2,4.1,0.4,6.1,0.7c1.7,0.2,2.9-0.3,4-1.6c2.3-2.7,4.7-5.4,6.9-8.2c0.5-0.6,0.7-1.4,1.2-2.6
			c-3,0.4-5.4,0.6-7.7,1c-2.7,0.5-6.2,0.3-7.9,1.9c-1.8,1.6-1.9,5.1-2.7,7.8C687.7,350.9,687.8,351,687.8,351.8z M1880,233
			c0.2,0.3,0.4,0.6,0.5,0.9c1.5-0.3,2.9-0.7,4.4-0.8c2.5-0.3,3.8-1.5,4.6-3.9c1-3.3,2.4-6.5,3.5-9.7c0.4-1.1,0.7-2.3,1-3.4
			c-0.2-0.2-0.4-0.4-0.7-0.6c-1,0.5-2.5,0.8-3.1,1.6C1886.8,222.3,1883.4,227.7,1880,233z M1963.2,82.6c-3.9,1-7.4,1.9-10.7,2.9
			c-0.5,0.1-1.1,0.8-1.2,1.4c-0.6,2.6-1,5.2-1.5,7.7c5,1.8,5,1.8,7.5-1.8c0.4-0.5,0.7-1,1.1-1.6C1960,88.6,1962.1,86.3,1963.2,82.6z
			 M1140.4,213.5c1.8-3.3,3.4-6,4.8-8.8c0.9-1.6,0.6-3.1-0.7-4.5c-5.2,1-10,2.2-10.8,8.8C1135.7,210.3,1137.8,211.7,1140.4,213.5z
			 M-46.6,358c-2.5,3.7-5.8,5.5-10.2,4.3c-0.7,0.9-1.4,1.6-2,2.4c-0.2,0.3-0.2,0.7-0.4,1.5c8-0.5,15.5-2.2,23.1-4.5
			C-39.5,360.4-43,359.2-46.6,358z M1765.4,81.5c-6.8,0.8-25.3,8-27.7,10.6c0.4,0,0.8,0.1,1.2,0c6.7-1.4,13.5-2.9,20.2-4.4
			c0.8-0.2,1.7-0.6,2.3-1.2C1762.6,85.1,1763.7,83.5,1765.4,81.5z M1880.1,54.7c-0.1-0.3-0.3-0.6-0.4-0.9c-1.2,0.1-2.5,0.3-3.7,0.2
			c-4.9-0.3-6.3,4.2-9.2,6.6c-0.3,0.2-0.3,1-0.2,1.5c0.3,1.6,0.6,3.1,1.1,5.6C1872.3,62.9,1876.2,58.8,1880.1,54.7z M515.1,306.6
			c-2.4-5.1-2.7-5.3-7.2-5.2c-5.2,0.2-10.4,0.5-15.7,0.7c-1.5,0.1-3,0.2-4.5,0.3c0,0.2,0,0.4,0.1,0.6
			C496.8,304.2,505.8,305.4,515.1,306.6z M662.7,274.8c-4.6-0.9-11.5-0.8-14.4,0.2c0.9,1.7,1.7,3.4,2.7,5.1c0.3,0.6,1.1,1.1,1.8,1.2
			C657.9,282,660.5,280.3,662.7,274.8z M-69.3,349.1c-3.7,0.7-6.4,1.2-9.1,1.9c-0.8,0.2-1.9,0.9-2,1.5c-0.5,3-1.1,6.2,0.1,9.7
			C-75.7,358.5-72.1,354.8-69.3,349.1z M301.7,78.1c-8.2-0.3-8.3-0.3-14,4.5c-2.5,2.1-5.1,4.3-7.6,6.4c-0.9,0.8-1.8,1.7-2.6,2.5
			c0.2,0.2,0.3,0.4,0.5,0.6C285.9,87.5,293.8,82.8,301.7,78.1z M164.1,18.6c-5.9-0.6-18.1,2.4-21.4,5.2c1.1,0.1,1.9,0.3,2.7,0.2
			c3.7-0.2,7.4-0.7,11.1-0.7C160,23.4,162.2,21.6,164.1,18.6z M114,233c-0.4,2.2-0.7,4-1,6c1.8,0.3,3.2,0.8,4.5,0.8
			c1,0,2.4-0.3,3.1-1.1c1.7-2,3.2-4.2,5.3-7.1C121.4,232.2,117.9,232.5,114,233z M322.9,65.3c0-0.3-0.1-0.7-0.1-1
			c-5.3,0.7-10.5,1.2-15.7,2.1c-1.9,0.3-3.4,2-4.6,4.5C309.7,69.2,317.1,70.2,322.9,65.3z M409.7,230.9c5.6,1,6.4,0.7,9.3-2.4
			c2.1-2.3,4.2-4.5,6.2-6.8c0.5-0.6,0.8-1.3,1.2-1.9c-0.2-0.1-0.3-0.2-0.5-0.3C420.7,223.1,415.5,226.8,409.7,230.9z M17.4,221.6
			c2.6-0.7,4.9-1.3,7.2-2c1.7-0.6,1.8-1.8,1.3-3.2c-2.9,0-5.6,0-8.5,0C17.4,218.3,17.4,219.7,17.4,221.6z M371.6,176.5
			c-0.1-0.3-0.2-0.6-0.4-0.9c-2.9-0.1-5.9-0.6-9.1,0.5c0.3,2,0.5,3.8,0.9,6.2C366.3,180.1,369,178.3,371.6,176.5z M686,83.5
			c-5.6-0.4-7.1-0.2-9.2,1.2c0.9,1.5,1,3.8,3.7,3.7C683.6,88.2,684.9,86.4,686,83.5z M110.3,60.2c0,0.2,0,0.5,0.1,0.7
			c4,0,8,0.1,12,0c1.6-0.1,2.7-1.1,3.6-3.2C120.4,58.5,115.4,59.3,110.3,60.2z M842.3,342c-6.4-0.5-12.9-0.6-19.3-0.3
			c-0.4,0-0.7,0.5-1.2,0.9C824.9,343.5,839.1,343.4,842.3,342z M746.6,151c-0.1,0.3-0.2,0.7-0.3,1c1.8,1,3.6,2.1,5.7,3.3
			c0.8-1.9,1.5-3.5,2.5-5.8C751.4,150.1,749,150.6,746.6,151z M587.4,82.6c1.8,0.6,2.7,1,3.6,1.3c3.4,1,4.2,0.4,4.6-3.7
			C592.8,79.7,590.7,81.3,587.4,82.6z M985.1,198.8c-3.1-1.5-5.3-0.7-7,2.2C982.4,202.5,982.4,202.5,985.1,198.8z M1485,157.5
			c-3.1,5.3-3.1,7.1,0,10C1485,164.3,1485,161.3,1485,157.5z M1663.2,407.7c-0.6-2-1.1-3.3-3-2.6c-1.9,0.6-3.7,1.3-5.6,1.9
			c0.1,0.2,0.1,0.5,0.2,0.7C1657.5,407.7,1660.1,407.7,1663.2,407.7z M787.1,342.2c1.6,0.9,5.6,1.5,7.4,0.9c0.6-0.2,1-0.8,1.8-1.6
			C792.8,340.1,790.1,341.3,787.1,342.2z M1047.4,164.4c0,0.3,0.1,0.5,0.1,0.8c1.6,0.5,3.2,1,5.4,1.7c-0.4-1.8-0.6-3-1-4.5
			C1050.2,163.2,1048.8,163.8,1047.4,164.4z M138.2,232.3c-4.5-1.6-4.5-1.6-6.5,2.5C134.1,233.9,136.2,233.1,138.2,232.3z
			 M181.7,386c0-0.3,0-0.6-0.1-1c-4.6,0.3-9.2,0.7-13.8,1c0,0.3,0,0.6,0.1,0.8C172.5,386.7,177.1,386.4,181.7,386z M51.6,263.7
			c2.1-0.5,3.4-0.9,4.8-1.2c0-0.3,0-0.5,0-0.8c-1.3-0.6-2.6-1.2-4.2-1.9C52,261.2,51.8,262.1,51.6,263.7z M-108,190.4
			c-0.4,0.2-0.8,0.4-1.2,0.7c0.1,1.3,0.3,2.6,0.5,4.4c1.4-0.6,2.3-1,3.3-1.5C-106.4,192.6-107.2,191.5-108,190.4z M673.2,211.8
			c-0.1-0.3-0.1-0.7-0.2-1c-2.4,0.5-4.8,1.1-7.2,1.6c0,0.2,0.1,0.4,0.1,0.5C668.3,212.6,670.8,212.2,673.2,211.8z M1934.4,364.1
			c3.2,2.2,3.2,2.2,4.3,0.1C1937.4,363.5,1936.2,362.8,1934.4,364.1z M185.5,352.5c5.5,1.1,5.5,1.1,5.7-1.3
			C189.5,351.6,187.9,352,185.5,352.5z M-40.6,0.7c0-0.2-0.1-0.5-0.1-0.7c-1.2,0.1-2.4,0.2-3.7,0.4c-1.1,0.2-2.1,0.5-3.2,0.7
			c0,0.2,0.1,0.3,0.1,0.5C-45.1,1.3-42.9,1-40.6,0.7z M1298.3,52.5c-2.4-0.6-2.4-0.6-3.3,1.9C1296.2,53.6,1297.2,53,1298.3,52.5z
			 M1706.7,314.5c-2.6-0.4-2.6-0.4-4,1.8C1704.3,315.6,1705.5,315,1706.7,314.5z M-56.4,153.1c2.6-0.2,2.8-1.6,3-3.2
			C-55.7,149.7-55.7,151.3-56.4,153.1z M106.8,234.9c-1.1,0.8-2,1.5-3.3,2.4C106.7,237.8,106.7,237.8,106.8,234.9z M214.6,347.5
			c-1.6-0.7-2.5-0.3-2.9,1.8C213,348.5,213.8,348,214.6,347.5z M-44.1,148.5c-0.1-0.3-0.2-0.6-0.4-0.9c-0.6,0.3-1.1,0.6-1.6,1
			c0,0,0.1,0.4,0.2,0.6C-45.3,149-44.7,148.8-44.1,148.5z"/>
		<path d="M1730.3,598.5c-0.2-1.1-0.5-2.2-0.6-3.3c-0.1-1.8,0.5-2.2,3.1-2.2c-0.5,0.9-0.9,1.8-1.5,3c2.7,1,5.3,1.9,8.2,2.9
			c1.5-1.2,3.8-2.1,4.8-4.7c0.5-1.4,2.2-1.6,3.7-1.3c1.4,0.3,1.8,1.4,1.7,2.6c-0.3,2.7,2,3.3,3.8,5.1c-0.4-3.5-2.2-6.8,1.3-9.4
			c1.6,2.7,3.6,5.1,1.4,8.4c1.1,1,2.1,1.9,3.5,3.1c-2.7,1.2-3.8,3.4-3.4,6.1c0.3,2.4,1.1,4.6,3.3,6.2c1,0.7,1.5,2.3,1.8,3.7
			c0.6,2.7,1,5.5,1.5,8.6c7.2-0.3,14.3,0.4,21.1-3.3c-1-2.2-2.1-4.3-3.1-6.5c-2.2-4.9-4.2-9.9-6.4-14.8c-2.1-4.8-2.3-4.8-7.6-2.9
			c-1.3,5.8,0.6,11.3,1.8,17.7c1-1.2,1.8-1.7,1.8-2.3c0.2-2,0.1-4.1,0.1-6.1c0.1-1.9,0.3-3.7,0.5-6.1c2.5,1.6,2.4,3.5,2.2,5.3
			c-0.1,1.7-0.5,3.5-0.8,5.2c0,0.3,0,0.5-0.1,0.8c-0.7,1.6-1.6,3.2-1.9,4.9c-0.2,1.5,0.3,3.1-0.2,4.8c-0.5-0.7-1.1-1.5-1.8-2.5
			c-0.5,1.7-0.9,3.2-1.4,4.6c-2.6,0.2-2.9-1.5-3-3.2c-0.2-4.2-0.3-8.4-0.5-12.7c-0.2-6.6-0.5-13.3-0.7-19.9c0-0.8,0-1.6-0.2-2.3
			c-1.4-4.2-0.8-3.9-4.7-4.4c-14.1-1.8-28.2-3.7-42.4-4.5c-6-0.3-11.9-1-17.9-1.3c-3.2-0.2-6.4,0.4-9.5,0.2
			c-6.1-0.4-12.2-1.2-18.4-1.9c-9.5-1.1-19.1-2.3-28.6-3.4c-2.1-0.2-4.2-0.3-6.3-0.5c0-0.3-0.1-0.5-0.1-0.8c0.7-0.2,1.5-0.7,2.2-0.7
			c5.4,0.1,11-0.6,16.1,0.7c8.8,2.2,17.8,1.4,26.6,2.5c8.8,1.1,17.6,1.5,26.4,2.2c0.7,0.1,1.5,0,2.4,0c0.4-1.5,0.8-2.8,1.2-4.3
			c-1.3-0.3-2.3-0.5-3.3-0.8c-1.3,1-2.6,1.9-3.8,2.9c-0.3-0.2-0.5-0.5-0.8-0.7c1.5-2.3,3.1-4.7,4.6-7c1.7-2.4,3.3-4.9,5-7.2
			c1.8-2.4,3.8-4.5,5.6-6.9c1.7-2.3,4.1-4.3,4.5-7.7c-2.1-0.3-4-0.6-6-0.9c0.1-0.5,0.1-0.9,0.2-0.9c3.6-0.2,7-1.6,10.8-0.7
			c4.7,1,9.7,1.1,14.5,1.8c2.1,0.3,3.3-0.8,4.7-2.6c0.3,0.8,0.6,1.1,0.6,1.5c0.1,0.4,0,0.7,0,1.5c4.9,0.3,9.6,2,15.1,0.8
			c0.3,0.4,0.9,1.2,1.5,2.1c-0.1,1.2-0.4,2.6-0.3,4c0.6,4.8,1.4,9.6,2.2,14.4c0.2,1.5,0.2,3,2.3,3.5c0.7,0.2,1.1,1.9,1.4,2.9
			c1.7,7.2,3.3,14.5,5.1,21.7c0.7,2.8,1.7,5.6,2.9,8.3c1.1,2.7,3.3,3.8,6.4,3.4c0.4-1.5-0.8-3.7,1.5-4.5c2.6,5.6,2.3,6.2-2.9,6.9
			c0,1.8,1.2,2.9,2.4,4.2c1.2-1,2.3-1.9,3.9-3.3c0.3,2,0.5,3.5,0.7,5c1.9-0.3,2.4-1.1,1.5-2.8c-0.6-1.2-2.1-2-1.2-4
			c2.6,1.7,3.3,4.4,4.1,7.5c1-1.2,1.8-2,2.7-3c-0.4-1.3-0.9-2.5-1.3-3.7c-0.4-1.2-0.6-2.3-1-3.6c2-0.5,2.4,0.8,2.9,1.7
			c1.4,2.9,2.7,5.8,4,8.7c0.3,0.7,0.2,1.5,0.2,2.2c0.1,2.2-1.1,4.6,1,6.5c0.3,0.2,0,1.3-0.3,1.8c-2.8,4.3-2.7,9-1.9,13.7
			c0.1,0.5,0.1,1,0,1.5c0,0.2-0.2,0.5-0.4,0.9c-0.9-0.1-2-0.1-3.1-0.2c0.1,0.5,0.1,0.8,0.2,0.9c1.2,0.4,2.5,0.8,3.8,1.2
			c0,0.3-0.1,0.6-0.1,0.8c-1.8,0-3.5,0-5.5,0c-0.7-1.6-1.6-3.4-2.6-5.8c-1.4,2.5,0.3,4.2,0.1,5.9c-0.2,1.8-0.8,3.5-1.3,5.5
			c3.1,1.3,6.1,2.5,9.1,3.8c0,0.2,0,0.5,0,0.7c-0.7,0.1-1.5,0.3-2.2,0.1c-2-0.5-3.9-1.2-5.9-1.8c-2-0.6-3.6-0.4-4.8,1.8
			c-1.3,2.4-3.2,4.2-7.2,4.1c2-1.8,3.4-3,5.2-4.6c-1.2-0.6-1.9-0.9-2.9-1.4c1.3-2.9,4.3-2.1,6.4-3c0.7-2.9,1-5.7-0.3-8.6
			c-5.1,1.6-10.1,3.3-15.1,4.8c-2.2,0.6-4.3,1.6-6.7,0.4c-0.5-0.2-1.3,0-1.9,0.1c-2.9,0.4-5.8,0.8-8.7,1.3c-1.7,0.3-3.4,0.9-5.2,1.2
			c-1.1,0.2-2.2,0.3-3.4,0.3c-6.7,0.1-13.5,0.2-20.2,0.2c-7,0-14.1-0.2-21.1-0.4c-4.1-0.1-8.2-0.7-12.3-0.9c-1.5-0.1-3,0.4-4.5,0.6
			c-1.1,0.1-2.3,0.1-3.4-0.1c-8.2-1.4-16.3-3.5-24.6-4.2c-12.4-1.2-24.5-4-36.7-5.9c-9-1.4-18-3-27.1-2.1c-1.3,0.1-2.6-0.6-4.4-1
			c0.7,5.4,3.9,9.9,5,15.3c2.5,0.1,4.9,0.3,7.2,0.4c2.9,0.2,5.9,0.1,8.1,2.7c0.8,0.9,2.3,1.2,3.5,1.8c-0.1,0.3-0.2,0.6-0.3,0.9
			c-2.8-0.5-5.6-1-8.4-1.5c-0.1,0-0.3-0.1-0.3-0.2c-0.4-1.1-0.7-2.4-2.2-1.9c-0.9,0.3-1.5,1.2-2.4,1.9c-1.9-2.2-4.2-3.1-7.4-1.2
			c0.9,0.8,1.6,1.4,2.3,2c0,0,0.1-0.1,0.1-0.1c-4.7,1.1-9.4,2.3-14.2,3.3c-1.3,0.3-2.7,0.8-3.9-0.6c-0.3-0.4-1.6-0.2-2.4,0.1
			c-2.8,0.9-5.7,0.8-9.5,0.4c3.2-3.1,6.8-2.1,9.7-3.2c3-1.1,6.1-1.8,9.6-2.7c-2.2-3.8-2.6-7.9-5.4-11.1c-1.9-2.2-4.1-4.2-4.7-7.3
			c-0.2-0.8-1.3-1.5-2.1-2.1c-4-2.7-5.7-7-8-10.9c-0.4-0.7-0.3-1.7-0.6-2.6c-0.4-1.4-0.6-3-1.3-4.3c-0.8-1.5,0-2,1.7-2.9
			c-1.8-0.6-3.1-1.1-4.8-1.7c0.3-1.4,0.5-3,0.9-4.6c0.9-4,1.5-8,0.7-12.1c-0.1-0.6,0-1.3,0.2-1.9c1.3-3.8-1.5-6.4-2.4-10.3
			c-1.4,1.9-2.2,3.1-3.1,4.4c-1.4-2.9-1.2-5,0.8-7c1.8-1.9,3.7-3.9,5.6-5.9c-1.4-2.1-2.4-4.3-1.5-6.9c4,1.8,4.8,5,2.7,10.5
			c2.1-1.5,3.7-2.6,5.8-4.1c0-1.4-0.1-3.3,0-5.2c0.2-2.3,1.4-3.4,3-3.4c1.8,0,3,1.4,3.1,3.7c0.1,1.1-0.1,2.3-0.2,3.4
			c0,0.8-0.1,1.5-0.1,2.3c0,0.5,0.3,1,0.5,1.7c2.2,0.1,4.3,0.4,6.4,0.2c1.7-0.1,3.7-0.5,3.5-3.1c-0.1-1.3,0.9-1.8,2-1.8
			c2.5-0.1,5.1,0,7.7,0c-0.6,3.8-3.2,6-7,6.2c-4.1,0.2-6.6,2.1-8,5.7c-0.6,1.5,0.1,2.3,0.8,3.7c-1.3,1-2.6,2-3.9,3
			c-2.4,2-2.4,2.7-0.3,4.9c0.7,0.7,1.4,1.4,2.1,2c3.4-2.4,2.1-6.2,3.1-9.5c1.1,0.7,2,1.3,3.1,2.1c0.6-0.7,1.2-1.4,1.7-2.1
			c0.9,0.4,2,7.3,2.5,11c0.6,3.9-1.7,7.3-1.9,11.6c5.9,1,11.5,2,17.8,3.1c-0.5-1.9-0.8-3.3-1.3-4.9c-1.9,0.6-2.5,4.7-5.3,1.6
			c0.4-3.1,5.1-5.5,2.1-9.5c-1.8,0.1-2.6,2.5-4.9,1.5c-2.8-1.3-3.5-3.6-4-6c-0.7-3.2-1.1-6.6-1.7-9.9c2.6-2.5,2.6-2.5,8.9-1.9
			c1.8-2.7,3.3-5.9,5.7-8.1c2.8-2.5,1.7-6.7,4.8-9.1c0.9,1,1.6,1.7,2.4,2.6c-2.4,2.1-2.4,4.3-0.4,6.8c-1-0.2-2.1-0.5-3.7-0.9
			c1.8,2.4,0.3,4.5,0.4,6.5c0.1,2.4,0.3,4.9,3.2,6.2c0.9,0.4,1.5,2.2,1.8,3.4c0.1,0.4-1,1.5-1.6,1.7c-1.4,0.3-3.5,0.1-3.6-1.4
			c-0.3-4-3.9-5.8-5.4-8.9c-1.9,1.8-2.1,2.6-0.2,3.6c2.6,1.4,3.6,3,2.6,5.9c-0.2,0.5,0.2,1.2,0.6,1.7c3.2,5,3.3,10.6,3.6,16.2
			c0,1-0.6,2.1-1,3.6c2.9,0.4,6,0.9,8.9,1.3c0.6-5.8,1.2-11.2,1.8-16.6c0.1-0.6,0.1-1.3-0.1-1.9c-1.4-3.8-0.8-7.6-0.1-11.4
			c0.4-2.6,1.2-4.7,3.4-6.6c1.5-1.4,2.8-3.7,2.3-6.4c-0.4-2.5,0.8-4.4,2.9-5.8c-0.2-1.3-0.3-2.5-0.5-4.2c-1.8,1.7-2.2,4.5-5.2,5.1
			c0.7-1.5,1.2-2.6,1.7-3.7c-3.4,0-3.5,0.1-3.7,2.8c-0.1,1.4,0.7,3.2-1.5,3.9c-1.9,0.6-3.4,0-5.2-2.3c1.4-0.9,4.5-0.6,3.1-4
			c-1.5-0.2-3.1-0.4-4.7-0.6c-0.4,0.6-0.8,1.2-1.3,1.9c-1.2-1.5-2.3-2.9-3.6-4.5c2.2-4.5,4-9.5,10.1-10.7c0.5-0.1,1,0,1.7,0
			c0.3,2.2-0.9,3-2.7,3.5c-1.6,0.4-2.9,1.1-2.2,3.4c2.5-0.8,5.1-1.5,7.6-2.3c1.7,1.8,3.3,3.5,4.9,5.2c0.2-0.1,0.3-0.2,0.5-0.3
			c-0.9-1.4-1.7-2.8-2.8-4.1c-1.1-1.4-2.4-2.6-3.7-3.9c1-1.7,2.3-1.3,3.3-0.6c3.4,2.5,6.7,5.4,7.6,9.8c0.3,1.6,0.1,3.7-0.6,5.2
			c-0.9,1.7-1,3.2-0.7,5.1c0.5,3,0.3,3.1-2.4,4.3c-0.5,0.2-1.1,0.3-1.3,0.7c-2.9,5.4-6.1,10.8-5.2,17.7c1.3-1.9-0.2-4.6,2.5-5.7
			c2.6,1.6,0.2,3.3,0,4.9c-0.3,1.7-0.7,3.4-1.2,5.8c1.9-1.4,3.1-2.4,4.7-3.5c-2.9-2.5-0.3-4.9,0.3-7.4c0.2-1,1.1-1.9,1.1-2.8
			c0-2.2,0.8-3.4,3.3-3.5c-0.5-1.7-0.9-3.1-1.2-4.5c2.4,1.2,3.8,2.9,4.3,5.4c0.4,2.2,0.8,4.5,1.2,7c2.2-0.5,4.2-0.9,6.2-1.4
			c0-0.2,0-0.4-0.1-0.6c-1.9-0.4-3.7-0.7-5.6-1.1c3.1-1.6,12.2-0.9,16.1,1c-2.3,0.4-3.7,0.6-5.2,0.8c0.9,4.9,1.9,9.7,2.9,15.2
			c1.5-2.4,1.8-4.1,0.7-6.2c-1.4-2.6-1.3-5.1,1.1-7.3c0.6-0.5,0.6-1.5,1-2.3c0.6-1.2,1.2-2.3,1.8-3.5c2.8,1.2,4,2.8,4.2,5.4
			c0.2,2.2,0.8,4.5,4,4.5c0.6,0,1.5,1.1,1.7,1.8c0.8,2.8,1.4,5.6,2.1,8.9c0.6,0,1.7,0.1,3.4,0.2c-0.8,1.1-1.4,1.9-1.9,2.6
			c1.6,1.7,3,3.3,4.7,5.1c2.1,0.2,4.5,0.3,6.6,0.5c0.8-3.8,1.7-7.4,2.4-11.1c0.2-0.9-0.4-1.9-0.7-2.7c-2.7,0-2.2,1.8-2.3,3.7
			c-3-1.1-6.7,0.5-8.6-3c-3.8-6.9-3.9-7.5-1.9-10.1c1,1.1,1.8,2.1,2.8,3c1,0.9,2.1,1.7,3.6,2.9c0.4-2.3,0.8-3.9,1.2-6
			c-4.2-0.8-8.4-1.5-12.5-2.3c0-0.4,0-0.7,0.1-1.1c1,0,2.1-0.1,3.1,0c17.6,1.8,35.2,2.8,52.9,3.3c7.8,0.2,15.6,0.7,23.4,0
			c0.4,0,0.8-0.1,1.1,0c2.2,1.1,4.3,2.2,7.2,3.7c-3.5,1.1-6,2.2-8.9,0.5c-0.6-0.4-1.4-0.8-2.1-0.9c-7.3-0.5-14.6-0.9-21.8-1.3
			c-0.3,0-0.7,0.2-1,0.3c-0.5,2.2,2.2,1.4,2.6,3.2c0.2,2-1.2,4.6,1.1,6.8c0.5,0.5-0.2,2.3-0.3,3.4
			C1725.5,601.3,1727.9,599.9,1730.3,598.5c0.8,0.8,0.7,1.4-0.4,1.9c-1.2,0.6-2.4,1.4-3.5,2.3c-1.2,1-2.3,2.2-3.4,3.4
			c-0.5,3.5,2.7,6.6,1.3,10.3c2.8,1.1,5.6,2.2,8.8,3.5c-0.3-2.4-0.5-4.5-0.8-7.2c1.3,1,2,1.5,2.7,2c2-0.9,3-2.1,1.9-4.2
			c-3.6-0.2-7.2,1.4-11.2-0.6c2-1.5,3.7-2.8,5.4-4.1c-0.2-3.1-0.2-3.1,2.5-5.1c0.4,2.6,0.6,5.2-1.2,7.6c3.3,0.3,3.3,0.3,3.5-2
			c0.1-1,0-2,0.1-3c0.2-1.9-0.9-2.4-2.5-2.5C1733.4,598.5,1731.7,598.6,1730.3,598.5z M1686,595c-0.1,3.3-0.3,6.6-0.4,10.2
			c1.4,0.1,2.9,0.2,4.4,0.3c0.7,1.3,1.4,2.7,2.4,4.6c1-3.2,1.9-6,0.6-8.3c-1.6-2.8-4.4-4.8-7.1-6.7c0-1.2,0-2.5,0-3.6
			c0.7-0.3,1.1-0.6,1.3-0.5c2.6,1.1,4.7,0.7,6.8-1.4c1.3-1.3,3.7-0.3,4.2,1.6c0.3,1.4,0.5,2.8,0.5,4.2c0.1,2.7,0,5.3,0,8
			c0,0.1-0.4,0.3-0.8,0.6c-0.7-1.6-1.3-3.2-2-4.8c-0.8,4-1.3,7.7-1.4,11.5c0,1,1,2,1.7,3.3c2.1-2.1-0.4-6.2,3.9-6.4
			c0.2,0.6,0.2,1.2,0.4,1.6c2.7,4.5,3.3,9.3,2.9,14.4c-0.1,1.3,0.5,2.7,0.8,3.9c2.4-0.8,4.5-1.5,6.6-2.2c0-0.1-0.1-0.2-0.1-0.4
			c-1.9-0.1-3.8-0.2-6.1-0.4c0.3-2.5,0.5-4.9,0.7-7.2c0.3,0,0.6,0,0.9,0c0.3,1.5,0.7,3.1,1,4.8c1.3,0.3,2.7,0.5,4.6,0.9
			c-0.3-2.6-0.6-4.7-0.8-6.6c-1.3-0.6-2.3-1-3.6-1.5c0.4-0.7,0.6-1,0.9-1.5c1.2-2.3,2.3-2.6,3.9-0.9c0.8,0.9,1.5,2.1,1.7,3.3
			c0.3,1.6-0.1,3.3,0,5c0.1,2.5,0.3,5,0.4,7.7c2.9,0.2,5.3,0.4,8,0.6c-0.6-7.2-1.3-14-3.2-20.7c-2.4,0.4-4.5,0.8-6.7,1.2
			c-3.4-3.8-3.4-3.8-5-4.2c0,0,0.1,0.1,0.1,0.1c-0.5-1-0.7-2.3-1.5-2.9c-2.1-1.8-2.8-4-3-6.7c-0.5-6,0.4-6.8,6.2-5.7
			c1.9,0.4,2.7,1.3,3.2,3.2c0.7,2.9,1.1,5.5-1.2,7.8c-0.2,0.2,0,0.7,0,1.1c1.8-0.3,3.5-0.7,5.1-1c-0.1-4-3-8.1,1.4-11.9
			c-12.1-0.6-23.7-1.2-35.4-1.8c0.1,2.1,0.2,4,0.3,6.4C1683.5,594.2,1684.8,594.6,1686,595z M1782.6,631.5c-1.2,0.3-2,0.6-2.8,0.7
			c-4.3,0.5-8.7,0.8-13,1.3c-12.9,1.5-25.8,1.2-38.7,0.6c-10.9-0.5-21.7-2-32.5-3c-3.1-0.3-6.1-0.6-9.2-0.8
			c-6.5-0.5-13-0.7-19.5-1.4c-8.6-1-17.1-2.9-25.5-4.9c-4.8-1.2-9.1-4.1-14.2-4.4c-2-0.1-4-0.6-6.1-0.9c-8.1-1.2-16.2-2.4-24.3-3.5
			c-0.9-0.1-2-0.3-2.6,0.1c-1.8,1.2-3.4,0.5-5.2,0.2c-2.7-0.5-5.4-0.8-8.7-1.3c1.8,3.9,3.1,7.3,4.9,10.3c1.1,1.9,2.9,3.6,4.6,5.1
			c0.8,0.7,2,1.1,3.1,1.1c5.4-0.3,10.7-0.5,16,0.5c5,0.9,10.1,1.3,15.2,2.2c7,1.3,14,3.2,21,4.2c15.7,2.2,31.5,4.1,47.2,6
			c4.8,0.6,9.7,0.9,14.5,1.3c0.8,0.1,2.3-0.3,2.3-0.6c0.2-1.8,1.4-1.5,2.5-1.5c5.8,0.2,11.5,0.4,17.3,0.5c8.3,0,16.6,0.2,24.8-0.2
			c9.1-0.5,18.1-1.7,27.1-2.7c2.4-0.3,4.7-1.1,6.6-2.9c-0.5-1.2-0.9-2.2-1.4-3.3c-0.9,0.2-1.6,0.4-2.9,0.6c0.4-1.1,0.4-2.1,0.8-2.5
			c2-1.6,3.4,0.6,5.6,1.4c2.5-2.6,5.6-4.9,7.4-8c1.7-3.1,2.6-6.9,0-10.9c-0.7,1.5-1.2,2.5-1.7,3.5c-1.7,3.3-3.8,6.2-7.5,7.3
			c-3.9,1.2-7.9,2.3-11.9,2.9c-3.9,0.6-7.9,0.7-11.8,1c4.7,0.4,9.3,0.3,14-0.1C1780,629.2,1781.5,629.2,1782.6,631.5z M1759.7,547.4
			c-4.5-0.3-8.9-0.4-13.1-0.8c-1.9-0.2-3,0.5-4,2.1c-3.9,6-8,11.8-12,17.8c-0.8,1.2-1.4,2.7-1.8,4.1c-0.8,2.5-3.1,4.3-5.9,3.9
			c2.4-3.4,4.6-6.6,6.9-9.8c2.2-3.1,5.1-5.8,6.6-9.5c-5.2,2.1-10.2,4.2-15.2,6.2c-2.9,1.2-5.2,2.8-5.7,6.2c-0.1,0.6-0.4,1.2-0.8,1.7
			c-1.8,2-1.9,4.5-2.8,7.2c1.6,0.1,2.9,0.3,4.1,0.3c4.2,0.1,8.4,0.1,12.7,0.4c2.4,0.2,4.7,1,7,1.2c5.6,0.4,11.2,0.6,16.8,0.8
			c1.7,0.1,3.3,0,5,0c1.6,0,3.2,0,4.9,0c-0.6-4.8-1.1-9.2-1.8-13.6c-0.5-3.1-1.5-6.2-2.2-9.3c-0.3-1.6-1-3.4,0.5-5.5
			c0.6,1.1,1,1.9,1.4,2.6c0.1,0,0.2-0.1,0.3-0.1C1760.2,551.4,1760,549.6,1759.7,547.4z M1633.2,585c-0.4,2-0.9,3.7-1.2,5.4
			c-0.3,1.7-0.7,3.4-0.7,5.2c0,1.6,0.3,3.3,0.6,4.9c0.6,4.4,0.6,9,3.1,13c0.8,1.2,1.6,1.8,3,2c4.1,0.6,8.1,1.4,12.1,2
			c0.9,0.1,1.8,0,3,0c-0.9-3.3-4.2-1.6-6.1-3.6c1.1-1.3,2.2-2.6,3.3-3.7c1.6,0.7,0.4,3.1,2.4,2.9c0.4,0,0.9-0.4,1.2-0.8
			c1.4-2-1.2-2.6-1.6-4.3c0.9-1.1,2-2.2,2.8-3.5c1.1-1.7,2.2-3.4,2.9-5.3c0.3-0.7-0.1-2.2-0.6-2.6c-1.2-0.7-1.8,0.5-2.1,1.5
			c-1.1,3.1-3,5.5-5.3,7.8c-1.6,1.6-3.3,3.4-4.2,5.4c-1,2.1-2.2,3.2-4.5,3.6c-0.7-1.6-1.8-3-1.8-4.6c-0.2-3.5-0.3-7.1,0.3-10.6
			c0.5-3,0.2-5.8-0.9-8.6c-1.9,1.5-0.5,4.5-3.1,6.3c0-1.3,0-2.1,0-2.8c0.1-2.4,0.2-4.9,0.3-7.3C1635.9,585.7,1635,585,1633.2,585z
			 M1587.6,612.4c0-0.3,0.1-0.7,0.1-1c-1.1-0.3-2.2-0.6-3.2-0.8c-1.7-0.5-3.5-0.8-5.2-1.4c-3.4-1.3-6.5-0.9-9.9,1.5
			c10.2,13.2,17.7,27.8,22.9,44.1c1.4-1.9,2.5-3.2,3.5-4.6c-2.4-4.9-4.7-9.9-7.2-14.8c-1.5-2.9-1.4-6.7-4.8-8.5
			c-2.8-4.8-4.8-10.1-8.7-14.2c-0.2-0.2-0.1-0.7-0.2-1.2C1579.1,611.7,1583.3,612.1,1587.6,612.4z M1718.2,560
			c3.2-1.2,5.7-2.4,8.4-3c5-1.2,9-4,12.9-7.2c1-0.8,1.5-2.1,2.5-3.7c-5.5-0.6-10.1-1-14.8-1.5c-1.4-0.1-2.6,0.4-3.2,1.7
			C1721.9,550.5,1719.3,554.6,1718.2,560z M1744.5,599.2c-4.7,9.7-7.4,19.6-5.9,30.9c1.4-0.6,2.7-0.8,3.5-1.6
			c1.1-1.1,2.9-2.9,2.6-3.9c-0.8-3.3-0.2-7.2-3.9-9.6c0.7-0.4,1.2-0.7,1.7-1.1c0.6-0.5,1.4-0.9,1.6-1.5c1.3-4.1,2.4-8.3,3.6-12.8
			C1746.3,599.5,1745.3,599.4,1744.5,599.2z M1683.5,627.9c-1.6-2.7-3.9-2.9-6.2-3.3c-5.9-1-11.9-1.9-17.8-2.8
			c-0.8-0.1-2-0.1-2.5,0.3c-1.3,1.3-2.6,0.8-3.9,0.4c-2.6-0.7-5.1-1.6-7.7-2.3c-1.2-0.3-2.4-0.4-3.8-0.7c0.1,2.4,1.8,2.5,3,2.8
			c7.4,1.5,14.7,3.3,22.2,4.4C1672.3,627.5,1678,627.5,1683.5,627.9z M1671.1,615.7c-0.7,1.2-1.3,2-1.7,2.9c-0.7,1.7,0,3.1,1.8,3.4
			c2.5,0.4,5,0.6,7.3,0.8c1.1-3.1,2.1-5.8,3.2-8.6c-1.7-0.3-3.1-0.6-4.7-0.9c0,2.4,1.1,4.5-0.7,6.5c-1.3-3.4-2.5-6.5-3.7-9.7
			c-4,1.7-4,1.7-4,5.4C1669.3,615.5,1670,615.6,1671.1,615.7z M1685.2,607.1c-0.3,0-0.6,0.1-0.8,0.1c0,4,0,8,0,12
			c0,2.6,1.8,4.8,4.3,5.6c2.6,0.8,5.2,0.4,8.2-0.2c-0.5-1.7-0.8-3.2-1.2-4.7c-1.3,2.4-2.7,3.9-5.4,3.7c-1.1-3-2.8-5.9-2.9-8.7
			C1687.3,611.8,1685.8,609.7,1685.2,607.1z M1664.2,606.7c2.4-6.5,1.1-11.6-5.4-15.7c0.3,1.6,0.4,2.6,0.7,3.6
			c0.2,0.6,0.9,1.1,0.8,1.6c-0.5,2.3-1,4.7-1.8,7c-0.4,1.1-1.2,2.1-2,3.6C1659.4,606.7,1661.7,606.7,1664.2,606.7z M1745.4,629.8
			c1.3-0.8,2.5-1.9,4-2.3c1.6-0.5,2.4-1.4,2.6-2.9c0.4-3.2,0.6-6.5,0.8-9.9c-2,0-3.6,0-5.1,0
			C1746.7,619.9,1749.9,625.3,1745.4,629.8z M1753.7,604.5c-1.5-1.4-2.8-2.7-4.7-4.6c-0.5,4.7-0.9,8.7-1.3,13c2.3-0.4,4-0.7,5.5-1
			C1753.4,609.1,1753.6,606.7,1753.7,604.5z M1668,609.5c-2.7-0.3-5.2-0.6-7.7-0.9c-1.2-0.1-2.2,0.4-2.2,1.6c0,0.9,0.5,2.2,1.1,2.5
			c2.2,1.1,4.5,1.8,6.9,2.8C1666.8,613.5,1667.4,611.5,1668,609.5z M1570.1,604.3c-1.3-4.2,1.6-8.5-1-12.7
			c-2.4,2.1-2.8,4.6-2.3,12.4c0,0.5,0.3,0.9,0.5,1.6C1568.2,605.1,1568.9,604.8,1570.1,604.3z M1587.4,606.9
			c0.3-0.2,0.6-0.3,0.8-0.5c0-2.8,0-5.5,0-8.3c0-0.6-0.3-1.2-0.6-1.8c-0.4-1.1-1.3-1.7-2.4-1.2c-0.8,0.4-1.7,1.3-1.8,2
			c-0.1,1.2,0.3,2.5,0.8,3.6c0.8,1.6,2,2.9,1.7,4.9C1586,606,1586.9,606.5,1587.4,606.9z M1784.8,622.9c5.6-1,6.6-2.1,6.8-6.4
			c-2.3,0.4-1.2,3.3-3.2,4.1c-4.2-0.8-0.8-4.8-2.7-6.9c-0.8,0.3-1.8,0.7-3,1.1C1783.4,617.7,1784.1,620.2,1784.8,622.9z
			 M1579.2,576.8c-1.3-0.9-2-1.8-2.8-1.9c-2.1-0.3-4.6-1.1-6.1-0.2c-2.1,1.2-3.4,3.8-5.3,6.2c1.9,0.4,3,0.2,3.5-1.3
			c0.7-2.1,2.5-2.9,4.7-3.8c0.6,1.3,1.1,2.3,1.7,3.7C1576.2,578.7,1577.4,577.9,1579.2,576.8z M1630.1,614.7
			c0.2-0.3,0.4-0.6,0.6-0.8c-1.1-1.8-2.5-3.4-3.2-5.4c-0.7-2.1-0.7-4.4-1-6.8c-2.9,3.9-1,7.8-1.2,11.9
			C1627,613.9,1628.6,614.3,1630.1,614.7z M1752.9,629.7c1.2-0.1,2.3-0.1,3-0.2c0-5.3,0-10.3,0-15.2c-0.3,0-0.5,0-0.8,0
			C1754.3,619.2,1753.6,624.2,1752.9,629.7z M1766,581.4c-0.4,0.1-0.8,0.1-1.2,0.2c0.4,3.8,0.8,7.6,1.2,11.7
			c1.5-0.8,2.4-1.2,3.6-1.9C1768.3,588,1767.2,584.7,1766,581.4z M1605.6,613.5c0.3,0.5,0.4,0.9,0.5,0.9c7.4-0.3,14.5,1.7,21.7,3
			c0.2,0,0.5-0.2,1-0.4C1623.4,615,1608.7,612.7,1605.6,613.5z M1645.7,599.6c-3.3,2.4-4,4.3-3,9.2c1-1.3,1.6-2.5,2.6-3.4
			C1647.1,603.5,1647,601.7,1645.7,599.6z M1576.1,595.7c0,0.7-0.2,1-0.1,1.1c1.8,2.4,3.2,4.8,3.1,8c0,1.7,0.9,1.8,3.5,0.6
			c-0.8-0.7-1.5-1.2-2.1-1.7C1581.4,599,1581.3,598.9,1576.1,595.7z M1731.9,629.3c1.5,0,2.7,0,3.8,0c0.1-1.7,0.1-3.2,0.4-4.6
			c0.3-1.5,0.9-3-1.3-4.8c0,2.7,0,4.7,0,6.6c-0.2,0-0.5,0.1-0.7,0.1c-0.6-0.8-1.2-1.6-2.2-3C1731.9,625.9,1731.9,627.4,1731.9,629.3
			z M1667.1,620.3c-2.7-1.3-3.5-4.8-6.8-5.5C1660.1,619.4,1661.2,620.3,1667.1,620.3z M1724.1,620.5c0.7,2.7,2.7,2.4,4.5,2.2
			c0.5-0.1,1.1-0.6,1.2-1.1c0.1-0.4-0.3-1.2-0.7-1.5C1727.4,618.7,1725.7,619.5,1724.1,620.5z M1572.1,604.7c2-0.1,3.2-0.2,5.3-0.3
			c-2.3-1.7-1.2-4.4-3.9-5.5C1573.1,600.7,1572.7,602.3,1572.1,604.7z M1673.4,594.1c0.7,1.6,0.6,3.2,2.6,3.6
			c1.8,0.4,2.9-0.3,3.5-2.1c-1.7-0.6-3.3-1.1-5-1.7C1674.4,593.9,1674.2,594,1673.4,594.1z M1592.7,611.1c1.1,2,1.1,2,4,2.4
			c2.6,0.4,2.6,0.4,4.9-0.9C1598.8,612.1,1595.9,611.6,1592.7,611.1z M1648.5,592.9c-2,3.3-0.6,6.5,0.3,9.8c0.3,0,0.6-0.1,0.9-0.1
			C1649.3,599.3,1648.9,596.1,1648.5,592.9z M1692.5,628.9c0-0.4,0.1-0.8,0.1-1.1c-1.9-1.2-3.9-1.4-5.9,0.6
			C1688.7,628.5,1690.6,628.7,1692.5,628.9z M1575.7,570c0.8-2.2,1.2-3.9-0.6-5.4C1573.2,566.9,1573.2,566.9,1575.7,570z
			 M1600.4,585.8c-1.7,3.5-1.4,4,2,4.5C1601.7,588.8,1601.1,587.4,1600.4,585.8z M1717.2,604.7c-1.4-1.2-2.7-1.4-4.1-0.4
			c-0.2,0.2-0.2,1.1,0,1.3c1.2,1.3,2.5,0.8,3.7-0.1C1716.9,605.5,1716.9,605.3,1717.2,604.7z M1623,554.6c-1.1,3.5-0.9,3.7,3.1,2.9
			C1625.1,556.6,1624.2,555.8,1623,554.6z M1602,584.2c-2.4-1.5-4-1.8-6.5-0.9C1597.6,584.9,1599.3,584.6,1602,584.2z M1693.1,614
			c-1-0.8-1.5-1.5-2.2-1.6c-0.4-0.1-1.3,1-1.3,1.4c0.1,0.7,0.8,1.3,1.2,2C1691.5,615.3,1692.1,614.8,1693.1,614z M1728.6,629
			c-0.9-1.3-1.5-2.1-2.5-3.5c-0.5,1.5-0.7,2.4-1,3.5C1726.3,629,1727.1,629,1728.6,629z M1746.5,594.4c-0.6,0.7-1.4,1.3-1.3,1.5
			c0.2,0.6,0.9,0.9,1.3,1.4c0.4-0.4,1-0.8,1-1.2C1747.6,595.7,1747,595.2,1746.5,594.4z M1722.5,631.2c0-0.1,0-0.2,0-0.4
			c-1.8-0.1-3.6-0.2-5.4-0.3c0,0.2,0,0.4,0,0.7C1718.9,631.2,1720.7,631.2,1722.5,631.2z M1794.9,635.1c-2.3,1.9-1.5,3,0,4.7
			C1794.9,638,1794.9,636.9,1794.9,635.1z M1630.3,610.3c0.3-0.2,0.6-0.3,0.8-0.5c0-1.2-0.3-2.3-2.2-2.4
			C1629.4,608.4,1629.8,609.3,1630.3,610.3z M1657.8,588.6c-0.2-0.2-0.4-0.4-0.6-0.7c-0.6,0.4-1.3,0.8-2.4,1.4
			c1.1,0.3,1.7,0.7,2,0.6C1657.2,589.6,1657.4,589,1657.8,588.6z M1692.8,593.8c-0.4,0-0.8-0.1-1.2-0.1c-0.2,0.7-0.4,1.4-0.6,2.1
			c0.5,0.1,1.1,0.1,1.6,0.2C1692.7,595.2,1692.8,594.5,1692.8,593.8z M1657.3,614.1c-0.6,1.9-0.6,1.9,1.1,3.2
			C1657.9,615.9,1657.6,615,1657.3,614.1z M1568.2,588.2c0.5,0.4,0.9,0.9,1.2,0.9c0.3-0.1,0.9-0.7,0.9-1c-0.1-0.5-0.7-0.8-1-1.2
			C1568.9,587.3,1568.6,587.7,1568.2,588.2z M1569.1,614.6c-0.2,0.1-0.5,0.3-0.7,0.4c0.5,0.8,0.9,1.5,1.4,2.3
			c0.2-0.1,0.4-0.3,0.7-0.4C1570,616.1,1569.6,615.3,1569.1,614.6z M1648.4,588.7c-0.3-0.2-0.5-0.4-0.8-0.6
			c-0.3,0.5-0.6,0.9-0.8,1.4c0,0,0.5,0.3,0.8,0.5C1647.9,589.7,1648.2,589.2,1648.4,588.7z M1607.7,579.6c0.2,0.1,0.4,0.1,0.6,0.2
			c0.2-0.6,0.3-1.2,0.5-1.8c-0.1,0-0.3-0.1-0.4-0.1C1608.1,578.5,1607.9,579.1,1607.7,579.6z M1572.9,580.8
			c-0.4-0.7-0.6-1.1-0.9-1.5c-0.4,0.2-0.8,0.4-1,0.7c-0.1,0.1,0.2,0.8,0.4,0.8C1571.7,581,1572.1,580.8,1572.9,580.8z M1604.2,587.9
			c-0.2,0.2-0.4,0.5-0.6,0.7c0.7,0.4,1.3,0.9,2,1.3c0.1-0.2,0.3-0.4,0.4-0.5C1605.4,588.9,1604.8,588.4,1604.2,587.9z M1719.3,603.9
			c0.1,1.5,0.1,1.5,1.4,2C1720.1,605.1,1719.7,604.6,1719.3,603.9z M1586.3,655c0.1,0.2,0.1,0.5,0.2,0.7c0.6-0.2,1.2-0.4,1.8-0.6
			c-0.1-0.2-0.1-0.4-0.2-0.5C1587.6,654.7,1586.9,654.9,1586.3,655z M1688.7,607.5c-0.2,0.1-0.4,0.1-0.6,0.2
			c0.1,0.5,0.3,1.1,0.4,1.6c0.3-0.1,0.6-0.2,0.9-0.4C1689.2,608.4,1689,608,1688.7,607.5z"/>
		<path d="M1737.7,661.1c-2.9,0.8-5.8,1.9-8.8,2.2c-7.7,0.6-15.3,1.6-22.4,4.7c-1,0.4-2.3,0.3-4.2,0.5c2-3.1,5.3-2.3,7.2-4.7
			c-1.4-0.7-2.6-1.6-4-2c-0.7-0.2-2.1,0.2-2.3,0.6c-0.7,1.9-2.1,1.6-3.5,1.6c-5.1-0.2-10.2-0.6-15.3-0.8c-2.8-0.1-5.6,0.2-8.4,0.2
			c-1.2,0-2.5-0.3-3.7-0.7c-3.1-1.1-6.2-2.4-9.7-2.2c-2.4,0.1-4.9,0.2-6.7,2.3c-1.2-1.2-0.9-2.2,0.2-2.6c1.8-0.7,3.6-1.1,5.5-1.4
			c1.2-0.2,2.5-0.1,4.2-0.2c-1-2.8-1.8-5.1-2.8-8c0.9,0.5,1.8,0.7,2,1.2c0.7,1.2,1.2,2.5,1.6,3.9c0.6,2.4,2.1,3.4,4.4,4.3
			c3.9,1.6,7.7,1.6,11.9,1.2c7-0.7,14-0.8,21.1-1c1.7,0,3.5,0.6,5,1.5c2.8,1.7,5.4,2.5,8.5,0.7c1.9-1.1,3.9-1.2,6.4-0.5
			c2.7,0.8,6-0.4,9-1c2.5-0.6,2.5-0.8,4.6-0.4C1737.6,660.5,1737.7,660.8,1737.7,661.1z"/>
		<path d="M1777.7,655.9c-1.9,0.5-3.7,0.9-5.9,1.5c1.6,2.2,4.5,1.4,6.4,3c-1,1.8-2.6,0.1-3.9,0.9c0.1,0.8,0.3,1.6,0.5,2.8
			c-6.5,1-12.5-2.9-18.9,0c0-2.3,0.2-3.5,2.1-3.1c0.7,0.1,1.6,0.4,2.2,0.2c3.2-1,6.3-0.6,9.4,0.5c0.3,0.1,0.7,0,1.3,0
			c-0.5-1.5-1-2.9-1.6-4.8c-4.7,0.2-9.6,0.3-14.4,0.8c-2.8,0.3-2.8,0.6-3.8,3.5c-3.1,0.2-6.3,0.5-10.4,0.8c2.6-2.9,5.9-1.3,8.5-3.6
			c-2.4-0.2-4.2-0.4-6-0.6c11.3-3.5,22.7-2.9,34.1-3.3C1777.5,654.9,1777.6,655.4,1777.7,655.9z"/>
		<path d="M1628.2,660c-5.2,2-5.5-3-8.1-4.3c0.6-1.8,1-3.1,1.4-4.5c-3.8,1.5-6.5-0.7-9.7-1.6c0.5-0.2,1-0.5,1.4-0.6
			c2.5-0.1,5.1-0.1,7.6-0.1c1.8,0,3.8,0.9,5.4-0.9c3.7,1.3,6.8-1.6,10.3-1.4c3.5,0.2,7.1,0.2,11.3,1.8c-1.4,0.4-2,0.8-2.6,0.8
			c-1.9,0-3.8-0.1-5.8-0.2c-2.3-0.1-4.8-1-6.8,1.2c-0.3,0.3-1.1,0.4-1.4,0.2c-3.1-1.4-5.2,0.5-7.5,1.9
			C1623.5,655.8,1625,658.3,1628.2,660z"/>
		<path d="M1653.6,653.4c0.5-3.4,0.2-3.9-3.6-6c0.1-1.1,0.2-2.2,0.3-4c2.5,1.5,4.6,2.7,7.1,4.1c-1,0.6-1.6,1-2.4,1.5
			c0.9,1.3,1.8,2.6,2.7,4C1656.3,654.6,1655,653.4,1653.6,653.4z"/>
		<path d="M1645.3,651.1c-2,0.3-3.1,0.4-4.4,0.6c0.3,0.6,0.6,1.2,1,1.9c-2.4,0.4-4.7,0.9-7.7,1.4c-0.8-0.4-1.5-1.4-0.3-2.9
			C1635.8,649.9,1641.7,649.1,1645.3,651.1z"/>
		<path d="M1727,665.3c6.5-1.2,13-1.2,19.5-0.6c-1.8,2.1-4.1,1.1-6.2,1.3c-2.1,0.2-4.3,0.2-6.5,0.3c-2.2,0-4.5,0-6.7,0
			C1727.1,666,1727.1,665.6,1727,665.3z"/>
		<path d="M1601.7,573.9c-4.9,2.9-10,5.2-15.8,7.2c0.2-1,0.1-1.4,0.3-1.5c0.6-0.4,1.3-0.8,1.9-1.2c4.3-1.9,8.7-3.8,13.1-5.7
			C1601.4,573.2,1601.5,573.6,1601.7,573.9z"/>
		<path d="M1597.8,655c3.2,0.3,6.5,0.5,9.7,0.8c0.6,0.1,1.2,0.3,2.5,0.7c-1.2,0.5-1.8,0.9-2.4,0.9c-1.3,0-2.5,0-3.8-0.3
			c-2.5-0.5-5-0.7-7.2,1.3c-1.1-2.1,0.2-2.8,1.3-3.6C1598,655,1597.8,655,1597.8,655z"/>
		<path d="M1625.8,570.3c-2.4,1.9-4.6,3.6-7.9,1.9C1620.2,569.8,1622.9,569.1,1625.8,570.3z"/>
		<path d="M1634.7,558.9c1.9,1.7,1.8,2.7,0,4.1C1634.7,561.6,1634.7,560.5,1634.7,558.9z"/>
		<path d="M1609.3,660.6c-1.2,0.2-2.2,0-2.8-2.1c1.4,0.6,2.3,0.9,3.1,1.3C1609.5,660,1609.4,660.3,1609.3,660.6z"/>
		<path d="M1761.1,605.8c-0.5,0.4-1,0.8-1.6,1.2c-0.2-0.3-0.6-0.7-0.6-0.7c0.5-0.4,1-0.8,1.5-1.2
			C1760.7,605.3,1760.9,605.6,1761.1,605.8z"/>
		<path class="st0" d="M320,287c0.8-0.5,1.6-1.1,2.5-1.5c10.1-5.7,20.3-11.4,30.4-17.2c1.5-0.8,2.9-1.4,4.7-1.1c6,1.3,12,2.4,18,3.6
			c0.3,0.1,0.6,0.3,1.2,0.6c-0.6,1.8-2.3,2.7-3.3,4c-4.3,5.5-9.4,8.1-16.9,8.3c-10.8,0.2-21.6,2.3-32.4,3.6c-1.3,0.2-2.6,0.2-4,0.3
			C320.1,287.5,320,287.3,320,287z"/>
		<path class="st0" d="M1255.6,51.6c-0.7,1.2-1,1.8-1.3,2.2c-1.2,1.5-2.4,3-3.7,4.4c-8.8,10.6-9.2,10.9-21.5,16.7
			c-1.2,0.6-2.7,0.9-4,1c-2.6,0.1-5.1,0-7.7,0c-0.3,0-0.7-0.2-1.2-0.4c-0.4-2,0.8-3,2.3-3.9c3-1.7,6-3.4,9-5.1
			c8.2-4.5,16.4-8.9,24.7-13.3C1253.1,52.7,1254,52.3,1255.6,51.6z"/>
		<path class="st0" d="M1490.3,67.7c2.4-3.7,4.8-7.4,7.4-11c0.4-0.6,1.5-1.2,2.2-1.2c5.2-0.3,10.4-0.5,16.3-0.7
			c-0.9,4.1-1.4,7.7-3.6,10.7c-0.7,1-2.2,2-3.5,2.1c-6.1,0.6-12.2,0.9-18.3,1.2C1490.7,68.5,1490.5,68.1,1490.3,67.7z"/>
		<path class="st0" d="M104.9,244.8c-0.9,0.4-1.7,0.9-2.6,1.2c-7.2,2.7-14.4,5.2-21.6,8c-2.2,0.8-4.1,0.9-6.2-0.2
			c-5.2-2.7-10.5-5.3-16.5-8.3c3.7-2,6.8-3.1,10.1-3.8c0.7-0.1,1.8,0.8,2.5,1.5c5.7,5,12.4,6.4,18.8,2.5
			C94.5,242.5,99.5,243.1,104.9,244.8z"/>
		<path class="st0" d="M279.8,349.4c-7.8,3.6-15.3,3.9-22.8,4.2c-0.8,0-2-0.4-2.2-1c-0.2-0.6,0.3-1.7,0.8-2.3
			c3.7-4.4,7.5-8.7,11.3-13.1c1.1-1.2,2.2-2.1,4.5-1.7C272.3,340.9,275.4,345.4,279.8,349.4z"/>
		<path class="st0" d="M975.7,116.8c-12,6.3-23.9,12.7-36.6,19.4c1.2-3.7,2.1-6.7,3.2-9.5c0.2-0.6,1.2-1,1.8-1.3c9-3.7,18-7.3,27-11
			C973.6,113.5,973.6,113.6,975.7,116.8z"/>
		<path class="st0" d="M1697.1,318.6c-16.4,7.1-32.8,14.1-49.2,21.2c-0.1-0.2-0.3-0.3-0.4-0.5c0.6-0.5,1-1.1,1.7-1.5
			c10.6-6.9,21.5-13.4,32.8-19c2.1-1,4-1.2,6.3-0.8c2.8,0.4,5.7,0.1,8.6,0.1C1697,318.3,1697.1,318.4,1697.1,318.6z"/>
		<path class="st0" d="M1149.2,359.5c-2,0.4-4,0.7-6,1.1c-13.5,2.3-27,4.6-40.5,7c-4.1,0.7-8.1,0.5-12.3,0.1
			c1.7-2.6,4.7-4.2,8.8-4.6c5.5-0.5,11-0.9,16.5-1.5c7.5-0.9,15-2.1,22.5-2.9c3.7-0.4,7.4-0.1,11.1-0.1
			C1149.2,358.9,1149.2,359.2,1149.2,359.5z"/>
		<path class="st0" d="M1390.6,243.7c5.1-3.1,9.5-5.3,14.9-4.4c2.8,0.5,5.6,0.4,8.4,0.6c3.2,0.3,3.2,0.3,4.2,4.2c-3,0.9-6,1.9-9,2.8
			c-8.7,2.5-5.3,2.7-13.8-1C1394,245.4,1392.7,244.7,1390.6,243.7z"/>
		<path class="st0" d="M1349.8,353.4c0-3.5,0-6.6,0-10.4c8.9,0.9,17.4,2.5,26.4,3.7C1373.4,348.7,1356,352.9,1349.8,353.4z"/>
		<path class="st0" d="M429.8,89.6c9.4-8,18.8-15.9,28.4-24.1c-0.4,2.6-3.9,11.2-5.1,12.6c-0.6,0.6-1.3,1.2-2.1,1.6
			c-6.6,3.4-13.2,6.8-19.8,10.2c-0.3,0.2-0.7,0.1-1,0.2C430.1,89.9,430,89.8,429.8,89.6z"/>
		<path class="st0" d="M1495.8,251.1c-9.6,0.7-19.3,1.4-29.8,2.2c0.7-1.5,1-2.6,1.4-2.7c8.3-2.1,16.2-6,25.1-4.6
			C1495.1,246.5,1495.7,247.3,1495.8,251.1z"/>
		<path class="st0" d="M687.8,351.8c0-0.8-0.1-0.9,0-1c0.8-2.7,1-6.1,2.7-7.8c1.7-1.6,5.2-1.4,7.9-1.9c2.4-0.4,4.8-0.7,7.7-1
			c-0.6,1.2-0.8,2-1.2,2.6c-2.3,2.7-4.7,5.4-6.9,8.2c-1.1,1.3-2.3,1.9-4,1.6C692,352.2,689.9,352,687.8,351.8z"/>
		<path class="st0" d="M1880,233c3.4-5.3,6.8-10.7,10.4-16c0.6-0.8,2-1.1,3.1-1.6c0.2,0.2,0.4,0.4,0.7,0.6c-0.3,1.1-0.6,2.3-1,3.4
			c-1.2,3.2-2.5,6.4-3.5,9.7c-0.8,2.4-2.1,3.6-4.6,3.9c-1.5,0.2-2.9,0.6-4.4,0.8C1880.4,233.6,1880.2,233.3,1880,233z"/>
		<path class="st0" d="M1963.2,82.6c-1.2,3.7-3.2,6-4.8,8.5c-0.3,0.5-0.7,1.1-1.1,1.6c-2.5,3.6-2.5,3.6-7.5,1.8
			c0.5-2.5,0.9-5.1,1.5-7.7c0.1-0.5,0.7-1.2,1.2-1.4C1955.9,84.5,1959.3,83.7,1963.2,82.6z"/>
		<path class="st0" d="M1140.4,213.5c-2.6-1.8-4.6-3.2-6.6-4.5c0.8-6.6,5.6-7.9,10.8-8.8c1.3,1.3,1.5,2.9,0.7,4.5
			C1143.7,207.5,1142.2,210.2,1140.4,213.5z"/>
		<path class="st0" d="M-46.6,358c3.6,1.3,7,2.5,10.5,3.7c-7.5,2.4-15.1,4.1-23.1,4.5c0.2-0.8,0.2-1.2,0.4-1.5
			c0.6-0.8,1.3-1.6,2-2.4C-52.3,363.5-49.1,361.7-46.6,358z"/>
		<path class="st0" d="M1765.4,81.5c-1.7,2.1-2.8,3.6-4.1,5c-0.6,0.6-1.5,1.1-2.3,1.2c-6.7,1.5-13.5,3-20.2,4.4
			c-0.4,0.1-0.7,0-1.2,0C1740.1,89.5,1758.6,82.2,1765.4,81.5z"/>
		<path class="st0" d="M1880.1,54.7c-3.9,4.1-7.8,8.2-12.4,12.9c-0.5-2.4-0.8-4-1.1-5.6c-0.1-0.5-0.1-1.2,0.2-1.5
			c2.9-2.4,4.3-7,9.2-6.6c1.2,0.1,2.5-0.1,3.7-0.2C1879.9,54.1,1880,54.4,1880.1,54.7z"/>
		<path class="st0" d="M515.1,306.6c-9.3-1.2-18.3-2.4-27.3-3.5c0-0.2,0-0.4-0.1-0.6c1.5-0.1,3-0.2,4.5-0.3
			c5.2-0.3,10.4-0.5,15.7-0.7C512.5,301.3,512.7,301.4,515.1,306.6z"/>
		<path class="st0" d="M662.7,274.8c-2.1,5.5-4.8,7.2-9.9,6.4c-0.6-0.1-1.4-0.6-1.8-1.2c-1-1.6-1.8-3.3-2.7-5.1
			C651.2,274,658.1,273.9,662.7,274.8z"/>
		<path class="st0" d="M-69.3,349.1c-2.8,5.7-6.4,9.5-10.9,13.1c-1.2-3.6-0.6-6.7-0.1-9.7c0.1-0.6,1.2-1.3,2-1.5
			C-75.7,350.3-73,349.8-69.3,349.1z"/>
		<path class="st0" d="M301.7,78.1c-7.9,4.7-15.8,9.4-23.7,14.1c-0.2-0.2-0.3-0.4-0.5-0.6c0.9-0.8,1.7-1.7,2.6-2.5
			c2.5-2.2,5-4.3,7.6-6.4C293.3,77.8,293.5,77.7,301.7,78.1z"/>
		<path class="st0" d="M164.1,18.6c-2,3.1-4.1,4.8-7.6,4.8c-3.7,0-7.4,0.5-11.1,0.7c-0.8,0-1.6-0.1-2.7-0.2
			C146.1,21,158.2,18,164.1,18.6z"/>
		<path class="st0" d="M114,233c3.9-0.4,7.4-0.8,11.8-1.3c-2.1,2.9-3.5,5.1-5.3,7.1c-0.6,0.7-2,1.1-3.1,1.1c-1.4,0-2.7-0.5-4.5-0.8
			C113.3,237,113.6,235.2,114,233z"/>
		<path class="st0" d="M322.9,65.3c-5.8,4.9-13.2,3.9-20.4,5.6c1.1-2.5,2.7-4.1,4.6-4.5c5.2-1,10.5-1.4,15.7-2.1
			C322.8,64.6,322.9,65,322.9,65.3z"/>
		<path class="st0" d="M409.7,230.9c5.8-4.1,11-7.8,16.2-11.5c0.2,0.1,0.3,0.2,0.5,0.3c-0.4,0.7-0.7,1.4-1.2,1.9
			c-2,2.3-4.1,4.6-6.2,6.8C416.1,231.6,415.3,231.9,409.7,230.9z"/>
		<path class="st0" d="M17.4,221.6c0-1.9,0-3.3,0-5.2c2.9,0,5.6,0,8.5,0c0.5,1.3,0.4,2.6-1.3,3.2C22.3,220.3,20,220.9,17.4,221.6z"
			/>
		<path class="st0" d="M371.6,176.5c-2.7,1.8-5.4,3.6-8.6,5.8c-0.3-2.5-0.6-4.3-0.9-6.2c3.2-1.1,6.2-0.6,9.1-0.5
			C371.4,175.9,371.5,176.2,371.6,176.5z"/>
		<path class="st0" d="M686,83.5c-1,2.9-2.4,4.7-5.4,4.9c-2.7,0.1-2.8-2.1-3.7-3.7C678.9,83.3,680.4,83,686,83.5z"/>
		<path class="st0" d="M110.3,60.2c5.1-0.8,10.1-1.7,15.6-2.6c-0.8,2.2-2,3.2-3.6,3.2c-4,0.1-8,0-12,0
			C110.3,60.7,110.3,60.4,110.3,60.2z"/>
		<path class="st0" d="M842.3,342c-3.2,1.4-17.4,1.6-20.5,0.6c0.5-0.4,0.8-0.9,1.2-0.9C829.4,341.4,835.9,341.5,842.3,342z"/>
		<path class="st0" d="M746.6,151c2.4-0.4,4.8-0.9,8-1.5c-1,2.3-1.7,3.9-2.5,5.8c-2.1-1.2-3.9-2.3-5.7-3.3
			C746.4,151.7,746.5,151.3,746.6,151z"/>
		<path class="st0" d="M587.4,82.6c3.3-1.3,5.4-2.9,8.2-2.4c-0.4,4.1-1.2,4.7-4.6,3.7C590.1,83.6,589.2,83.3,587.4,82.6z"/>
		<path class="st0" d="M985.1,198.8c-2.7,3.7-2.7,3.7-7,2.2C979.8,198.1,982,197.3,985.1,198.8z"/>
		<path class="st0" d="M1485,157.5c0,3.8,0,6.9,0,10C1481.9,164.6,1481.9,162.8,1485,157.5z"/>
		<path class="st0" d="M1663.2,407.7c-3.1,0-5.7,0-8.4,0c-0.1-0.2-0.1-0.5-0.2-0.7c1.9-0.6,3.7-1.3,5.6-1.9
			C1662.1,404.4,1662.6,405.6,1663.2,407.7z"/>
		<path class="st0" d="M787.1,342.2c2.9-0.9,5.7-2.1,9.2-0.6c-0.8,0.7-1.2,1.4-1.8,1.6C792.7,343.7,788.8,343.2,787.1,342.2z"/>
		<path class="st0" d="M1047.4,164.4c1.4-0.6,2.8-1.2,4.6-2c0.3,1.5,0.6,2.6,1,4.5c-2.3-0.7-3.9-1.2-5.4-1.7
			C1047.5,164.9,1047.4,164.7,1047.4,164.4z"/>
		<path class="st0" d="M138.2,232.3c-2,0.8-4.1,1.5-6.5,2.5C133.7,230.8,133.7,230.8,138.2,232.3z"/>
		<path class="st0" d="M181.7,386c-4.6,0.3-9.2,0.6-13.8,0.9c0-0.3,0-0.6-0.1-0.8c4.6-0.3,9.2-0.7,13.8-1
			C181.6,385.4,181.7,385.7,181.7,386z"/>
		<path class="st0" d="M51.6,263.7c0.2-1.6,0.4-2.5,0.6-3.9c1.6,0.8,2.9,1.3,4.2,1.9c0,0.3,0,0.5,0,0.8
			C55,262.8,53.7,263.2,51.6,263.7z"/>
		<path class="st0" d="M-108,190.4c0.8,1.1,1.6,2.2,2.6,3.6c-1,0.5-1.9,0.9-3.3,1.5c-0.2-1.8-0.3-3.1-0.5-4.4
			C-108.8,190.9-108.4,190.6-108,190.4z"/>
		<path class="st0" d="M673.2,211.8c-2.4,0.4-4.9,0.8-7.3,1.1c0-0.2-0.1-0.4-0.1-0.5c2.4-0.5,4.8-1.1,7.2-1.6
			C673.1,211.1,673.1,211.5,673.2,211.8z"/>
		<path class="st0" d="M1934.4,364.1c1.8-1.3,3-0.6,4.3,0.1C1937.6,366.3,1937.6,366.3,1934.4,364.1z"/>
		<path class="st0" d="M185.5,352.5c2.4-0.5,4-0.9,5.7-1.3C191,353.6,191,353.6,185.5,352.5z"/>
		<path class="st0" d="M-40.6,0.7c-2.3,0.3-4.5,0.6-6.8,0.9c0-0.2-0.1-0.3-0.1-0.5c1.1-0.2,2.1-0.6,3.2-0.7c1.2-0.2,2.4-0.3,3.7-0.4
			C-40.7,0.2-40.6,0.5-40.6,0.7z"/>
		<path class="st0" d="M1298.3,52.5c-1,0.6-2,1.2-3.3,1.9C1295.8,51.9,1295.8,51.9,1298.3,52.5z"/>
		<path class="st0" d="M1706.7,314.5c-1.2,0.5-2.4,1.1-4,1.8C1704.1,314.1,1704.1,314.1,1706.7,314.5z"/>
		<path class="st0" d="M-56.4,153.1c0.6-1.8,0.6-3.4,3-3.2C-53.6,151.5-53.8,152.9-56.4,153.1z"/>
		<path class="st0" d="M106.8,234.9c-0.1,2.9-0.1,2.9-3.3,2.4C104.8,236.4,105.7,235.8,106.8,234.9z"/>
		<path class="st0" d="M214.6,347.5c-0.8,0.5-1.6,1-2.9,1.8C212.1,347.2,213,346.8,214.6,347.5z"/>
		<path class="st0" d="M-44.1,148.5c-0.6,0.2-1.2,0.5-1.8,0.7c-0.1-0.2-0.3-0.6-0.2-0.6c0.5-0.4,1.1-0.7,1.6-1
			C-44.4,147.9-44.2,148.2-44.1,148.5z"/>
		<path class="st0" d="M1782.6,631.5c-1.1-2.3-2.6-2.3-4.4-2.2c-4.6,0.4-9.3,0.5-14,0.1c3.9-0.3,7.9-0.3,11.8-1
			c4-0.7,8-1.8,11.9-2.9c3.7-1.1,5.8-4,7.5-7.3c0.5-1,1-2,1.7-3.5c2.6,4,1.7,7.9,0,10.9c-1.7,3.1-4.9,5.4-7.4,8
			c-2.1-0.7-3.5-3-5.6-1.4c-0.5,0.4-0.5,1.4-0.8,2.5c1.3-0.3,2-0.4,2.9-0.6c0.4,1.1,0.9,2.1,1.4,3.3c-1.9,1.8-4.2,2.6-6.6,2.9
			c-9,1-18.1,2.1-27.1,2.7c-8.2,0.5-16.5,0.3-24.8,0.2c-5.8,0-11.5-0.3-17.3-0.5c-1.1,0-2.3-0.3-2.5,1.5c0,0.3-1.5,0.7-2.3,0.6
			c-4.8-0.3-9.7-0.7-14.5-1.3c-15.8-1.9-31.5-3.8-47.2-6c-7.1-1-14-2.9-21-4.2c-5-0.9-10.1-1.3-15.2-2.2c-5.3-1-10.6-0.8-16-0.5
			c-1,0-2.3-0.4-3.1-1.1c-1.7-1.5-3.5-3.1-4.6-5.1c-1.8-3.1-3.1-6.4-4.9-10.3c3.3,0.5,6,0.8,8.7,1.3c1.7,0.3,3.4,1,5.2-0.2
			c0.6-0.4,1.7-0.2,2.6-0.1c8.1,1.1,16.2,2.3,24.3,3.5c2,0.3,4,0.7,6.1,0.9c5.1,0.3,9.3,3.2,14.2,4.4c8.4,2,16.9,4,25.5,4.9
			c6.5,0.7,13,0.9,19.5,1.4c3.1,0.2,6.1,0.5,9.2,0.8c10.8,1,21.6,2.5,32.5,3c12.9,0.6,25.8,0.9,38.7-0.6c4.3-0.5,8.7-0.9,13-1.3
			C1780.7,632.1,1781.5,631.8,1782.6,631.5z"/>
		<path class="st0" d="M1759.7,547.4c0.3,2.2,0.5,4,0.8,5.7c-0.1,0-0.2,0.1-0.3,0.1c-0.4-0.7-0.8-1.5-1.4-2.6
			c-1.4,2-0.8,3.8-0.5,5.5c0.6,3.1,1.6,6.2,2.2,9.3c0.7,4.4,1.2,8.8,1.8,13.6c-1.7,0-3.3,0-4.9,0c-1.7,0-3.3,0.1-5,0
			c-5.6-0.2-11.2-0.4-16.8-0.8c-2.4-0.2-4.7-1-7-1.2c-4.2-0.3-8.4-0.3-12.7-0.4c-1.2,0-2.5-0.2-4.1-0.3c0.9-2.7,1-5.2,2.8-7.2
			c0.4-0.4,0.8-1.1,0.8-1.7c0.5-3.4,2.8-5,5.7-6.2c5-2,9.9-4,15.2-6.2c-1.5,3.7-4.4,6.4-6.6,9.5c-2.2,3.2-4.5,6.4-6.9,9.8
			c2.9,0.3,5.2-1.5,5.9-3.9c0.4-1.4,1-2.9,1.8-4.1c4-6,8.1-11.8,12-17.8c1-1.6,2.1-2.3,4-2.1C1750.8,547,1755.2,547.1,1759.7,547.4z
			 M1747.1,572c0.4-0.1,0.8-0.3,1.2-0.4c-1.1-2.8-2-5.6-3.2-8.3c-1.2-2.8-1.5-6-3.5-8.5C1741.9,561.1,1744.3,566.6,1747.1,572z"/>
		<path class="st0" d="M1707.3,605.3c1.6,0.4,1.6,0.4,5,4.2c2.2-0.4,4.3-0.8,6.7-1.2c2,6.7,2.6,13.5,3.2,20.7
			c-2.8-0.2-5.1-0.4-8-0.6c-0.1-2.7-0.3-5.2-0.4-7.7c-0.1-1.7,0.3-3.3,0-5c-0.2-1.2-0.8-2.4-1.7-3.3c-1.6-1.7-2.7-1.4-3.9,0.9
			c-0.2,0.4-0.5,0.8-0.9,1.5c1.2,0.5,2.2,1,3.6,1.5c0.2,1.9,0.5,4,0.8,6.6c-1.9-0.4-3.2-0.6-4.6-0.9c-0.4-1.7-0.7-3.3-1-4.8
			c-0.3,0-0.6,0-0.9,0c-0.2,2.3-0.5,4.6-0.7,7.2c2.3,0.1,4.2,0.2,6.1,0.4c0,0.1,0.1,0.2,0.1,0.4c-2.1,0.7-4.2,1.4-6.6,2.2
			c-0.2-1.2-0.9-2.6-0.8-3.9c0.4-5.1-0.2-9.9-2.9-14.4c-0.2-0.4-0.3-1-0.4-1.6c-4.3,0.2-1.8,4.3-3.9,6.4c-0.7-1.3-1.7-2.3-1.7-3.3
			c0.1-3.8,0.6-7.5,1.4-11.5c0.7,1.6,1.3,3.2,2,4.8c0.5-0.3,0.8-0.4,0.8-0.6c0-2.7,0.1-5.3,0-8c0-1.4-0.2-2.8-0.5-4.2
			c-0.4-1.9-2.8-2.9-4.2-1.6c-2.1,2-4.2,2.4-6.8,1.4c-0.2-0.1-0.7,0.2-1.3,0.5c0,1.2,0,2.4,0,3.6l0.1-0.1c-1.3-0.4-2.5-0.8-3.5-1.1
			c-0.1-2.4-0.2-4.3-0.3-6.4c11.7,0.6,23.3,1.2,35.4,1.8c-4.4,3.7-1.5,7.9-1.4,11.9c-1.7,0.3-3.4,0.7-5.1,1c0-0.4-0.2-0.9,0-1.1
			c2.3-2.3,1.9-5,1.2-7.8c-0.4-1.9-1.2-2.8-3.2-3.2c-5.9-1.1-6.7-0.3-6.2,5.7c0.2,2.7,0.8,4.9,3,6.7
			C1706.7,603.1,1706.9,604.4,1707.3,605.3c-1.1-1-2.1-2.8-4.3-2.1c1,3,1.9,5.8,2.9,8.8C1708.2,610.1,1708.6,607.9,1707.3,605.3z"/>
		<path class="st0" d="M1633.2,585c1.8,0.1,2.7,0.7,2.7,2.3c-0.1,2.4-0.2,4.9-0.3,7.3c0,0.7,0,1.4,0,2.8c2.6-1.8,1.2-4.8,3.1-6.3
			c1.1,2.8,1.4,5.6,0.9,8.6c-0.5,3.5-0.5,7.1-0.3,10.6c0.1,1.5,1.2,3,1.8,4.6c2.3-0.3,3.5-1.4,4.5-3.6c0.9-2,2.6-3.8,4.2-5.4
			c2.3-2.3,4.2-4.7,5.3-7.8c0.3-1,0.9-2.2,2.1-1.5c0.6,0.3,0.9,1.9,0.6,2.6c-0.8,1.9-1.8,3.6-2.9,5.3c-0.8,1.3-1.9,2.4-2.8,3.5
			c0.4,1.7,3.1,2.3,1.6,4.3c-0.3,0.4-0.8,0.7-1.2,0.8c-2,0.2-0.8-2.2-2.4-2.9c-1,1.2-2.1,2.4-3.3,3.7c1.8,2,5.1,0.3,6.1,3.6
			c-1.1,0-2.1,0.1-3,0c-4-0.7-8.1-1.4-12.1-2c-1.4-0.2-2.2-0.8-3-2c-2.5-4-2.5-8.5-3.1-13c-0.2-1.6-0.6-3.3-0.6-4.9
			c0-1.7,0.4-3.5,0.7-5.2C1632.3,588.7,1632.7,586.9,1633.2,585z"/>
		<path class="st0" d="M1587.6,612.4c-4.2-0.3-8.4-0.6-12.8-0.9c0.1,0.5,0,1,0.2,1.2c3.9,4.1,5.9,9.4,8.7,14.2
			c3.4,1.8,3.3,5.6,4.8,8.5c2.5,4.9,4.8,9.9,7.2,14.8c-1,1.4-2.1,2.7-3.5,4.6c-5.2-16.3-12.7-30.9-22.9-44.1
			c3.3-2.4,6.5-2.8,9.9-1.5c1.7,0.6,3.4,1,5.2,1.4c1.1,0.3,2.2,0.6,3.2,0.8C1587.6,611.7,1587.6,612,1587.6,612.4z"/>
		<path class="st0" d="M1718.2,560c1.2-5.4,3.7-9.5,5.8-13.8c0.6-1.2,1.7-1.8,3.2-1.7c4.7,0.5,9.3,1,14.8,1.5
			c-1.1,1.6-1.6,2.9-2.5,3.7c-3.8,3.2-7.8,6-12.9,7.2C1723.9,557.6,1721.4,558.8,1718.2,560z"/>
		<path class="st0" d="M1744.5,599.2c0.9,0.1,1.8,0.2,3.2,0.4c-1.3,4.5-2.4,8.6-3.6,12.8c-0.2,0.6-1,1-1.6,1.5
			c-0.5,0.4-1,0.7-1.7,1.1c3.7,2.4,3.1,6.3,3.9,9.6c0.3,1.1-1.5,2.8-2.6,3.9c-0.8,0.8-2.1,1-3.5,1.6
			C1737.1,618.8,1739.7,609,1744.5,599.2z"/>
		<path class="st0" d="M1730.3,598.5c1.5,0.1,3.1,0,3.2,2.2l0.1-0.1c-2.7,2-2.7,2-2.5,5.1c-1.7,1.3-3.4,2.6-5.4,4.1
			c4,2,7.5,0.5,11.2,0.6c1.1,2.1,0.1,3.3-1.9,4.2c-0.7-0.5-1.4-1-2.7-2c0.3,2.8,0.5,4.9,0.8,7.2c-3.2-1.3-6-2.4-8.8-3.5
			c1.4-3.7-1.7-6.8-1.3-10.3c1.1-1.1,2.2-2.4,3.4-3.4c1.1-0.9,2.2-1.7,3.5-2.3C1731,599.9,1731.1,599.3,1730.3,598.5
			C1730.3,598.4,1730.3,598.5,1730.3,598.5z"/>
		<path class="st0" d="M1683.5,627.9c-5.6-0.4-11.2-0.4-16.7-1.2c-7.4-1.1-14.8-2.9-22.2-4.4c-1.3-0.3-2.9-0.3-3-2.8
			c1.4,0.2,2.6,0.3,3.8,0.7c2.6,0.7,5.1,1.6,7.7,2.3c1.3,0.4,2.6,0.9,3.9-0.4c0.5-0.5,1.6-0.5,2.5-0.3c5.9,0.9,11.9,1.8,17.8,2.8
			C1679.6,624.9,1681.9,625.2,1683.5,627.9z"/>
		<path class="st0" d="M1671.1,615.7c-1.1-0.1-1.8-0.2-2.5-0.2c0-3.7,0-3.7,4-5.4c1.2,3.2,2.4,6.3,3.7,9.7c1.8-2,0.7-4.1,0.7-6.5
			c1.5,0.3,2.9,0.6,4.7,0.9c-1,2.8-2,5.5-3.2,8.6c-2.3-0.3-4.8-0.4-7.3-0.8c-1.8-0.3-2.5-1.7-1.8-3.4
			C1669.8,617.6,1670.4,616.8,1671.1,615.7z"/>
		<path class="st0" d="M1685.2,607.1c0.7,2.6,2.1,4.8,2.2,7.8c0.1,2.9,1.8,5.7,2.9,8.7c2.7,0.2,4.1-1.4,5.4-3.7
			c0.4,1.5,0.8,2.9,1.2,4.7c-3,0.5-5.6,1-8.2,0.2c-2.5-0.8-4.3-3-4.3-5.6c0-4,0-8,0-12C1684.6,607.1,1684.9,607.1,1685.2,607.1z"/>
		<path class="st0" d="M1664.2,606.7c-2.5,0-4.8,0-7.7,0c0.8-1.4,1.7-2.4,2-3.6c0.7-2.3,1.3-4.6,1.8-7c0.1-0.5-0.6-1-0.8-1.6
			c-0.3-1-0.4-2-0.7-3.6C1665.3,595.1,1666.6,600.2,1664.2,606.7z"/>
		<path class="st0" d="M1745.4,629.8c4.4-4.5,1.3-9.9,2.3-15c1.5,0,3.1,0,5.1,0c-0.3,3.4-0.5,6.6-0.8,9.9c-0.2,1.5-0.9,2.4-2.6,2.9
			C1748,627.9,1746.8,629,1745.4,629.8z"/>
		<path class="st0" d="M1685.9,595.1c2.7,1.9,5.5,3.9,7.1,6.7c1.3,2.3,0.4,5.1-0.6,8.3c-1-1.9-1.7-3.3-2.4-4.6
			c-1.6-0.1-3-0.2-4.4-0.3c0.2-3.7,0.3-6.9,0.4-10.2C1686,595,1685.9,595.1,1685.9,595.1z"/>
		<path class="st0" d="M1753.7,604.5c-0.1,2.2-0.3,4.6-0.5,7.4c-1.5,0.3-3.2,0.6-5.5,1c0.4-4.4,0.8-8.3,1.3-13
			C1751,601.8,1752.3,603.1,1753.7,604.5z"/>
		<path class="st0" d="M1668,609.5c-0.6,2-1.2,4-1.9,6c-2.4-0.9-4.7-1.7-6.9-2.8c-0.7-0.3-1.1-1.6-1.1-2.5c0-1.2,1-1.7,2.2-1.6
			C1662.8,608.9,1665.3,609.2,1668,609.5z"/>
		<path class="st0" d="M1570.1,604.3c-1.2,0.6-1.9,0.9-2.7,1.3c-0.2-0.7-0.4-1.1-0.5-1.6c-0.5-7.8-0.1-10.2,2.3-12.4
			C1571.6,595.7,1568.8,600.1,1570.1,604.3z"/>
		<path class="st0" d="M1587.4,606.9c-0.5-0.4-1.4-0.9-1.4-1.2c0.3-2-0.9-3.3-1.7-4.9c-0.6-1.1-0.9-2.4-0.8-3.6c0.1-0.7,1-1.6,1.8-2
			c1.1-0.6,1.9,0.1,2.4,1.2c0.2,0.6,0.6,1.2,0.6,1.8c0.1,2.8,0,5.5,0,8.3C1588,606.6,1587.7,606.7,1587.4,606.9z"/>
		<path class="st0" d="M1784.8,622.9c-0.7-2.7-1.4-5.3-2.1-8.1c1.1-0.4,2.1-0.8,3-1.1c1.9,2.1-1.5,6.1,2.7,6.9
			c2-0.8,0.9-3.7,3.2-4.1C1791.4,620.9,1790.3,622,1784.8,622.9z"/>
		<path class="st0" d="M1579.2,576.8c-1.7,1.1-3,1.9-4.3,2.7c-0.6-1.3-1.2-2.4-1.7-3.7c-2.1,0.9-3.9,1.7-4.7,3.8
			c-0.5,1.5-1.6,1.7-3.5,1.3c1.9-2.3,3.2-4.9,5.3-6.2c1.5-0.9,4.1-0.1,6.1,0.2C1577.2,575,1577.8,575.9,1579.2,576.8z"/>
		<path class="st0" d="M1630.1,614.7c-1.5-0.4-3.1-0.8-4.8-1.2c0.2-4-1.7-7.9,1.2-11.9c0.3,2.5,0.3,4.8,1,6.8
			c0.6,1.9,2.1,3.6,3.2,5.4C1630.5,614.1,1630.3,614.4,1630.1,614.7z"/>
		<path class="st0" d="M1752.9,629.7c0.8-5.5,1.5-10.5,2.2-15.5c0.3,0,0.5,0,0.8,0c0,5,0,9.9,0,15.2
			C1755.1,629.6,1754.1,629.6,1752.9,629.7z"/>
		<path class="st0" d="M1766,581.4c1.2,3.3,2.4,6.6,3.6,10c-1.2,0.6-2.2,1.1-3.6,1.9c-0.4-4.2-0.8-8-1.2-11.7
			C1765.2,581.6,1765.6,581.5,1766,581.4z"/>
		<path class="st0" d="M1605.6,613.5c3.2-0.9,17.8,1.4,23.1,3.6c-0.5,0.2-0.7,0.4-1,0.4c-7.2-1.3-14.3-3.4-21.7-3
			C1605.9,614.4,1605.8,614,1605.6,613.5z"/>
		<path class="st0" d="M1645.7,599.6c1.2,2.1,1.4,3.9-0.4,5.8c-0.9,0.9-1.6,2.1-2.6,3.4C1641.8,603.9,1642.4,602,1645.7,599.6z"/>
		<path class="st0" d="M1576.1,595.7c5.2,3.2,5.3,3.3,4.5,8c0.6,0.5,1.3,1.1,2.1,1.7c-2.6,1.3-3.5,1.1-3.5-0.6
			c0.1-3.2-1.3-5.6-3.1-8C1576,596.7,1576.1,596.4,1576.1,595.7z"/>
		<path class="st0" d="M1731.9,629.3c0-1.9,0-3.4,0-5.6c1.1,1.4,1.7,2.2,2.2,3c0.2,0,0.5-0.1,0.7-0.1c0-2,0-3.9,0-6.6
			c2.2,1.8,1.7,3.3,1.3,4.8c-0.3,1.4-0.3,2.9-0.4,4.6C1734.5,629.3,1733.3,629.3,1731.9,629.3z"/>
		<path class="st0" d="M1667.1,620.3c-5.9,0-7-0.9-6.8-5.5C1663.6,615.5,1664.4,619.1,1667.1,620.3z"/>
		<path class="st0" d="M1733.5,600.7c1.6,0,2.7,0.6,2.5,2.5c-0.1,1,0,2-0.1,3c-0.2,2.3-0.2,2.3-3.5,2
			C1734.2,605.8,1733.9,603.2,1733.5,600.7C1733.6,600.6,1733.5,600.7,1733.5,600.7z"/>
		<path class="st0" d="M1724.1,620.5c1.6-1.1,3.3-1.8,5.1-0.4c0.4,0.3,0.8,1.1,0.7,1.5c-0.1,0.5-0.8,1-1.2,1.1
			C1726.7,623,1724.8,623.2,1724.1,620.5z"/>
		<path class="st0" d="M1572.1,604.7c0.6-2.3,1-4,1.4-5.9c2.7,1.1,1.6,3.8,3.9,5.5C1575.3,604.5,1574.1,604.6,1572.1,604.7z"/>
		<path class="st0" d="M1673.4,594.1c0.9-0.1,1-0.2,1.1-0.2c1.6,0.5,3.3,1.1,5,1.7c-0.6,1.8-1.7,2.4-3.5,2.1
			C1674,597.3,1674.1,595.7,1673.4,594.1z"/>
		<path class="st0" d="M1592.7,611.1c3.2,0.6,6.1,1.1,8.9,1.6c-2.3,1.3-2.3,1.3-4.9,0.9C1593.8,613,1593.8,613,1592.7,611.1z"/>
		<path class="st0" d="M1648.5,592.9c0.4,3.2,0.8,6.5,1.2,9.7c-0.3,0-0.6,0.1-0.9,0.1C1648,599.4,1646.5,596.2,1648.5,592.9z"/>
		<path class="st0" d="M1692.5,628.9c-1.9-0.2-3.8-0.4-5.7-0.6c2-2,3.9-1.8,5.9-0.6C1692.6,628.1,1692.5,628.5,1692.5,628.9z"/>
		<path class="st0" d="M1575.7,570c-2.5-3-2.5-3-0.6-5.4C1576.9,566,1576.5,567.7,1575.7,570z"/>
		<path class="st0" d="M1600.4,585.8c0.7,1.7,1.3,3,2,4.5C1599,589.8,1598.7,589.2,1600.4,585.8z"/>
		<path class="st0" d="M1717.2,604.7c-0.3,0.6-0.3,0.8-0.4,0.8c-1.2,0.9-2.5,1.3-3.7,0.1c-0.2-0.2-0.2-1.2,0-1.3
			C1714.5,603.3,1715.9,603.5,1717.2,604.7z"/>
		<path class="st0" d="M1623,554.6c1.2,1.1,2.1,1.9,3.1,2.9C1622.2,558.3,1621.9,558.1,1623,554.6z"/>
		<path class="st0" d="M1602,584.2c-2.6,0.4-4.4,0.6-6.5-0.9C1597.9,582.5,1599.6,582.7,1602,584.2z"/>
		<path class="st0" d="M1693.1,614c-1,0.8-1.6,1.3-2.3,1.8c-0.4-0.7-1.2-1.3-1.2-2c0-0.5,0.9-1.5,1.3-1.4
			C1691.6,612.5,1692.1,613.2,1693.1,614z"/>
		<path class="st0" d="M1728.6,629c-1.5,0-2.3,0-3.5,0c0.3-1.1,0.6-2,1-3.5C1727.1,626.9,1727.7,627.7,1728.6,629z"/>
		<path class="st0" d="M1746.5,594.4c0.5,0.7,1.1,1.2,1.1,1.7c0,0.4-0.6,0.8-1,1.2c-0.5-0.5-1.1-0.8-1.3-1.4
			C1745.1,595.7,1745.9,595.1,1746.5,594.4z"/>
		<path class="st0" d="M1722.5,631.2c-1.8,0-3.6,0-5.4,0c0-0.2,0-0.4,0-0.7c1.8,0.1,3.6,0.2,5.4,0.3
			C1722.5,631,1722.5,631.1,1722.5,631.2z"/>
		<path class="st0" d="M1794.9,635.1c0,1.8,0,2.9,0,4.7C1793.5,638.1,1792.7,637,1794.9,635.1z"/>
		<path class="st0" d="M1630.3,610.3c-0.5-1-0.9-2-1.4-2.9c1.9,0.1,2.2,1.2,2.2,2.4C1630.8,610,1630.6,610.1,1630.3,610.3z"/>
		<path class="st0" d="M1657.8,588.6c-0.3,0.5-0.6,1.1-1,1.3c-0.3,0.2-0.9-0.2-2-0.6c1.1-0.7,1.8-1.1,2.4-1.4
			C1657.4,588.1,1657.6,588.3,1657.8,588.6z"/>
		<path class="st0" d="M1692.8,593.8c0,0.7-0.1,1.4-0.1,2.1c-0.5-0.1-1.1-0.1-1.6-0.2c0.2-0.7,0.4-1.4,0.6-2.1
			C1692,593.7,1692.4,593.8,1692.8,593.8z"/>
		<path class="st0" d="M1657.3,614.1c0.3,0.9,0.6,1.7,1.1,3.2C1656.7,616,1656.7,616,1657.3,614.1z"/>
		<path class="st0" d="M1568.2,588.2c0.4-0.5,0.7-0.9,1-1.2c0.4,0.4,0.9,0.7,1,1.2c0.1,0.2-0.5,0.9-0.9,1
			C1569.1,589.2,1568.7,588.6,1568.2,588.2z"/>
		<path class="st0" d="M1569.1,614.6c0.4,0.8,0.9,1.5,1.3,2.3c-0.2,0.1-0.4,0.3-0.7,0.4c-0.5-0.8-0.9-1.5-1.4-2.3
			C1568.6,614.8,1568.9,614.7,1569.1,614.6z"/>
		<path class="st0" d="M1648.4,588.7c-0.3,0.5-0.5,0.9-0.8,1.4c-0.3-0.2-0.9-0.5-0.8-0.5c0.2-0.5,0.5-1,0.8-1.4
			C1647.9,588.4,1648.2,588.5,1648.4,588.7z"/>
		<path class="st0" d="M1607.7,579.6c0.2-0.6,0.5-1.2,0.7-1.8c0.1,0,0.3,0.1,0.4,0.1c-0.2,0.6-0.3,1.2-0.5,1.8
			C1608.1,579.8,1607.9,579.7,1607.7,579.6z"/>
		<path class="st0" d="M1572.9,580.8c-0.8,0.1-1.2,0.2-1.5,0.1c-0.2-0.1-0.5-0.7-0.4-0.8c0.3-0.3,0.7-0.5,1-0.7
			C1572.2,579.6,1572.4,580,1572.9,580.8z"/>
		<path class="st0" d="M1604.2,587.9c0.6,0.5,1.2,1,1.8,1.5c-0.1,0.2-0.3,0.4-0.4,0.5c-0.7-0.4-1.3-0.9-2-1.3
			C1603.8,588.4,1604,588.1,1604.2,587.9z"/>
		<path class="st0" d="M1719.3,603.9c0.5,0.7,0.8,1.2,1.4,2C1719.4,605.4,1719.4,605.4,1719.3,603.9z"/>
		<path class="st0" d="M1586.3,655c0.6-0.1,1.2-0.3,1.8-0.4c0.1,0.2,0.1,0.4,0.2,0.5c-0.6,0.2-1.2,0.4-1.8,0.6
			C1586.5,655.5,1586.4,655.2,1586.3,655z"/>
		<path class="st0" d="M1688.7,607.5c0.2,0.5,0.5,0.9,0.7,1.4c-0.3,0.1-0.6,0.2-0.9,0.4c-0.1-0.5-0.3-1.1-0.4-1.6
			C1688.4,607.6,1688.5,607.6,1688.7,607.5z"/>
		<path d="M1747.1,572c-2.8-5.4-5.2-10.9-5.5-17.2c2,2.5,2.3,5.7,3.5,8.5c1.2,2.7,2.2,5.6,3.2,8.3
			C1747.9,571.8,1747.5,571.9,1747.1,572z"/>
		<path d="M1707.3,605.3c1.3,2.6,0.9,4.8-1.5,6.7c-1-3-1.9-5.8-2.9-8.8C1705.2,602.6,1706.2,604.3,1707.3,605.3
			C1707.4,605.4,1707.3,605.3,1707.3,605.3z"/>
	</g>
</g>
</svg>
