<?xml version="1.0" encoding="utf-8"?>
<!-- Generator: Adobe Illustrator 22.0.1, SVG Export Plug-In . SVG Version: 6.00 Build 0)  -->
<svg version="1.1" id="Livello_1" xmlns="http://www.w3.org/2000/svg" xmlns:xlink="http://www.w3.org/1999/xlink" x="0px" y="0px"
	 viewBox="0 0 800 303" style="enable-background:new 0 0 800 303;" xml:space="preserve">
<style type="text/css">
	.st0{fill:#FFFFFF;}
</style>
<g>
	<g>
		<path class="st0" d="M0,450C0,300,0,150,0,0c266.7,0,533.3,0,800,0c0,150,0,300,0,450C533.4,450,266.7,450,0,450z M217.6,61.4
			c-0.3,0-0.5,0-0.8,0c-0.1,1-0.3,2-0.1,3c0.5,3.8,1.1,7.6,1.7,11.4c1.3,8.5,2.7,17,4,25.5c1.1,7.1,2,14.3,3,21.5
			c0.8,5.9,1.1,11.8-0.3,17.5c-2.5,10.5-3.1,21.1-3,31.7c0,15.1,0.8,30.2,1.1,45.3c0.1,6.7,1.1,13.3,3,19.8c0.8,2.9,3.6,5.1,6,4.9
			c2.5-0.3,5.1-3.2,5.3-6.2c0.5-10.2,1.1-20.4,1.2-30.6c0.1-9-0.4-18-0.8-27c-0.3-5-1-9.9-1.5-14.8c-0.5-4.7-1.4-9.5-1.1-14.2
			c0.4-6.4,1.6-12.7,2.8-19c3-15.1,10.3-27.9,21.5-38.4c7.1-6.6,17.7-6.9,23.7-0.2c8.9,9.9,13,21.5,10.5,34.9
			c-0.9,4.9-3.4,9-8.5,10.6c-4.3,1.3-8.6,0.3-12.7-1.2c-2-0.7-3.8-0.8-5.4,0.7c-1.7,1.6-2.8,3.5-1.7,5.7c1.2,2.3,2.8,4.4,4.2,6.6
			c5.8,8.6,11.5,17.3,17.5,25.8c7.1,10,17.1,15.3,29.4,15.4c9.1,0.1,17.6-2.3,25.2-7.6c0.5-0.3,1-0.6,1.5-1c0.2,1,0.4,1.8,0.6,2.7
			c1.7,7.8,3,15.7,5.1,23.3c2.1,7.7,6.6,14,13.2,18.6c5.2,3.6,10.8,2,13.1-3.7c1.6-4,0.7-8.1,0.1-12.1c-0.8,1.1-1.3,2.3-1.9,3.4
			c-1.4,2.7-3.7,3.3-6,1.5c-1.4-1.1-2.8-2.3-3.9-3.7c-5.1-6.6-6.9-14.4-8.5-22.4c-0.9-4.9-1.8-9.7-3-14.5c-1.3-5.6-5.8-7.6-10.4-4.6
			c-6.1,3.9-12.6,6.5-19.7,7.6c-7.1,1.2-13.7,0.2-19.7-4.1c-4.9-3.6-8.7-8.2-12.2-13c-2.6-3.5-5-7.1-7.5-10.7
			c2.9-1.2,5.4-2.3,7.9-3.4c5.3-2.3,9-6.2,11.3-11.4c3.5-8,3.3-16.3,2-24.6c-1.6-9.8-5.9-18.4-12.4-25.8
			c-6.9-7.8-15.6-10.7-25.8-8.1c-8,2-13.7,7.6-19,13.5c-6.2,7-10.7,15-14.4,23.6c-0.4,1-1,1.9-1.6,2.8c-0.2,0-0.3-0.1-0.5-0.1
			C225.8,97.9,221.7,79.6,217.6,61.4z M454.2,164c-1.1-3.6-3.9-5.2-6.3-3.9c-1.9,1.1-4,2.4-5.3,4.1c-4.5,5.7-6.8,12.3-5.5,19.7
			c0.8,4.5,2.4,8.7,6,11.7c4.8,4,10.3,3.9,15.9,2.1c4-1.3,6.7-4.2,9.4-7.2c1-1.1,2.8-2.6,3.9-2.3c3,0.8,6.5,1.8,8.5,3.9
			c6.7,7.3,14.7,11.9,24.2,14.5c6.9,1.9,13.9,3.6,21.1,3.8c7.6,0.2,15-0.8,22.3-2.5c14.4-3.4,25-11.6,31.4-25.1
			c1.8-3.8,2.4-7.7,0.9-11.6c-0.4-1-1.6-2-2.6-2.2c-0.7-0.2-2,0.9-2.5,1.7c-1.5,2.2-2.8,4.6-4.1,7c-2.8,5.4-6.3,10.1-11.1,13.8
			c-11.1,8.4-23.9,9.9-37.2,8.8c-5.9-0.5-11.8-2.1-17.6-3.2c-5.7-1.1-10.5-3.9-15.3-7.6c0.5-0.4,0.8-0.6,1.2-0.8
			c0.4-0.3,0.8-0.6,1.2-0.8c4-2.1,5.8-5.5,6.8-9.8c1-4.1-1.5-8.5-5.3-10.4c-6.2-3-15.3,1.8-16.9,9.1c-0.4,2-0.5,4.1-0.8,6.2
			c-0.8,0-1.5,0.1-2.2,0c-3.4-0.3-6,0.9-8.3,3.6c-2.5,2.9-5.7,5-9.5,6c-4.6,1.3-9.2-0.1-12.2-3.9c-2.1-2.6-3.1-5.6-3.4-9
			c-0.5-6.2,1-11.6,5.1-16.3c1.9-2.1,3.4-2.2,5.9-0.8C452.6,163.1,453.4,163.5,454.2,164z M412.9,192.7c0,4.3-0.2,8.2,0.1,12
			c0.2,3.2,0.8,6.3,1.3,9.4c0.3,1.7,1.1,3.1,3.1,3.4c2.3,0.3,4.5-0.5,5.3-2.4c0.7-1.6,1.1-3.5,1-5.2c-0.5-7.7-1.4-15.4-2-23.1
			c-0.3-4.2-1.2-8-6.1-9.2c-0.8-0.2-1.6-1.2-2-2c-2.6-4.8-5.8-5.2-10.2-4.3c-7.8,1.6-17.1,12.1-15.5,22.9c0.8,5.2,4.2,8.1,9.3,7.3
			c1.8-0.3,3.6-1.3,5.3-2.2C405.9,197.4,409.2,195.1,412.9,192.7z M475.4,291.3c2.9,0,5.7,0,8.5,0c0.7,0,1.4,0,2.1-0.1
			c4.2-0.6,6.5-4.5,4.6-8.1c-0.6-1.2-1.8-2-2.7-3c0.3-0.3,0.7-0.8,1.1-1.2c2.5-2.9,1.2-8.2-2.4-8.7c-3.6-0.5-7.4-0.1-11.1-0.1
			C475.4,277.2,475.4,284.1,475.4,291.3z M393.8,291.3c5.4,0,10-4.9,10-10.7c0-5.8-4.5-10.7-9.9-10.7c-5.5,0-10.1,5-10.1,10.8
			C383.9,286.6,388.3,291.3,393.8,291.3z M461.3,291.3c5.5,0,10-4.9,10-10.7c0-5.8-4.5-10.7-9.9-10.7c-5.5,0-10.1,5-10.1,10.8
			C451.3,286.6,455.8,291.3,461.3,291.3z M351.1,274.4c-2.2-4.3-7.8-5.9-12.3-3.5c-5.1,2.8-7,9.7-4,15c3.2,5.8,8.2,6.7,15.1,2.7
			c0.8,0.6-0.7,2.8,1.7,2.4c0-3.4,0-6.8,0-10.2c-2.1,0-4.1,0-6.1,0c0,0.4,0,1,0,1c1.5,0.3,3,0.5,4.5,0.7c0.4,4-2,6.7-6.1,6.9
			c-3.8,0.2-7.1-2.3-8.2-6.3c-1.2-4.3,0.6-9,4.2-10.8c3.4-1.7,6.9-0.7,9.9,3C350.3,275.1,350.7,274.7,351.1,274.4z M372.4,274.4
			c-2.1-4.3-7.8-5.9-12.2-3.5c-5.2,2.8-7,9.8-4,15.2c3.2,5.7,8.4,6.6,15,2.6c0.7,0.6-0.6,2.9,1.9,2.4c0-1.8,0-3.5,0-5.2s0-3.4,0-5
			c-2.3,0-4.3,0-6.6,0c1.2,2.6,3.5,0.6,4.8,1.8c0.4,3.2,0.2,3.6-1.5,4.9c-4.4,3.5-10,2-12.3-3.2c-1.8-4.2-0.3-9.6,3.4-11.8
			c3.3-2,7.2-1,10,2.5c0.1,0.1,0.2,0.1,0.4,0.1C371.6,275,372,274.7,372.4,274.4z M431.6,274.4c-2.3-4.3-7.8-5.8-12.2-3.5
			c-5.1,2.7-7.1,9.4-4.3,14.8c1.3,2.5,3.2,4.3,5.9,5.2c3.6,1.2,6.6,0,9.4-2.5c0.3,2.6,0.3,2.6,1.7,2.6c0-3.4,0-6.7,0-10.1
			c-2.1,0-4.1,0-6.2,0c0,0.4,0,1.1,0.1,1.1c1.5,0.2,2.9,0.4,4.4,0.6c0.6,3.9-1.7,6.7-5.8,7c-5.5,0.4-9.9-5.3-8.5-11.1
			c0.8-3.2,2.5-5.8,6-6.6c3.3-0.7,6,0.3,8,3.2c0.1,0.1,0.2,0.1,0.4,0.3C430.7,275.1,431.1,274.8,431.6,274.4z M544.8,281.3
			c0.6-1.4,0.1-1.7-1.1-1.7c-3,0-5.9,0-8.8,0c0-2.8,0-5.2,0-7.8c3.6,0,7,0,10.4,0c1.3,0,1.8-0.4,1.3-1.6c-4.6,0-9.1,0-13.5,0
			c0,7.1,0,14,0,21c4.7,0,9.2,0,13.8,0c0.5-1.5-0.3-1.7-1.4-1.7c-3.5,0-6.9,0-10.5,0c0-2.9,0-5.4,0-8.2
			C538.3,281.3,541.6,281.3,544.8,281.3z M332.2,291c-0.6-1.4-1.1-2.7-1.6-3.9c-2.2-5.2-4.3-10.5-6.6-15.7c-0.2-0.5-0.8-1.1-1.3-1.3
			c-0.3-0.1-1.1,0.4-1.2,0.7c-2.9,6.7-5.7,13.5-8.5,20.3c2.8,0.9,2.7-1.5,3.2-2.8c1.6-3.7,1.6-3.3,5.4-3.8c4.6-0.6,7.2,0.9,8,5.4
			C329.9,291.1,330.8,291.6,332.2,291z M511.8,291c-2.8-6.7-5.6-13.4-8.4-20.1c-0.2-0.4-0.8-0.8-1.2-0.8s-1,0.5-1.2,0.8
			c-2.8,6.7-5.6,13.4-8.4,20.1c2.9,0.9,2.7-1.6,3.3-2.9c1.6-3.5,1.5-3.2,5.3-3.6c4.5-0.5,7.2,0.7,8.1,5.3
			C509.5,291.2,510.4,291.6,511.8,291z M250.2,270.3c2.8,6.8,5.6,13.5,8.5,20.3c0.2,0.4,0.9,0.8,1.2,0.7c0.5-0.1,1-0.6,1.2-1.1
			c2.1-5,4.2-10.1,6.3-15.1c0.6-1.6,1.3-3.1,1.9-4.7c-1.4-0.5-2.1,0-2.5,1.2c-2.2,5.7-4.6,11.3-7,17.3c-0.4-1-0.7-1.6-1-2.2
			c-2-5-4.1-10-6.1-15C252.3,270.2,251.7,269.6,250.2,270.3z M294.4,291.2c0.5-1.5-0.2-1.7-1.3-1.7c-2.9,0-5.8-0.1-8.7,0
			c-1.7,0.1-2.2-0.5-2.2-2.2c0.1-5.2,0-10.4,0.1-15.6c0-1.2-0.2-2.1-1.7-1.5c0,7,0,14,0,21C285.2,291.2,289.8,291.2,294.4,291.2z
			 M299.7,270.3c-1.7-0.6-1.9,0.2-1.9,1.4c0,6,0,12.1,0,18.1c0,0.5,0.1,0.9,0.2,1.4c4.7,0,9.3,0,13.9,0c0.2-1.1,0.2-1.8-1.2-1.7
			c-1.2,0.1-2.5,0-3.7,0c-2.4,0-4.8,0-7.4,0C299.7,282.8,299.7,276.5,299.7,270.3z M438.9,270.4c-0.2-0.2-0.4-0.4-0.6-0.6
			c-0.4,0.4-1.3,0.8-1.3,1.3c-0.1,6.6-0.1,13.3-0.1,20.1c4.8,0,9.4,0,14,0c0.1-1.6,0.1-1.6-1.1-1.6c-1.5,0-3.1,0-4.6,0
			c-2.1,0-4.2,0-6.5,0C438.9,282.9,438.9,276.6,438.9,270.4z M517.3,270.3c-1.7-0.6-1.9,0.1-1.9,1.3c0,4.2,0,8.3,0,12.5
			c0,2.3,0,4.7,0,7.1c4.9,0,9.5,0,14.1,0c0.6-1.6-0.3-1.7-1.5-1.7c-3.5,0-7,0-10.7,0C517.3,282.9,517.3,276.6,517.3,270.3z
			 M272.8,270.2c0,6.6,0,13.2,0,19.8c0,1.6,0.8,1.5,1.9,1c0-6.6,0-13.1,0-19.6C274.7,270.1,274.3,269.8,272.8,270.2z M379.7,270.2
			c-1.4-0.4-1.9,0-1.8,1.3c0,6.1,0,12.2,0,18.3c0,1.5,0.5,1.8,1.8,1.2C379.7,284.1,379.7,277.2,379.7,270.2z M364.1,94.4
			c-0.2,0.1-0.4,0.1-0.6,0.2c-0.1,0.8-0.5,1.6-0.3,2.2c1.4,4.3,2.9,8.6,4.5,12.8c0.1,0.4,0.8,0.6,1.2,0.9c-0.8-4.9-1.9-9.3-3.2-13.8
			C365.5,95.9,364.6,95.2,364.1,94.4z"/>
		<path d="M217.6,61.4c4.1,18.2,8.2,36.5,12.4,54.7c0.2,0,0.3,0.1,0.5,0.1c0.5-0.9,1.2-1.8,1.6-2.8c3.7-8.6,8.2-16.6,14.4-23.6
			c5.3-6,11-11.5,19-13.5c10.2-2.6,18.9,0.3,25.8,8.1c6.5,7.4,10.8,16,12.4,25.8c1.4,8.3,1.6,16.7-2,24.6c-2.3,5.2-6,9.1-11.3,11.4
			c-2.5,1.1-5.1,2.1-7.9,3.4c2.5,3.6,4.9,7.2,7.5,10.7c3.6,4.8,7.3,9.4,12.2,13c6,4.3,12.6,5.2,19.7,4.1c7.1-1.2,13.6-3.7,19.7-7.6
			c4.6-3,9.2-0.9,10.4,4.6c1.1,4.8,2,9.7,3,14.5c1.5,8,3.4,15.8,8.5,22.4c1.1,1.4,2.5,2.6,3.9,3.7c2.3,1.8,4.6,1.2,6-1.5
			c0.6-1.1,1.1-2.3,1.9-3.4c0.6,4.1,1.5,8.2-0.1,12.1c-2.3,5.7-7.9,7.3-13.1,3.7c-6.6-4.6-11.1-10.9-13.2-18.6
			c-2.1-7.7-3.5-15.5-5.1-23.3c-0.2-0.8-0.3-1.6-0.6-2.7c-0.6,0.3-1.1,0.6-1.5,1c-7.6,5.2-16.1,7.7-25.2,7.6
			c-12.3-0.1-22.2-5.4-29.4-15.4c-6-8.5-11.7-17.2-17.5-25.8c-1.5-2.2-3-4.3-4.2-6.6c-1.1-2.2,0-4.2,1.7-5.7
			c1.6-1.5,3.4-1.4,5.4-0.7c4.1,1.5,8.4,2.5,12.7,1.2c5.1-1.6,7.6-5.6,8.5-10.6c2.5-13.4-1.6-25-10.5-34.9c-6-6.7-16.6-6.4-23.7,0.2
			c-11.3,10.5-18.6,23.3-21.5,38.4c-1.2,6.3-2.4,12.6-2.8,19c-0.3,4.7,0.7,9.5,1.1,14.2c0.5,5,1.3,9.9,1.5,14.8c0.5,9,0.9,18,0.8,27
			c-0.1,10.2-0.7,20.4-1.2,30.6c-0.1,3-2.7,5.9-5.3,6.2c-2.4,0.2-5.1-2-6-4.9c-1.9-6.5-2.9-13-3-19.8c-0.3-15.1-1.1-30.2-1.1-45.3
			c0-10.6,0.6-21.2,3-31.7c1.3-5.7,1.1-11.7,0.3-17.5c-1-7.1-1.9-14.3-3-21.5c-1.3-8.5-2.7-17-4-25.5c-0.6-3.8-1.2-7.6-1.7-11.4
			c-0.1-1,0.1-2,0.1-3C217.1,61.4,217.3,61.4,217.6,61.4z"/>
		<path d="M454.2,164c-0.8-0.4-1.7-0.8-2.5-1.3c-2.5-1.4-4-1.3-5.9,0.8c-4.1,4.6-5.7,10.1-5.1,16.3c0.3,3.3,1.3,6.3,3.4,9
			c3,3.8,7.6,5.2,12.2,3.9c3.8-1.1,7-3.1,9.5-6c2.3-2.7,4.9-3.9,8.3-3.6c0.7,0.1,1.4,0,2.2,0c0.3-2.2,0.3-4.2,0.8-6.2
			c1.6-7.3,10.7-12.2,16.9-9.1c3.9,1.9,6.3,6.3,5.3,10.4c-1,4.3-2.9,7.7-6.8,9.8c-0.4,0.2-0.8,0.5-1.2,0.8c-0.3,0.2-0.7,0.5-1.2,0.8
			c4.8,3.7,9.6,6.6,15.3,7.6c5.9,1.1,11.7,2.7,17.6,3.2c13.3,1,26.1-0.4,37.2-8.8c4.8-3.7,8.4-8.4,11.1-13.8c1.2-2.4,2.6-4.7,4.1-7
			c0.5-0.8,1.8-1.9,2.5-1.7c1,0.2,2.2,1.3,2.6,2.2c1.6,3.9,0.9,7.8-0.9,11.6c-6.4,13.5-17,21.7-31.4,25.1
			c-7.3,1.7-14.8,2.8-22.3,2.5c-7.2-0.2-14.1-1.9-21.1-3.8c-9.5-2.6-17.5-7.2-24.2-14.5c-2-2.1-5.5-3.1-8.5-3.9
			c-1-0.3-2.9,1.2-3.9,2.3c-2.7,3-5.4,6-9.4,7.2c-5.6,1.8-11.1,1.9-15.9-2.1c-3.6-3-5.2-7.2-6-11.7c-1.3-7.4,1-14,5.5-19.7
			c1.4-1.7,3.4-3.1,5.3-4.1C450.3,158.7,453.1,160.4,454.2,164z M484.8,182.5c2.6-0.9,5-1.9,6.4-4.4c1.1-2,0.3-3.4-2-3.4
			c-2,0-3.6,0.9-4.6,2.6C483.6,179,483.4,180.7,484.8,182.5z"/>
		<path d="M412.9,192.7c-3.7,2.4-7,4.6-10.4,6.6c-1.6,1-3.4,1.9-5.3,2.2c-5.2,0.8-8.6-2-9.3-7.3c-1.6-10.8,7.7-21.3,15.5-22.9
			c4.3-0.9,7.5-0.6,10.2,4.3c0.4,0.8,1.2,1.8,2,2c4.9,1.2,5.8,4.9,6.1,9.2c0.6,7.7,1.5,15.4,2,23.1c0.1,1.7-0.3,3.6-1,5.2
			c-0.8,2-3,2.7-5.3,2.4c-2-0.3-2.8-1.7-3.1-3.4c-0.6-3.1-1.1-6.3-1.3-9.4C412.8,200.9,412.9,197,412.9,192.7z M396.8,192.5
			c1.9-1.5,3.7-3,5.6-4.5c2.7-2.2,5.6-4.3,8.2-6.7c0.9-0.8,1.7-2.6,1.4-3.4c-0.5-1.1-2.2-2.3-3.4-2.3c-1.9,0-4.1,0.6-5.8,1.6
			c-4.6,2.8-6.6,7.3-7.4,12.5C395.2,190.9,394.8,192.1,396.8,192.5z"/>
		<path d="M475.4,291.3c0-7.2,0-14.1,0-21.1c3.7,0,7.5-0.4,11.1,0.1s4.9,5.8,2.4,8.7c-0.4,0.5-0.8,0.9-1.1,1.2
			c0.9,0.9,2.1,1.8,2.7,3c1.9,3.6-0.3,7.5-4.6,8.1c-0.7,0.1-1.4,0.1-2.1,0.1C481.1,291.3,478.3,291.3,475.4,291.3z M477.2,281.3
			c0,2.5-0.1,4.8,0.1,7c0,0.4,0.8,1.1,1.3,1.1c2.3,0.1,4.6,0.1,6.8,0s3.8-1.9,3.8-4.2c0-2.2-1.6-3.9-3.9-4
			C482.7,281.3,480.1,281.3,477.2,281.3z M477.3,279.6c2.7,0,5.3,0.1,7.8,0c2-0.1,3.2-1.9,3.2-3.9c0-1.9-1.3-3.7-3.1-3.8
			c-2.6-0.1-5.2,0-7.9,0C477.3,274.5,477.3,276.9,477.3,279.6z"/>
		<path d="M393.8,291.3c-5.5,0-10-4.7-10-10.6c-0.1-5.8,4.6-10.8,10.1-10.8c5.4,0,9.9,4.9,9.9,10.7
			C403.8,286.4,399.3,291.3,393.8,291.3z M385.9,280.7c0,5,3.5,8.9,8,8.8c4.4,0,7.9-4,7.9-9s-3.5-8.9-8-8.8
			C389.3,271.8,385.8,275.7,385.9,280.7z"/>
		<path d="M461.3,291.3c-5.5,0-10-4.7-10-10.6c-0.1-5.8,4.6-10.8,10.1-10.8c5.4,0,9.9,4.9,9.9,10.7
			C471.3,286.5,466.7,291.3,461.3,291.3z M453.4,280.7c0,5,3.5,8.9,8,8.9c4.4,0,7.9-4,7.9-9s-3.5-8.9-8-8.8
			C456.8,271.7,453.3,275.7,453.4,280.7z"/>
		<path d="M351.1,274.4c-0.4,0.3-0.9,0.6-1.3,1c-3-3.6-6.5-4.7-9.9-3c-3.5,1.8-5.4,6.6-4.2,10.8c1.1,4,4.3,6.5,8.2,6.3
			c4.1-0.2,6.4-2.9,6.1-6.9c-1.5-0.2-3-0.4-4.5-0.7c-0.1,0,0-0.6,0-1c2.1,0,4,0,6.1,0c0,3.5,0,6.8,0,10.2c-2.5,0.4-0.9-1.8-1.7-2.4
			c-6.9,4-11.9,3.1-15.1-2.7c-2.9-5.4-1.1-12.3,4-15C343.3,268.6,348.9,270.1,351.1,274.4z"/>
		<path d="M372.4,274.4c-0.4,0.3-0.7,0.6-1.1,0.8c-0.2-0.1-0.3-0.1-0.4-0.1c-2.8-3.5-6.7-4.5-10-2.5c-3.7,2.2-5.2,7.6-3.4,11.8
			c2.3,5.3,7.9,6.8,12.3,3.2c1.7-1.4,1.8-1.8,1.5-4.9c-1.3-1.2-3.7,0.8-4.8-1.8c2.3,0,4.3,0,6.6,0c0,1.6,0,3.3,0,5s0,3.3,0,5.2
			c-2.5,0.4-1.1-1.8-1.9-2.4c-6.6,4-11.8,3.1-15-2.6c-3.1-5.4-1.2-12.4,4-15.2C364.6,268.6,370.3,270.1,372.4,274.4z"/>
		<path d="M431.6,274.4c-0.5,0.3-0.9,0.6-1.2,0.9c-0.2-0.1-0.3-0.2-0.4-0.3c-1.9-2.9-4.7-3.9-8-3.2c-3.4,0.7-5.2,3.3-6,6.6
			c-1.4,5.9,2.9,11.5,8.5,11.1c4.1-0.3,6.5-3.1,5.8-7c-1.4-0.2-2.9-0.3-4.4-0.6c-0.1,0-0.1-0.6-0.1-1.1c2.1,0,4,0,6.2,0
			c0,3.4,0,6.8,0,10.1c-1.3,0-1.3,0-1.7-2.6c-2.8,2.5-5.8,3.6-9.4,2.5c-2.7-0.9-4.6-2.7-5.9-5.2c-2.8-5.3-0.8-12.1,4.3-14.8
			C423.8,268.6,429.2,270.1,431.6,274.4z"/>
		<path d="M544.8,281.3c-3.3,0-6.6,0-10,0c0,2.8,0,5.4,0,8.2c3.6,0,7,0,10.5,0c1.1,0,2,0.1,1.4,1.7c-4.6,0-9.1,0-13.8,0
			c0-7,0-13.9,0-21c4.5,0,8.9,0,13.5,0c0.5,1.2,0,1.6-1.3,1.6c-3.4,0-6.8,0-10.4,0c0,2.6,0,5,0,7.8c2.9,0,5.9,0,8.8,0
			C544.9,279.5,545.4,279.9,544.8,281.3z"/>
		<path d="M332.2,291c-1.5,0.6-2.3,0.1-2.6-1.1c-0.9-4.6-3.5-6-8-5.4c-3.8,0.5-3.8,0.1-5.4,3.8c-0.6,1.3-0.5,3.7-3.2,2.8
			c2.8-6.8,5.6-13.5,8.5-20.3c0.2-0.4,0.9-0.8,1.2-0.7c0.5,0.2,1.1,0.7,1.3,1.3c2.2,5.2,4.4,10.5,6.6,15.7
			C331.1,288.4,331.7,289.6,332.2,291z M322.7,272.3c-1.6,3.8-2.9,7.1-4.3,10.6c2.9,0,5.6,0,8.6,0
			C325.5,279.4,324.2,276.1,322.7,272.3z"/>
		<path d="M511.8,291c-1.5,0.7-2.4,0.2-2.6-1.1c-0.8-4.7-3.6-5.9-8.1-5.3c-3.7,0.4-3.7,0.1-5.3,3.6c-0.6,1.3-0.4,3.8-3.3,2.9
			c2.8-6.7,5.6-13.5,8.4-20.1c0.2-0.4,0.8-0.8,1.2-0.8s1,0.4,1.2,0.8C506.2,277.5,509,284.3,511.8,291z M506.5,282.8
			c-1.4-3.5-2.8-6.8-4.3-10.5c-1.5,3.8-2.9,7.1-4.3,10.5C500.9,282.8,503.6,282.8,506.5,282.8z"/>
		<path d="M250.2,270.3c1.5-0.6,2.1,0,2.6,1.2c2,5,4.1,10,6.1,15c0.3,0.6,0.5,1.2,1,2.2c2.4-6,4.8-11.6,7-17.3
			c0.5-1.2,1.1-1.7,2.5-1.2c-0.6,1.6-1.3,3.2-1.9,4.7c-2.1,5.1-4.2,10.1-6.3,15.1c-0.2,0.5-0.7,1-1.2,1.1c-0.3,0.1-1.1-0.3-1.2-0.7
			C255.8,283.8,253,277,250.2,270.3z"/>
		<path d="M294.4,291.2c-4.7,0-9.2,0-13.9,0c0-7,0-14,0-21c1.6-0.6,1.7,0.2,1.7,1.5c0,5.2,0.1,10.4-0.1,15.6c0,1.7,0.5,2.3,2.2,2.2
			c2.9-0.1,5.8,0,8.7,0C294.3,289.5,294.9,289.7,294.4,291.2z"/>
		<path d="M299.7,270.3c0,6.3,0,12.6,0,19.2c2.6,0,5,0,7.4,0c1.2,0,2.5,0.1,3.7,0c1.4-0.1,1.4,0.6,1.2,1.7c-4.7,0-9.2,0-13.9,0
			c-0.1-0.5-0.2-0.9-0.2-1.4c0-6,0-12.1,0-18.1C297.8,270.5,298,269.6,299.7,270.3z"/>
		<path d="M438.9,270.4c0,6.2,0,12.5,0,19.1c2.2,0,4.3,0,6.5,0c1.5,0,3.1,0,4.6,0c1.2,0,1.2,0.1,1.1,1.6c-4.6,0-9.2,0-14,0
			c0-6.8,0-13.4,0.1-20.1c0-0.4,0.8-0.9,1.3-1.3C438.5,270,438.7,270.2,438.9,270.4z"/>
		<path d="M517.3,270.3c0,6.3,0,12.6,0,19.2c3.7,0,7.2,0,10.7,0c1.1,0,2,0.1,1.5,1.7c-4.6,0-9.2,0-14.1,0c0-2.4,0-4.7,0-7.1
			c0-4.2,0-8.3,0-12.5C515.3,270.4,515.5,269.7,517.3,270.3z"/>
		<path d="M272.8,270.2c1.4-0.5,1.9-0.1,1.9,1.2c0,6.5,0,13,0,19.6c-1.1,0.5-1.9,0.6-1.9-1C272.8,283.4,272.8,276.9,272.8,270.2z"/>
		<path d="M379.7,270.2c0,7,0,13.9,0,20.8c-1.3,0.6-1.9,0.3-1.8-1.2c0-6.1,0-12.2,0-18.3C377.8,270.2,378.3,269.8,379.7,270.2z"/>
		<path d="M364.1,94.4c0.6,0.8,1.4,1.5,1.6,2.4c1.3,4.4,2.4,8.9,3.2,13.8c-0.4-0.3-1.1-0.5-1.2-0.9c-1.6-4.3-3.1-8.5-4.5-12.8
			c-0.2-0.6,0.2-1.5,0.3-2.2C363.7,94.5,363.9,94.5,364.1,94.4z"/>
		<path class="st0" d="M484.8,182.5c-1.4-1.8-1.2-3.5-0.2-5.2s2.6-2.6,4.6-2.6c2.3,0,3.1,1.4,2,3.4
			C489.8,180.6,487.4,181.6,484.8,182.5z"/>
		<path class="st0" d="M396.8,192.5c-2.1-0.4-1.7-1.5-1.4-2.8c0.8-5.2,2.8-9.7,7.4-12.5c1.7-1,3.8-1.6,5.8-1.6
			c1.2,0,2.8,1.2,3.4,2.3c0.4,0.8-0.5,2.6-1.4,3.4c-2.6,2.4-5.4,4.5-8.2,6.7C400.6,189.5,398.7,191,396.8,192.5z"/>
		<path class="st0" d="M477.2,281.3c2.9,0,5.5,0,8,0c2.3,0,3.9,1.7,3.9,4c0,2.2-1.5,4.1-3.8,4.2s-4.6,0.1-6.8,0
			c-0.5,0-1.2-0.7-1.3-1.1C477.1,286.1,477.2,283.8,477.2,281.3z"/>
		<path class="st0" d="M477.3,279.6c0-2.7,0-5.2,0-7.9c2.7,0,5.3-0.1,7.9,0c1.8,0.1,3.1,1.9,3.1,3.8c0,2-1.2,3.8-3.2,3.9
			C482.6,279.8,480,279.6,477.3,279.6z"/>
		<path class="st0" d="M385.9,280.7c0-5,3.4-9,7.8-9c4.5,0,8,3.8,8,8.8s-3.5,9-7.9,9C389.4,289.6,385.9,285.7,385.9,280.7z"/>
		<path class="st0" d="M453.4,280.7c0-5,3.4-8.9,7.8-9c4.5,0,8,3.9,8,8.8c0,5-3.5,9-7.9,9C456.9,289.6,453.4,285.7,453.4,280.7z"/>
		<path class="st0" d="M322.7,272.3c1.5,3.8,2.9,7.1,4.3,10.6c-3,0-5.7,0-8.6,0C319.7,279.4,321.1,276.1,322.7,272.3z"/>
		<path class="st0" d="M506.5,282.8c-2.9,0-5.6,0-8.6,0c1.4-3.4,2.8-6.8,4.3-10.5C503.8,276.1,505.1,279.4,506.5,282.8z"/>
	</g>
</g>
</svg>
