<?xml version="1.0" encoding="utf-8"?>
<!-- Generator: Adobe Illustrator 22.0.1, SVG Export Plug-In . SVG Version: 6.00 Build 0)  -->
<svg version="1.1" id="Livello_1" xmlns="http://www.w3.org/2000/svg" xmlns:xlink="http://www.w3.org/1999/xlink" x="0px" y="0px"
	 viewBox="0 0 900 450" style="enable-background:new 0 0 900 450;" xml:space="preserve">
<style type="text/css">
	.st0{fill:#FFFFFF;}
</style>
<g>
	<g>
		<path class="st0" d="M50.4,450.4c0-150,0-300,0-450c266.7,0,533.3,0,800,0c0,150,0,300,0,450C583.8,450.4,317.1,450.4,50.4,450.4z
			 M268,61.8c-0.3,0-0.5,0-0.8,0c-0.1,1-0.3,2-0.1,3c0.5,3.8,1.1,7.6,1.7,11.4c1.3,8.5,2.7,17,4,25.5c1.1,7.1,2,14.3,3,21.5
			c0.8,5.9,1.1,11.8-0.3,17.5c-2.5,10.5-3.1,21.1-3,31.7c0,15.1,0.8,30.2,1.1,45.3c0.1,6.7,1.1,13.3,3,19.8c0.8,2.9,3.6,5.1,6,4.9
			c2.5-0.3,5.1-3.2,5.3-6.2c0.5-10.2,1.1-20.4,1.2-30.6c0.1-9-0.4-18-0.8-27c-0.3-5-1-9.9-1.5-14.8c-0.5-4.7-1.4-9.5-1.1-14.2
			c0.4-6.4,1.6-12.7,2.8-19c3-15.1,10.3-27.9,21.5-38.4c7.1-6.6,17.7-6.9,23.7-0.2c8.9,9.9,13,21.5,10.5,34.9
			c-0.9,4.9-3.4,9-8.5,10.6c-4.3,1.3-8.6,0.3-12.7-1.2c-2-0.7-3.8-0.8-5.4,0.7c-1.7,1.6-2.8,3.5-1.7,5.7c1.2,2.3,2.8,4.4,4.2,6.6
			c5.8,8.6,11.5,17.3,17.5,25.8c7.1,10,17.1,15.3,29.4,15.4c9.1,0.1,17.6-2.3,25.2-7.6c0.5-0.3,1-0.6,1.5-1c0.2,1,0.4,1.8,0.6,2.7
			c1.7,7.8,3,15.7,5.1,23.3c2.1,7.7,6.6,14,13.2,18.6c5.2,3.6,10.8,2,13.1-3.7c1.6-4,0.7-8.1,0.1-12.1c-0.8,1.1-1.3,2.3-1.9,3.4
			c-1.4,2.7-3.7,3.3-6,1.5c-1.4-1.1-2.8-2.3-3.9-3.7c-5.1-6.6-6.9-14.4-8.5-22.4c-0.9-4.9-1.8-9.7-3-14.5c-1.3-5.6-5.8-7.6-10.4-4.6
			c-6.1,3.9-12.6,6.5-19.7,7.6c-7.1,1.2-13.7,0.2-19.7-4.1c-4.9-3.6-8.7-8.2-12.2-13c-2.6-3.5-5-7.1-7.5-10.7
			c2.9-1.2,5.4-2.3,7.9-3.4c5.3-2.3,9-6.2,11.3-11.4c3.5-8,3.3-16.3,2-24.6c-1.6-9.8-5.9-18.4-12.4-25.8
			c-6.9-7.8-15.6-10.7-25.8-8.1c-8,2-13.7,7.6-19,13.5c-6.2,7-10.7,15-14.4,23.6c-0.4,1-1,1.9-1.6,2.8c-0.2,0-0.3-0.1-0.5-0.1
			C276.2,98.3,272.1,80,268,61.8z M504.6,164.4c-1.1-3.6-3.9-5.2-6.3-3.9c-1.9,1.1-4,2.4-5.3,4.1c-4.5,5.7-6.8,12.3-5.5,19.7
			c0.8,4.5,2.4,8.7,6,11.7c4.8,4,10.3,3.9,15.9,2.1c4-1.3,6.7-4.2,9.4-7.2c1-1.1,2.8-2.6,3.9-2.3c3,0.8,6.5,1.8,8.5,3.9
			c6.7,7.3,14.7,11.9,24.2,14.5c6.9,1.9,13.9,3.6,21.1,3.8c7.6,0.2,15-0.8,22.3-2.5c14.4-3.4,25-11.6,31.4-25.1
			c1.8-3.8,2.4-7.7,0.9-11.6c-0.4-1-1.6-2-2.6-2.2c-0.7-0.2-2,0.9-2.5,1.7c-1.5,2.2-2.8,4.6-4.1,7c-2.8,5.4-6.3,10.1-11.1,13.8
			c-11.1,8.4-23.9,9.9-37.2,8.8c-5.9-0.5-11.8-2.1-17.6-3.2c-5.7-1.1-10.5-3.9-15.3-7.6c0.5-0.4,0.8-0.6,1.2-0.8
			c0.4-0.3,0.8-0.6,1.2-0.8c4-2.1,5.8-5.5,6.8-9.8c1-4.1-1.5-8.5-5.3-10.4c-6.2-3-15.3,1.8-16.9,9.1c-0.4,2-0.5,4.1-0.8,6.2
			c-0.8,0-1.5,0.1-2.2,0c-3.4-0.3-6,0.9-8.3,3.6c-2.5,2.9-5.7,5-9.5,6c-4.6,1.3-9.2-0.1-12.2-3.9c-2.1-2.6-3.1-5.6-3.4-9
			c-0.5-6.2,1-11.6,5.1-16.3c1.9-2.1,3.4-2.2,5.9-0.8C503,163.5,503.8,163.9,504.6,164.4z M463.3,193.1c0,4.3-0.2,8.2,0.1,12
			c0.2,3.2,0.8,6.3,1.3,9.4c0.3,1.7,1.1,3.1,3.1,3.4c2.3,0.3,4.5-0.5,5.3-2.4c0.7-1.6,1.1-3.5,1-5.2c-0.5-7.7-1.4-15.4-2-23.1
			c-0.3-4.2-1.2-8-6.1-9.2c-0.8-0.2-1.6-1.2-2-2c-2.6-4.8-5.8-5.2-10.2-4.3c-7.8,1.6-17.1,12.1-15.5,22.9c0.8,5.2,4.2,8.1,9.3,7.3
			c1.8-0.3,3.6-1.3,5.3-2.2C456.3,197.8,459.6,195.5,463.3,193.1z M525.8,291.7c2.9,0,5.7,0,8.5,0c0.7,0,1.4,0,2.1-0.1
			c4.2-0.6,6.5-4.5,4.6-8.1c-0.6-1.2-1.8-2-2.7-3c0.3-0.3,0.7-0.8,1.1-1.2c2.5-2.9,1.2-8.2-2.4-8.7c-3.6-0.5-7.4-0.1-11.1-0.1
			C525.8,277.6,525.8,284.5,525.8,291.7z M444.2,291.7c5.4,0,10-4.9,10-10.7c0-5.8-4.5-10.7-9.9-10.7c-5.5,0-10.1,5-10.1,10.8
			C434.3,287,438.7,291.7,444.2,291.7z M511.7,291.7c5.5,0,10-4.9,10-10.7c0-5.8-4.5-10.7-9.9-10.7c-5.5,0-10.1,5-10.1,10.8
			C501.7,287,506.2,291.7,511.7,291.7z M401.5,274.8c-2.2-4.3-7.8-5.9-12.3-3.5c-5.1,2.8-7,9.7-4,15c3.2,5.8,8.2,6.7,15.1,2.7
			c0.8,0.6-0.7,2.8,1.7,2.4c0-3.4,0-6.8,0-10.2c-2.1,0-4.1,0-6.1,0c0,0.4,0,1,0,1c1.5,0.3,3,0.5,4.5,0.7c0.4,4-2,6.7-6.1,6.9
			c-3.8,0.2-7.1-2.3-8.2-6.3c-1.2-4.3,0.6-9,4.2-10.8c3.4-1.7,6.9-0.7,9.9,3C400.7,275.5,401.1,275.1,401.5,274.8z M422.8,274.8
			c-2.1-4.3-7.8-5.9-12.2-3.5c-5.2,2.8-7,9.8-4,15.2c3.2,5.7,8.4,6.6,15,2.6c0.7,0.6-0.6,2.9,1.9,2.4c0-1.8,0-3.5,0-5.2
			c0-1.7,0-3.4,0-5c-2.3,0-4.3,0-6.6,0c1.2,2.6,3.5,0.6,4.8,1.8c0.4,3.2,0.2,3.6-1.5,4.9c-4.4,3.5-10,2-12.3-3.2
			c-1.8-4.2-0.3-9.6,3.4-11.8c3.3-2,7.2-1,10,2.5c0.1,0.1,0.2,0.1,0.4,0.1C422,275.4,422.4,275.1,422.8,274.8z M482,274.8
			c-2.3-4.3-7.8-5.8-12.2-3.5c-5.1,2.7-7.1,9.4-4.3,14.8c1.3,2.5,3.2,4.3,5.9,5.2c3.6,1.2,6.6,0,9.4-2.5c0.3,2.6,0.3,2.6,1.7,2.6
			c0-3.4,0-6.7,0-10.1c-2.1,0-4.1,0-6.2,0c0,0.4,0,1.1,0.1,1.1c1.5,0.2,2.9,0.4,4.4,0.6c0.6,3.9-1.7,6.7-5.8,7
			c-5.5,0.4-9.9-5.3-8.5-11.1c0.8-3.2,2.5-5.8,6-6.6c3.3-0.7,6,0.3,8,3.2c0.1,0.1,0.2,0.1,0.4,0.3
			C481.1,275.5,481.5,275.2,482,274.8z M595.2,281.7c0.6-1.4,0.1-1.7-1.1-1.7c-3,0-5.9,0-8.8,0c0-2.8,0-5.2,0-7.8c3.6,0,7,0,10.4,0
			c1.3,0,1.8-0.4,1.3-1.6c-4.6,0-9.1,0-13.5,0c0,7.1,0,14,0,21c4.7,0,9.2,0,13.8,0c0.5-1.5-0.3-1.7-1.4-1.7c-3.5,0-6.9,0-10.5,0
			c0-2.9,0-5.4,0-8.2C588.7,281.7,592,281.7,595.2,281.7z M382.6,291.4c-0.6-1.4-1.1-2.7-1.6-3.9c-2.2-5.2-4.3-10.5-6.6-15.7
			c-0.2-0.5-0.8-1.1-1.3-1.3c-0.3-0.1-1.1,0.4-1.2,0.7c-2.9,6.7-5.7,13.5-8.5,20.3c2.8,0.9,2.7-1.5,3.2-2.8c1.6-3.7,1.6-3.3,5.4-3.8
			c4.6-0.6,7.2,0.9,8,5.4C380.3,291.5,381.2,292,382.6,291.4z M562.2,291.4c-2.8-6.7-5.6-13.4-8.4-20.1c-0.2-0.4-0.8-0.8-1.2-0.8
			c-0.4,0-1,0.5-1.2,0.8c-2.8,6.7-5.6,13.4-8.4,20.1c2.9,0.9,2.7-1.6,3.3-2.9c1.6-3.5,1.5-3.2,5.3-3.6c4.5-0.5,7.2,0.7,8.1,5.3
			C559.9,291.6,560.8,292,562.2,291.4z M300.6,270.7c2.8,6.8,5.6,13.5,8.5,20.3c0.2,0.4,0.9,0.8,1.2,0.7c0.5-0.1,1-0.6,1.2-1.1
			c2.1-5,4.2-10.1,6.3-15.1c0.6-1.6,1.3-3.1,1.9-4.7c-1.4-0.5-2.1,0-2.5,1.2c-2.2,5.7-4.6,11.3-7,17.3c-0.4-1-0.7-1.6-1-2.2
			c-2-5-4.1-10-6.1-15C302.7,270.6,302.1,270,300.6,270.7z M344.8,291.6c0.5-1.5-0.2-1.7-1.3-1.7c-2.9,0-5.8-0.1-8.7,0
			c-1.7,0.1-2.2-0.5-2.2-2.2c0.1-5.2,0-10.4,0.1-15.6c0-1.2-0.2-2.1-1.7-1.5c0,7,0,14,0,21C335.6,291.6,340.2,291.6,344.8,291.6z
			 M350.1,270.7c-1.7-0.6-1.9,0.2-1.9,1.4c0,6,0,12.1,0,18.1c0,0.5,0.1,0.9,0.2,1.4c4.7,0,9.3,0,13.9,0c0.2-1.1,0.2-1.8-1.2-1.7
			c-1.2,0.1-2.5,0-3.7,0c-2.4,0-4.8,0-7.4,0C350.1,283.2,350.1,276.9,350.1,270.7z M489.3,270.8c-0.2-0.2-0.4-0.4-0.6-0.6
			c-0.4,0.4-1.3,0.8-1.3,1.3c-0.1,6.6-0.1,13.3-0.1,20.1c4.8,0,9.4,0,14,0c0.1-1.6,0.1-1.6-1.1-1.6c-1.5,0-3.1,0-4.6,0
			c-2.1,0-4.2,0-6.5,0C489.3,283.3,489.3,277,489.3,270.8z M567.7,270.7c-1.7-0.6-1.9,0.1-1.9,1.3c0,4.2,0,8.3,0,12.5
			c0,2.3,0,4.7,0,7.1c4.9,0,9.5,0,14.1,0c0.6-1.6-0.3-1.7-1.5-1.7c-3.5,0-7,0-10.7,0C567.7,283.3,567.7,277,567.7,270.7z
			 M323.2,270.6c0,6.6,0,13.2,0,19.8c0,1.6,0.8,1.5,1.9,1c0-6.6,0-13.1,0-19.6C325.1,270.5,324.7,270.2,323.2,270.6z M430.1,270.6
			c-1.4-0.4-1.9,0-1.8,1.3c0,6.1,0,12.2,0,18.3c0,1.5,0.5,1.8,1.8,1.2C430.1,284.5,430.1,277.6,430.1,270.6z M414.5,94.8
			c-0.2,0.1-0.4,0.1-0.6,0.2c-0.1,0.8-0.5,1.6-0.3,2.2c1.4,4.3,2.9,8.6,4.5,12.8c0.1,0.4,0.8,0.6,1.2,0.9c-0.8-4.9-1.9-9.3-3.2-13.8
			C415.9,96.3,415,95.6,414.5,94.8z"/>
		<path d="M268,61.8c4.1,18.2,8.2,36.5,12.4,54.7c0.2,0,0.3,0.1,0.5,0.1c0.5-0.9,1.2-1.8,1.6-2.8c3.7-8.6,8.2-16.6,14.4-23.6
			c5.3-6,11-11.5,19-13.5c10.2-2.6,18.9,0.3,25.8,8.1c6.5,7.4,10.8,16,12.4,25.8c1.4,8.3,1.6,16.7-2,24.6c-2.3,5.2-6,9.1-11.3,11.4
			c-2.5,1.1-5.1,2.1-7.9,3.4c2.5,3.6,4.9,7.2,7.5,10.7c3.6,4.8,7.3,9.4,12.2,13c6,4.3,12.6,5.2,19.7,4.1c7.1-1.2,13.6-3.7,19.7-7.6
			c4.6-3,9.2-0.9,10.4,4.6c1.1,4.8,2,9.7,3,14.5c1.5,8,3.4,15.8,8.5,22.4c1.1,1.4,2.5,2.6,3.9,3.7c2.3,1.8,4.6,1.2,6-1.5
			c0.6-1.1,1.1-2.3,1.9-3.4c0.6,4.1,1.5,8.2-0.1,12.1c-2.3,5.7-7.9,7.3-13.1,3.7c-6.6-4.6-11.1-10.9-13.2-18.6
			c-2.1-7.7-3.5-15.5-5.1-23.3c-0.2-0.8-0.3-1.6-0.6-2.7c-0.6,0.3-1.1,0.6-1.5,1c-7.6,5.2-16.1,7.7-25.2,7.6
			c-12.3-0.1-22.2-5.4-29.4-15.4c-6-8.5-11.7-17.2-17.5-25.8c-1.5-2.2-3-4.3-4.2-6.6c-1.1-2.2,0-4.2,1.7-5.7
			c1.6-1.5,3.4-1.4,5.4-0.7c4.1,1.5,8.4,2.5,12.7,1.2c5.1-1.6,7.6-5.6,8.5-10.6c2.5-13.4-1.6-25-10.5-34.9c-6-6.7-16.6-6.4-23.7,0.2
			c-11.3,10.5-18.6,23.3-21.5,38.4c-1.2,6.3-2.4,12.6-2.8,19c-0.3,4.7,0.7,9.5,1.1,14.2c0.5,5,1.3,9.9,1.5,14.8c0.5,9,0.9,18,0.8,27
			c-0.1,10.2-0.7,20.4-1.2,30.6c-0.1,3-2.7,5.9-5.3,6.2c-2.4,0.2-5.1-2-6-4.9c-1.9-6.5-2.9-13-3-19.8c-0.3-15.1-1.1-30.2-1.1-45.3
			c0-10.6,0.6-21.2,3-31.7c1.3-5.7,1.1-11.7,0.3-17.5c-1-7.1-1.9-14.3-3-21.5c-1.3-8.5-2.7-17-4-25.5c-0.6-3.8-1.2-7.6-1.7-11.4
			c-0.1-1,0.1-2,0.1-3C267.5,61.8,267.7,61.8,268,61.8z"/>
		<path d="M504.6,164.4c-0.8-0.4-1.7-0.8-2.5-1.3c-2.5-1.4-4-1.3-5.9,0.8c-4.1,4.6-5.7,10.1-5.1,16.3c0.3,3.3,1.3,6.3,3.4,9
			c3,3.8,7.6,5.2,12.2,3.9c3.8-1.1,7-3.1,9.5-6c2.3-2.7,4.9-3.9,8.3-3.6c0.7,0.1,1.4,0,2.2,0c0.3-2.2,0.3-4.2,0.8-6.2
			c1.6-7.3,10.7-12.2,16.9-9.1c3.9,1.9,6.3,6.3,5.3,10.4c-1,4.3-2.9,7.7-6.8,9.8c-0.4,0.2-0.8,0.5-1.2,0.8c-0.3,0.2-0.7,0.5-1.2,0.8
			c4.8,3.7,9.6,6.6,15.3,7.6c5.9,1.1,11.7,2.7,17.6,3.2c13.3,1,26.1-0.4,37.2-8.8c4.8-3.7,8.4-8.4,11.1-13.8c1.2-2.4,2.6-4.7,4.1-7
			c0.5-0.8,1.8-1.9,2.5-1.7c1,0.2,2.2,1.3,2.6,2.2c1.6,3.9,0.9,7.8-0.9,11.6c-6.4,13.5-17,21.7-31.4,25.1
			c-7.3,1.7-14.8,2.8-22.3,2.5c-7.2-0.2-14.1-1.9-21.1-3.8c-9.5-2.6-17.5-7.2-24.2-14.5c-2-2.1-5.5-3.1-8.5-3.9
			c-1-0.3-2.9,1.2-3.9,2.3c-2.7,3-5.4,6-9.4,7.2c-5.6,1.8-11.1,1.9-15.9-2.1c-3.6-3-5.2-7.2-6-11.7c-1.3-7.4,1-14,5.5-19.7
			c1.4-1.7,3.4-3.1,5.3-4.1C500.7,159.1,503.5,160.8,504.6,164.4z M535.2,182.9c2.6-0.9,5-1.9,6.4-4.4c1.1-2,0.3-3.4-2-3.4
			c-2,0-3.6,0.9-4.6,2.6C534,179.4,533.8,181.1,535.2,182.9z"/>
		<path d="M463.3,193.1c-3.7,2.4-7,4.6-10.4,6.6c-1.6,1-3.4,1.9-5.3,2.2c-5.2,0.8-8.6-2-9.3-7.3c-1.6-10.8,7.7-21.3,15.5-22.9
			c4.3-0.9,7.5-0.6,10.2,4.3c0.4,0.8,1.2,1.8,2,2c4.9,1.2,5.8,4.9,6.1,9.2c0.6,7.7,1.5,15.4,2,23.1c0.1,1.7-0.3,3.6-1,5.2
			c-0.8,2-3,2.7-5.3,2.4c-2-0.3-2.8-1.7-3.1-3.4c-0.6-3.1-1.1-6.3-1.3-9.4C463.2,201.3,463.3,197.4,463.3,193.1z M447.2,192.9
			c1.9-1.5,3.7-3,5.6-4.5c2.7-2.2,5.6-4.3,8.2-6.7c0.9-0.8,1.7-2.6,1.4-3.4c-0.5-1.1-2.2-2.3-3.4-2.3c-1.9,0-4.1,0.6-5.8,1.6
			c-4.6,2.8-6.6,7.3-7.4,12.5C445.6,191.3,445.2,192.5,447.2,192.9z"/>
		<path d="M525.8,291.7c0-7.2,0-14.1,0-21.1c3.7,0,7.5-0.4,11.1,0.1c3.6,0.5,4.9,5.8,2.4,8.7c-0.4,0.5-0.8,0.9-1.1,1.2
			c0.9,0.9,2.1,1.8,2.7,3c1.9,3.6-0.3,7.5-4.6,8.1c-0.7,0.1-1.4,0.1-2.1,0.1C531.5,291.7,528.7,291.7,525.8,291.7z M527.6,281.7
			c0,2.5-0.1,4.8,0.1,7c0,0.4,0.8,1.1,1.3,1.1c2.3,0.1,4.6,0.1,6.8,0c2.2-0.1,3.8-1.9,3.8-4.2c0-2.2-1.6-3.9-3.9-4
			C533.1,281.7,530.5,281.7,527.6,281.7z M527.7,280c2.7,0,5.3,0.1,7.8,0c2-0.1,3.2-1.9,3.2-3.9c0-1.9-1.3-3.7-3.1-3.8
			c-2.6-0.1-5.2,0-7.9,0C527.7,274.9,527.7,277.3,527.7,280z"/>
		<path d="M444.2,291.7c-5.5,0-10-4.7-10-10.6c-0.1-5.8,4.6-10.8,10.1-10.8c5.4,0,9.9,4.9,9.9,10.7
			C454.2,286.8,449.7,291.7,444.2,291.7z M436.3,281.1c0,5,3.5,8.9,8,8.8c4.4,0,7.9-4,7.9-9c0-5-3.5-8.9-8-8.8
			C439.7,272.2,436.2,276.1,436.3,281.1z"/>
		<path d="M511.7,291.7c-5.5,0-10-4.7-10-10.6c-0.1-5.8,4.6-10.8,10.1-10.8c5.4,0,9.9,4.9,9.9,10.7
			C521.7,286.9,517.1,291.7,511.7,291.7z M503.8,281.1c0,5,3.5,8.9,8,8.9c4.4,0,7.9-4,7.9-9c0-5-3.5-8.9-8-8.8
			C507.2,272.1,503.7,276.1,503.8,281.1z"/>
		<path d="M401.5,274.8c-0.4,0.3-0.9,0.6-1.3,1c-3-3.6-6.5-4.7-9.9-3c-3.5,1.8-5.4,6.6-4.2,10.8c1.1,4,4.3,6.5,8.2,6.3
			c4.1-0.2,6.4-2.9,6.1-6.9c-1.5-0.2-3-0.4-4.5-0.7c-0.1,0,0-0.6,0-1c2.1,0,4,0,6.1,0c0,3.5,0,6.8,0,10.2c-2.5,0.4-0.9-1.8-1.7-2.4
			c-6.9,4-11.9,3.1-15.1-2.7c-2.9-5.4-1.1-12.3,4-15C393.7,269,399.3,270.5,401.5,274.8z"/>
		<path d="M422.8,274.8c-0.4,0.3-0.7,0.6-1.1,0.8c-0.2-0.1-0.3-0.1-0.4-0.1c-2.8-3.5-6.7-4.5-10-2.5c-3.7,2.2-5.2,7.6-3.4,11.8
			c2.3,5.3,7.9,6.8,12.3,3.2c1.7-1.4,1.8-1.8,1.5-4.9c-1.3-1.2-3.7,0.8-4.8-1.8c2.3,0,4.3,0,6.6,0c0,1.6,0,3.3,0,5
			c0,1.7,0,3.3,0,5.2c-2.5,0.4-1.1-1.8-1.9-2.4c-6.6,4-11.8,3.1-15-2.6c-3.1-5.4-1.2-12.4,4-15.2C415,269,420.7,270.5,422.8,274.8z"
			/>
		<path d="M482,274.8c-0.5,0.3-0.9,0.6-1.2,0.9c-0.2-0.1-0.3-0.2-0.4-0.3c-1.9-2.9-4.7-3.9-8-3.2c-3.4,0.7-5.2,3.3-6,6.6
			c-1.4,5.9,2.9,11.5,8.5,11.1c4.1-0.3,6.5-3.1,5.8-7c-1.4-0.2-2.9-0.3-4.4-0.6c-0.1,0-0.1-0.6-0.1-1.1c2.1,0,4,0,6.2,0
			c0,3.4,0,6.8,0,10.1c-1.3,0-1.3,0-1.7-2.6c-2.8,2.5-5.8,3.6-9.4,2.5c-2.7-0.9-4.6-2.7-5.9-5.2c-2.8-5.3-0.8-12.1,4.3-14.8
			C474.2,269,479.6,270.5,482,274.8z"/>
		<path d="M595.2,281.7c-3.3,0-6.6,0-10,0c0,2.8,0,5.4,0,8.2c3.6,0,7,0,10.5,0c1.1,0,2,0.1,1.4,1.7c-4.6,0-9.1,0-13.8,0
			c0-7,0-13.9,0-21c4.5,0,8.9,0,13.5,0c0.5,1.2,0,1.6-1.3,1.6c-3.4,0-6.8,0-10.4,0c0,2.6,0,5,0,7.8c2.9,0,5.9,0,8.8,0
			C595.3,279.9,595.8,280.3,595.2,281.7z"/>
		<path d="M382.6,291.4c-1.5,0.6-2.3,0.1-2.6-1.1c-0.9-4.6-3.5-6-8-5.4c-3.8,0.5-3.8,0.1-5.4,3.8c-0.6,1.3-0.5,3.7-3.2,2.8
			c2.8-6.8,5.6-13.5,8.5-20.3c0.2-0.4,0.9-0.8,1.2-0.7c0.5,0.2,1.1,0.7,1.3,1.3c2.2,5.2,4.4,10.5,6.6,15.7
			C381.5,288.8,382.1,290,382.6,291.4z M373.1,272.7c-1.6,3.8-2.9,7.1-4.3,10.6c2.9,0,5.6,0,8.6,0
			C375.9,279.8,374.6,276.5,373.1,272.7z"/>
		<path d="M562.2,291.4c-1.5,0.7-2.4,0.2-2.6-1.1c-0.8-4.7-3.6-5.9-8.1-5.3c-3.7,0.4-3.7,0.1-5.3,3.6c-0.6,1.3-0.4,3.8-3.3,2.9
			c2.8-6.7,5.6-13.5,8.4-20.1c0.2-0.4,0.8-0.8,1.2-0.8c0.4,0,1,0.4,1.2,0.8C556.6,277.9,559.4,284.7,562.2,291.4z M556.9,283.2
			c-1.4-3.5-2.8-6.8-4.3-10.5c-1.5,3.8-2.9,7.1-4.3,10.5C551.3,283.2,554,283.2,556.9,283.2z"/>
		<path d="M300.6,270.7c1.5-0.6,2.1,0,2.6,1.2c2,5,4.1,10,6.1,15c0.3,0.6,0.5,1.2,1,2.2c2.4-6,4.8-11.6,7-17.3
			c0.5-1.2,1.1-1.7,2.5-1.2c-0.6,1.6-1.3,3.2-1.9,4.7c-2.1,5.1-4.2,10.1-6.3,15.1c-0.2,0.5-0.7,1-1.2,1.1c-0.3,0.1-1.1-0.3-1.2-0.7
			C306.2,284.2,303.4,277.4,300.6,270.7z"/>
		<path d="M344.8,291.6c-4.7,0-9.2,0-13.9,0c0-7,0-14,0-21c1.6-0.6,1.7,0.2,1.7,1.5c0,5.2,0.1,10.4-0.1,15.6c0,1.7,0.5,2.3,2.2,2.2
			c2.9-0.1,5.8,0,8.7,0C344.7,289.9,345.3,290.1,344.8,291.6z"/>
		<path d="M350.1,270.7c0,6.3,0,12.6,0,19.2c2.6,0,5,0,7.4,0c1.2,0,2.5,0.1,3.7,0c1.4-0.1,1.4,0.6,1.2,1.7c-4.7,0-9.2,0-13.9,0
			c-0.1-0.5-0.2-0.9-0.2-1.4c0-6,0-12.1,0-18.1C348.2,270.9,348.4,270,350.1,270.7z"/>
		<path d="M489.3,270.8c0,6.2,0,12.5,0,19.1c2.2,0,4.3,0,6.5,0c1.5,0,3.1,0,4.6,0c1.2,0,1.2,0.1,1.1,1.6c-4.6,0-9.2,0-14,0
			c0-6.8,0-13.4,0.1-20.1c0-0.4,0.8-0.9,1.3-1.3C488.9,270.4,489.1,270.6,489.3,270.8z"/>
		<path d="M567.7,270.7c0,6.3,0,12.6,0,19.2c3.7,0,7.2,0,10.7,0c1.1,0,2,0.1,1.5,1.7c-4.6,0-9.2,0-14.1,0c0-2.4,0-4.7,0-7.1
			c0-4.2,0-8.3,0-12.5C565.7,270.8,565.9,270.1,567.7,270.7z"/>
		<path d="M323.2,270.6c1.4-0.5,1.9-0.1,1.9,1.2c0,6.5,0,13,0,19.6c-1.1,0.5-1.9,0.6-1.9-1C323.2,283.8,323.2,277.3,323.2,270.6z"/>
		<path d="M430.1,270.6c0,7,0,13.9,0,20.8c-1.3,0.6-1.9,0.3-1.8-1.2c0-6.1,0-12.2,0-18.3C428.2,270.6,428.7,270.2,430.1,270.6z"/>
		<path d="M414.5,94.8c0.6,0.8,1.4,1.5,1.6,2.4c1.3,4.4,2.4,8.9,3.2,13.8c-0.4-0.3-1.1-0.5-1.2-0.9c-1.6-4.3-3.1-8.5-4.5-12.8
			c-0.2-0.6,0.2-1.5,0.3-2.2C414.1,94.9,414.3,94.9,414.5,94.8z"/>
		<path class="st0" d="M535.2,182.9c-1.4-1.8-1.2-3.5-0.2-5.2c1-1.7,2.6-2.6,4.6-2.6c2.3,0,3.1,1.4,2,3.4
			C540.2,181,537.8,182,535.2,182.9z"/>
		<path class="st0" d="M447.2,192.9c-2.1-0.4-1.7-1.5-1.4-2.8c0.8-5.2,2.8-9.7,7.4-12.5c1.7-1,3.8-1.6,5.8-1.6
			c1.2,0,2.8,1.2,3.4,2.3c0.4,0.8-0.5,2.6-1.4,3.4c-2.6,2.4-5.4,4.5-8.2,6.7C451,189.9,449.1,191.4,447.2,192.9z"/>
		<path class="st0" d="M527.6,281.7c2.9,0,5.5,0,8,0c2.3,0,3.9,1.7,3.9,4c0,2.2-1.5,4.1-3.8,4.2c-2.3,0.1-4.6,0.1-6.8,0
			c-0.5,0-1.2-0.7-1.3-1.1C527.5,286.5,527.6,284.2,527.6,281.7z"/>
		<path class="st0" d="M527.7,280c0-2.7,0-5.2,0-7.9c2.7,0,5.3-0.1,7.9,0c1.8,0.1,3.1,1.9,3.1,3.8c0,2-1.2,3.8-3.2,3.9
			C533,280.2,530.4,280,527.7,280z"/>
		<path class="st0" d="M436.3,281.1c0-5,3.4-9,7.8-9c4.5,0,8,3.8,8,8.8c0,5-3.5,9-7.9,9C439.8,290,436.3,286.1,436.3,281.1z"/>
		<path class="st0" d="M503.8,281.1c0-5,3.4-8.9,7.8-9c4.5,0,8,3.9,8,8.8c0,5-3.5,9-7.9,9C507.3,290,503.8,286.1,503.8,281.1z"/>
		<path class="st0" d="M373.1,272.7c1.5,3.8,2.9,7.1,4.3,10.6c-3,0-5.7,0-8.6,0C370.1,279.8,371.5,276.5,373.1,272.7z"/>
		<path class="st0" d="M556.9,283.2c-2.9,0-5.6,0-8.6,0c1.4-3.4,2.8-6.8,4.3-10.5C554.2,276.5,555.5,279.8,556.9,283.2z"/>
	</g>
</g>
</svg>
